M48
METRIC,LZ,000.000
;FILE_FORMAT=3:3
;TYPE=PLATED
;Layer: PTH_Through
;EasyEDA v6.5.40, 2024-03-19 00:07:40
;3cfb54e61b884618aacb5dd00d766781,92418ead495845dc98574c5a0a119f62,10
;Gerber Generator version 0.2
;Holesize 1 = 0.301 mm
T01C0.301
;Holesize 2 = 0.501 mm
T02C0.501
;Holesize 3 = 1.000 mm
T03C1.000
;Holesize 4 = 1.050 mm
T04C1.050
%
G05
G90
T01
X050000Y048000
X054000Y048000
X056300Y049100
X051400Y044800
X011800Y030000
X008700Y025000
X003299Y017399
X003299Y015900
X008900Y012100
X010000Y009900
X003300Y011300
X008900Y020900
X004200Y021500
X007300Y009300
X016300Y020000
X016500Y021000
X017600Y021000
X016200Y015999
X017201Y015999
X018199Y015999
X017800Y014500
X014600Y014500
X017989Y011098
X018000Y007700
X019600Y007700
X018900Y014400
X019900Y017100
X016700Y010000
X016000Y010700
X031600Y019600
X030400Y022800
X028900Y010500
X027600Y013600
X032645Y021693
X029945Y012524
X027300Y004399
X023200Y005300
X026100Y007400
X028345Y006388
X029200Y021000
X026500Y011800
X024900Y005700
X020300Y014300
X047300Y030701
X046299Y030701
X045300Y030700
X047000Y029299
X045999Y029299
X045000Y029300
X044000Y029299
X043100Y029300
X045400Y035300
X046300Y035100
X047000Y034300
X046200Y025500
X045400Y024900
X044400Y025100
X043300Y025000
X043000Y025900
X062900Y028700
X062901Y027600
X062900Y009300
X062901Y010399
X062901Y011600
X062900Y012800
X062900Y017300
X062901Y018400
X062901Y019601
X062900Y020700
X062901Y026401
X062900Y025300
X035900Y034900
X036300Y034000
X010600Y036500
X013600Y039500
X047200Y038500
X024800Y011500
X027500Y020600
T02
X004600Y048300
X003500Y048300
X032400Y049200
X032400Y047900
X009100Y040100
X009100Y039000
X009100Y037900
X016400Y037700
X017800Y037700
X019200Y037700
X003900Y046700
X010400Y045900
X009144Y045900
X020700Y046200
X021900Y046200
X012200Y032400
X060300Y048200
X052900Y043400
X018700Y036300
X030600Y035900
X037400Y038300
X053200Y027600
X053200Y026500
X042700Y032900
X042700Y034100
X039200Y034100
X039200Y032900
T03
X056630Y051230
X056630Y053770
X054090Y051230
X054090Y053770
X051550Y051230
X051550Y053770
X049010Y051230
X049010Y053770
X046470Y051230
X046470Y053770
X043930Y051230
X043930Y053770
X041390Y051230
X041390Y053770
X038850Y051230
X038850Y053770
X036310Y051230
X036310Y053770
X033770Y051230
X033770Y053770
X031230Y051230
X031230Y053770
X028690Y051230
X028690Y053770
X026150Y051230
X026150Y053770
X023610Y051230
X023610Y053770
X021070Y051230
X021070Y053770
X018530Y051230
X018530Y053770
X015990Y051230
X015990Y053770
X013450Y051230
X013450Y053770
X010910Y051230
X010910Y053770
X008370Y051230
X008370Y053770
X007250Y030000
X002750Y030000
X007250Y026000
X002750Y026000
X022500Y043500
X022500Y039500
X032500Y043500
X032500Y039500
X042500Y043500
X042500Y039500
T04
X023190Y028000
X025730Y028000
X028270Y028000
X030810Y028000
M30
