G04 Layer: InnerLayer2*
G04 EasyEDA v6.5.40, 2024-03-19 00:07:40*
G04 3cfb54e61b884618aacb5dd00d766781,92418ead495845dc98574c5a0a119f62,10*
G04 Gerber Generator version 0.2*
G04 Scale: 100 percent, Rotated: No, Reflected: No *
G04 Dimensions in millimeters *
G04 leading zeros omitted , absolute positions ,4 integer and 5 decimal *
%FSLAX45Y45*%
%MOMM*%

%AMMACRO1*21,1,$1,$2,0,0,$3*%
%ADD10C,1.2000*%
%ADD11C,0.2000*%
%ADD12C,1.6000*%
%ADD13MACRO1,1.6X1.6X0.0000*%
%ADD14C,1.8000*%
%ADD15C,0.9000*%
%ADD16C,0.7000*%
%ADD17C,0.0188*%

%LPD*%
G36*
X300786Y50495D02*
G01*
X280009Y51358D01*
X260604Y53695D01*
X241401Y57556D01*
X222554Y62890D01*
X204165Y69697D01*
X186385Y77927D01*
X169316Y87528D01*
X153060Y98399D01*
X137668Y110591D01*
X123342Y123901D01*
X110032Y138277D01*
X97942Y153720D01*
X87122Y169976D01*
X77571Y187096D01*
X69392Y204927D01*
X62636Y223316D01*
X57353Y242163D01*
X53543Y261366D01*
X51308Y280822D01*
X50495Y301142D01*
X50495Y5298846D01*
X51358Y5319979D01*
X53695Y5339384D01*
X57556Y5358587D01*
X62890Y5377434D01*
X69697Y5395823D01*
X77927Y5413603D01*
X87528Y5430672D01*
X98399Y5446928D01*
X110591Y5462320D01*
X123901Y5476646D01*
X138277Y5489956D01*
X153720Y5502046D01*
X169976Y5512866D01*
X187096Y5522417D01*
X204927Y5530596D01*
X223316Y5537352D01*
X242163Y5542635D01*
X261366Y5546445D01*
X280822Y5548680D01*
X301142Y5549493D01*
X6198819Y5549493D01*
X6219952Y5548630D01*
X6239408Y5546293D01*
X6258610Y5542432D01*
X6277457Y5537098D01*
X6295796Y5530291D01*
X6313576Y5522061D01*
X6330645Y5512460D01*
X6346952Y5501589D01*
X6362293Y5489397D01*
X6376670Y5476087D01*
X6389928Y5461711D01*
X6402019Y5446268D01*
X6412890Y5430012D01*
X6422440Y5412892D01*
X6430619Y5395061D01*
X6437376Y5376672D01*
X6442659Y5357825D01*
X6446418Y5338622D01*
X6448704Y5319166D01*
X6449364Y5299506D01*
X6449415Y298958D01*
X6448653Y280009D01*
X6446316Y260604D01*
X6442456Y241401D01*
X6437122Y222554D01*
X6430314Y204165D01*
X6422085Y186385D01*
X6412484Y169316D01*
X6401562Y153060D01*
X6389420Y137668D01*
X6376111Y123342D01*
X6361684Y110032D01*
X6346291Y97942D01*
X6329984Y87122D01*
X6312865Y77571D01*
X6295085Y69392D01*
X6276695Y62636D01*
X6257848Y57353D01*
X6238595Y53543D01*
X6219139Y51308D01*
X6198819Y50495D01*
X4802124Y50495D01*
X4792268Y51257D01*
X4785410Y52882D01*
X4778857Y55422D01*
X4772710Y58877D01*
X4767122Y63195D01*
X4762246Y68224D01*
X4758080Y73964D01*
X4754829Y80162D01*
X4752441Y86817D01*
X4751070Y93675D01*
X4750511Y102108D01*
X4750511Y2199843D01*
X4749546Y2216099D01*
X4748631Y2223160D01*
X4746142Y2235504D01*
X4744313Y2242362D01*
X4740249Y2254250D01*
X4737557Y2260803D01*
X4731969Y2272080D01*
X4728413Y2278278D01*
X4721453Y2288692D01*
X4717135Y2294331D01*
X4708804Y2303830D01*
X4703826Y2308809D01*
X4694326Y2317140D01*
X4688687Y2321458D01*
X4678273Y2328418D01*
X4672076Y2331974D01*
X4660798Y2337562D01*
X4654245Y2340254D01*
X4642358Y2344318D01*
X4635500Y2346147D01*
X4623155Y2348636D01*
X4616094Y2349550D01*
X4599838Y2350465D01*
X4396587Y2350363D01*
X4383887Y2349550D01*
X4376826Y2348636D01*
X4364482Y2346147D01*
X4357624Y2344318D01*
X4345736Y2340254D01*
X4339183Y2337562D01*
X4327906Y2331974D01*
X4321708Y2328418D01*
X4311294Y2321458D01*
X4305655Y2317140D01*
X4296156Y2308809D01*
X4291177Y2303830D01*
X4282846Y2294331D01*
X4278528Y2288692D01*
X4271568Y2278278D01*
X4268012Y2272080D01*
X4262424Y2260803D01*
X4259732Y2254250D01*
X4255668Y2242362D01*
X4253839Y2235504D01*
X4251350Y2223160D01*
X4250436Y2216099D01*
X4249521Y2199843D01*
X4249521Y102108D01*
X4248708Y92252D01*
X4247134Y85394D01*
X4244543Y78841D01*
X4241088Y72745D01*
X4236770Y67157D01*
X4231741Y62230D01*
X4226052Y58115D01*
X4219803Y54813D01*
X4213199Y52476D01*
X4206290Y51054D01*
X4197858Y50495D01*
G37*

%LPC*%
G36*
X345643Y186639D02*
G01*
X363067Y187096D01*
X380288Y189433D01*
X397205Y193548D01*
X413562Y199440D01*
X429209Y207060D01*
X443941Y216255D01*
X457606Y227025D01*
X470052Y239166D01*
X481177Y252526D01*
X490778Y267055D01*
X498805Y282448D01*
X505155Y298653D01*
X509727Y315468D01*
X512470Y332638D01*
X513384Y349961D01*
X512470Y367334D01*
X509727Y384505D01*
X505155Y401320D01*
X498805Y417525D01*
X490778Y432917D01*
X481177Y447446D01*
X470052Y460806D01*
X457606Y472948D01*
X443941Y483666D01*
X429209Y492912D01*
X413562Y500532D01*
X397205Y506425D01*
X380288Y510540D01*
X363067Y512876D01*
X345643Y513334D01*
X328320Y511911D01*
X311251Y508711D01*
X294589Y503682D01*
X278536Y496925D01*
X263347Y488492D01*
X249123Y478485D01*
X236016Y467055D01*
X224231Y454253D01*
X213867Y440334D01*
X205028Y425348D01*
X197815Y409498D01*
X192379Y392988D01*
X188722Y375970D01*
X186842Y358698D01*
X186842Y341274D01*
X188722Y324002D01*
X192379Y306984D01*
X197815Y290474D01*
X205028Y274624D01*
X213867Y259638D01*
X224231Y245719D01*
X236016Y232917D01*
X249123Y221488D01*
X263347Y211480D01*
X278536Y203047D01*
X294589Y196291D01*
X311251Y191262D01*
X328320Y188061D01*
G37*
G36*
X6145631Y186639D02*
G01*
X6163056Y187096D01*
X6180277Y189433D01*
X6197193Y193548D01*
X6213551Y199440D01*
X6229197Y207060D01*
X6243929Y216255D01*
X6257594Y227025D01*
X6270040Y239166D01*
X6281166Y252526D01*
X6290767Y267055D01*
X6298793Y282448D01*
X6305143Y298653D01*
X6309715Y315468D01*
X6312458Y332638D01*
X6313373Y349961D01*
X6312458Y367334D01*
X6309715Y384505D01*
X6305143Y401320D01*
X6298793Y417525D01*
X6290767Y432917D01*
X6281166Y447446D01*
X6270040Y460806D01*
X6257594Y472948D01*
X6243929Y483666D01*
X6229197Y492912D01*
X6213551Y500532D01*
X6197193Y506425D01*
X6180277Y510540D01*
X6163056Y512876D01*
X6145631Y513334D01*
X6128308Y511911D01*
X6111240Y508711D01*
X6094577Y503682D01*
X6078524Y496925D01*
X6063335Y488492D01*
X6049111Y478485D01*
X6036005Y467055D01*
X6024219Y454253D01*
X6013856Y440334D01*
X6005017Y425348D01*
X5997803Y409498D01*
X5992368Y392988D01*
X5988710Y375970D01*
X5986830Y358698D01*
X5986830Y341274D01*
X5988710Y324002D01*
X5992368Y306984D01*
X5997803Y290474D01*
X6005017Y274624D01*
X6013856Y259638D01*
X6024219Y245719D01*
X6036005Y232917D01*
X6049111Y221488D01*
X6063335Y211480D01*
X6078524Y203047D01*
X6094577Y196291D01*
X6111240Y191262D01*
X6128308Y188061D01*
G37*
G36*
X1528521Y265176D02*
G01*
X1546606Y266547D01*
X1564386Y269798D01*
X1581810Y274878D01*
X1598574Y281686D01*
X1614525Y290220D01*
X1629562Y300329D01*
X1643481Y311912D01*
X1656130Y324866D01*
X1667357Y339090D01*
X1677060Y354380D01*
X1685188Y370535D01*
X1691538Y387502D01*
X1696161Y405028D01*
X1698955Y422909D01*
X1699869Y440994D01*
X1698955Y459079D01*
X1696161Y476961D01*
X1691538Y494487D01*
X1685188Y511454D01*
X1677060Y527608D01*
X1667357Y542899D01*
X1656130Y557123D01*
X1643481Y570077D01*
X1629562Y581660D01*
X1614525Y591769D01*
X1598574Y600303D01*
X1581810Y607110D01*
X1564386Y612190D01*
X1546606Y615442D01*
X1528521Y616813D01*
X1510436Y616356D01*
X1492453Y614019D01*
X1474825Y609904D01*
X1457756Y603910D01*
X1441348Y596239D01*
X1425803Y586943D01*
X1411325Y576072D01*
X1398016Y563778D01*
X1386078Y550164D01*
X1375562Y535381D01*
X1366672Y519633D01*
X1359408Y503021D01*
X1353921Y485800D01*
X1350213Y468071D01*
X1348333Y450037D01*
X1348333Y431952D01*
X1350213Y413918D01*
X1353921Y396189D01*
X1359408Y378968D01*
X1366672Y362356D01*
X1375562Y346608D01*
X1386078Y331825D01*
X1398016Y318211D01*
X1411325Y305917D01*
X1425803Y295046D01*
X1441348Y285750D01*
X1457756Y278079D01*
X1474825Y272084D01*
X1492453Y267970D01*
X1510436Y265633D01*
G37*
G36*
X3878021Y265176D02*
G01*
X3896106Y266547D01*
X3913886Y269798D01*
X3931310Y274878D01*
X3948074Y281686D01*
X3964025Y290220D01*
X3979062Y300329D01*
X3992981Y311912D01*
X4005630Y324866D01*
X4016857Y339090D01*
X4026560Y354380D01*
X4034688Y370535D01*
X4041038Y387502D01*
X4045661Y405028D01*
X4048455Y422909D01*
X4049369Y440994D01*
X4048455Y459079D01*
X4045661Y476961D01*
X4041038Y494487D01*
X4034688Y511454D01*
X4026560Y527608D01*
X4016857Y542899D01*
X4005630Y557123D01*
X3992981Y570077D01*
X3979062Y581660D01*
X3964025Y591769D01*
X3948074Y600303D01*
X3931310Y607110D01*
X3913886Y612190D01*
X3896106Y615442D01*
X3878021Y616813D01*
X3859936Y616356D01*
X3841953Y614019D01*
X3824325Y609904D01*
X3807256Y603910D01*
X3790848Y596239D01*
X3775303Y586943D01*
X3760825Y576072D01*
X3747515Y563778D01*
X3735578Y550164D01*
X3725062Y535381D01*
X3716172Y519633D01*
X3708908Y503021D01*
X3703421Y485800D01*
X3699713Y468071D01*
X3697833Y450037D01*
X3697833Y431952D01*
X3699713Y413918D01*
X3703421Y396189D01*
X3708908Y378968D01*
X3716172Y362356D01*
X3725062Y346608D01*
X3735578Y331825D01*
X3747515Y318211D01*
X3760825Y305917D01*
X3775303Y295046D01*
X3790848Y285750D01*
X3807256Y278079D01*
X3824325Y272084D01*
X3841953Y267970D01*
X3859936Y265633D01*
G37*
G36*
X2724962Y379272D02*
G01*
X2735021Y379272D01*
X2744927Y380898D01*
X2754426Y384200D01*
X2763266Y388975D01*
X2771241Y395122D01*
X2778048Y402539D01*
X2783535Y410972D01*
X2787548Y420166D01*
X2790037Y429920D01*
X2790850Y439928D01*
X2790037Y449935D01*
X2787548Y459689D01*
X2783535Y468884D01*
X2778048Y477316D01*
X2771241Y484733D01*
X2763266Y490880D01*
X2754426Y495655D01*
X2744927Y498957D01*
X2735021Y500583D01*
X2724962Y500583D01*
X2715056Y498957D01*
X2705557Y495655D01*
X2696718Y490880D01*
X2688742Y484733D01*
X2681935Y477316D01*
X2676448Y468884D01*
X2672435Y459689D01*
X2669946Y449935D01*
X2669133Y439928D01*
X2669946Y429920D01*
X2672435Y420166D01*
X2676448Y410972D01*
X2681935Y402539D01*
X2688742Y395122D01*
X2696718Y388975D01*
X2705557Y384200D01*
X2715056Y380898D01*
G37*
G36*
X2314956Y469341D02*
G01*
X2325014Y469341D01*
X2334920Y470966D01*
X2344420Y474268D01*
X2353259Y479043D01*
X2361234Y485190D01*
X2368042Y492607D01*
X2373528Y501040D01*
X2377541Y510235D01*
X2380030Y519988D01*
X2380843Y529996D01*
X2380030Y540004D01*
X2377541Y549757D01*
X2373528Y558952D01*
X2368042Y567385D01*
X2361234Y574802D01*
X2353259Y580948D01*
X2344420Y585724D01*
X2334920Y589026D01*
X2325014Y590651D01*
X2314956Y590651D01*
X2305050Y589026D01*
X2295550Y585724D01*
X2286711Y580948D01*
X2278735Y574802D01*
X2271928Y567385D01*
X2266442Y558952D01*
X2262428Y549757D01*
X2259939Y540004D01*
X2259126Y529996D01*
X2259939Y519988D01*
X2262428Y510235D01*
X2266442Y501040D01*
X2271928Y492607D01*
X2278735Y485190D01*
X2286711Y479043D01*
X2295550Y474268D01*
X2305050Y470966D01*
G37*
G36*
X2484983Y509320D02*
G01*
X2494991Y509320D01*
X2504948Y510997D01*
X2514447Y514248D01*
X2523286Y519023D01*
X2531211Y525221D01*
X2538018Y532587D01*
X2543505Y541020D01*
X2547569Y550214D01*
X2550007Y559968D01*
X2550871Y569976D01*
X2550007Y580034D01*
X2547569Y589788D01*
X2543505Y598982D01*
X2538018Y607415D01*
X2531211Y614781D01*
X2523286Y620979D01*
X2514447Y625754D01*
X2504948Y629005D01*
X2494991Y630682D01*
X2484983Y630682D01*
X2475026Y629005D01*
X2465527Y625754D01*
X2456688Y620979D01*
X2448763Y614781D01*
X2441956Y607415D01*
X2436469Y598982D01*
X2432405Y589788D01*
X2429967Y580034D01*
X2429103Y569976D01*
X2429967Y559968D01*
X2432405Y550214D01*
X2436469Y541020D01*
X2441956Y532587D01*
X2448763Y525221D01*
X2456688Y519023D01*
X2465527Y514248D01*
X2475026Y510997D01*
G37*
G36*
X2604973Y679348D02*
G01*
X2615031Y679348D01*
X2624937Y680974D01*
X2634437Y684276D01*
X2643276Y689051D01*
X2651252Y695198D01*
X2658059Y702614D01*
X2663545Y711047D01*
X2667558Y720242D01*
X2670048Y729996D01*
X2670860Y740003D01*
X2670048Y750011D01*
X2667558Y759764D01*
X2663545Y768959D01*
X2658059Y777392D01*
X2651252Y784809D01*
X2643276Y790956D01*
X2634437Y795731D01*
X2624937Y799033D01*
X2615031Y800658D01*
X2604973Y800658D01*
X2595067Y799033D01*
X2585567Y795731D01*
X2576728Y790956D01*
X2568752Y784809D01*
X2561945Y777392D01*
X2556459Y768959D01*
X2552446Y759764D01*
X2549956Y750011D01*
X2549144Y740003D01*
X2549956Y729996D01*
X2552446Y720242D01*
X2556459Y711047D01*
X2561945Y702614D01*
X2568752Y695198D01*
X2576728Y689051D01*
X2585567Y684276D01*
X2595067Y680974D01*
G37*
G36*
X1954987Y709320D02*
G01*
X1964994Y709320D01*
X1974951Y710996D01*
X1984451Y714248D01*
X1993290Y719023D01*
X2001215Y725220D01*
X2008022Y732586D01*
X2013508Y741019D01*
X2017572Y750214D01*
X2020011Y759968D01*
X2020874Y769975D01*
X2020011Y780034D01*
X2017572Y789787D01*
X2013508Y798982D01*
X2008022Y807415D01*
X2001215Y814781D01*
X1993290Y820978D01*
X1984451Y825753D01*
X1974951Y829005D01*
X1964994Y830681D01*
X1954987Y830681D01*
X1945030Y829005D01*
X1935530Y825753D01*
X1926691Y820978D01*
X1918766Y814781D01*
X1911959Y807415D01*
X1906473Y798982D01*
X1902409Y789787D01*
X1899970Y780034D01*
X1899107Y769975D01*
X1899970Y759968D01*
X1902409Y750214D01*
X1906473Y741019D01*
X1911959Y732586D01*
X1918766Y725220D01*
X1926691Y719023D01*
X1935530Y714248D01*
X1945030Y710996D01*
G37*
G36*
X1794967Y709320D02*
G01*
X1805025Y709320D01*
X1814931Y710996D01*
X1824431Y714248D01*
X1833270Y719023D01*
X1841246Y725220D01*
X1848053Y732586D01*
X1853539Y741019D01*
X1857552Y750214D01*
X1860042Y759968D01*
X1860854Y769975D01*
X1860042Y780034D01*
X1857552Y789787D01*
X1853539Y798982D01*
X1848053Y807415D01*
X1841246Y814781D01*
X1833270Y820978D01*
X1824431Y825753D01*
X1814931Y829005D01*
X1805025Y830681D01*
X1794967Y830681D01*
X1785061Y829005D01*
X1775561Y825753D01*
X1766722Y820978D01*
X1758746Y814781D01*
X1751939Y807415D01*
X1746453Y798982D01*
X1742439Y789787D01*
X1739950Y780034D01*
X1739138Y769975D01*
X1739950Y759968D01*
X1742439Y750214D01*
X1746453Y741019D01*
X1751939Y732586D01*
X1758746Y725220D01*
X1766722Y719023D01*
X1775561Y714248D01*
X1785061Y710996D01*
G37*
G36*
X6284976Y869340D02*
G01*
X6294983Y869340D01*
X6304940Y870966D01*
X6314440Y874268D01*
X6323279Y879043D01*
X6331204Y885190D01*
X6338011Y892606D01*
X6343497Y901039D01*
X6347561Y910234D01*
X6350000Y919987D01*
X6350863Y929995D01*
X6350000Y940003D01*
X6347561Y949756D01*
X6343497Y958951D01*
X6338011Y967384D01*
X6331204Y974801D01*
X6328511Y976884D01*
X6326073Y979627D01*
X6324752Y983081D01*
X6324752Y986739D01*
X6326073Y990193D01*
X6328511Y992936D01*
X6331305Y995070D01*
X6338112Y1002487D01*
X6343599Y1010919D01*
X6347612Y1020114D01*
X6350101Y1029868D01*
X6350914Y1039876D01*
X6350101Y1049883D01*
X6347612Y1059637D01*
X6343599Y1068832D01*
X6338112Y1077264D01*
X6331305Y1084681D01*
X6322669Y1091336D01*
X6320586Y1093571D01*
X6319215Y1096314D01*
X6318758Y1100531D01*
X6319215Y1103579D01*
X6320586Y1106322D01*
X6322669Y1108557D01*
X6331305Y1115212D01*
X6338112Y1122629D01*
X6343599Y1131062D01*
X6347612Y1140256D01*
X6350101Y1150010D01*
X6350914Y1160018D01*
X6350101Y1170025D01*
X6347612Y1179779D01*
X6343599Y1188974D01*
X6338112Y1197406D01*
X6331305Y1204823D01*
X6322669Y1211478D01*
X6319977Y1214729D01*
X6318707Y1219758D01*
X6319012Y1223060D01*
X6320332Y1226108D01*
X6322618Y1228547D01*
X6331204Y1235202D01*
X6338011Y1242618D01*
X6343497Y1251051D01*
X6347561Y1260246D01*
X6350000Y1270000D01*
X6350863Y1280007D01*
X6350000Y1290015D01*
X6347561Y1299768D01*
X6343497Y1308963D01*
X6338011Y1317396D01*
X6331204Y1324813D01*
X6323279Y1330960D01*
X6314440Y1335735D01*
X6304940Y1339037D01*
X6294983Y1340662D01*
X6284976Y1340662D01*
X6275019Y1339037D01*
X6265519Y1335735D01*
X6256680Y1330960D01*
X6248755Y1324813D01*
X6241948Y1317396D01*
X6236462Y1308963D01*
X6232398Y1299768D01*
X6229959Y1290015D01*
X6229096Y1280007D01*
X6229959Y1270000D01*
X6232398Y1260246D01*
X6236462Y1251051D01*
X6241948Y1242618D01*
X6248755Y1235202D01*
X6257340Y1228547D01*
X6260084Y1225296D01*
X6261303Y1220266D01*
X6260998Y1216964D01*
X6259677Y1213916D01*
X6257442Y1211478D01*
X6248806Y1204823D01*
X6241999Y1197406D01*
X6236512Y1188974D01*
X6232499Y1179779D01*
X6230010Y1170025D01*
X6229197Y1160018D01*
X6230010Y1150010D01*
X6232499Y1140256D01*
X6236512Y1131062D01*
X6241999Y1122629D01*
X6248806Y1115212D01*
X6257442Y1108557D01*
X6259525Y1106322D01*
X6260896Y1103579D01*
X6261354Y1099362D01*
X6260896Y1096314D01*
X6259525Y1093571D01*
X6257442Y1091336D01*
X6248806Y1084681D01*
X6241999Y1077264D01*
X6236512Y1068832D01*
X6232499Y1059637D01*
X6230010Y1049883D01*
X6229197Y1039876D01*
X6230010Y1029868D01*
X6232499Y1020114D01*
X6236512Y1010919D01*
X6241999Y1002487D01*
X6248806Y995070D01*
X6251549Y992987D01*
X6253988Y990244D01*
X6255308Y986790D01*
X6255308Y983132D01*
X6253988Y979678D01*
X6251549Y976934D01*
X6248755Y974801D01*
X6241948Y967384D01*
X6236462Y958951D01*
X6232398Y949756D01*
X6229959Y940003D01*
X6229096Y929995D01*
X6229959Y919987D01*
X6232398Y910234D01*
X6236462Y901039D01*
X6241948Y892606D01*
X6248755Y885190D01*
X6256680Y879043D01*
X6265519Y874268D01*
X6275019Y870966D01*
G37*
G36*
X994968Y929335D02*
G01*
X1005027Y929335D01*
X1014933Y930960D01*
X1024432Y934262D01*
X1033271Y939037D01*
X1041247Y945184D01*
X1048054Y952601D01*
X1053541Y961034D01*
X1057554Y970229D01*
X1060043Y979982D01*
X1060856Y989990D01*
X1060043Y999998D01*
X1057554Y1009751D01*
X1053541Y1018946D01*
X1048054Y1027379D01*
X1041247Y1034796D01*
X1033271Y1040942D01*
X1024432Y1045718D01*
X1014933Y1049020D01*
X1005027Y1050645D01*
X994968Y1050645D01*
X985062Y1049020D01*
X975563Y1045718D01*
X966724Y1040942D01*
X958748Y1034796D01*
X951941Y1027379D01*
X946454Y1018946D01*
X942441Y1009751D01*
X939952Y999998D01*
X939139Y989990D01*
X939952Y979982D01*
X942441Y970229D01*
X946454Y961034D01*
X951941Y952601D01*
X958748Y945184D01*
X966724Y939037D01*
X975563Y934262D01*
X985062Y930960D01*
G37*
G36*
X1664970Y939342D02*
G01*
X1675028Y939342D01*
X1684934Y940968D01*
X1694434Y944270D01*
X1703273Y949045D01*
X1711248Y955192D01*
X1718056Y962609D01*
X1723542Y971042D01*
X1727555Y980236D01*
X1730044Y989990D01*
X1730857Y999998D01*
X1730044Y1010005D01*
X1727555Y1019759D01*
X1723542Y1028953D01*
X1718056Y1037386D01*
X1711248Y1044803D01*
X1703273Y1050950D01*
X1694434Y1055725D01*
X1684934Y1059027D01*
X1675028Y1060653D01*
X1671015Y1060653D01*
X1667306Y1061364D01*
X1664106Y1063345D01*
X1661871Y1066342D01*
X1660855Y1070000D01*
X1660042Y1080008D01*
X1657553Y1089761D01*
X1653539Y1098956D01*
X1648053Y1107389D01*
X1641246Y1114806D01*
X1633270Y1120952D01*
X1624431Y1125728D01*
X1614932Y1129030D01*
X1605026Y1130655D01*
X1594967Y1130655D01*
X1585061Y1129030D01*
X1575562Y1125728D01*
X1566722Y1120952D01*
X1558747Y1114806D01*
X1551940Y1107389D01*
X1546453Y1098956D01*
X1542440Y1089761D01*
X1539951Y1080008D01*
X1539138Y1070000D01*
X1539951Y1059992D01*
X1542440Y1050239D01*
X1546453Y1041044D01*
X1551940Y1032611D01*
X1558747Y1025194D01*
X1566722Y1019048D01*
X1575562Y1014272D01*
X1585061Y1010970D01*
X1594967Y1009345D01*
X1598980Y1009345D01*
X1602689Y1008634D01*
X1605889Y1006652D01*
X1608124Y1003655D01*
X1609140Y999998D01*
X1609953Y989990D01*
X1612442Y980236D01*
X1616456Y971042D01*
X1621942Y962609D01*
X1628749Y955192D01*
X1636725Y949045D01*
X1645564Y944270D01*
X1655064Y940968D01*
G37*
G36*
X2884982Y989330D02*
G01*
X2894990Y989330D01*
X2904947Y991006D01*
X2914446Y994257D01*
X2923286Y999032D01*
X2931210Y1005230D01*
X2938018Y1012596D01*
X2943504Y1021029D01*
X2947568Y1030224D01*
X2950006Y1039977D01*
X2950870Y1049985D01*
X2950006Y1060043D01*
X2947568Y1069797D01*
X2943504Y1078992D01*
X2938018Y1087424D01*
X2931210Y1094790D01*
X2923286Y1100988D01*
X2914446Y1105763D01*
X2904947Y1109014D01*
X2894990Y1110691D01*
X2884982Y1110691D01*
X2875026Y1109014D01*
X2865526Y1105763D01*
X2856687Y1100988D01*
X2848762Y1094790D01*
X2841955Y1087424D01*
X2836468Y1078992D01*
X2832404Y1069797D01*
X2829966Y1060043D01*
X2829102Y1049985D01*
X2829966Y1039977D01*
X2832404Y1030224D01*
X2836468Y1021029D01*
X2841955Y1012596D01*
X2848762Y1005230D01*
X2856687Y999032D01*
X2865526Y994257D01*
X2875026Y991006D01*
G37*
G36*
X324967Y1069340D02*
G01*
X335026Y1069340D01*
X344932Y1070965D01*
X354431Y1074267D01*
X363270Y1079042D01*
X371246Y1085189D01*
X378053Y1092606D01*
X383540Y1101039D01*
X387553Y1110234D01*
X390042Y1119987D01*
X390855Y1129995D01*
X390042Y1140002D01*
X387553Y1149756D01*
X383540Y1158951D01*
X378053Y1167384D01*
X371246Y1174800D01*
X363270Y1180947D01*
X354431Y1185722D01*
X344932Y1189024D01*
X335026Y1190650D01*
X324967Y1190650D01*
X315061Y1189024D01*
X305562Y1185722D01*
X296722Y1180947D01*
X288747Y1174800D01*
X281940Y1167384D01*
X276453Y1158951D01*
X272440Y1149756D01*
X269951Y1140002D01*
X269138Y1129995D01*
X269951Y1119987D01*
X272440Y1110234D01*
X276453Y1101039D01*
X281940Y1092606D01*
X288747Y1085189D01*
X296722Y1079042D01*
X305562Y1074267D01*
X315061Y1070965D01*
G37*
G36*
X2474976Y1089304D02*
G01*
X2485034Y1089304D01*
X2494940Y1090980D01*
X2504440Y1094232D01*
X2513279Y1099007D01*
X2521254Y1105204D01*
X2528062Y1112570D01*
X2533548Y1121003D01*
X2537561Y1130198D01*
X2540050Y1139952D01*
X2540863Y1149959D01*
X2540050Y1160018D01*
X2537561Y1169771D01*
X2533548Y1178966D01*
X2528062Y1187399D01*
X2521254Y1194765D01*
X2513279Y1200962D01*
X2504440Y1205738D01*
X2494940Y1208989D01*
X2485034Y1210665D01*
X2474976Y1210665D01*
X2465070Y1208989D01*
X2455570Y1205738D01*
X2446731Y1200962D01*
X2438755Y1194765D01*
X2431948Y1187399D01*
X2426462Y1178966D01*
X2422448Y1169771D01*
X2419959Y1160018D01*
X2419146Y1149959D01*
X2419959Y1139952D01*
X2422448Y1130198D01*
X2426462Y1121003D01*
X2431948Y1112570D01*
X2438755Y1105204D01*
X2446731Y1099007D01*
X2455570Y1094232D01*
X2465070Y1090980D01*
G37*
G36*
X2645003Y1119327D02*
G01*
X2655011Y1119327D01*
X2664968Y1121003D01*
X2674467Y1124254D01*
X2683306Y1129030D01*
X2691231Y1135227D01*
X2698038Y1142593D01*
X2703525Y1151026D01*
X2707589Y1160221D01*
X2710027Y1169974D01*
X2710891Y1179982D01*
X2710027Y1190040D01*
X2707589Y1199794D01*
X2703525Y1208989D01*
X2698038Y1217422D01*
X2691231Y1224788D01*
X2683306Y1230985D01*
X2674467Y1235760D01*
X2664968Y1239012D01*
X2655011Y1240688D01*
X2645003Y1240688D01*
X2635046Y1239012D01*
X2625547Y1235760D01*
X2616708Y1230985D01*
X2608783Y1224788D01*
X2601976Y1217422D01*
X2596489Y1208989D01*
X2592425Y1199794D01*
X2589987Y1190040D01*
X2589123Y1179982D01*
X2589987Y1169974D01*
X2592425Y1160221D01*
X2596489Y1151026D01*
X2601976Y1142593D01*
X2608783Y1135227D01*
X2616708Y1129030D01*
X2625547Y1124254D01*
X2635046Y1121003D01*
G37*
G36*
X2754985Y1299311D02*
G01*
X2764993Y1299311D01*
X2774950Y1300988D01*
X2784449Y1304239D01*
X2793288Y1309014D01*
X2801213Y1315212D01*
X2808020Y1322578D01*
X2813507Y1331010D01*
X2817571Y1340205D01*
X2820009Y1349959D01*
X2820873Y1359966D01*
X2820009Y1370025D01*
X2817571Y1379778D01*
X2813507Y1388973D01*
X2808020Y1397406D01*
X2801213Y1404772D01*
X2793288Y1410970D01*
X2784449Y1415745D01*
X2774950Y1418996D01*
X2764993Y1420672D01*
X2754985Y1420672D01*
X2745028Y1418996D01*
X2735529Y1415745D01*
X2726690Y1410970D01*
X2718765Y1404772D01*
X2711958Y1397406D01*
X2706471Y1388973D01*
X2702407Y1379778D01*
X2699969Y1370025D01*
X2699105Y1359966D01*
X2699969Y1349959D01*
X2702407Y1340205D01*
X2706471Y1331010D01*
X2711958Y1322578D01*
X2718765Y1315212D01*
X2726690Y1309014D01*
X2735529Y1304239D01*
X2745028Y1300988D01*
G37*
G36*
X2024989Y1369314D02*
G01*
X2034997Y1369314D01*
X2044954Y1370990D01*
X2054453Y1374241D01*
X2063292Y1379016D01*
X2071217Y1385214D01*
X2078024Y1392580D01*
X2083511Y1401013D01*
X2087575Y1410208D01*
X2090013Y1419961D01*
X2090877Y1429969D01*
X2090013Y1440027D01*
X2087575Y1449781D01*
X2083511Y1458976D01*
X2078024Y1467408D01*
X2071217Y1474774D01*
X2063292Y1480972D01*
X2054453Y1485747D01*
X2044954Y1488998D01*
X2034997Y1490675D01*
X2024989Y1490675D01*
X2015032Y1488998D01*
X2005533Y1485747D01*
X1996693Y1480972D01*
X1988769Y1474774D01*
X1981962Y1467408D01*
X1976475Y1458976D01*
X1972411Y1449781D01*
X1970532Y1442262D01*
X1968754Y1438605D01*
X1965706Y1435912D01*
X1962454Y1434846D01*
X1965756Y1433118D01*
X1968296Y1429969D01*
X1969465Y1426108D01*
X1969973Y1419961D01*
X1972411Y1410208D01*
X1976475Y1401013D01*
X1981962Y1392580D01*
X1988769Y1385214D01*
X1996693Y1379016D01*
X2005533Y1374241D01*
X2015032Y1370990D01*
G37*
G36*
X1884984Y1379321D02*
G01*
X1894992Y1379321D01*
X1904949Y1380998D01*
X1914448Y1384249D01*
X1923288Y1389024D01*
X1931212Y1395222D01*
X1938020Y1402588D01*
X1943506Y1411020D01*
X1947570Y1420215D01*
X1949450Y1427734D01*
X1951228Y1431391D01*
X1954275Y1434084D01*
X1957527Y1435150D01*
X1954225Y1436878D01*
X1951685Y1440027D01*
X1950516Y1443888D01*
X1950008Y1450035D01*
X1947570Y1459788D01*
X1943506Y1468983D01*
X1938020Y1477416D01*
X1931212Y1484782D01*
X1923288Y1490980D01*
X1914448Y1495755D01*
X1904949Y1499006D01*
X1894992Y1500682D01*
X1884984Y1500682D01*
X1875028Y1499006D01*
X1865528Y1495755D01*
X1856689Y1490980D01*
X1848764Y1484782D01*
X1846478Y1482293D01*
X1843532Y1480108D01*
X1840026Y1479092D01*
X1836318Y1479397D01*
X1833016Y1480972D01*
X1830476Y1483614D01*
X1828038Y1487373D01*
X1821230Y1494790D01*
X1813306Y1500936D01*
X1804466Y1505712D01*
X1794967Y1509014D01*
X1785010Y1510639D01*
X1775002Y1510639D01*
X1765046Y1509014D01*
X1755546Y1505712D01*
X1746707Y1500936D01*
X1738782Y1494790D01*
X1731975Y1487373D01*
X1726488Y1478940D01*
X1722424Y1469745D01*
X1719986Y1459992D01*
X1719122Y1449984D01*
X1719986Y1439976D01*
X1722424Y1430223D01*
X1726488Y1421028D01*
X1731975Y1412595D01*
X1738782Y1405178D01*
X1746707Y1399032D01*
X1755546Y1394256D01*
X1765046Y1390954D01*
X1775002Y1389329D01*
X1785010Y1389329D01*
X1794967Y1390954D01*
X1804466Y1394256D01*
X1813306Y1399032D01*
X1821230Y1405178D01*
X1823516Y1407668D01*
X1826463Y1409903D01*
X1829968Y1410919D01*
X1833676Y1410614D01*
X1836978Y1409039D01*
X1839518Y1406347D01*
X1841957Y1402588D01*
X1848764Y1395222D01*
X1856689Y1389024D01*
X1865528Y1384249D01*
X1875028Y1380998D01*
G37*
G36*
X324916Y1529384D02*
G01*
X334975Y1529384D01*
X344881Y1531010D01*
X354380Y1534312D01*
X363220Y1539087D01*
X371195Y1545234D01*
X378002Y1552651D01*
X383489Y1561084D01*
X387502Y1570278D01*
X389991Y1580032D01*
X390804Y1590040D01*
X389991Y1600047D01*
X387502Y1609801D01*
X383489Y1618996D01*
X378002Y1627428D01*
X371195Y1634845D01*
X363220Y1640992D01*
X354380Y1645767D01*
X344881Y1649069D01*
X334975Y1650695D01*
X324916Y1650695D01*
X315010Y1649069D01*
X305511Y1645767D01*
X296672Y1640992D01*
X288696Y1634845D01*
X281889Y1627428D01*
X276402Y1618996D01*
X272389Y1609801D01*
X269900Y1600047D01*
X269087Y1590040D01*
X269900Y1580032D01*
X272389Y1570278D01*
X276402Y1561084D01*
X281889Y1552651D01*
X288696Y1545234D01*
X296672Y1539087D01*
X305511Y1534312D01*
X315010Y1531010D01*
G37*
G36*
X1614982Y1539290D02*
G01*
X1625041Y1539290D01*
X1634947Y1540916D01*
X1644446Y1544218D01*
X1653286Y1548993D01*
X1661261Y1555140D01*
X1662582Y1556613D01*
X1665986Y1559052D01*
X1670050Y1559864D01*
X1674114Y1559052D01*
X1677517Y1556613D01*
X1678838Y1555140D01*
X1686814Y1548993D01*
X1695653Y1544218D01*
X1705152Y1540916D01*
X1715058Y1539290D01*
X1725117Y1539290D01*
X1735023Y1540916D01*
X1744522Y1544218D01*
X1753362Y1548993D01*
X1761337Y1555140D01*
X1768144Y1562557D01*
X1773631Y1570990D01*
X1777644Y1580184D01*
X1780133Y1589938D01*
X1780946Y1599946D01*
X1780133Y1609953D01*
X1777644Y1619707D01*
X1773631Y1628901D01*
X1768144Y1637334D01*
X1761337Y1644751D01*
X1753362Y1650898D01*
X1744522Y1655673D01*
X1735023Y1658975D01*
X1725117Y1660601D01*
X1715058Y1660601D01*
X1705152Y1658975D01*
X1695653Y1655673D01*
X1686814Y1650898D01*
X1678838Y1644751D01*
X1677517Y1643278D01*
X1674114Y1640839D01*
X1670050Y1640027D01*
X1665986Y1640839D01*
X1662582Y1643278D01*
X1661261Y1644751D01*
X1653286Y1650898D01*
X1644446Y1655673D01*
X1634947Y1658975D01*
X1625041Y1660601D01*
X1614982Y1660601D01*
X1605076Y1658975D01*
X1595577Y1655673D01*
X1586738Y1650898D01*
X1578762Y1644751D01*
X1571955Y1637334D01*
X1566468Y1628901D01*
X1562455Y1619707D01*
X1559966Y1609953D01*
X1559153Y1599946D01*
X1559966Y1589938D01*
X1562455Y1580184D01*
X1566468Y1570990D01*
X1571955Y1562557D01*
X1578762Y1555140D01*
X1586738Y1548993D01*
X1595577Y1544218D01*
X1605076Y1540916D01*
G37*
G36*
X1984959Y1649323D02*
G01*
X1995017Y1649323D01*
X2004923Y1651000D01*
X2014423Y1654251D01*
X2023262Y1659026D01*
X2031238Y1665224D01*
X2038045Y1672589D01*
X2043531Y1681022D01*
X2047544Y1690217D01*
X2050034Y1699971D01*
X2050846Y1709978D01*
X2050034Y1720037D01*
X2047544Y1729790D01*
X2043531Y1738985D01*
X2038045Y1747418D01*
X2031238Y1754784D01*
X2023262Y1760982D01*
X2014423Y1765757D01*
X2004923Y1769008D01*
X1995017Y1770684D01*
X1984959Y1770684D01*
X1975053Y1769008D01*
X1965553Y1765757D01*
X1956714Y1760982D01*
X1948738Y1754784D01*
X1941931Y1747418D01*
X1936445Y1738985D01*
X1932432Y1729790D01*
X1929942Y1720037D01*
X1929130Y1709978D01*
X1929942Y1699971D01*
X1932432Y1690217D01*
X1936445Y1681022D01*
X1941931Y1672589D01*
X1948738Y1665224D01*
X1956714Y1659026D01*
X1965553Y1654251D01*
X1975053Y1651000D01*
G37*
G36*
X6284976Y1669338D02*
G01*
X6294983Y1669338D01*
X6304940Y1670964D01*
X6314440Y1674266D01*
X6323279Y1679041D01*
X6331204Y1685188D01*
X6338011Y1692605D01*
X6343497Y1701038D01*
X6347561Y1710232D01*
X6350000Y1719986D01*
X6350863Y1729993D01*
X6350000Y1740001D01*
X6347561Y1749755D01*
X6343497Y1758950D01*
X6338011Y1767382D01*
X6331204Y1774799D01*
X6328460Y1776933D01*
X6325971Y1779676D01*
X6324701Y1783130D01*
X6324701Y1786788D01*
X6325971Y1790242D01*
X6328460Y1792986D01*
X6331305Y1795170D01*
X6338112Y1802587D01*
X6343599Y1811020D01*
X6347612Y1820214D01*
X6350101Y1829968D01*
X6350914Y1839975D01*
X6350101Y1849983D01*
X6347612Y1859737D01*
X6343599Y1868932D01*
X6338112Y1877364D01*
X6331305Y1884781D01*
X6322669Y1891436D01*
X6320586Y1893671D01*
X6319215Y1896414D01*
X6318758Y1900631D01*
X6319215Y1903679D01*
X6320586Y1906422D01*
X6322669Y1908657D01*
X6331305Y1915312D01*
X6338112Y1922729D01*
X6343599Y1931162D01*
X6347612Y1940356D01*
X6350101Y1950110D01*
X6350914Y1960118D01*
X6350101Y1970125D01*
X6347612Y1979879D01*
X6343599Y1989074D01*
X6338112Y1997506D01*
X6331305Y2004923D01*
X6328511Y2007057D01*
X6326073Y2009800D01*
X6324752Y2013254D01*
X6324752Y2016912D01*
X6326073Y2020366D01*
X6328511Y2023110D01*
X6331204Y2025192D01*
X6338011Y2032609D01*
X6343497Y2041042D01*
X6347561Y2050237D01*
X6350000Y2059990D01*
X6350863Y2069998D01*
X6350000Y2080006D01*
X6347561Y2089759D01*
X6343497Y2098954D01*
X6338011Y2107387D01*
X6331204Y2114804D01*
X6323279Y2120950D01*
X6314440Y2125726D01*
X6304940Y2129028D01*
X6294983Y2130653D01*
X6284976Y2130653D01*
X6275019Y2129028D01*
X6265519Y2125726D01*
X6256680Y2120950D01*
X6248755Y2114804D01*
X6241948Y2107387D01*
X6236462Y2098954D01*
X6232398Y2089759D01*
X6229959Y2080006D01*
X6229096Y2069998D01*
X6229959Y2059990D01*
X6232398Y2050237D01*
X6236462Y2041042D01*
X6241948Y2032609D01*
X6248755Y2025192D01*
X6251549Y2023059D01*
X6253988Y2020316D01*
X6255308Y2016861D01*
X6255308Y2013204D01*
X6253988Y2009749D01*
X6251549Y2007006D01*
X6248806Y2004923D01*
X6241999Y1997506D01*
X6236512Y1989074D01*
X6232499Y1979879D01*
X6230010Y1970125D01*
X6229197Y1960118D01*
X6230010Y1950110D01*
X6232499Y1940356D01*
X6236512Y1931162D01*
X6241999Y1922729D01*
X6248806Y1915312D01*
X6257442Y1908657D01*
X6259525Y1906422D01*
X6260896Y1903679D01*
X6261354Y1899462D01*
X6260896Y1896414D01*
X6259525Y1893671D01*
X6257442Y1891436D01*
X6248806Y1884781D01*
X6241999Y1877364D01*
X6236512Y1868932D01*
X6232499Y1859737D01*
X6230010Y1849983D01*
X6229197Y1839975D01*
X6230010Y1829968D01*
X6232499Y1820214D01*
X6236512Y1811020D01*
X6241999Y1802587D01*
X6248806Y1795170D01*
X6251600Y1793036D01*
X6254038Y1790293D01*
X6255359Y1786839D01*
X6255359Y1783181D01*
X6254038Y1779727D01*
X6251600Y1776984D01*
X6248755Y1774799D01*
X6241948Y1767382D01*
X6236462Y1758950D01*
X6232398Y1749755D01*
X6229959Y1740001D01*
X6229096Y1729993D01*
X6229959Y1719986D01*
X6232398Y1710232D01*
X6236462Y1701038D01*
X6241948Y1692605D01*
X6248755Y1685188D01*
X6256680Y1679041D01*
X6265519Y1674266D01*
X6275019Y1670964D01*
G37*
G36*
X3154984Y1899310D02*
G01*
X3164992Y1899310D01*
X3174949Y1900986D01*
X3184448Y1904238D01*
X3193288Y1909013D01*
X3201212Y1915210D01*
X3208020Y1922576D01*
X3213506Y1931009D01*
X3217570Y1940204D01*
X3220008Y1949957D01*
X3220872Y1959965D01*
X3220008Y1970024D01*
X3217570Y1979777D01*
X3213506Y1988972D01*
X3208020Y1997405D01*
X3201212Y2004771D01*
X3193288Y2010968D01*
X3184448Y2015743D01*
X3174949Y2018995D01*
X3164992Y2020671D01*
X3154984Y2020671D01*
X3145028Y2018995D01*
X3135528Y2015743D01*
X3126689Y2010968D01*
X3118764Y2004771D01*
X3111957Y1997405D01*
X3106470Y1988972D01*
X3102406Y1979777D01*
X3099968Y1970024D01*
X3099104Y1959965D01*
X3099968Y1949957D01*
X3102406Y1940204D01*
X3106470Y1931009D01*
X3111957Y1922576D01*
X3118764Y1915210D01*
X3126689Y1909013D01*
X3135528Y1904238D01*
X3145028Y1900986D01*
G37*
G36*
X1624990Y1939340D02*
G01*
X1634998Y1939340D01*
X1644954Y1940966D01*
X1654454Y1944268D01*
X1663293Y1949043D01*
X1671218Y1955190D01*
X1678025Y1962607D01*
X1683512Y1971039D01*
X1687575Y1980234D01*
X1690014Y1989988D01*
X1690878Y1999996D01*
X1690014Y2010003D01*
X1687575Y2019757D01*
X1683512Y2028952D01*
X1679803Y2034641D01*
X1678381Y2038146D01*
X1678330Y2041906D01*
X1679651Y2045462D01*
X1682140Y2048256D01*
X1691284Y2055215D01*
X1697532Y2062022D01*
X1700936Y2064461D01*
X1705000Y2065324D01*
X1709064Y2064461D01*
X1712468Y2062022D01*
X1718767Y2055215D01*
X1726692Y2049018D01*
X1735531Y2044242D01*
X1745030Y2040991D01*
X1754987Y2039315D01*
X1764995Y2039315D01*
X1774952Y2040991D01*
X1784451Y2044242D01*
X1793290Y2049018D01*
X1801215Y2055215D01*
X1808022Y2062581D01*
X1813509Y2071014D01*
X1817573Y2080209D01*
X1820011Y2089962D01*
X1820875Y2099970D01*
X1820011Y2110028D01*
X1817573Y2119782D01*
X1813509Y2128977D01*
X1808022Y2137410D01*
X1801215Y2144776D01*
X1793290Y2150973D01*
X1784451Y2155748D01*
X1774952Y2159000D01*
X1764995Y2160676D01*
X1754987Y2160676D01*
X1745030Y2159000D01*
X1735531Y2155748D01*
X1726692Y2150973D01*
X1718767Y2144776D01*
X1712468Y2137968D01*
X1709064Y2135530D01*
X1705000Y2134666D01*
X1700936Y2135530D01*
X1697532Y2137968D01*
X1691233Y2144776D01*
X1683308Y2150973D01*
X1674469Y2155748D01*
X1664970Y2159000D01*
X1655013Y2160676D01*
X1645005Y2160676D01*
X1635048Y2159000D01*
X1625549Y2155748D01*
X1616710Y2150973D01*
X1608785Y2144776D01*
X1601978Y2137410D01*
X1596491Y2128977D01*
X1592427Y2119782D01*
X1589989Y2110028D01*
X1589125Y2099970D01*
X1589989Y2089962D01*
X1592427Y2080209D01*
X1596491Y2071014D01*
X1600200Y2065324D01*
X1601622Y2061870D01*
X1601673Y2058060D01*
X1600352Y2054555D01*
X1597863Y2051710D01*
X1588719Y2044750D01*
X1581962Y2037384D01*
X1576476Y2028952D01*
X1572412Y2019757D01*
X1569974Y2010003D01*
X1569110Y1999996D01*
X1569974Y1989988D01*
X1572412Y1980234D01*
X1576476Y1971039D01*
X1581962Y1962607D01*
X1588770Y1955190D01*
X1596694Y1949043D01*
X1605534Y1944268D01*
X1615033Y1940966D01*
G37*
G36*
X2744978Y1999335D02*
G01*
X2755036Y1999335D01*
X2764942Y2000961D01*
X2774442Y2004263D01*
X2783281Y2009038D01*
X2791256Y2015185D01*
X2798064Y2022602D01*
X2803550Y2031034D01*
X2807563Y2040229D01*
X2810052Y2049983D01*
X2810865Y2059990D01*
X2810052Y2069998D01*
X2807563Y2079752D01*
X2803550Y2088946D01*
X2798064Y2097379D01*
X2791256Y2104796D01*
X2783281Y2110943D01*
X2774442Y2115718D01*
X2764942Y2119020D01*
X2755036Y2120646D01*
X2744978Y2120646D01*
X2735072Y2119020D01*
X2725572Y2115718D01*
X2716733Y2110943D01*
X2708757Y2104796D01*
X2701950Y2097379D01*
X2696464Y2088946D01*
X2692450Y2079752D01*
X2689961Y2069998D01*
X2689148Y2059990D01*
X2689961Y2049983D01*
X2692450Y2040229D01*
X2696464Y2031034D01*
X2701950Y2022602D01*
X2708757Y2015185D01*
X2716733Y2009038D01*
X2725572Y2004263D01*
X2735072Y2000961D01*
G37*
G36*
X884986Y2029307D02*
G01*
X894994Y2029307D01*
X904951Y2030984D01*
X914450Y2034235D01*
X923290Y2039010D01*
X931214Y2045207D01*
X938021Y2052574D01*
X943508Y2061006D01*
X947572Y2070201D01*
X950010Y2079955D01*
X950874Y2089962D01*
X950010Y2100021D01*
X947572Y2109774D01*
X943508Y2118969D01*
X938021Y2127402D01*
X931214Y2134768D01*
X923290Y2140966D01*
X914450Y2145741D01*
X904951Y2148992D01*
X894994Y2150668D01*
X884986Y2150668D01*
X875030Y2148992D01*
X865530Y2145741D01*
X856691Y2140966D01*
X848766Y2134768D01*
X841959Y2127402D01*
X836472Y2118969D01*
X832408Y2109774D01*
X829970Y2100021D01*
X829106Y2089962D01*
X829970Y2079955D01*
X832408Y2070201D01*
X836472Y2061006D01*
X841959Y2052574D01*
X848766Y2045207D01*
X856691Y2039010D01*
X865530Y2034235D01*
X875030Y2030984D01*
G37*
G36*
X2914954Y2039315D02*
G01*
X2925013Y2039315D01*
X2934919Y2040991D01*
X2944418Y2044242D01*
X2953258Y2049018D01*
X2961233Y2055215D01*
X2968040Y2062581D01*
X2973527Y2071014D01*
X2977540Y2080209D01*
X2980029Y2089962D01*
X2980842Y2099970D01*
X2980029Y2110028D01*
X2977540Y2119782D01*
X2973527Y2128977D01*
X2968040Y2137410D01*
X2961233Y2144776D01*
X2953258Y2150973D01*
X2944418Y2155748D01*
X2934919Y2159000D01*
X2925013Y2160676D01*
X2914954Y2160676D01*
X2905048Y2159000D01*
X2895549Y2155748D01*
X2886710Y2150973D01*
X2878734Y2144776D01*
X2871927Y2137410D01*
X2866440Y2128977D01*
X2862427Y2119782D01*
X2859938Y2110028D01*
X2859125Y2099970D01*
X2859938Y2089962D01*
X2862427Y2080209D01*
X2866440Y2071014D01*
X2871927Y2062581D01*
X2878734Y2055215D01*
X2886710Y2049018D01*
X2895549Y2044242D01*
X2905048Y2040991D01*
G37*
G36*
X414985Y2089302D02*
G01*
X424992Y2089302D01*
X434949Y2090978D01*
X444449Y2094230D01*
X453288Y2099005D01*
X461213Y2105202D01*
X468020Y2112568D01*
X473506Y2121001D01*
X477570Y2130196D01*
X480009Y2139950D01*
X480872Y2149957D01*
X480009Y2160016D01*
X477570Y2169769D01*
X473506Y2178964D01*
X468020Y2187397D01*
X461213Y2194763D01*
X453288Y2200960D01*
X444449Y2205736D01*
X434949Y2208987D01*
X424992Y2210663D01*
X414985Y2210663D01*
X405028Y2208987D01*
X395528Y2205736D01*
X386689Y2200960D01*
X378764Y2194763D01*
X371957Y2187397D01*
X366471Y2178964D01*
X362407Y2169769D01*
X359968Y2160016D01*
X359105Y2149957D01*
X359968Y2139950D01*
X362407Y2130196D01*
X366471Y2121001D01*
X371957Y2112568D01*
X378764Y2105202D01*
X386689Y2099005D01*
X395528Y2094230D01*
X405028Y2090978D01*
G37*
G36*
X3034995Y2219350D02*
G01*
X3045002Y2219350D01*
X3054959Y2220976D01*
X3064459Y2224278D01*
X3073298Y2229053D01*
X3081223Y2235200D01*
X3088030Y2242616D01*
X3093516Y2251049D01*
X3097580Y2260244D01*
X3100019Y2269998D01*
X3100882Y2280005D01*
X3100019Y2290013D01*
X3097580Y2299766D01*
X3093516Y2308961D01*
X3088030Y2317394D01*
X3081223Y2324811D01*
X3073298Y2330958D01*
X3064459Y2335733D01*
X3054959Y2339035D01*
X3045002Y2340660D01*
X3034995Y2340660D01*
X3025038Y2339035D01*
X3015538Y2335733D01*
X3006699Y2330958D01*
X2998774Y2324811D01*
X2991967Y2317394D01*
X2986481Y2308961D01*
X2982417Y2299766D01*
X2979978Y2290013D01*
X2979115Y2280005D01*
X2979978Y2269998D01*
X2982417Y2260244D01*
X2986481Y2251049D01*
X2991967Y2242616D01*
X2998774Y2235200D01*
X3006699Y2229053D01*
X3015538Y2224278D01*
X3025038Y2220976D01*
G37*
G36*
X4534966Y2429306D02*
G01*
X4545025Y2429306D01*
X4554931Y2430983D01*
X4564430Y2434234D01*
X4573270Y2439009D01*
X4581245Y2445207D01*
X4588052Y2452573D01*
X4593539Y2461006D01*
X4597552Y2470200D01*
X4600092Y2480665D01*
X4601260Y2484628D01*
X4604004Y2487828D01*
X4607712Y2489657D01*
X4611878Y2489809D01*
X4614976Y2489301D01*
X4624984Y2489301D01*
X4634941Y2490978D01*
X4644440Y2494229D01*
X4653280Y2499004D01*
X4661204Y2505202D01*
X4668012Y2512568D01*
X4673498Y2521000D01*
X4677562Y2530195D01*
X4680000Y2539949D01*
X4680864Y2549956D01*
X4680000Y2560015D01*
X4677562Y2569768D01*
X4673498Y2578963D01*
X4668012Y2587396D01*
X4661204Y2594762D01*
X4653280Y2600960D01*
X4644440Y2605735D01*
X4634941Y2608986D01*
X4624984Y2610662D01*
X4614976Y2610662D01*
X4605020Y2608986D01*
X4595520Y2605735D01*
X4586681Y2600960D01*
X4578756Y2594762D01*
X4571949Y2587396D01*
X4566462Y2578963D01*
X4562398Y2569768D01*
X4559858Y2559304D01*
X4558690Y2555341D01*
X4555998Y2552141D01*
X4552238Y2550312D01*
X4548073Y2550160D01*
X4545025Y2550668D01*
X4534966Y2550668D01*
X4525060Y2548991D01*
X4515561Y2545740D01*
X4502099Y2538425D01*
X4497933Y2538272D01*
X4494022Y2539796D01*
X4491075Y2542743D01*
X4488027Y2547416D01*
X4481220Y2554782D01*
X4473295Y2560980D01*
X4464456Y2565755D01*
X4454956Y2569006D01*
X4445000Y2570683D01*
X4434992Y2570683D01*
X4425035Y2569006D01*
X4415536Y2565755D01*
X4406696Y2560980D01*
X4398772Y2554782D01*
X4391964Y2547416D01*
X4389475Y2543606D01*
X4386935Y2540965D01*
X4383633Y2539390D01*
X4379976Y2539085D01*
X4376470Y2540101D01*
X4373524Y2542286D01*
X4371238Y2544775D01*
X4363262Y2550972D01*
X4360062Y2552700D01*
X4357166Y2555087D01*
X4355287Y2558338D01*
X4354728Y2562047D01*
X4355592Y2565704D01*
X4357573Y2570226D01*
X4360011Y2579979D01*
X4360875Y2589987D01*
X4360011Y2599994D01*
X4357573Y2609748D01*
X4353509Y2618943D01*
X4348022Y2627376D01*
X4341215Y2634792D01*
X4333290Y2640939D01*
X4324451Y2645714D01*
X4314952Y2649016D01*
X4304995Y2650642D01*
X4294987Y2650642D01*
X4285030Y2649016D01*
X4275531Y2645714D01*
X4266692Y2640939D01*
X4258767Y2634792D01*
X4251960Y2627376D01*
X4246473Y2618943D01*
X4242409Y2609748D01*
X4239971Y2599994D01*
X4239107Y2589987D01*
X4239971Y2579979D01*
X4242409Y2570226D01*
X4246473Y2561031D01*
X4251960Y2552598D01*
X4258767Y2545181D01*
X4266692Y2539034D01*
X4269943Y2537256D01*
X4272838Y2534920D01*
X4274718Y2531668D01*
X4275226Y2527909D01*
X4274413Y2524252D01*
X4272432Y2519781D01*
X4269943Y2510028D01*
X4269130Y2499969D01*
X4269943Y2489962D01*
X4272432Y2480208D01*
X4276445Y2471013D01*
X4281932Y2462580D01*
X4288739Y2455214D01*
X4296714Y2449017D01*
X4305554Y2444242D01*
X4315053Y2440990D01*
X4324959Y2439314D01*
X4335018Y2439314D01*
X4344924Y2440990D01*
X4354423Y2444242D01*
X4363262Y2449017D01*
X4371238Y2455214D01*
X4378045Y2462580D01*
X4380484Y2466390D01*
X4383024Y2469032D01*
X4386326Y2470607D01*
X4389983Y2470912D01*
X4393539Y2469896D01*
X4396486Y2467711D01*
X4398772Y2465222D01*
X4406696Y2459024D01*
X4415536Y2454249D01*
X4425035Y2450998D01*
X4434992Y2449322D01*
X4445000Y2449322D01*
X4454956Y2450998D01*
X4464456Y2454249D01*
X4477918Y2461564D01*
X4482084Y2461717D01*
X4485944Y2460193D01*
X4488891Y2457246D01*
X4491939Y2452573D01*
X4498746Y2445207D01*
X4506722Y2439009D01*
X4515561Y2434234D01*
X4525060Y2430983D01*
G37*
G36*
X6284976Y2469337D02*
G01*
X6294983Y2469337D01*
X6304940Y2470962D01*
X6314440Y2474264D01*
X6323279Y2479040D01*
X6331204Y2485186D01*
X6338011Y2492603D01*
X6343497Y2501036D01*
X6347561Y2510231D01*
X6350000Y2519984D01*
X6350863Y2529992D01*
X6350000Y2540000D01*
X6347561Y2549753D01*
X6343497Y2558948D01*
X6338011Y2567381D01*
X6331204Y2574798D01*
X6328359Y2576982D01*
X6325920Y2579725D01*
X6324600Y2583180D01*
X6324600Y2586837D01*
X6325920Y2590292D01*
X6328359Y2593035D01*
X6331305Y2595270D01*
X6338112Y2602687D01*
X6343599Y2611120D01*
X6347612Y2620314D01*
X6350101Y2630068D01*
X6350914Y2640076D01*
X6350101Y2650083D01*
X6347612Y2659837D01*
X6343599Y2669032D01*
X6338112Y2677464D01*
X6331305Y2684881D01*
X6322669Y2691536D01*
X6320586Y2693771D01*
X6319215Y2696514D01*
X6318758Y2700477D01*
X6319215Y2703525D01*
X6320586Y2706268D01*
X6322669Y2708503D01*
X6331305Y2715158D01*
X6338112Y2722575D01*
X6343599Y2731008D01*
X6347612Y2740202D01*
X6350101Y2749956D01*
X6350914Y2759964D01*
X6350101Y2769971D01*
X6347612Y2779725D01*
X6343599Y2788920D01*
X6338112Y2797352D01*
X6331305Y2804769D01*
X6328410Y2807004D01*
X6325971Y2809748D01*
X6324650Y2813151D01*
X6324650Y2816860D01*
X6325971Y2820263D01*
X6328410Y2823006D01*
X6331204Y2825191D01*
X6338011Y2832608D01*
X6343497Y2841040D01*
X6347561Y2850235D01*
X6350000Y2859989D01*
X6350863Y2869996D01*
X6350000Y2880004D01*
X6347561Y2889758D01*
X6343497Y2898952D01*
X6338011Y2907385D01*
X6331204Y2914802D01*
X6323279Y2920949D01*
X6314440Y2925724D01*
X6304940Y2929026D01*
X6294983Y2930652D01*
X6284976Y2930652D01*
X6275019Y2929026D01*
X6265519Y2925724D01*
X6256680Y2920949D01*
X6248755Y2914802D01*
X6241948Y2907385D01*
X6236462Y2898952D01*
X6232398Y2889758D01*
X6229959Y2880004D01*
X6229096Y2869996D01*
X6229959Y2859989D01*
X6232398Y2850235D01*
X6236462Y2841040D01*
X6241948Y2832608D01*
X6248755Y2825191D01*
X6251651Y2822956D01*
X6254089Y2820212D01*
X6255359Y2816809D01*
X6255359Y2813100D01*
X6254089Y2809697D01*
X6251651Y2806954D01*
X6248806Y2804769D01*
X6241999Y2797352D01*
X6236512Y2788920D01*
X6232499Y2779725D01*
X6230010Y2769971D01*
X6229197Y2759964D01*
X6230010Y2749956D01*
X6232499Y2740202D01*
X6236512Y2731008D01*
X6241999Y2722575D01*
X6248806Y2715158D01*
X6257442Y2708503D01*
X6259525Y2706268D01*
X6260896Y2703525D01*
X6261354Y2699562D01*
X6260896Y2696514D01*
X6259525Y2693771D01*
X6257442Y2691536D01*
X6248806Y2684881D01*
X6241999Y2677464D01*
X6236512Y2669032D01*
X6232499Y2659837D01*
X6230010Y2650083D01*
X6229197Y2640076D01*
X6230010Y2630068D01*
X6232499Y2620314D01*
X6236512Y2611120D01*
X6241999Y2602687D01*
X6248806Y2595270D01*
X6251651Y2593086D01*
X6254089Y2590342D01*
X6255410Y2586888D01*
X6255410Y2583230D01*
X6254089Y2579776D01*
X6251651Y2577033D01*
X6248755Y2574798D01*
X6241948Y2567381D01*
X6236462Y2558948D01*
X6232398Y2549753D01*
X6229959Y2540000D01*
X6229096Y2529992D01*
X6229959Y2519984D01*
X6232398Y2510231D01*
X6236462Y2501036D01*
X6241948Y2492603D01*
X6248755Y2485186D01*
X6256680Y2479040D01*
X6265519Y2474264D01*
X6275019Y2470962D01*
G37*
G36*
X725017Y2494127D02*
G01*
X738835Y2494991D01*
X752398Y2497734D01*
X765505Y2502154D01*
X777951Y2508300D01*
X789482Y2515971D01*
X799896Y2525115D01*
X808990Y2535529D01*
X816711Y2547061D01*
X822807Y2559456D01*
X827278Y2572613D01*
X829970Y2586177D01*
X830884Y2599994D01*
X829970Y2613812D01*
X827278Y2627376D01*
X822807Y2640533D01*
X816711Y2652928D01*
X808990Y2664460D01*
X799896Y2674874D01*
X789482Y2684018D01*
X777951Y2691688D01*
X765505Y2697835D01*
X752398Y2702255D01*
X738835Y2704998D01*
X725017Y2705862D01*
X711200Y2704998D01*
X697585Y2702255D01*
X684479Y2697835D01*
X672033Y2691688D01*
X660552Y2684018D01*
X650138Y2674874D01*
X640994Y2664460D01*
X633323Y2652928D01*
X627176Y2640533D01*
X622706Y2627376D01*
X620014Y2613812D01*
X619099Y2599994D01*
X620014Y2586177D01*
X622706Y2572613D01*
X627176Y2559456D01*
X633323Y2547061D01*
X640994Y2535529D01*
X650138Y2525115D01*
X660552Y2515971D01*
X672033Y2508300D01*
X684479Y2502154D01*
X697585Y2497734D01*
X711200Y2494991D01*
G37*
G36*
X274980Y2494127D02*
G01*
X288798Y2494991D01*
X302412Y2497734D01*
X315518Y2502154D01*
X327964Y2508300D01*
X339445Y2515971D01*
X349859Y2525115D01*
X359003Y2535529D01*
X366674Y2547061D01*
X372821Y2559456D01*
X377291Y2572613D01*
X379984Y2586177D01*
X380898Y2599994D01*
X379984Y2613812D01*
X377291Y2627376D01*
X372821Y2640533D01*
X366674Y2652928D01*
X359003Y2664460D01*
X349859Y2674874D01*
X339445Y2684018D01*
X327964Y2691688D01*
X315518Y2697835D01*
X302412Y2702255D01*
X288798Y2704998D01*
X274980Y2705862D01*
X261162Y2704998D01*
X247599Y2702255D01*
X234492Y2697835D01*
X222046Y2691688D01*
X210515Y2684018D01*
X200101Y2674874D01*
X191008Y2664460D01*
X183286Y2652928D01*
X177190Y2640533D01*
X172720Y2627376D01*
X170027Y2613812D01*
X169113Y2599994D01*
X170027Y2586177D01*
X172720Y2572613D01*
X177190Y2559456D01*
X183286Y2547061D01*
X191008Y2535529D01*
X200101Y2525115D01*
X210515Y2515971D01*
X222046Y2508300D01*
X234492Y2502154D01*
X247599Y2497734D01*
X261162Y2494991D01*
G37*
G36*
X5319979Y2579116D02*
G01*
X5331053Y2579979D01*
X5341874Y2582570D01*
X5352135Y2586837D01*
X5361635Y2592628D01*
X5370118Y2599842D01*
X5377332Y2608326D01*
X5383123Y2617825D01*
X5387390Y2628087D01*
X5389981Y2638907D01*
X5390845Y2649982D01*
X5389981Y2661056D01*
X5387390Y2671876D01*
X5383123Y2682138D01*
X5377332Y2691638D01*
X5371541Y2698394D01*
X5369763Y2701493D01*
X5369102Y2704998D01*
X5369763Y2708503D01*
X5371541Y2711602D01*
X5377332Y2718308D01*
X5383123Y2727807D01*
X5387390Y2738069D01*
X5389981Y2748889D01*
X5390845Y2759964D01*
X5389981Y2771089D01*
X5387390Y2781909D01*
X5383123Y2792171D01*
X5377332Y2801670D01*
X5370118Y2810103D01*
X5361635Y2817317D01*
X5352135Y2823159D01*
X5341874Y2827375D01*
X5331053Y2830017D01*
X5319979Y2830880D01*
X5308904Y2830017D01*
X5298084Y2827375D01*
X5287822Y2823159D01*
X5278323Y2817317D01*
X5269839Y2810103D01*
X5262626Y2801670D01*
X5256834Y2792171D01*
X5252567Y2781909D01*
X5249976Y2771089D01*
X5249113Y2759964D01*
X5249976Y2748889D01*
X5252567Y2738069D01*
X5256834Y2727807D01*
X5262626Y2718308D01*
X5268417Y2711602D01*
X5270195Y2708503D01*
X5270855Y2704998D01*
X5270195Y2701493D01*
X5268417Y2698394D01*
X5262626Y2691638D01*
X5256834Y2682138D01*
X5252567Y2671876D01*
X5249976Y2661056D01*
X5249113Y2649982D01*
X5249976Y2638907D01*
X5252567Y2628087D01*
X5256834Y2617825D01*
X5262626Y2608326D01*
X5269839Y2599842D01*
X5278323Y2592628D01*
X5287822Y2586837D01*
X5298084Y2582570D01*
X5308904Y2579979D01*
G37*
G36*
X1528521Y2643581D02*
G01*
X1546606Y2644952D01*
X1564386Y2648204D01*
X1581810Y2653284D01*
X1598574Y2660091D01*
X1614525Y2668625D01*
X1629562Y2678734D01*
X1643481Y2690317D01*
X1656130Y2703271D01*
X1667357Y2717495D01*
X1677060Y2732786D01*
X1685188Y2748940D01*
X1691538Y2765907D01*
X1696161Y2783433D01*
X1698955Y2801315D01*
X1699869Y2819400D01*
X1698955Y2837484D01*
X1696161Y2855366D01*
X1691538Y2872892D01*
X1685188Y2889859D01*
X1677060Y2906014D01*
X1667357Y2921304D01*
X1656130Y2935528D01*
X1643481Y2948482D01*
X1629562Y2960065D01*
X1614525Y2970174D01*
X1598574Y2978708D01*
X1581810Y2985516D01*
X1564386Y2990596D01*
X1546606Y2993847D01*
X1528521Y2995218D01*
X1510436Y2994761D01*
X1492453Y2992424D01*
X1474825Y2988310D01*
X1457756Y2982315D01*
X1441348Y2974644D01*
X1425803Y2965348D01*
X1411325Y2954477D01*
X1398016Y2942183D01*
X1386078Y2928569D01*
X1375562Y2913786D01*
X1366672Y2898038D01*
X1359408Y2881426D01*
X1353921Y2864205D01*
X1350213Y2846476D01*
X1348333Y2828442D01*
X1348333Y2810357D01*
X1350213Y2792323D01*
X1353921Y2774594D01*
X1359408Y2757373D01*
X1366672Y2740761D01*
X1375562Y2725013D01*
X1386078Y2710230D01*
X1398016Y2696616D01*
X1411325Y2684322D01*
X1425803Y2673451D01*
X1441348Y2664155D01*
X1457756Y2656484D01*
X1474825Y2650490D01*
X1492453Y2646375D01*
X1510436Y2644038D01*
G37*
G36*
X3878021Y2643581D02*
G01*
X3896106Y2644952D01*
X3913886Y2648204D01*
X3931310Y2653284D01*
X3948074Y2660091D01*
X3964025Y2668625D01*
X3979062Y2678734D01*
X3992981Y2690317D01*
X4005630Y2703271D01*
X4016857Y2717495D01*
X4026560Y2732786D01*
X4034688Y2748940D01*
X4041038Y2765907D01*
X4045661Y2783433D01*
X4048455Y2801315D01*
X4049369Y2819400D01*
X4048455Y2837484D01*
X4045661Y2855366D01*
X4041038Y2872892D01*
X4034688Y2889859D01*
X4026560Y2906014D01*
X4016857Y2921304D01*
X4005630Y2935528D01*
X3992981Y2948482D01*
X3979062Y2960065D01*
X3964025Y2970174D01*
X3948074Y2978708D01*
X3931310Y2985516D01*
X3913886Y2990596D01*
X3896106Y2993847D01*
X3878021Y2995218D01*
X3859936Y2994761D01*
X3841953Y2992424D01*
X3824325Y2988310D01*
X3807256Y2982315D01*
X3790848Y2974644D01*
X3775303Y2965348D01*
X3760825Y2954477D01*
X3747515Y2942183D01*
X3735578Y2928569D01*
X3725062Y2913786D01*
X3716172Y2898038D01*
X3708908Y2881426D01*
X3703421Y2864205D01*
X3699713Y2846476D01*
X3697833Y2828442D01*
X3697833Y2810357D01*
X3699713Y2792323D01*
X3703421Y2774594D01*
X3708908Y2757373D01*
X3716172Y2740761D01*
X3725062Y2725013D01*
X3735578Y2710230D01*
X3747515Y2696616D01*
X3760825Y2684322D01*
X3775303Y2673451D01*
X3790848Y2664155D01*
X3807256Y2656484D01*
X3824325Y2650490D01*
X3841953Y2646375D01*
X3859936Y2644038D01*
G37*
G36*
X2565704Y2684322D02*
G01*
X2580284Y2684322D01*
X2594711Y2686151D01*
X2608783Y2689758D01*
X2622346Y2695143D01*
X2635097Y2702153D01*
X2646883Y2710688D01*
X2657449Y2720644D01*
X2666746Y2731871D01*
X2674569Y2744165D01*
X2680766Y2757322D01*
X2685237Y2771190D01*
X2687980Y2785465D01*
X2688894Y2799994D01*
X2687980Y2814523D01*
X2685237Y2828798D01*
X2680766Y2842666D01*
X2674569Y2855823D01*
X2666746Y2868117D01*
X2657449Y2879344D01*
X2646883Y2889300D01*
X2635097Y2897835D01*
X2622346Y2904845D01*
X2608783Y2910230D01*
X2594711Y2913837D01*
X2580284Y2915666D01*
X2565704Y2915666D01*
X2551277Y2913837D01*
X2537206Y2910230D01*
X2523642Y2904845D01*
X2510891Y2897835D01*
X2499106Y2889300D01*
X2488539Y2879344D01*
X2479243Y2868117D01*
X2471420Y2855823D01*
X2465222Y2842666D01*
X2460752Y2828798D01*
X2458008Y2814523D01*
X2457094Y2799994D01*
X2458008Y2785465D01*
X2460752Y2771190D01*
X2465222Y2757322D01*
X2471420Y2744165D01*
X2479243Y2731871D01*
X2488539Y2720644D01*
X2499106Y2710688D01*
X2510891Y2702153D01*
X2523642Y2695143D01*
X2537206Y2689758D01*
X2551277Y2686151D01*
G37*
G36*
X2311704Y2684322D02*
G01*
X2326284Y2684322D01*
X2340711Y2686151D01*
X2354783Y2689758D01*
X2368346Y2695143D01*
X2381097Y2702153D01*
X2392883Y2710688D01*
X2403449Y2720644D01*
X2412746Y2731871D01*
X2420569Y2744165D01*
X2426766Y2757322D01*
X2431237Y2771190D01*
X2433980Y2785465D01*
X2434894Y2799994D01*
X2433980Y2814523D01*
X2431237Y2828798D01*
X2426766Y2842666D01*
X2420569Y2855823D01*
X2412746Y2868117D01*
X2403449Y2879344D01*
X2392883Y2889300D01*
X2381097Y2897835D01*
X2368346Y2904845D01*
X2354783Y2910230D01*
X2340711Y2913837D01*
X2326284Y2915666D01*
X2311704Y2915666D01*
X2297277Y2913837D01*
X2283206Y2910230D01*
X2269642Y2904845D01*
X2256891Y2897835D01*
X2245106Y2889300D01*
X2234539Y2879344D01*
X2225243Y2868117D01*
X2217420Y2855823D01*
X2211222Y2842666D01*
X2206752Y2828798D01*
X2204008Y2814523D01*
X2203094Y2799994D01*
X2204008Y2785465D01*
X2206752Y2771190D01*
X2211222Y2757322D01*
X2217420Y2744165D01*
X2225243Y2731871D01*
X2234539Y2720644D01*
X2245106Y2710688D01*
X2256891Y2702153D01*
X2269642Y2695143D01*
X2283206Y2689758D01*
X2297277Y2686151D01*
G37*
G36*
X2819704Y2684322D02*
G01*
X2834284Y2684322D01*
X2848711Y2686151D01*
X2862783Y2689758D01*
X2876346Y2695143D01*
X2889097Y2702153D01*
X2900883Y2710688D01*
X2911449Y2720644D01*
X2920746Y2731871D01*
X2928569Y2744165D01*
X2934766Y2757322D01*
X2939237Y2771190D01*
X2941980Y2785465D01*
X2942894Y2799994D01*
X2941980Y2814523D01*
X2939237Y2828798D01*
X2934766Y2842666D01*
X2933192Y2845917D01*
X2932277Y2849930D01*
X2932938Y2853994D01*
X2935224Y2857398D01*
X3027781Y2949956D01*
X3031083Y2952140D01*
X3034944Y2952953D01*
X3038856Y2952140D01*
X3042158Y2949956D01*
X3044342Y2946654D01*
X3045104Y2942793D01*
X3045104Y2917088D01*
X3044342Y2913126D01*
X3042056Y2909824D01*
X3038703Y2907639D01*
X3031642Y2904845D01*
X3018891Y2897835D01*
X3007106Y2889300D01*
X2996539Y2879344D01*
X2987243Y2868117D01*
X2979420Y2855823D01*
X2973222Y2842666D01*
X2968752Y2828798D01*
X2966008Y2814523D01*
X2965094Y2799994D01*
X2966008Y2785465D01*
X2968752Y2771190D01*
X2973222Y2757322D01*
X2979420Y2744165D01*
X2987243Y2731871D01*
X2996539Y2720644D01*
X3007106Y2710688D01*
X3018891Y2702153D01*
X3031642Y2695143D01*
X3045206Y2689758D01*
X3059277Y2686151D01*
X3073704Y2684322D01*
X3088284Y2684322D01*
X3102711Y2686151D01*
X3116783Y2689758D01*
X3130346Y2695143D01*
X3143097Y2702153D01*
X3154883Y2710688D01*
X3165449Y2720644D01*
X3174746Y2731871D01*
X3182569Y2744165D01*
X3188766Y2757322D01*
X3193237Y2771190D01*
X3195980Y2785465D01*
X3196894Y2799994D01*
X3195980Y2814523D01*
X3193237Y2828798D01*
X3188766Y2842666D01*
X3182569Y2855823D01*
X3174746Y2868117D01*
X3165449Y2879344D01*
X3154883Y2889300D01*
X3143097Y2897835D01*
X3130346Y2904845D01*
X3123336Y2907639D01*
X3119983Y2909824D01*
X3117697Y2913126D01*
X3116935Y2917088D01*
X3116935Y2961894D01*
X3117697Y2965754D01*
X3119882Y2969056D01*
X3511753Y3361182D01*
X3515055Y3363366D01*
X3518966Y3364128D01*
X3576065Y3364128D01*
X3580180Y3363264D01*
X3583584Y3360877D01*
X3588765Y3355187D01*
X3596690Y3349040D01*
X3605529Y3344265D01*
X3615029Y3340963D01*
X3624986Y3339337D01*
X3634994Y3339337D01*
X3644950Y3340963D01*
X3654450Y3344265D01*
X3663289Y3349040D01*
X3671214Y3355187D01*
X3678021Y3362604D01*
X3683508Y3371037D01*
X3687572Y3380232D01*
X3690010Y3389985D01*
X3690874Y3399993D01*
X3690010Y3410000D01*
X3687572Y3419754D01*
X3683508Y3428949D01*
X3678021Y3437382D01*
X3671214Y3444798D01*
X3663289Y3450945D01*
X3649776Y3458260D01*
X3647389Y3461613D01*
X3646525Y3465728D01*
X3650030Y3479952D01*
X3650843Y3489960D01*
X3650030Y3500018D01*
X3647541Y3509772D01*
X3643528Y3518966D01*
X3638042Y3527399D01*
X3631234Y3534765D01*
X3623259Y3540963D01*
X3614420Y3545738D01*
X3604920Y3548989D01*
X3595014Y3550665D01*
X3584956Y3550665D01*
X3575050Y3548989D01*
X3565550Y3545738D01*
X3556711Y3540963D01*
X3548735Y3534765D01*
X3543604Y3529177D01*
X3540201Y3526739D01*
X3536137Y3525875D01*
X3517544Y3525875D01*
X3509568Y3525062D01*
X3502456Y3522726D01*
X3495852Y3518915D01*
X3491331Y3515106D01*
X2884474Y2908198D01*
X2881223Y2906064D01*
X2877413Y2905252D01*
X2873552Y2905963D01*
X2862783Y2910230D01*
X2848711Y2913837D01*
X2834284Y2915666D01*
X2819704Y2915666D01*
X2805277Y2913837D01*
X2791206Y2910230D01*
X2777642Y2904845D01*
X2764891Y2897835D01*
X2753106Y2889300D01*
X2742539Y2879344D01*
X2733243Y2868117D01*
X2725420Y2855823D01*
X2719222Y2842666D01*
X2714752Y2828798D01*
X2712008Y2814523D01*
X2711094Y2799994D01*
X2712008Y2785465D01*
X2714752Y2771190D01*
X2719222Y2757322D01*
X2725420Y2744165D01*
X2733243Y2731871D01*
X2742539Y2720644D01*
X2753106Y2710688D01*
X2764891Y2702153D01*
X2777642Y2695143D01*
X2791206Y2689758D01*
X2805277Y2686151D01*
G37*
G36*
X4395012Y2869234D02*
G01*
X4405071Y2869234D01*
X4414977Y2870860D01*
X4424476Y2874162D01*
X4433316Y2878937D01*
X4441291Y2885084D01*
X4442612Y2886557D01*
X4445965Y2888945D01*
X4450080Y2889808D01*
X4454144Y2888945D01*
X4457547Y2886557D01*
X4458766Y2885186D01*
X4466691Y2879039D01*
X4475530Y2874264D01*
X4485030Y2870962D01*
X4494987Y2869336D01*
X4504994Y2869336D01*
X4514951Y2870962D01*
X4524451Y2874264D01*
X4533290Y2879039D01*
X4541215Y2885186D01*
X4542434Y2886557D01*
X4545838Y2888945D01*
X4549902Y2889808D01*
X4554016Y2888945D01*
X4557369Y2886557D01*
X4558690Y2885084D01*
X4566666Y2878937D01*
X4575505Y2874162D01*
X4585004Y2870860D01*
X4594910Y2869234D01*
X4604969Y2869234D01*
X4614875Y2870860D01*
X4624374Y2874162D01*
X4633214Y2878937D01*
X4641189Y2885084D01*
X4642510Y2886557D01*
X4645914Y2888996D01*
X4649978Y2889808D01*
X4654042Y2888996D01*
X4657445Y2886557D01*
X4658766Y2885084D01*
X4666742Y2878937D01*
X4675581Y2874162D01*
X4685080Y2870860D01*
X4694986Y2869234D01*
X4705045Y2869234D01*
X4714951Y2870860D01*
X4724450Y2874162D01*
X4733290Y2878937D01*
X4741265Y2885084D01*
X4748072Y2892501D01*
X4753559Y2900934D01*
X4757572Y2910128D01*
X4760061Y2919882D01*
X4760874Y2929890D01*
X4760061Y2939897D01*
X4757572Y2949651D01*
X4753559Y2958846D01*
X4748072Y2967278D01*
X4741265Y2974695D01*
X4733290Y2980842D01*
X4724450Y2985617D01*
X4714951Y2988919D01*
X4705045Y2990545D01*
X4694986Y2990545D01*
X4685080Y2988919D01*
X4675581Y2985617D01*
X4666742Y2980842D01*
X4658766Y2974695D01*
X4657445Y2973222D01*
X4654042Y2970784D01*
X4649978Y2969971D01*
X4645914Y2970784D01*
X4642510Y2973222D01*
X4641189Y2974695D01*
X4633214Y2980842D01*
X4624374Y2985617D01*
X4614875Y2988919D01*
X4604969Y2990545D01*
X4594910Y2990545D01*
X4585004Y2988919D01*
X4575505Y2985617D01*
X4566666Y2980842D01*
X4558690Y2974695D01*
X4557471Y2973324D01*
X4554118Y2970936D01*
X4550003Y2970072D01*
X4545939Y2970936D01*
X4542536Y2973324D01*
X4541215Y2974797D01*
X4533290Y2980944D01*
X4524451Y2985719D01*
X4514951Y2989021D01*
X4504994Y2990646D01*
X4494987Y2990646D01*
X4485030Y2989021D01*
X4475530Y2985719D01*
X4466691Y2980944D01*
X4458766Y2974797D01*
X4457446Y2973324D01*
X4454042Y2970936D01*
X4449978Y2970072D01*
X4445863Y2970936D01*
X4442510Y2973324D01*
X4441291Y2974695D01*
X4433316Y2980842D01*
X4424476Y2985617D01*
X4414977Y2988919D01*
X4405071Y2990545D01*
X4395012Y2990545D01*
X4385106Y2988919D01*
X4375607Y2985617D01*
X4366768Y2980842D01*
X4361332Y2976626D01*
X4357319Y2974746D01*
X4352848Y2974746D01*
X4348835Y2976626D01*
X4343298Y2980944D01*
X4334459Y2985719D01*
X4324959Y2989021D01*
X4315002Y2990646D01*
X4304995Y2990646D01*
X4295038Y2989021D01*
X4285538Y2985719D01*
X4276699Y2980944D01*
X4268774Y2974797D01*
X4261967Y2967380D01*
X4256481Y2958947D01*
X4252417Y2949752D01*
X4249978Y2939999D01*
X4249115Y2929991D01*
X4249978Y2919984D01*
X4252417Y2910230D01*
X4256481Y2901035D01*
X4261967Y2892602D01*
X4268774Y2885186D01*
X4276699Y2879039D01*
X4285538Y2874264D01*
X4295038Y2870962D01*
X4304995Y2869336D01*
X4315002Y2869336D01*
X4324959Y2870962D01*
X4334459Y2874264D01*
X4343298Y2879039D01*
X4348734Y2883255D01*
X4352747Y2885135D01*
X4357166Y2885135D01*
X4361180Y2883255D01*
X4366768Y2878937D01*
X4375607Y2874162D01*
X4385106Y2870860D01*
G37*
G36*
X725017Y2894126D02*
G01*
X738835Y2894990D01*
X752398Y2897733D01*
X765505Y2902153D01*
X777951Y2908300D01*
X789482Y2915970D01*
X799896Y2925114D01*
X808990Y2935528D01*
X816711Y2947060D01*
X822807Y2959455D01*
X827278Y2972612D01*
X829970Y2986176D01*
X830884Y2999994D01*
X829970Y3013811D01*
X827278Y3027375D01*
X822807Y3040532D01*
X816711Y3052927D01*
X808990Y3064459D01*
X799896Y3074873D01*
X789482Y3084017D01*
X777951Y3091688D01*
X765505Y3097834D01*
X752398Y3102254D01*
X738835Y3104997D01*
X725017Y3105861D01*
X711200Y3104997D01*
X697585Y3102254D01*
X684479Y3097834D01*
X672033Y3091688D01*
X660552Y3084017D01*
X650138Y3074873D01*
X640994Y3064459D01*
X633323Y3052927D01*
X627176Y3040532D01*
X622706Y3027375D01*
X620014Y3013811D01*
X619099Y2999994D01*
X620014Y2986176D01*
X622706Y2972612D01*
X627176Y2959455D01*
X633323Y2947060D01*
X640994Y2935528D01*
X650138Y2925114D01*
X660552Y2915970D01*
X672033Y2908300D01*
X684479Y2902153D01*
X697585Y2897733D01*
X711200Y2894990D01*
G37*
G36*
X274980Y2894126D02*
G01*
X288798Y2894990D01*
X302412Y2897733D01*
X315518Y2902153D01*
X327964Y2908300D01*
X339445Y2915970D01*
X349859Y2925114D01*
X359003Y2935528D01*
X366674Y2947060D01*
X372821Y2959455D01*
X377291Y2972612D01*
X379984Y2986176D01*
X380898Y2999994D01*
X379984Y3013811D01*
X377291Y3027375D01*
X372821Y3040532D01*
X366674Y3052927D01*
X359003Y3064459D01*
X349859Y3074873D01*
X339445Y3084017D01*
X327964Y3091688D01*
X315518Y3097834D01*
X302412Y3102254D01*
X288798Y3104997D01*
X274980Y3105861D01*
X261162Y3104997D01*
X247599Y3102254D01*
X234492Y3097834D01*
X222046Y3091688D01*
X210515Y3084017D01*
X200101Y3074873D01*
X191008Y3064459D01*
X183286Y3052927D01*
X177190Y3040532D01*
X172720Y3027375D01*
X170027Y3013811D01*
X169113Y2999994D01*
X170027Y2986176D01*
X172720Y2972612D01*
X177190Y2959455D01*
X183286Y2947060D01*
X191008Y2935528D01*
X200101Y2925114D01*
X210515Y2915970D01*
X222046Y2908300D01*
X234492Y2902153D01*
X247599Y2897733D01*
X261162Y2894990D01*
G37*
G36*
X1175004Y2939338D02*
G01*
X1185011Y2939338D01*
X1194968Y2940964D01*
X1204468Y2944266D01*
X1213307Y2949041D01*
X1221232Y2955188D01*
X1228039Y2962605D01*
X1233525Y2971038D01*
X1237589Y2980232D01*
X1240028Y2989986D01*
X1240891Y2999994D01*
X1240028Y3010001D01*
X1237589Y3019755D01*
X1233525Y3028950D01*
X1228039Y3037382D01*
X1221232Y3044799D01*
X1213307Y3050946D01*
X1204468Y3055721D01*
X1194968Y3059023D01*
X1185011Y3060649D01*
X1175004Y3060649D01*
X1165047Y3059023D01*
X1155547Y3055721D01*
X1146708Y3050946D01*
X1138783Y3044799D01*
X1131976Y3037382D01*
X1126490Y3028950D01*
X1122426Y3019755D01*
X1119987Y3010001D01*
X1119124Y2999994D01*
X1119987Y2989986D01*
X1122426Y2980232D01*
X1126490Y2971038D01*
X1131976Y2962605D01*
X1138783Y2955188D01*
X1146708Y2949041D01*
X1155547Y2944266D01*
X1165047Y2940964D01*
G37*
G36*
X4624882Y3009442D02*
G01*
X4634941Y3009442D01*
X4644847Y3011068D01*
X4654346Y3014370D01*
X4663186Y3019145D01*
X4671161Y3025292D01*
X4677968Y3032709D01*
X4683455Y3041142D01*
X4687468Y3050336D01*
X4689957Y3060090D01*
X4690770Y3070098D01*
X4689957Y3080105D01*
X4687468Y3089859D01*
X4683455Y3099054D01*
X4677968Y3107486D01*
X4671161Y3114903D01*
X4663186Y3121050D01*
X4654346Y3125825D01*
X4644847Y3129127D01*
X4634941Y3130753D01*
X4624882Y3130753D01*
X4614976Y3129127D01*
X4605477Y3125825D01*
X4596638Y3121050D01*
X4588662Y3114903D01*
X4581855Y3107486D01*
X4576368Y3099054D01*
X4572355Y3089859D01*
X4569866Y3080105D01*
X4569053Y3070098D01*
X4569866Y3060090D01*
X4572355Y3050336D01*
X4576368Y3041142D01*
X4581855Y3032709D01*
X4588662Y3025292D01*
X4596638Y3019145D01*
X4605477Y3014370D01*
X4614976Y3011068D01*
G37*
G36*
X1220012Y3169107D02*
G01*
X1231087Y3169970D01*
X1241907Y3172612D01*
X1252169Y3176828D01*
X1261668Y3182670D01*
X1270101Y3189884D01*
X1277315Y3198317D01*
X1283157Y3207816D01*
X1287373Y3218078D01*
X1290015Y3228898D01*
X1290878Y3239973D01*
X1290015Y3251098D01*
X1287373Y3261918D01*
X1283157Y3272180D01*
X1277315Y3281679D01*
X1270101Y3290112D01*
X1261668Y3297326D01*
X1252169Y3303168D01*
X1241907Y3307384D01*
X1231087Y3310026D01*
X1220012Y3310890D01*
X1208887Y3310026D01*
X1198067Y3307384D01*
X1187805Y3303168D01*
X1178306Y3297326D01*
X1169873Y3290112D01*
X1162659Y3281679D01*
X1156817Y3272180D01*
X1152601Y3261918D01*
X1149959Y3251098D01*
X1149096Y3239973D01*
X1149959Y3228898D01*
X1152601Y3218078D01*
X1156817Y3207816D01*
X1162659Y3198317D01*
X1169873Y3189884D01*
X1178306Y3182670D01*
X1187805Y3176828D01*
X1198067Y3172612D01*
X1208887Y3169970D01*
G37*
G36*
X3919982Y3219094D02*
G01*
X3931056Y3219958D01*
X3941876Y3222599D01*
X3952138Y3226816D01*
X3961637Y3232658D01*
X3970121Y3239871D01*
X3977335Y3248304D01*
X3983126Y3257803D01*
X3987393Y3268065D01*
X3989984Y3278886D01*
X3990848Y3289960D01*
X3989984Y3301085D01*
X3987393Y3311906D01*
X3983126Y3322167D01*
X3977335Y3331667D01*
X3970121Y3340100D01*
X3967581Y3342284D01*
X3964940Y3345738D01*
X3964025Y3350006D01*
X3964940Y3354222D01*
X3967581Y3357727D01*
X3970121Y3359861D01*
X3977335Y3368344D01*
X3983126Y3377844D01*
X3987393Y3388106D01*
X3989984Y3398926D01*
X3990848Y3410000D01*
X3989984Y3421075D01*
X3987393Y3431895D01*
X3983126Y3442157D01*
X3977335Y3451656D01*
X3970121Y3460140D01*
X3961637Y3467354D01*
X3952138Y3473145D01*
X3941876Y3477412D01*
X3931056Y3480003D01*
X3919982Y3480866D01*
X3908907Y3480003D01*
X3898087Y3477412D01*
X3887825Y3473145D01*
X3878326Y3467354D01*
X3869842Y3460140D01*
X3862628Y3451656D01*
X3856837Y3442157D01*
X3852570Y3431895D01*
X3849979Y3421075D01*
X3849115Y3410000D01*
X3849979Y3398926D01*
X3852570Y3388106D01*
X3856837Y3377844D01*
X3862628Y3368344D01*
X3869842Y3359861D01*
X3872382Y3357727D01*
X3875024Y3354222D01*
X3875938Y3350006D01*
X3875024Y3345738D01*
X3872382Y3342284D01*
X3869842Y3340100D01*
X3862628Y3331667D01*
X3856837Y3322167D01*
X3852570Y3311906D01*
X3849979Y3301085D01*
X3849115Y3289960D01*
X3849979Y3278886D01*
X3852570Y3268065D01*
X3856837Y3257803D01*
X3862628Y3248304D01*
X3869842Y3239871D01*
X3878326Y3232658D01*
X3887825Y3226816D01*
X3898087Y3222599D01*
X3908907Y3219958D01*
G37*
G36*
X4694986Y3369310D02*
G01*
X4704994Y3369310D01*
X4714951Y3370986D01*
X4724450Y3374237D01*
X4733290Y3379012D01*
X4741214Y3385210D01*
X4748022Y3392576D01*
X4753508Y3401009D01*
X4757572Y3410204D01*
X4760010Y3419957D01*
X4760874Y3429965D01*
X4760010Y3440023D01*
X4757572Y3449777D01*
X4753508Y3458972D01*
X4748022Y3467404D01*
X4741214Y3474770D01*
X4733290Y3480968D01*
X4724450Y3485743D01*
X4714951Y3488994D01*
X4704994Y3490671D01*
X4700320Y3490671D01*
X4696206Y3491534D01*
X4692802Y3493922D01*
X4690668Y3497529D01*
X4690160Y3501644D01*
X4690872Y3509975D01*
X4690008Y3520033D01*
X4687570Y3529787D01*
X4683506Y3538982D01*
X4678019Y3547414D01*
X4671212Y3554780D01*
X4663287Y3560978D01*
X4654448Y3565753D01*
X4644948Y3569004D01*
X4634992Y3570681D01*
X4624984Y3570681D01*
X4615027Y3569004D01*
X4605528Y3565753D01*
X4601616Y3563620D01*
X4598060Y3562502D01*
X4594301Y3562705D01*
X4590897Y3564280D01*
X4581245Y3574796D01*
X4573270Y3580942D01*
X4564430Y3585718D01*
X4554931Y3589020D01*
X4545025Y3590645D01*
X4534966Y3590645D01*
X4525060Y3589020D01*
X4515561Y3585718D01*
X4506722Y3580942D01*
X4498746Y3574796D01*
X4491939Y3567379D01*
X4486452Y3558946D01*
X4482439Y3549751D01*
X4479950Y3539998D01*
X4479137Y3529990D01*
X4479950Y3519982D01*
X4482439Y3510229D01*
X4486452Y3501034D01*
X4491939Y3492601D01*
X4498746Y3485184D01*
X4506722Y3479037D01*
X4515561Y3474262D01*
X4525060Y3470960D01*
X4534966Y3469335D01*
X4545025Y3469335D01*
X4554931Y3470960D01*
X4564430Y3474262D01*
X4568342Y3476345D01*
X4571949Y3477514D01*
X4575708Y3477260D01*
X4579112Y3475685D01*
X4588764Y3465220D01*
X4596688Y3459022D01*
X4605528Y3454247D01*
X4615027Y3450996D01*
X4624984Y3449320D01*
X4629658Y3449320D01*
X4633772Y3448456D01*
X4637176Y3446068D01*
X4639310Y3442462D01*
X4639818Y3438347D01*
X4639106Y3429965D01*
X4639970Y3419957D01*
X4642408Y3410204D01*
X4646472Y3401009D01*
X4651959Y3392576D01*
X4658766Y3385210D01*
X4666691Y3379012D01*
X4675530Y3374237D01*
X4685030Y3370986D01*
G37*
G36*
X3059988Y3519119D02*
G01*
X3071063Y3519982D01*
X3081883Y3522573D01*
X3092145Y3526840D01*
X3101644Y3532632D01*
X3110128Y3539845D01*
X3117342Y3548329D01*
X3123133Y3557828D01*
X3127400Y3568090D01*
X3129991Y3578910D01*
X3130854Y3589985D01*
X3129991Y3601059D01*
X3127400Y3611879D01*
X3123133Y3622141D01*
X3117342Y3631641D01*
X3110128Y3640124D01*
X3101644Y3647338D01*
X3092145Y3653129D01*
X3081883Y3657396D01*
X3071063Y3659987D01*
X3059988Y3660851D01*
X3048914Y3659987D01*
X3038094Y3657396D01*
X3027832Y3653129D01*
X3018332Y3647338D01*
X3009849Y3640124D01*
X3002635Y3631641D01*
X2996844Y3622141D01*
X2992577Y3611879D01*
X2989986Y3601059D01*
X2989122Y3589985D01*
X2989986Y3578910D01*
X2992577Y3568090D01*
X2996844Y3557828D01*
X3002635Y3548329D01*
X3009849Y3539845D01*
X3018332Y3532632D01*
X3027832Y3526840D01*
X3038094Y3522573D01*
X3048914Y3519982D01*
G37*
G36*
X1869998Y3559098D02*
G01*
X1881073Y3559962D01*
X1891893Y3562604D01*
X1902155Y3566820D01*
X1911654Y3572662D01*
X1920138Y3579876D01*
X1927352Y3588308D01*
X1933143Y3597808D01*
X1937410Y3608070D01*
X1940001Y3618890D01*
X1940864Y3629964D01*
X1940001Y3641090D01*
X1937410Y3651910D01*
X1933143Y3662172D01*
X1927352Y3671671D01*
X1920138Y3680104D01*
X1918360Y3681577D01*
X1915922Y3684727D01*
X1914855Y3688537D01*
X1915312Y3692448D01*
X1917242Y3695903D01*
X1920341Y3698392D01*
X1924202Y3699459D01*
X1931060Y3699967D01*
X1941880Y3702608D01*
X1952142Y3706825D01*
X1961642Y3712667D01*
X1970125Y3719880D01*
X1977339Y3728313D01*
X1983130Y3737813D01*
X1987397Y3748074D01*
X1989988Y3758895D01*
X1990852Y3769969D01*
X1989988Y3781094D01*
X1987397Y3791915D01*
X1983130Y3802176D01*
X1977339Y3811676D01*
X1970125Y3820109D01*
X1961642Y3827322D01*
X1952142Y3833164D01*
X1941880Y3837381D01*
X1931060Y3840022D01*
X1919986Y3840886D01*
X1908911Y3840022D01*
X1898091Y3837381D01*
X1887829Y3833164D01*
X1878330Y3827322D01*
X1869846Y3820109D01*
X1862632Y3811676D01*
X1858670Y3805174D01*
X1855825Y3802126D01*
X1852066Y3800500D01*
X1847951Y3800500D01*
X1844141Y3802126D01*
X1841347Y3805174D01*
X1837334Y3811676D01*
X1830120Y3820109D01*
X1821688Y3827322D01*
X1812188Y3833164D01*
X1801926Y3837381D01*
X1791106Y3840022D01*
X1780032Y3840886D01*
X1768906Y3840022D01*
X1758086Y3837381D01*
X1747824Y3833164D01*
X1738325Y3827322D01*
X1729892Y3820109D01*
X1722678Y3811676D01*
X1718665Y3805123D01*
X1715871Y3802126D01*
X1712061Y3800500D01*
X1707946Y3800500D01*
X1704187Y3802126D01*
X1701342Y3805123D01*
X1697329Y3811676D01*
X1690116Y3820109D01*
X1681683Y3827322D01*
X1672183Y3833164D01*
X1661922Y3837381D01*
X1651101Y3840022D01*
X1640027Y3840886D01*
X1628901Y3840022D01*
X1618081Y3837381D01*
X1607820Y3833164D01*
X1598320Y3827322D01*
X1589887Y3820109D01*
X1582674Y3811676D01*
X1576832Y3802176D01*
X1572615Y3791915D01*
X1569974Y3781094D01*
X1569110Y3769969D01*
X1569974Y3758895D01*
X1572615Y3748074D01*
X1576832Y3737813D01*
X1582674Y3728313D01*
X1589887Y3719880D01*
X1598320Y3712667D01*
X1607820Y3706825D01*
X1618081Y3702608D01*
X1628901Y3699967D01*
X1640027Y3699103D01*
X1651101Y3699967D01*
X1661922Y3702608D01*
X1672183Y3706825D01*
X1681683Y3712667D01*
X1690116Y3719880D01*
X1697329Y3728313D01*
X1701342Y3734866D01*
X1704187Y3737864D01*
X1707946Y3739489D01*
X1712061Y3739489D01*
X1715871Y3737864D01*
X1718665Y3734866D01*
X1722678Y3728313D01*
X1729892Y3719880D01*
X1738325Y3712667D01*
X1747824Y3706825D01*
X1758086Y3702608D01*
X1768906Y3699967D01*
X1780032Y3699103D01*
X1791106Y3699967D01*
X1801926Y3702608D01*
X1812188Y3706825D01*
X1821688Y3712667D01*
X1830120Y3719880D01*
X1837334Y3728313D01*
X1841347Y3734815D01*
X1844141Y3737864D01*
X1847951Y3739489D01*
X1852066Y3739489D01*
X1855825Y3737864D01*
X1858670Y3734815D01*
X1862632Y3728313D01*
X1869846Y3719880D01*
X1871624Y3718407D01*
X1874062Y3715258D01*
X1875129Y3711448D01*
X1874672Y3707536D01*
X1872742Y3704082D01*
X1869643Y3701592D01*
X1865782Y3700526D01*
X1858924Y3700018D01*
X1848104Y3697376D01*
X1837842Y3693160D01*
X1828342Y3687318D01*
X1819859Y3680104D01*
X1812645Y3671671D01*
X1806854Y3662172D01*
X1802587Y3651910D01*
X1799996Y3641090D01*
X1799132Y3629964D01*
X1799996Y3618890D01*
X1802587Y3608070D01*
X1806854Y3597808D01*
X1812645Y3588308D01*
X1819859Y3579876D01*
X1828342Y3572662D01*
X1837842Y3566820D01*
X1848104Y3562604D01*
X1858924Y3559962D01*
G37*
G36*
X1054963Y3589324D02*
G01*
X1065022Y3589324D01*
X1074928Y3590950D01*
X1084427Y3594252D01*
X1093266Y3599027D01*
X1101242Y3605174D01*
X1108049Y3612591D01*
X1113536Y3621024D01*
X1117549Y3630218D01*
X1120038Y3639972D01*
X1120851Y3649979D01*
X1120495Y3654602D01*
X1121054Y3658920D01*
X1123442Y3662629D01*
X1347114Y3886352D01*
X1350416Y3888536D01*
X1354328Y3889298D01*
X1364996Y3889298D01*
X1374952Y3890975D01*
X1384452Y3894226D01*
X1393291Y3899001D01*
X1401216Y3905199D01*
X1408023Y3912565D01*
X1413510Y3920998D01*
X1417574Y3930192D01*
X1420012Y3939946D01*
X1420876Y3949954D01*
X1420012Y3960012D01*
X1417574Y3969765D01*
X1413510Y3978960D01*
X1408023Y3987393D01*
X1401216Y3994759D01*
X1393291Y4000957D01*
X1384452Y4005732D01*
X1374952Y4008983D01*
X1364996Y4010660D01*
X1354988Y4010660D01*
X1345031Y4008983D01*
X1335532Y4005732D01*
X1326692Y4000957D01*
X1318768Y3994759D01*
X1311960Y3987393D01*
X1306474Y3978960D01*
X1302410Y3969765D01*
X1299972Y3960012D01*
X1299108Y3949954D01*
X1299514Y3945331D01*
X1298905Y3941013D01*
X1296568Y3937304D01*
X1072845Y3713632D01*
X1069543Y3711397D01*
X1065682Y3710635D01*
X1054963Y3710635D01*
X1045057Y3709009D01*
X1035558Y3705707D01*
X1026718Y3700932D01*
X1018743Y3694785D01*
X1011936Y3687368D01*
X1006449Y3678936D01*
X1002436Y3669741D01*
X999947Y3659987D01*
X999134Y3649979D01*
X999947Y3639972D01*
X1002436Y3630218D01*
X1006449Y3621024D01*
X1011936Y3612591D01*
X1018743Y3605174D01*
X1026718Y3599027D01*
X1035558Y3594252D01*
X1045057Y3590950D01*
G37*
G36*
X910031Y3719118D02*
G01*
X921105Y3719982D01*
X931926Y3722573D01*
X942187Y3726840D01*
X951687Y3732631D01*
X960119Y3739845D01*
X967333Y3748328D01*
X973175Y3757828D01*
X977392Y3768090D01*
X980033Y3778910D01*
X980897Y3789984D01*
X980033Y3801059D01*
X977392Y3811879D01*
X973175Y3822141D01*
X967333Y3831640D01*
X961593Y3838397D01*
X959764Y3841496D01*
X959154Y3845001D01*
X959764Y3848506D01*
X961593Y3851605D01*
X967333Y3858310D01*
X973175Y3867810D01*
X977392Y3878072D01*
X980033Y3888892D01*
X980897Y3899966D01*
X980033Y3911092D01*
X977392Y3921912D01*
X973175Y3932174D01*
X967333Y3941673D01*
X961593Y3948379D01*
X959764Y3951478D01*
X959154Y3954983D01*
X959764Y3958488D01*
X961593Y3961587D01*
X967333Y3968343D01*
X973175Y3977843D01*
X977392Y3988104D01*
X980033Y3998925D01*
X980897Y4009999D01*
X980033Y4021074D01*
X977392Y4031894D01*
X973175Y4042156D01*
X967333Y4051655D01*
X960119Y4060139D01*
X951687Y4067352D01*
X942187Y4073144D01*
X931926Y4077411D01*
X921105Y4080001D01*
X910031Y4080865D01*
X898906Y4080001D01*
X888085Y4077411D01*
X877824Y4073144D01*
X868324Y4067352D01*
X859891Y4060139D01*
X852678Y4051655D01*
X846836Y4042156D01*
X842619Y4031894D01*
X839978Y4021074D01*
X839114Y4009999D01*
X839978Y3998925D01*
X842619Y3988104D01*
X846836Y3977843D01*
X852678Y3968343D01*
X858418Y3961587D01*
X860247Y3958488D01*
X860856Y3954983D01*
X860247Y3951478D01*
X858418Y3948379D01*
X852678Y3941673D01*
X846836Y3932174D01*
X842619Y3921912D01*
X839978Y3911092D01*
X839114Y3899966D01*
X839978Y3888892D01*
X842619Y3878072D01*
X846836Y3867810D01*
X852678Y3858310D01*
X858418Y3851605D01*
X860247Y3848506D01*
X860856Y3845001D01*
X860247Y3841496D01*
X858418Y3838397D01*
X852678Y3831640D01*
X846836Y3822141D01*
X842619Y3811879D01*
X839978Y3801059D01*
X839114Y3789984D01*
X839978Y3778910D01*
X842619Y3768090D01*
X846836Y3757828D01*
X852678Y3748328D01*
X859891Y3739845D01*
X868324Y3732631D01*
X877824Y3726840D01*
X888085Y3722573D01*
X898906Y3719982D01*
G37*
G36*
X3739997Y3759098D02*
G01*
X3751072Y3759962D01*
X3761892Y3762603D01*
X3772154Y3766820D01*
X3781653Y3772662D01*
X3790137Y3779875D01*
X3797350Y3788308D01*
X3803142Y3797808D01*
X3807409Y3808069D01*
X3810000Y3818890D01*
X3810863Y3829964D01*
X3810000Y3841089D01*
X3807409Y3851910D01*
X3803142Y3862171D01*
X3797350Y3871671D01*
X3790137Y3880104D01*
X3781653Y3887317D01*
X3772154Y3893159D01*
X3761892Y3897376D01*
X3751072Y3900017D01*
X3739997Y3900881D01*
X3728923Y3900017D01*
X3718102Y3897376D01*
X3707841Y3893159D01*
X3698341Y3887317D01*
X3689858Y3880104D01*
X3682644Y3871671D01*
X3676853Y3862171D01*
X3672586Y3851910D01*
X3669995Y3841089D01*
X3669131Y3829964D01*
X3669995Y3818890D01*
X3672586Y3808069D01*
X3676853Y3797808D01*
X3682644Y3788308D01*
X3689858Y3779875D01*
X3698341Y3772662D01*
X3707841Y3766820D01*
X3718102Y3762603D01*
X3728923Y3759962D01*
G37*
G36*
X4714951Y3789324D02*
G01*
X4725009Y3789324D01*
X4734915Y3790950D01*
X4744415Y3794251D01*
X4753254Y3799027D01*
X4761230Y3805174D01*
X4768037Y3812590D01*
X4773523Y3821023D01*
X4777536Y3830218D01*
X4780026Y3839972D01*
X4780838Y3849979D01*
X4780026Y3859987D01*
X4777536Y3869740D01*
X4773523Y3878935D01*
X4768037Y3887368D01*
X4761230Y3894785D01*
X4753254Y3900932D01*
X4744415Y3905707D01*
X4734915Y3909009D01*
X4725009Y3910634D01*
X4714951Y3910634D01*
X4705045Y3909009D01*
X4695545Y3905707D01*
X4686706Y3900932D01*
X4678730Y3894785D01*
X4671923Y3887368D01*
X4666437Y3878935D01*
X4662424Y3869740D01*
X4659934Y3859987D01*
X4659122Y3849979D01*
X4659934Y3839972D01*
X4662424Y3830218D01*
X4666437Y3821023D01*
X4671923Y3812590D01*
X4678730Y3805174D01*
X4686706Y3799027D01*
X4695545Y3794251D01*
X4705045Y3790950D01*
G37*
G36*
X2249982Y3834079D02*
G01*
X2264511Y3834993D01*
X2278837Y3837736D01*
X2292654Y3842258D01*
X2305812Y3848455D01*
X2318105Y3856228D01*
X2329332Y3865524D01*
X2339289Y3876141D01*
X2347823Y3887876D01*
X2354834Y3900627D01*
X2360218Y3914190D01*
X2363825Y3928262D01*
X2365654Y3942740D01*
X2365654Y3957269D01*
X2363825Y3971696D01*
X2360218Y3985818D01*
X2354834Y3999331D01*
X2347823Y4012082D01*
X2339289Y4023868D01*
X2329332Y4034485D01*
X2318105Y4043730D01*
X2305812Y4051554D01*
X2292654Y4057751D01*
X2278837Y4062222D01*
X2264511Y4064965D01*
X2249982Y4065879D01*
X2235454Y4064965D01*
X2221179Y4062222D01*
X2207310Y4057751D01*
X2194153Y4051554D01*
X2181860Y4043730D01*
X2170684Y4034485D01*
X2160727Y4023868D01*
X2152142Y4012082D01*
X2145131Y3999331D01*
X2139797Y3985818D01*
X2136140Y3971696D01*
X2134311Y3957269D01*
X2134311Y3942740D01*
X2136140Y3928262D01*
X2139797Y3914190D01*
X2145131Y3900627D01*
X2152142Y3887876D01*
X2160727Y3876141D01*
X2170684Y3865524D01*
X2181860Y3856228D01*
X2194153Y3848455D01*
X2207310Y3842258D01*
X2221179Y3837736D01*
X2235454Y3834993D01*
G37*
G36*
X4249978Y3834079D02*
G01*
X4264507Y3834993D01*
X4278833Y3837736D01*
X4292650Y3842258D01*
X4305808Y3848455D01*
X4318101Y3856228D01*
X4329328Y3865524D01*
X4339285Y3876141D01*
X4347819Y3887876D01*
X4354830Y3900627D01*
X4360214Y3914190D01*
X4363821Y3928262D01*
X4365650Y3942740D01*
X4365650Y3957269D01*
X4363821Y3971696D01*
X4360214Y3985818D01*
X4354830Y3999331D01*
X4347819Y4012082D01*
X4339285Y4023868D01*
X4329328Y4034485D01*
X4318101Y4043730D01*
X4305808Y4051554D01*
X4292650Y4057751D01*
X4278833Y4062222D01*
X4264507Y4064965D01*
X4249978Y4065879D01*
X4235450Y4064965D01*
X4221175Y4062222D01*
X4207306Y4057751D01*
X4194149Y4051554D01*
X4181856Y4043730D01*
X4170679Y4034485D01*
X4160723Y4023868D01*
X4152137Y4012082D01*
X4145127Y3999331D01*
X4139793Y3985818D01*
X4136136Y3971696D01*
X4134307Y3957269D01*
X4134307Y3942740D01*
X4136136Y3928262D01*
X4139793Y3914190D01*
X4145127Y3900627D01*
X4152137Y3887876D01*
X4160723Y3876141D01*
X4170679Y3865524D01*
X4181856Y3856228D01*
X4194149Y3848455D01*
X4207306Y3842258D01*
X4221175Y3837736D01*
X4235450Y3834993D01*
G37*
G36*
X3249980Y3834079D02*
G01*
X3264509Y3834993D01*
X3278835Y3837736D01*
X3292652Y3842258D01*
X3305810Y3848455D01*
X3318103Y3856228D01*
X3329330Y3865524D01*
X3339287Y3876141D01*
X3347821Y3887876D01*
X3354832Y3900627D01*
X3360216Y3914190D01*
X3363823Y3928262D01*
X3365652Y3942740D01*
X3365652Y3957269D01*
X3363823Y3971696D01*
X3360216Y3985818D01*
X3354832Y3999331D01*
X3347821Y4012082D01*
X3339287Y4023868D01*
X3329330Y4034485D01*
X3318103Y4043730D01*
X3305810Y4051554D01*
X3292652Y4057751D01*
X3278835Y4062222D01*
X3264509Y4064965D01*
X3249980Y4065879D01*
X3235452Y4064965D01*
X3221177Y4062222D01*
X3207308Y4057751D01*
X3194151Y4051554D01*
X3181858Y4043730D01*
X3170682Y4034485D01*
X3160725Y4023868D01*
X3152140Y4012082D01*
X3145129Y3999331D01*
X3139795Y3985818D01*
X3136138Y3971696D01*
X3134309Y3957269D01*
X3134309Y3942740D01*
X3136138Y3928262D01*
X3139795Y3914190D01*
X3145129Y3900627D01*
X3152140Y3887876D01*
X3160725Y3876141D01*
X3170682Y3865524D01*
X3181858Y3856228D01*
X3194151Y3848455D01*
X3207308Y3842258D01*
X3221177Y3837736D01*
X3235452Y3834993D01*
G37*
G36*
X3249980Y4234078D02*
G01*
X3264509Y4234992D01*
X3278835Y4237736D01*
X3292652Y4242257D01*
X3305810Y4248454D01*
X3318103Y4256227D01*
X3329330Y4265523D01*
X3339287Y4276140D01*
X3347821Y4287875D01*
X3354832Y4300626D01*
X3360216Y4314190D01*
X3363823Y4328261D01*
X3365652Y4342739D01*
X3365652Y4357268D01*
X3363823Y4371695D01*
X3360216Y4385818D01*
X3354832Y4399330D01*
X3347821Y4412081D01*
X3339287Y4423867D01*
X3329330Y4434484D01*
X3318103Y4443730D01*
X3305810Y4451553D01*
X3292652Y4457750D01*
X3278835Y4462221D01*
X3264509Y4464964D01*
X3249980Y4465878D01*
X3235452Y4464964D01*
X3221177Y4462221D01*
X3207308Y4457750D01*
X3194151Y4451553D01*
X3181858Y4443730D01*
X3170682Y4434484D01*
X3160725Y4423867D01*
X3152140Y4412081D01*
X3145129Y4399330D01*
X3139795Y4385818D01*
X3136138Y4371695D01*
X3134309Y4357268D01*
X3134309Y4342739D01*
X3136138Y4328261D01*
X3139795Y4314190D01*
X3145129Y4300626D01*
X3152140Y4287875D01*
X3160725Y4276140D01*
X3170682Y4265523D01*
X3181858Y4256227D01*
X3194151Y4248454D01*
X3207308Y4242257D01*
X3221177Y4237736D01*
X3235452Y4234992D01*
G37*
G36*
X4249978Y4234078D02*
G01*
X4264507Y4234992D01*
X4278833Y4237736D01*
X4292650Y4242257D01*
X4305808Y4248454D01*
X4318101Y4256227D01*
X4329328Y4265523D01*
X4339285Y4276140D01*
X4347819Y4287875D01*
X4354830Y4300626D01*
X4360214Y4314190D01*
X4363821Y4328261D01*
X4365650Y4342739D01*
X4365650Y4357268D01*
X4363821Y4371695D01*
X4360214Y4385818D01*
X4354830Y4399330D01*
X4347819Y4412081D01*
X4339285Y4423867D01*
X4329328Y4434484D01*
X4318101Y4443730D01*
X4305808Y4451553D01*
X4292650Y4457750D01*
X4278833Y4462221D01*
X4264507Y4464964D01*
X4249978Y4465878D01*
X4235450Y4464964D01*
X4221175Y4462221D01*
X4207306Y4457750D01*
X4194149Y4451553D01*
X4181856Y4443730D01*
X4170679Y4434484D01*
X4160723Y4423867D01*
X4152137Y4412081D01*
X4145127Y4399330D01*
X4139793Y4385818D01*
X4136136Y4371695D01*
X4134307Y4357268D01*
X4134307Y4342739D01*
X4136136Y4328261D01*
X4139793Y4314190D01*
X4145127Y4300626D01*
X4152137Y4287875D01*
X4160723Y4276140D01*
X4170679Y4265523D01*
X4181856Y4256227D01*
X4194149Y4248454D01*
X4207306Y4242257D01*
X4221175Y4237736D01*
X4235450Y4234992D01*
G37*
G36*
X2249982Y4234078D02*
G01*
X2264511Y4234992D01*
X2278837Y4237736D01*
X2292654Y4242257D01*
X2305812Y4248454D01*
X2318105Y4256227D01*
X2329332Y4265523D01*
X2339289Y4276140D01*
X2347823Y4287875D01*
X2354834Y4300626D01*
X2360218Y4314190D01*
X2363825Y4328261D01*
X2365654Y4342739D01*
X2365654Y4357268D01*
X2363825Y4371695D01*
X2360218Y4385818D01*
X2354834Y4399330D01*
X2347823Y4412081D01*
X2339289Y4423867D01*
X2329332Y4434484D01*
X2318105Y4443730D01*
X2305812Y4451553D01*
X2292654Y4457750D01*
X2278837Y4462221D01*
X2264511Y4464964D01*
X2249982Y4465878D01*
X2235454Y4464964D01*
X2221179Y4462221D01*
X2207310Y4457750D01*
X2194153Y4451553D01*
X2181860Y4443730D01*
X2170684Y4434484D01*
X2160727Y4423867D01*
X2152142Y4412081D01*
X2145131Y4399330D01*
X2139797Y4385818D01*
X2136140Y4371695D01*
X2134311Y4357268D01*
X2134311Y4342739D01*
X2136140Y4328261D01*
X2139797Y4314190D01*
X2145131Y4300626D01*
X2152142Y4287875D01*
X2160727Y4276140D01*
X2170684Y4265523D01*
X2181860Y4256227D01*
X2194153Y4248454D01*
X2207310Y4242257D01*
X2221179Y4237736D01*
X2235454Y4234992D01*
G37*
G36*
X5290007Y4269130D02*
G01*
X5301081Y4269994D01*
X5311902Y4272584D01*
X5322163Y4276852D01*
X5331663Y4282643D01*
X5340096Y4289856D01*
X5347309Y4298340D01*
X5353151Y4307840D01*
X5357368Y4318101D01*
X5360009Y4328922D01*
X5360873Y4339996D01*
X5360009Y4351070D01*
X5357368Y4361891D01*
X5353151Y4372152D01*
X5347309Y4381652D01*
X5340096Y4390136D01*
X5331663Y4397349D01*
X5322163Y4403140D01*
X5311902Y4407408D01*
X5301081Y4409998D01*
X5290007Y4410862D01*
X5278882Y4409998D01*
X5268061Y4407408D01*
X5257800Y4403140D01*
X5248300Y4397349D01*
X5239867Y4390136D01*
X5232654Y4381652D01*
X5226812Y4372152D01*
X5222595Y4361891D01*
X5219954Y4351070D01*
X5219090Y4339996D01*
X5219954Y4328922D01*
X5222595Y4318101D01*
X5226812Y4307840D01*
X5232654Y4298340D01*
X5239867Y4289856D01*
X5248300Y4282643D01*
X5257800Y4276852D01*
X5268061Y4272584D01*
X5278882Y4269994D01*
G37*
G36*
X5134965Y4419346D02*
G01*
X5145024Y4419346D01*
X5154930Y4420971D01*
X5164429Y4424273D01*
X5173268Y4429048D01*
X5181244Y4435195D01*
X5188051Y4442612D01*
X5193538Y4451045D01*
X5197551Y4460240D01*
X5200040Y4469993D01*
X5200853Y4480001D01*
X5200040Y4490008D01*
X5197551Y4499762D01*
X5193538Y4508957D01*
X5188051Y4517390D01*
X5181244Y4524806D01*
X5173268Y4530953D01*
X5164429Y4535728D01*
X5154930Y4539030D01*
X5145024Y4540656D01*
X5134965Y4540656D01*
X5125059Y4539030D01*
X5115560Y4535728D01*
X5106720Y4530953D01*
X5098745Y4524806D01*
X5091938Y4517390D01*
X5086451Y4508957D01*
X5082438Y4499762D01*
X5079949Y4490008D01*
X5079136Y4480001D01*
X5079949Y4469993D01*
X5082438Y4460240D01*
X5086451Y4451045D01*
X5091938Y4442612D01*
X5098745Y4435195D01*
X5106720Y4429048D01*
X5115560Y4424273D01*
X5125059Y4420971D01*
G37*
G36*
X1040231Y4504131D02*
G01*
X2039721Y4504131D01*
X2045614Y4504334D01*
X2052116Y4504994D01*
X2057755Y4506010D01*
X2064105Y4507636D01*
X2069541Y4509414D01*
X2075586Y4511903D01*
X2080717Y4514443D01*
X2086356Y4517796D01*
X2091029Y4521047D01*
X2096109Y4525111D01*
X2102662Y4531309D01*
X2105863Y4533341D01*
X2109622Y4534103D01*
X2189632Y4534103D01*
X2202230Y4534966D01*
X2214168Y4537608D01*
X2225649Y4541875D01*
X2236419Y4547717D01*
X2246223Y4555083D01*
X2254910Y4563770D01*
X2262225Y4573574D01*
X2268118Y4584293D01*
X2272385Y4595774D01*
X2275027Y4607763D01*
X2275890Y4620006D01*
X2275027Y4632198D01*
X2272385Y4644186D01*
X2268118Y4655667D01*
X2262225Y4666437D01*
X2254910Y4676241D01*
X2246223Y4684877D01*
X2236419Y4692243D01*
X2225649Y4698136D01*
X2214168Y4702403D01*
X2202230Y4704994D01*
X2189632Y4705908D01*
X2070150Y4705908D01*
X2064359Y4705705D01*
X2057755Y4704994D01*
X2052218Y4704029D01*
X2045766Y4702403D01*
X2040432Y4700625D01*
X2034286Y4698136D01*
X2029256Y4695596D01*
X2023567Y4692243D01*
X2018944Y4688992D01*
X2013762Y4684928D01*
X2007362Y4678781D01*
X2004110Y4676698D01*
X2000300Y4675936D01*
X1040231Y4675936D01*
X1027633Y4675022D01*
X1015695Y4672431D01*
X1004214Y4668164D01*
X993444Y4662271D01*
X983640Y4654956D01*
X974598Y4645761D01*
X971499Y4643018D01*
X967587Y4641748D01*
X963472Y4642154D01*
X959866Y4644136D01*
X956056Y4647387D01*
X946556Y4653178D01*
X936294Y4657445D01*
X925474Y4660036D01*
X914400Y4660900D01*
X903325Y4660036D01*
X892505Y4657445D01*
X882243Y4653178D01*
X872744Y4647387D01*
X864260Y4640173D01*
X857046Y4631690D01*
X851255Y4622190D01*
X846988Y4611928D01*
X844397Y4601108D01*
X843534Y4590034D01*
X844397Y4578959D01*
X846988Y4568139D01*
X851255Y4557877D01*
X857046Y4548378D01*
X864260Y4539894D01*
X872744Y4532680D01*
X882243Y4526889D01*
X892505Y4522622D01*
X903325Y4520031D01*
X914400Y4519168D01*
X925474Y4520031D01*
X936294Y4522622D01*
X946556Y4526889D01*
X956056Y4532680D01*
X959866Y4535932D01*
X963472Y4537913D01*
X967587Y4538319D01*
X971499Y4537049D01*
X983640Y4525111D01*
X993444Y4517796D01*
X1004214Y4511903D01*
X1015695Y4507636D01*
X1027633Y4505045D01*
G37*
G36*
X389991Y4599127D02*
G01*
X401066Y4599990D01*
X411886Y4602581D01*
X422148Y4606848D01*
X431647Y4612640D01*
X440131Y4619853D01*
X447344Y4628337D01*
X453135Y4637836D01*
X457403Y4648098D01*
X459993Y4658918D01*
X460857Y4669993D01*
X459993Y4681067D01*
X457403Y4691888D01*
X453135Y4702149D01*
X447344Y4711649D01*
X440131Y4720132D01*
X431647Y4727346D01*
X422148Y4733137D01*
X411886Y4737404D01*
X401066Y4739995D01*
X389991Y4740859D01*
X378917Y4739995D01*
X368096Y4737404D01*
X357835Y4733137D01*
X348335Y4727346D01*
X339852Y4720132D01*
X332638Y4711649D01*
X326847Y4702149D01*
X322580Y4691888D01*
X319989Y4681067D01*
X319125Y4669993D01*
X319989Y4658918D01*
X322580Y4648098D01*
X326847Y4637836D01*
X332638Y4628337D01*
X339852Y4619853D01*
X348335Y4612640D01*
X357835Y4606848D01*
X368096Y4602581D01*
X378917Y4599990D01*
G37*
G36*
X3240024Y4719116D02*
G01*
X3251098Y4719980D01*
X3261918Y4722571D01*
X3272180Y4726838D01*
X3281679Y4732629D01*
X3290112Y4739843D01*
X3297326Y4748326D01*
X3303168Y4757826D01*
X3307384Y4768088D01*
X3310026Y4778908D01*
X3310890Y4789982D01*
X3310026Y4801057D01*
X3307384Y4811877D01*
X3303168Y4822139D01*
X3297326Y4831638D01*
X3290112Y4840122D01*
X3281730Y4847234D01*
X3279089Y4850739D01*
X3278174Y4854956D01*
X3279089Y4859223D01*
X3281730Y4862728D01*
X3290112Y4869840D01*
X3297326Y4878324D01*
X3303168Y4887823D01*
X3307384Y4898085D01*
X3310026Y4908905D01*
X3310890Y4919980D01*
X3310026Y4931054D01*
X3307384Y4941874D01*
X3303168Y4952136D01*
X3297326Y4961636D01*
X3290112Y4970119D01*
X3281679Y4977333D01*
X3272180Y4983124D01*
X3261918Y4987391D01*
X3251098Y4989982D01*
X3240024Y4990846D01*
X3228898Y4989982D01*
X3218078Y4987391D01*
X3207816Y4983124D01*
X3198317Y4977333D01*
X3189884Y4970119D01*
X3182670Y4961636D01*
X3176828Y4952136D01*
X3172612Y4941874D01*
X3169970Y4931054D01*
X3169107Y4919980D01*
X3169970Y4908905D01*
X3172612Y4898085D01*
X3176828Y4887823D01*
X3182670Y4878324D01*
X3189884Y4869840D01*
X3198266Y4862728D01*
X3200908Y4859223D01*
X3201822Y4854956D01*
X3200908Y4850739D01*
X3198266Y4847234D01*
X3189884Y4840122D01*
X3182670Y4831638D01*
X3176828Y4822139D01*
X3172612Y4811877D01*
X3169970Y4801057D01*
X3169107Y4789982D01*
X3169970Y4778908D01*
X3172612Y4768088D01*
X3176828Y4757826D01*
X3182670Y4748326D01*
X3189884Y4739843D01*
X3198317Y4732629D01*
X3207816Y4726838D01*
X3218078Y4722571D01*
X3228898Y4719980D01*
G37*
G36*
X4994960Y4739335D02*
G01*
X5005019Y4739335D01*
X5014925Y4740960D01*
X5024424Y4744262D01*
X5033264Y4749038D01*
X5041239Y4755184D01*
X5048046Y4762601D01*
X5053533Y4771034D01*
X5057546Y4780229D01*
X5060035Y4789982D01*
X5060848Y4799990D01*
X5060035Y4809998D01*
X5057546Y4819751D01*
X5053533Y4828946D01*
X5048046Y4837379D01*
X5041239Y4844796D01*
X5033264Y4850942D01*
X5024424Y4855718D01*
X5014925Y4859020D01*
X5005019Y4860645D01*
X4994960Y4860645D01*
X4985054Y4859020D01*
X4975555Y4855718D01*
X4966716Y4850942D01*
X4958740Y4844796D01*
X4951933Y4837379D01*
X4946446Y4828946D01*
X4942433Y4819751D01*
X4939944Y4809998D01*
X4939131Y4799990D01*
X4939944Y4789982D01*
X4942433Y4780229D01*
X4946446Y4771034D01*
X4951933Y4762601D01*
X4958740Y4755184D01*
X4966716Y4749038D01*
X4975555Y4744262D01*
X4985054Y4740960D01*
G37*
G36*
X6030010Y4749088D02*
G01*
X6041085Y4749952D01*
X6051905Y4752594D01*
X6062167Y4756810D01*
X6071666Y4762652D01*
X6080099Y4769866D01*
X6087313Y4778298D01*
X6093155Y4787798D01*
X6097371Y4798060D01*
X6100013Y4808880D01*
X6100876Y4819954D01*
X6100013Y4831080D01*
X6097371Y4841900D01*
X6093155Y4852162D01*
X6087313Y4861661D01*
X6080099Y4870094D01*
X6071666Y4877308D01*
X6062167Y4883150D01*
X6051905Y4887366D01*
X6041085Y4890008D01*
X6030010Y4890871D01*
X6018885Y4890008D01*
X6008065Y4887366D01*
X5997803Y4883150D01*
X5988304Y4877308D01*
X5979871Y4870094D01*
X5972657Y4861661D01*
X5966815Y4852162D01*
X5962599Y4841900D01*
X5959957Y4831080D01*
X5959094Y4819954D01*
X5959957Y4808880D01*
X5962599Y4798060D01*
X5966815Y4787798D01*
X5972657Y4778298D01*
X5979871Y4769866D01*
X5988304Y4762652D01*
X5997803Y4756810D01*
X6008065Y4752594D01*
X6018885Y4749952D01*
G37*
G36*
X350012Y4759096D02*
G01*
X361086Y4759960D01*
X371906Y4762601D01*
X382168Y4766818D01*
X391668Y4772660D01*
X398424Y4778400D01*
X401472Y4780178D01*
X405028Y4780838D01*
X408533Y4780178D01*
X411581Y4778400D01*
X418338Y4772660D01*
X427837Y4766818D01*
X438099Y4762601D01*
X448919Y4759960D01*
X459993Y4759096D01*
X471068Y4759960D01*
X481888Y4762601D01*
X492150Y4766818D01*
X501650Y4772660D01*
X510133Y4779873D01*
X517347Y4788306D01*
X523138Y4797806D01*
X527405Y4808067D01*
X529996Y4818888D01*
X530860Y4829962D01*
X529996Y4841087D01*
X527405Y4851908D01*
X523138Y4862169D01*
X517347Y4871669D01*
X510133Y4880102D01*
X501650Y4887315D01*
X492150Y4893157D01*
X481888Y4897374D01*
X471068Y4900015D01*
X459993Y4900879D01*
X448919Y4900015D01*
X438099Y4897374D01*
X427837Y4893157D01*
X418338Y4887315D01*
X411581Y4881575D01*
X408533Y4879797D01*
X405028Y4879136D01*
X401472Y4879797D01*
X398424Y4881575D01*
X391668Y4887315D01*
X382168Y4893157D01*
X371906Y4897374D01*
X361086Y4900015D01*
X350012Y4900879D01*
X338937Y4900015D01*
X328117Y4897374D01*
X317855Y4893157D01*
X308356Y4887315D01*
X299872Y4880102D01*
X292658Y4871669D01*
X286867Y4862169D01*
X282600Y4851908D01*
X280009Y4841087D01*
X279146Y4829962D01*
X280009Y4818888D01*
X282600Y4808067D01*
X286867Y4797806D01*
X292658Y4788306D01*
X299872Y4779873D01*
X308356Y4772660D01*
X317855Y4766818D01*
X328117Y4762601D01*
X338937Y4759960D01*
G37*
G36*
X5624982Y4849317D02*
G01*
X5634990Y4849317D01*
X5644946Y4850993D01*
X5654446Y4854244D01*
X5663285Y4859020D01*
X5671210Y4865217D01*
X5678017Y4872583D01*
X5683504Y4881016D01*
X5687568Y4890211D01*
X5690006Y4899964D01*
X5690870Y4909972D01*
X5690006Y4920030D01*
X5687568Y4929784D01*
X5683504Y4938979D01*
X5678017Y4947412D01*
X5671210Y4954778D01*
X5663285Y4960975D01*
X5654446Y4965750D01*
X5644946Y4969002D01*
X5634990Y4970678D01*
X5624982Y4970678D01*
X5615025Y4969002D01*
X5605526Y4965750D01*
X5596686Y4960975D01*
X5588762Y4954778D01*
X5581954Y4947412D01*
X5576468Y4938979D01*
X5572404Y4929784D01*
X5569966Y4920030D01*
X5569102Y4909972D01*
X5569966Y4899964D01*
X5572404Y4890211D01*
X5576468Y4881016D01*
X5581954Y4872583D01*
X5588762Y4865217D01*
X5596686Y4859020D01*
X5605526Y4854244D01*
X5615025Y4850993D01*
G37*
G36*
X1344980Y5017109D02*
G01*
X1358798Y5018024D01*
X1372412Y5020716D01*
X1385519Y5025186D01*
X1397914Y5031282D01*
X1409446Y5039004D01*
X1419860Y5048097D01*
X1429004Y5058511D01*
X1436674Y5070043D01*
X1442821Y5082489D01*
X1447292Y5095595D01*
X1449984Y5109159D01*
X1450898Y5122976D01*
X1449984Y5136794D01*
X1447292Y5150408D01*
X1442821Y5163515D01*
X1436674Y5175910D01*
X1429004Y5187442D01*
X1419860Y5197856D01*
X1409446Y5207000D01*
X1397914Y5214670D01*
X1385519Y5220817D01*
X1372412Y5225288D01*
X1358798Y5227980D01*
X1344980Y5228894D01*
X1331163Y5227980D01*
X1317599Y5225288D01*
X1304493Y5220817D01*
X1292047Y5214670D01*
X1280515Y5207000D01*
X1270101Y5197856D01*
X1261008Y5187442D01*
X1253286Y5175910D01*
X1247190Y5163515D01*
X1242720Y5150408D01*
X1240028Y5136794D01*
X1239113Y5122976D01*
X1240028Y5109159D01*
X1242720Y5095595D01*
X1247190Y5082489D01*
X1253286Y5070043D01*
X1261008Y5058511D01*
X1270101Y5048097D01*
X1280515Y5039004D01*
X1292047Y5031282D01*
X1304493Y5025186D01*
X1317599Y5020716D01*
X1331163Y5018024D01*
G37*
G36*
X1090980Y5017109D02*
G01*
X1104798Y5018024D01*
X1118412Y5020716D01*
X1131519Y5025186D01*
X1143914Y5031282D01*
X1155446Y5039004D01*
X1165860Y5048097D01*
X1175004Y5058511D01*
X1182674Y5070043D01*
X1188821Y5082489D01*
X1193292Y5095595D01*
X1195984Y5109159D01*
X1196898Y5122976D01*
X1195984Y5136794D01*
X1193292Y5150408D01*
X1188821Y5163515D01*
X1182674Y5175910D01*
X1175004Y5187442D01*
X1165860Y5197856D01*
X1155446Y5207000D01*
X1143914Y5214670D01*
X1131519Y5220817D01*
X1118412Y5225288D01*
X1104798Y5227980D01*
X1090980Y5228894D01*
X1077163Y5227980D01*
X1063599Y5225288D01*
X1050493Y5220817D01*
X1038047Y5214670D01*
X1026515Y5207000D01*
X1016101Y5197856D01*
X1007008Y5187442D01*
X999286Y5175910D01*
X993190Y5163515D01*
X988720Y5150408D01*
X986028Y5136794D01*
X985113Y5122976D01*
X986028Y5109159D01*
X988720Y5095595D01*
X993190Y5082489D01*
X999286Y5070043D01*
X1007008Y5058511D01*
X1016101Y5048097D01*
X1026515Y5039004D01*
X1038047Y5031282D01*
X1050493Y5025186D01*
X1063599Y5020716D01*
X1077163Y5018024D01*
G37*
G36*
X1598980Y5017109D02*
G01*
X1612798Y5018024D01*
X1626412Y5020716D01*
X1639519Y5025186D01*
X1651914Y5031282D01*
X1663446Y5039004D01*
X1673860Y5048097D01*
X1683004Y5058511D01*
X1690674Y5070043D01*
X1696821Y5082489D01*
X1701292Y5095595D01*
X1703984Y5109159D01*
X1704898Y5122976D01*
X1703984Y5136794D01*
X1701292Y5150408D01*
X1696821Y5163515D01*
X1690674Y5175910D01*
X1683004Y5187442D01*
X1673860Y5197856D01*
X1663446Y5207000D01*
X1651914Y5214670D01*
X1639519Y5220817D01*
X1626412Y5225288D01*
X1612798Y5227980D01*
X1598980Y5228894D01*
X1585163Y5227980D01*
X1571599Y5225288D01*
X1558493Y5220817D01*
X1546047Y5214670D01*
X1534515Y5207000D01*
X1524101Y5197856D01*
X1515008Y5187442D01*
X1507286Y5175910D01*
X1501190Y5163515D01*
X1496720Y5150408D01*
X1494028Y5136794D01*
X1493113Y5122976D01*
X1494028Y5109159D01*
X1496720Y5095595D01*
X1501190Y5082489D01*
X1507286Y5070043D01*
X1515008Y5058511D01*
X1524101Y5048097D01*
X1534515Y5039004D01*
X1546047Y5031282D01*
X1558493Y5025186D01*
X1571599Y5020716D01*
X1585163Y5018024D01*
G37*
G36*
X1852980Y5017109D02*
G01*
X1866798Y5018024D01*
X1880412Y5020716D01*
X1893519Y5025186D01*
X1905914Y5031282D01*
X1917446Y5039004D01*
X1927860Y5048097D01*
X1937004Y5058511D01*
X1944674Y5070043D01*
X1950821Y5082489D01*
X1955292Y5095595D01*
X1957984Y5109159D01*
X1958898Y5122976D01*
X1957984Y5136794D01*
X1955292Y5150408D01*
X1950821Y5163515D01*
X1944674Y5175910D01*
X1937004Y5187442D01*
X1927860Y5197856D01*
X1917446Y5207000D01*
X1905914Y5214670D01*
X1893519Y5220817D01*
X1880412Y5225288D01*
X1866798Y5227980D01*
X1852980Y5228894D01*
X1839163Y5227980D01*
X1825599Y5225288D01*
X1812493Y5220817D01*
X1800047Y5214670D01*
X1788515Y5207000D01*
X1778101Y5197856D01*
X1769008Y5187442D01*
X1761286Y5175910D01*
X1755190Y5163515D01*
X1750720Y5150408D01*
X1748028Y5136794D01*
X1747113Y5122976D01*
X1748028Y5109159D01*
X1750720Y5095595D01*
X1755190Y5082489D01*
X1761286Y5070043D01*
X1769008Y5058511D01*
X1778101Y5048097D01*
X1788515Y5039004D01*
X1800047Y5031282D01*
X1812493Y5025186D01*
X1825599Y5020716D01*
X1839163Y5018024D01*
G37*
G36*
X3630980Y5017109D02*
G01*
X3644798Y5018024D01*
X3658412Y5020716D01*
X3671519Y5025186D01*
X3683914Y5031282D01*
X3695446Y5039004D01*
X3705860Y5048097D01*
X3715004Y5058511D01*
X3722674Y5070043D01*
X3728821Y5082489D01*
X3733292Y5095595D01*
X3735984Y5109159D01*
X3736898Y5122976D01*
X3735984Y5136794D01*
X3733292Y5150408D01*
X3728821Y5163515D01*
X3722674Y5175910D01*
X3715004Y5187442D01*
X3705860Y5197856D01*
X3695446Y5207000D01*
X3683914Y5214670D01*
X3671519Y5220817D01*
X3658412Y5225288D01*
X3644798Y5227980D01*
X3630980Y5228894D01*
X3617163Y5227980D01*
X3603599Y5225288D01*
X3590493Y5220817D01*
X3578047Y5214670D01*
X3566515Y5207000D01*
X3556101Y5197856D01*
X3547008Y5187442D01*
X3539286Y5175910D01*
X3533190Y5163515D01*
X3528720Y5150408D01*
X3526028Y5136794D01*
X3525113Y5122976D01*
X3526028Y5109159D01*
X3528720Y5095595D01*
X3533190Y5082489D01*
X3539286Y5070043D01*
X3547008Y5058511D01*
X3556101Y5048097D01*
X3566515Y5039004D01*
X3578047Y5031282D01*
X3590493Y5025186D01*
X3603599Y5020716D01*
X3617163Y5018024D01*
G37*
G36*
X3122980Y5017109D02*
G01*
X3136798Y5018024D01*
X3150412Y5020716D01*
X3163519Y5025186D01*
X3175914Y5031282D01*
X3187446Y5039004D01*
X3197860Y5048097D01*
X3207004Y5058511D01*
X3214674Y5070043D01*
X3220821Y5082489D01*
X3225292Y5095595D01*
X3227984Y5109159D01*
X3228898Y5122976D01*
X3227984Y5136794D01*
X3225292Y5150408D01*
X3220821Y5163515D01*
X3214674Y5175910D01*
X3207004Y5187442D01*
X3197860Y5197856D01*
X3187446Y5207000D01*
X3175914Y5214670D01*
X3163519Y5220817D01*
X3150412Y5225288D01*
X3136798Y5227980D01*
X3122980Y5228894D01*
X3109163Y5227980D01*
X3095599Y5225288D01*
X3082493Y5220817D01*
X3070047Y5214670D01*
X3058515Y5207000D01*
X3048101Y5197856D01*
X3039008Y5187442D01*
X3031286Y5175910D01*
X3025190Y5163515D01*
X3020720Y5150408D01*
X3018028Y5136794D01*
X3017113Y5122976D01*
X3018028Y5109159D01*
X3020720Y5095595D01*
X3025190Y5082489D01*
X3031286Y5070043D01*
X3039008Y5058511D01*
X3048101Y5048097D01*
X3058515Y5039004D01*
X3070047Y5031282D01*
X3082493Y5025186D01*
X3095599Y5020716D01*
X3109163Y5018024D01*
G37*
G36*
X3884980Y5017109D02*
G01*
X3898798Y5018024D01*
X3912412Y5020716D01*
X3925519Y5025186D01*
X3937914Y5031282D01*
X3949446Y5039004D01*
X3959860Y5048097D01*
X3969004Y5058511D01*
X3976674Y5070043D01*
X3982821Y5082489D01*
X3987292Y5095595D01*
X3989984Y5109159D01*
X3990898Y5122976D01*
X3989984Y5136794D01*
X3987292Y5150408D01*
X3982821Y5163515D01*
X3976674Y5175910D01*
X3969004Y5187442D01*
X3959860Y5197856D01*
X3949446Y5207000D01*
X3937914Y5214670D01*
X3925519Y5220817D01*
X3912412Y5225288D01*
X3898798Y5227980D01*
X3884980Y5228894D01*
X3871163Y5227980D01*
X3857599Y5225288D01*
X3844493Y5220817D01*
X3832047Y5214670D01*
X3820515Y5207000D01*
X3810101Y5197856D01*
X3801008Y5187442D01*
X3793286Y5175910D01*
X3787190Y5163515D01*
X3782720Y5150408D01*
X3780028Y5136794D01*
X3779113Y5122976D01*
X3780028Y5109159D01*
X3782720Y5095595D01*
X3787190Y5082489D01*
X3793286Y5070043D01*
X3801008Y5058511D01*
X3810101Y5048097D01*
X3820515Y5039004D01*
X3832047Y5031282D01*
X3844493Y5025186D01*
X3857599Y5020716D01*
X3871163Y5018024D01*
G37*
G36*
X2614980Y5017109D02*
G01*
X2628798Y5018024D01*
X2642412Y5020716D01*
X2655519Y5025186D01*
X2667914Y5031282D01*
X2679446Y5039004D01*
X2689860Y5048097D01*
X2699004Y5058511D01*
X2706674Y5070043D01*
X2712821Y5082489D01*
X2717292Y5095595D01*
X2719984Y5109159D01*
X2720898Y5122976D01*
X2719984Y5136794D01*
X2717292Y5150408D01*
X2712821Y5163515D01*
X2706674Y5175910D01*
X2699004Y5187442D01*
X2689860Y5197856D01*
X2679446Y5207000D01*
X2667914Y5214670D01*
X2655519Y5220817D01*
X2642412Y5225288D01*
X2628798Y5227980D01*
X2614980Y5228894D01*
X2601163Y5227980D01*
X2587599Y5225288D01*
X2574493Y5220817D01*
X2562047Y5214670D01*
X2550515Y5207000D01*
X2540101Y5197856D01*
X2531008Y5187442D01*
X2523286Y5175910D01*
X2517190Y5163515D01*
X2512720Y5150408D01*
X2510028Y5136794D01*
X2509113Y5122976D01*
X2510028Y5109159D01*
X2512720Y5095595D01*
X2517190Y5082489D01*
X2523286Y5070043D01*
X2531008Y5058511D01*
X2540101Y5048097D01*
X2550515Y5039004D01*
X2562047Y5031282D01*
X2574493Y5025186D01*
X2587599Y5020716D01*
X2601163Y5018024D01*
G37*
G36*
X4138980Y5017109D02*
G01*
X4152798Y5018024D01*
X4166412Y5020716D01*
X4179519Y5025186D01*
X4191914Y5031282D01*
X4203446Y5039004D01*
X4213860Y5048097D01*
X4223004Y5058511D01*
X4230674Y5070043D01*
X4236821Y5082489D01*
X4241292Y5095595D01*
X4243984Y5109159D01*
X4244898Y5122976D01*
X4243984Y5136794D01*
X4241292Y5150408D01*
X4236821Y5163515D01*
X4230674Y5175910D01*
X4223004Y5187442D01*
X4213860Y5197856D01*
X4203446Y5207000D01*
X4191914Y5214670D01*
X4179519Y5220817D01*
X4166412Y5225288D01*
X4152798Y5227980D01*
X4138980Y5228894D01*
X4125163Y5227980D01*
X4111599Y5225288D01*
X4098493Y5220817D01*
X4086047Y5214670D01*
X4074515Y5207000D01*
X4064101Y5197856D01*
X4055008Y5187442D01*
X4047286Y5175910D01*
X4041190Y5163515D01*
X4036720Y5150408D01*
X4034028Y5136794D01*
X4033113Y5122976D01*
X4034028Y5109159D01*
X4036720Y5095595D01*
X4041190Y5082489D01*
X4047286Y5070043D01*
X4055008Y5058511D01*
X4064101Y5048097D01*
X4074515Y5039004D01*
X4086047Y5031282D01*
X4098493Y5025186D01*
X4111599Y5020716D01*
X4125163Y5018024D01*
G37*
G36*
X2360980Y5017109D02*
G01*
X2374798Y5018024D01*
X2388412Y5020716D01*
X2401519Y5025186D01*
X2413914Y5031282D01*
X2425446Y5039004D01*
X2435860Y5048097D01*
X2445004Y5058511D01*
X2452674Y5070043D01*
X2458821Y5082489D01*
X2463292Y5095595D01*
X2465984Y5109159D01*
X2466898Y5122976D01*
X2465984Y5136794D01*
X2463292Y5150408D01*
X2458821Y5163515D01*
X2452674Y5175910D01*
X2445004Y5187442D01*
X2435860Y5197856D01*
X2425446Y5207000D01*
X2413914Y5214670D01*
X2401519Y5220817D01*
X2388412Y5225288D01*
X2374798Y5227980D01*
X2360980Y5228894D01*
X2347163Y5227980D01*
X2333599Y5225288D01*
X2320493Y5220817D01*
X2308047Y5214670D01*
X2296515Y5207000D01*
X2286101Y5197856D01*
X2277008Y5187442D01*
X2269286Y5175910D01*
X2263190Y5163515D01*
X2258720Y5150408D01*
X2256028Y5136794D01*
X2255113Y5122976D01*
X2256028Y5109159D01*
X2258720Y5095595D01*
X2263190Y5082489D01*
X2269286Y5070043D01*
X2277008Y5058511D01*
X2286101Y5048097D01*
X2296515Y5039004D01*
X2308047Y5031282D01*
X2320493Y5025186D01*
X2333599Y5020716D01*
X2347163Y5018024D01*
G37*
G36*
X4392980Y5017109D02*
G01*
X4406798Y5018024D01*
X4420412Y5020716D01*
X4433519Y5025186D01*
X4445914Y5031282D01*
X4457446Y5039004D01*
X4467860Y5048097D01*
X4477004Y5058511D01*
X4484674Y5070043D01*
X4490821Y5082489D01*
X4495292Y5095595D01*
X4497984Y5109159D01*
X4498898Y5122976D01*
X4497984Y5136794D01*
X4495292Y5150408D01*
X4490821Y5163515D01*
X4484674Y5175910D01*
X4477004Y5187442D01*
X4467860Y5197856D01*
X4457446Y5207000D01*
X4445914Y5214670D01*
X4433519Y5220817D01*
X4420412Y5225288D01*
X4406798Y5227980D01*
X4392980Y5228894D01*
X4379163Y5227980D01*
X4365599Y5225288D01*
X4352493Y5220817D01*
X4340047Y5214670D01*
X4328515Y5207000D01*
X4318101Y5197856D01*
X4309008Y5187442D01*
X4301286Y5175910D01*
X4295190Y5163515D01*
X4290720Y5150408D01*
X4288028Y5136794D01*
X4287113Y5122976D01*
X4288028Y5109159D01*
X4290720Y5095595D01*
X4295190Y5082489D01*
X4301286Y5070043D01*
X4309008Y5058511D01*
X4318101Y5048097D01*
X4328515Y5039004D01*
X4340047Y5031282D01*
X4352493Y5025186D01*
X4365599Y5020716D01*
X4379163Y5018024D01*
G37*
G36*
X3376980Y5017109D02*
G01*
X3390798Y5018024D01*
X3404412Y5020716D01*
X3417519Y5025186D01*
X3429914Y5031282D01*
X3441446Y5039004D01*
X3451860Y5048097D01*
X3461004Y5058511D01*
X3468674Y5070043D01*
X3474821Y5082489D01*
X3479292Y5095595D01*
X3481984Y5109159D01*
X3482898Y5122976D01*
X3481984Y5136794D01*
X3479292Y5150408D01*
X3474821Y5163515D01*
X3468674Y5175910D01*
X3461004Y5187442D01*
X3451860Y5197856D01*
X3441446Y5207000D01*
X3429914Y5214670D01*
X3417519Y5220817D01*
X3404412Y5225288D01*
X3390798Y5227980D01*
X3376980Y5228894D01*
X3363163Y5227980D01*
X3349599Y5225288D01*
X3336493Y5220817D01*
X3324047Y5214670D01*
X3312515Y5207000D01*
X3302101Y5197856D01*
X3293008Y5187442D01*
X3285286Y5175910D01*
X3279190Y5163515D01*
X3274720Y5150408D01*
X3272028Y5136794D01*
X3271113Y5122976D01*
X3272028Y5109159D01*
X3274720Y5095595D01*
X3279190Y5082489D01*
X3285286Y5070043D01*
X3293008Y5058511D01*
X3302101Y5048097D01*
X3312515Y5039004D01*
X3324047Y5031282D01*
X3336493Y5025186D01*
X3349599Y5020716D01*
X3363163Y5018024D01*
G37*
G36*
X2106980Y5017109D02*
G01*
X2120798Y5018024D01*
X2134412Y5020716D01*
X2147519Y5025186D01*
X2159914Y5031282D01*
X2171446Y5039004D01*
X2181860Y5048097D01*
X2191004Y5058511D01*
X2198674Y5070043D01*
X2204821Y5082489D01*
X2209292Y5095595D01*
X2211984Y5109159D01*
X2212898Y5122976D01*
X2211984Y5136794D01*
X2209292Y5150408D01*
X2204821Y5163515D01*
X2198674Y5175910D01*
X2191004Y5187442D01*
X2181860Y5197856D01*
X2171446Y5207000D01*
X2159914Y5214670D01*
X2147519Y5220817D01*
X2134412Y5225288D01*
X2120798Y5227980D01*
X2106980Y5228894D01*
X2093163Y5227980D01*
X2079599Y5225288D01*
X2066493Y5220817D01*
X2054047Y5214670D01*
X2042515Y5207000D01*
X2032101Y5197856D01*
X2023008Y5187442D01*
X2015286Y5175910D01*
X2009190Y5163515D01*
X2004720Y5150408D01*
X2002028Y5136794D01*
X2001113Y5122976D01*
X2002028Y5109159D01*
X2004720Y5095595D01*
X2009190Y5082489D01*
X2015286Y5070043D01*
X2023008Y5058511D01*
X2032101Y5048097D01*
X2042515Y5039004D01*
X2054047Y5031282D01*
X2066493Y5025186D01*
X2079599Y5020716D01*
X2093163Y5018024D01*
G37*
G36*
X4646980Y5017109D02*
G01*
X4660798Y5018024D01*
X4674412Y5020716D01*
X4687519Y5025186D01*
X4699914Y5031282D01*
X4711446Y5039004D01*
X4721860Y5048097D01*
X4731004Y5058511D01*
X4738674Y5070043D01*
X4744821Y5082489D01*
X4749292Y5095595D01*
X4751984Y5109159D01*
X4752898Y5122976D01*
X4751984Y5136794D01*
X4749292Y5150408D01*
X4744821Y5163515D01*
X4738674Y5175910D01*
X4731004Y5187442D01*
X4721860Y5197856D01*
X4711446Y5207000D01*
X4699914Y5214670D01*
X4687519Y5220817D01*
X4674412Y5225288D01*
X4660798Y5227980D01*
X4646980Y5228894D01*
X4633163Y5227980D01*
X4619599Y5225288D01*
X4606493Y5220817D01*
X4594047Y5214670D01*
X4582515Y5207000D01*
X4572101Y5197856D01*
X4563008Y5187442D01*
X4555286Y5175910D01*
X4549190Y5163515D01*
X4544720Y5150408D01*
X4542028Y5136794D01*
X4541113Y5122976D01*
X4542028Y5109159D01*
X4544720Y5095595D01*
X4549190Y5082489D01*
X4555286Y5070043D01*
X4563008Y5058511D01*
X4572101Y5048097D01*
X4582515Y5039004D01*
X4594047Y5031282D01*
X4606493Y5025186D01*
X4619599Y5020716D01*
X4633163Y5018024D01*
G37*
G36*
X5154980Y5017109D02*
G01*
X5168798Y5018024D01*
X5182412Y5020716D01*
X5195519Y5025186D01*
X5207914Y5031282D01*
X5219446Y5039004D01*
X5229860Y5048097D01*
X5239004Y5058511D01*
X5246674Y5070043D01*
X5252821Y5082489D01*
X5257292Y5095595D01*
X5259984Y5109159D01*
X5260898Y5122976D01*
X5259984Y5136794D01*
X5257292Y5150408D01*
X5252821Y5163515D01*
X5246674Y5175910D01*
X5239004Y5187442D01*
X5229860Y5197856D01*
X5219446Y5207000D01*
X5207914Y5214670D01*
X5195519Y5220817D01*
X5182412Y5225288D01*
X5168798Y5227980D01*
X5154980Y5228894D01*
X5141163Y5227980D01*
X5127599Y5225288D01*
X5114493Y5220817D01*
X5102047Y5214670D01*
X5090515Y5207000D01*
X5080101Y5197856D01*
X5071008Y5187442D01*
X5063286Y5175910D01*
X5057190Y5163515D01*
X5052720Y5150408D01*
X5050028Y5136794D01*
X5049113Y5122976D01*
X5050028Y5109159D01*
X5052720Y5095595D01*
X5057190Y5082489D01*
X5063286Y5070043D01*
X5071008Y5058511D01*
X5080101Y5048097D01*
X5090515Y5039004D01*
X5102047Y5031282D01*
X5114493Y5025186D01*
X5127599Y5020716D01*
X5141163Y5018024D01*
G37*
G36*
X5408980Y5017109D02*
G01*
X5422798Y5018024D01*
X5436412Y5020716D01*
X5449519Y5025186D01*
X5461914Y5031282D01*
X5473446Y5039004D01*
X5483860Y5048097D01*
X5493004Y5058511D01*
X5500674Y5070043D01*
X5506821Y5082489D01*
X5511292Y5095595D01*
X5513984Y5109159D01*
X5514898Y5122976D01*
X5513984Y5136794D01*
X5511292Y5150408D01*
X5506821Y5163515D01*
X5500674Y5175910D01*
X5493004Y5187442D01*
X5483860Y5197856D01*
X5473446Y5207000D01*
X5461914Y5214670D01*
X5449519Y5220817D01*
X5436412Y5225288D01*
X5422798Y5227980D01*
X5408980Y5228894D01*
X5395163Y5227980D01*
X5381599Y5225288D01*
X5368493Y5220817D01*
X5356047Y5214670D01*
X5344515Y5207000D01*
X5334101Y5197856D01*
X5325008Y5187442D01*
X5317286Y5175910D01*
X5311190Y5163515D01*
X5306720Y5150408D01*
X5304028Y5136794D01*
X5303113Y5122976D01*
X5304028Y5109159D01*
X5306720Y5095595D01*
X5311190Y5082489D01*
X5317286Y5070043D01*
X5325008Y5058511D01*
X5334101Y5048097D01*
X5344515Y5039004D01*
X5356047Y5031282D01*
X5368493Y5025186D01*
X5381599Y5020716D01*
X5395163Y5018024D01*
G37*
G36*
X5662980Y5017109D02*
G01*
X5676798Y5018024D01*
X5690412Y5020716D01*
X5703519Y5025186D01*
X5715914Y5031282D01*
X5727446Y5039004D01*
X5737860Y5048097D01*
X5747004Y5058511D01*
X5754674Y5070043D01*
X5760821Y5082489D01*
X5765292Y5095595D01*
X5767984Y5109159D01*
X5768898Y5122976D01*
X5767984Y5136794D01*
X5765292Y5150408D01*
X5760821Y5163515D01*
X5754674Y5175910D01*
X5747004Y5187442D01*
X5737860Y5197856D01*
X5727446Y5207000D01*
X5715914Y5214670D01*
X5703519Y5220817D01*
X5690412Y5225288D01*
X5676798Y5227980D01*
X5662980Y5228894D01*
X5649163Y5227980D01*
X5635599Y5225288D01*
X5622493Y5220817D01*
X5610047Y5214670D01*
X5598515Y5207000D01*
X5588101Y5197856D01*
X5579008Y5187442D01*
X5571286Y5175910D01*
X5565190Y5163515D01*
X5560720Y5150408D01*
X5558028Y5136794D01*
X5557113Y5122976D01*
X5558028Y5109159D01*
X5560720Y5095595D01*
X5565190Y5082489D01*
X5571286Y5070043D01*
X5579008Y5058511D01*
X5588101Y5048097D01*
X5598515Y5039004D01*
X5610047Y5031282D01*
X5622493Y5025186D01*
X5635599Y5020716D01*
X5649163Y5018024D01*
G37*
G36*
X4900980Y5017109D02*
G01*
X4914798Y5018024D01*
X4928412Y5020716D01*
X4941519Y5025186D01*
X4953914Y5031282D01*
X4965446Y5039004D01*
X4975860Y5048097D01*
X4985004Y5058511D01*
X4992674Y5070043D01*
X4998821Y5082489D01*
X5003292Y5095595D01*
X5005984Y5109159D01*
X5006898Y5122976D01*
X5005984Y5136794D01*
X5003292Y5150408D01*
X4998821Y5163515D01*
X4992674Y5175910D01*
X4985004Y5187442D01*
X4975860Y5197856D01*
X4965446Y5207000D01*
X4953914Y5214670D01*
X4941519Y5220817D01*
X4928412Y5225288D01*
X4914798Y5227980D01*
X4900980Y5228894D01*
X4887163Y5227980D01*
X4873599Y5225288D01*
X4860493Y5220817D01*
X4848047Y5214670D01*
X4836515Y5207000D01*
X4826101Y5197856D01*
X4817008Y5187442D01*
X4809286Y5175910D01*
X4803190Y5163515D01*
X4798720Y5150408D01*
X4796028Y5136794D01*
X4795113Y5122976D01*
X4796028Y5109159D01*
X4798720Y5095595D01*
X4803190Y5082489D01*
X4809286Y5070043D01*
X4817008Y5058511D01*
X4826101Y5048097D01*
X4836515Y5039004D01*
X4848047Y5031282D01*
X4860493Y5025186D01*
X4873599Y5020716D01*
X4887163Y5018024D01*
G37*
G36*
X790651Y5028031D02*
G01*
X790651Y5076647D01*
X742035Y5076647D01*
X745286Y5070043D01*
X753008Y5058511D01*
X762101Y5048097D01*
X772515Y5039004D01*
X784047Y5031282D01*
G37*
G36*
X883361Y5028031D02*
G01*
X889914Y5031282D01*
X901446Y5039004D01*
X911860Y5048097D01*
X921003Y5058511D01*
X928674Y5070043D01*
X931926Y5076647D01*
X883361Y5076647D01*
G37*
G36*
X2822651Y5028031D02*
G01*
X2822651Y5076647D01*
X2774035Y5076647D01*
X2777286Y5070043D01*
X2785008Y5058511D01*
X2794101Y5048097D01*
X2804515Y5039004D01*
X2816047Y5031282D01*
G37*
G36*
X2915361Y5028031D02*
G01*
X2921914Y5031282D01*
X2933446Y5039004D01*
X2943860Y5048097D01*
X2953004Y5058511D01*
X2960674Y5070043D01*
X2963926Y5076647D01*
X2915361Y5076647D01*
G37*
G36*
X345643Y5086654D02*
G01*
X363067Y5087112D01*
X380288Y5089398D01*
X397205Y5093563D01*
X413562Y5099456D01*
X429209Y5107025D01*
X443941Y5116271D01*
X457606Y5126990D01*
X470052Y5139131D01*
X481177Y5152542D01*
X490778Y5167020D01*
X498805Y5182463D01*
X505155Y5198668D01*
X509727Y5215432D01*
X512470Y5232603D01*
X513384Y5249976D01*
X512470Y5267350D01*
X509727Y5284520D01*
X505155Y5301284D01*
X498805Y5317490D01*
X490778Y5332933D01*
X481177Y5347411D01*
X470052Y5360822D01*
X457606Y5372963D01*
X443941Y5383682D01*
X429209Y5392928D01*
X413562Y5400497D01*
X397205Y5406390D01*
X380288Y5410555D01*
X363067Y5412841D01*
X345643Y5413298D01*
X328320Y5411927D01*
X311251Y5408726D01*
X294589Y5403697D01*
X278536Y5396941D01*
X263347Y5388508D01*
X249123Y5378500D01*
X236016Y5367020D01*
X224231Y5354269D01*
X213867Y5340299D01*
X205028Y5325313D01*
X197815Y5309463D01*
X192379Y5292953D01*
X188722Y5275986D01*
X186842Y5258663D01*
X186842Y5241290D01*
X188722Y5223967D01*
X192379Y5207000D01*
X197815Y5190490D01*
X205028Y5174640D01*
X213867Y5159654D01*
X224231Y5145684D01*
X236016Y5132933D01*
X249123Y5121452D01*
X263347Y5111445D01*
X278536Y5103012D01*
X294589Y5096256D01*
X311251Y5091226D01*
X328320Y5088026D01*
G37*
G36*
X6145631Y5086654D02*
G01*
X6163056Y5087112D01*
X6180277Y5089398D01*
X6197193Y5093563D01*
X6213551Y5099456D01*
X6229197Y5107025D01*
X6243929Y5116271D01*
X6257594Y5126990D01*
X6270040Y5139131D01*
X6281166Y5152542D01*
X6290767Y5167020D01*
X6298793Y5182463D01*
X6305143Y5198668D01*
X6309715Y5215432D01*
X6312458Y5232603D01*
X6313373Y5249976D01*
X6312458Y5267350D01*
X6309715Y5284520D01*
X6305143Y5301284D01*
X6298793Y5317490D01*
X6290767Y5332933D01*
X6281166Y5347411D01*
X6270040Y5360822D01*
X6257594Y5372963D01*
X6243929Y5383682D01*
X6229197Y5392928D01*
X6213551Y5400497D01*
X6197193Y5406390D01*
X6180277Y5410555D01*
X6163056Y5412841D01*
X6145631Y5413298D01*
X6128308Y5411927D01*
X6111240Y5408726D01*
X6094577Y5403697D01*
X6078524Y5396941D01*
X6063335Y5388508D01*
X6049111Y5378500D01*
X6036005Y5367020D01*
X6024219Y5354269D01*
X6013856Y5340299D01*
X6005017Y5325313D01*
X5997803Y5309463D01*
X5992368Y5292953D01*
X5988710Y5275986D01*
X5986830Y5258663D01*
X5986830Y5241290D01*
X5988710Y5223967D01*
X5992368Y5207000D01*
X5997803Y5190490D01*
X6005017Y5174640D01*
X6013856Y5159654D01*
X6024219Y5145684D01*
X6036005Y5132933D01*
X6049111Y5121452D01*
X6063335Y5111445D01*
X6078524Y5103012D01*
X6094577Y5096256D01*
X6111240Y5091226D01*
X6128308Y5088026D01*
G37*
G36*
X883361Y5169357D02*
G01*
X931926Y5169357D01*
X928674Y5175910D01*
X921003Y5187442D01*
X911860Y5197856D01*
X901446Y5207000D01*
X889914Y5214670D01*
X883361Y5217922D01*
G37*
G36*
X742035Y5169357D02*
G01*
X790651Y5169357D01*
X790651Y5217922D01*
X784047Y5214670D01*
X772515Y5207000D01*
X762101Y5197856D01*
X753008Y5187442D01*
X745286Y5175910D01*
G37*
G36*
X2915361Y5169357D02*
G01*
X2963926Y5169357D01*
X2960674Y5175910D01*
X2953004Y5187442D01*
X2943860Y5197856D01*
X2933446Y5207000D01*
X2921914Y5214670D01*
X2915361Y5217922D01*
G37*
G36*
X2774035Y5169357D02*
G01*
X2822651Y5169357D01*
X2822651Y5217922D01*
X2816047Y5214670D01*
X2804515Y5207000D01*
X2794101Y5197856D01*
X2785008Y5187442D01*
X2777286Y5175910D01*
G37*
G36*
X757580Y5271058D02*
G01*
X916432Y5271058D01*
X922731Y5271770D01*
X928217Y5273700D01*
X933094Y5276799D01*
X937209Y5280863D01*
X940257Y5285790D01*
X942187Y5291226D01*
X942898Y5297576D01*
X942898Y5456428D01*
X942187Y5462727D01*
X940257Y5468213D01*
X937209Y5473090D01*
X933094Y5477205D01*
X928217Y5480253D01*
X922731Y5482183D01*
X916432Y5482894D01*
X757580Y5482894D01*
X751230Y5482183D01*
X745794Y5480253D01*
X740867Y5477205D01*
X736803Y5473090D01*
X733704Y5468213D01*
X731774Y5462727D01*
X731062Y5456428D01*
X731062Y5297576D01*
X731774Y5291226D01*
X733704Y5285790D01*
X736803Y5280863D01*
X740867Y5276799D01*
X745794Y5273700D01*
X751230Y5271770D01*
G37*
G36*
X1090980Y5271109D02*
G01*
X1104798Y5272024D01*
X1118412Y5274716D01*
X1131519Y5279186D01*
X1143914Y5285282D01*
X1155446Y5293004D01*
X1165860Y5302097D01*
X1175004Y5312511D01*
X1182674Y5324043D01*
X1188821Y5336489D01*
X1193292Y5349595D01*
X1195984Y5363159D01*
X1196898Y5376976D01*
X1195984Y5390794D01*
X1193292Y5404408D01*
X1188821Y5417515D01*
X1182674Y5429910D01*
X1175004Y5441442D01*
X1165860Y5451856D01*
X1155446Y5461000D01*
X1143914Y5468670D01*
X1131519Y5474817D01*
X1118412Y5479288D01*
X1104798Y5481980D01*
X1090980Y5482894D01*
X1077163Y5481980D01*
X1063599Y5479288D01*
X1050493Y5474817D01*
X1038047Y5468670D01*
X1026515Y5461000D01*
X1016101Y5451856D01*
X1007008Y5441442D01*
X999286Y5429910D01*
X993190Y5417515D01*
X988720Y5404408D01*
X986028Y5390794D01*
X985113Y5376976D01*
X986028Y5363159D01*
X988720Y5349595D01*
X993190Y5336489D01*
X999286Y5324043D01*
X1007008Y5312511D01*
X1016101Y5302097D01*
X1026515Y5293004D01*
X1038047Y5285282D01*
X1050493Y5279186D01*
X1063599Y5274716D01*
X1077163Y5272024D01*
G37*
G36*
X1344980Y5271109D02*
G01*
X1358798Y5272024D01*
X1372412Y5274716D01*
X1385519Y5279186D01*
X1397914Y5285282D01*
X1409446Y5293004D01*
X1419860Y5302097D01*
X1429004Y5312511D01*
X1436674Y5324043D01*
X1442821Y5336489D01*
X1447292Y5349595D01*
X1449984Y5363159D01*
X1450898Y5376976D01*
X1449984Y5390794D01*
X1447292Y5404408D01*
X1442821Y5417515D01*
X1436674Y5429910D01*
X1429004Y5441442D01*
X1419860Y5451856D01*
X1409446Y5461000D01*
X1397914Y5468670D01*
X1385519Y5474817D01*
X1372412Y5479288D01*
X1358798Y5481980D01*
X1344980Y5482894D01*
X1331163Y5481980D01*
X1317599Y5479288D01*
X1304493Y5474817D01*
X1292047Y5468670D01*
X1280515Y5461000D01*
X1270101Y5451856D01*
X1261008Y5441442D01*
X1253286Y5429910D01*
X1247190Y5417515D01*
X1242720Y5404408D01*
X1240028Y5390794D01*
X1239113Y5376976D01*
X1240028Y5363159D01*
X1242720Y5349595D01*
X1247190Y5336489D01*
X1253286Y5324043D01*
X1261008Y5312511D01*
X1270101Y5302097D01*
X1280515Y5293004D01*
X1292047Y5285282D01*
X1304493Y5279186D01*
X1317599Y5274716D01*
X1331163Y5272024D01*
G37*
G36*
X1598980Y5271109D02*
G01*
X1612798Y5272024D01*
X1626412Y5274716D01*
X1639519Y5279186D01*
X1651914Y5285282D01*
X1663446Y5293004D01*
X1673860Y5302097D01*
X1683004Y5312511D01*
X1690674Y5324043D01*
X1696821Y5336489D01*
X1701292Y5349595D01*
X1703984Y5363159D01*
X1704898Y5376976D01*
X1703984Y5390794D01*
X1701292Y5404408D01*
X1696821Y5417515D01*
X1690674Y5429910D01*
X1683004Y5441442D01*
X1673860Y5451856D01*
X1663446Y5461000D01*
X1651914Y5468670D01*
X1639519Y5474817D01*
X1626412Y5479288D01*
X1612798Y5481980D01*
X1598980Y5482894D01*
X1585163Y5481980D01*
X1571599Y5479288D01*
X1558493Y5474817D01*
X1546047Y5468670D01*
X1534515Y5461000D01*
X1524101Y5451856D01*
X1515008Y5441442D01*
X1507286Y5429910D01*
X1501190Y5417515D01*
X1496720Y5404408D01*
X1494028Y5390794D01*
X1493113Y5376976D01*
X1494028Y5363159D01*
X1496720Y5349595D01*
X1501190Y5336489D01*
X1507286Y5324043D01*
X1515008Y5312511D01*
X1524101Y5302097D01*
X1534515Y5293004D01*
X1546047Y5285282D01*
X1558493Y5279186D01*
X1571599Y5274716D01*
X1585163Y5272024D01*
G37*
G36*
X1852980Y5271109D02*
G01*
X1866798Y5272024D01*
X1880412Y5274716D01*
X1893519Y5279186D01*
X1905914Y5285282D01*
X1917446Y5293004D01*
X1927860Y5302097D01*
X1937004Y5312511D01*
X1944674Y5324043D01*
X1950821Y5336489D01*
X1955292Y5349595D01*
X1957984Y5363159D01*
X1958898Y5376976D01*
X1957984Y5390794D01*
X1955292Y5404408D01*
X1950821Y5417515D01*
X1944674Y5429910D01*
X1937004Y5441442D01*
X1927860Y5451856D01*
X1917446Y5461000D01*
X1905914Y5468670D01*
X1893519Y5474817D01*
X1880412Y5479288D01*
X1866798Y5481980D01*
X1852980Y5482894D01*
X1839163Y5481980D01*
X1825599Y5479288D01*
X1812493Y5474817D01*
X1800047Y5468670D01*
X1788515Y5461000D01*
X1778101Y5451856D01*
X1769008Y5441442D01*
X1761286Y5429910D01*
X1755190Y5417515D01*
X1750720Y5404408D01*
X1748028Y5390794D01*
X1747113Y5376976D01*
X1748028Y5363159D01*
X1750720Y5349595D01*
X1755190Y5336489D01*
X1761286Y5324043D01*
X1769008Y5312511D01*
X1778101Y5302097D01*
X1788515Y5293004D01*
X1800047Y5285282D01*
X1812493Y5279186D01*
X1825599Y5274716D01*
X1839163Y5272024D01*
G37*
G36*
X3884980Y5271109D02*
G01*
X3898798Y5272024D01*
X3912412Y5274716D01*
X3925519Y5279186D01*
X3937914Y5285282D01*
X3949446Y5293004D01*
X3959860Y5302097D01*
X3969004Y5312511D01*
X3976674Y5324043D01*
X3982821Y5336489D01*
X3987292Y5349595D01*
X3989984Y5363159D01*
X3990898Y5376976D01*
X3989984Y5390794D01*
X3987292Y5404408D01*
X3982821Y5417515D01*
X3976674Y5429910D01*
X3969004Y5441442D01*
X3959860Y5451856D01*
X3949446Y5461000D01*
X3937914Y5468670D01*
X3925519Y5474817D01*
X3912412Y5479288D01*
X3898798Y5481980D01*
X3884980Y5482894D01*
X3871163Y5481980D01*
X3857599Y5479288D01*
X3844493Y5474817D01*
X3832047Y5468670D01*
X3820515Y5461000D01*
X3810101Y5451856D01*
X3801008Y5441442D01*
X3793286Y5429910D01*
X3787190Y5417515D01*
X3782720Y5404408D01*
X3780028Y5390794D01*
X3779113Y5376976D01*
X3780028Y5363159D01*
X3782720Y5349595D01*
X3787190Y5336489D01*
X3793286Y5324043D01*
X3801008Y5312511D01*
X3810101Y5302097D01*
X3820515Y5293004D01*
X3832047Y5285282D01*
X3844493Y5279186D01*
X3857599Y5274716D01*
X3871163Y5272024D01*
G37*
G36*
X2614980Y5271109D02*
G01*
X2628798Y5272024D01*
X2642412Y5274716D01*
X2655519Y5279186D01*
X2667914Y5285282D01*
X2679446Y5293004D01*
X2689860Y5302097D01*
X2699004Y5312511D01*
X2706674Y5324043D01*
X2712821Y5336489D01*
X2717292Y5349595D01*
X2719984Y5363159D01*
X2720898Y5376976D01*
X2719984Y5390794D01*
X2717292Y5404408D01*
X2712821Y5417515D01*
X2706674Y5429910D01*
X2699004Y5441442D01*
X2689860Y5451856D01*
X2679446Y5461000D01*
X2667914Y5468670D01*
X2655519Y5474817D01*
X2642412Y5479288D01*
X2628798Y5481980D01*
X2614980Y5482894D01*
X2601163Y5481980D01*
X2587599Y5479288D01*
X2574493Y5474817D01*
X2562047Y5468670D01*
X2550515Y5461000D01*
X2540101Y5451856D01*
X2531008Y5441442D01*
X2523286Y5429910D01*
X2517190Y5417515D01*
X2512720Y5404408D01*
X2510028Y5390794D01*
X2509113Y5376976D01*
X2510028Y5363159D01*
X2512720Y5349595D01*
X2517190Y5336489D01*
X2523286Y5324043D01*
X2531008Y5312511D01*
X2540101Y5302097D01*
X2550515Y5293004D01*
X2562047Y5285282D01*
X2574493Y5279186D01*
X2587599Y5274716D01*
X2601163Y5272024D01*
G37*
G36*
X2868980Y5271109D02*
G01*
X2882798Y5272024D01*
X2896412Y5274716D01*
X2909519Y5279186D01*
X2921914Y5285282D01*
X2933446Y5293004D01*
X2943860Y5302097D01*
X2953004Y5312511D01*
X2960674Y5324043D01*
X2966821Y5336489D01*
X2971292Y5349595D01*
X2973984Y5363159D01*
X2974898Y5376976D01*
X2973984Y5390794D01*
X2971292Y5404408D01*
X2966821Y5417515D01*
X2960674Y5429910D01*
X2953004Y5441442D01*
X2943860Y5451856D01*
X2933446Y5461000D01*
X2921914Y5468670D01*
X2909519Y5474817D01*
X2896412Y5479288D01*
X2882798Y5481980D01*
X2868980Y5482894D01*
X2855163Y5481980D01*
X2841599Y5479288D01*
X2828493Y5474817D01*
X2816047Y5468670D01*
X2804515Y5461000D01*
X2794101Y5451856D01*
X2785008Y5441442D01*
X2777286Y5429910D01*
X2771190Y5417515D01*
X2766720Y5404408D01*
X2764028Y5390794D01*
X2763113Y5376976D01*
X2764028Y5363159D01*
X2766720Y5349595D01*
X2771190Y5336489D01*
X2777286Y5324043D01*
X2785008Y5312511D01*
X2794101Y5302097D01*
X2804515Y5293004D01*
X2816047Y5285282D01*
X2828493Y5279186D01*
X2841599Y5274716D01*
X2855163Y5272024D01*
G37*
G36*
X3630980Y5271109D02*
G01*
X3644798Y5272024D01*
X3658412Y5274716D01*
X3671519Y5279186D01*
X3683914Y5285282D01*
X3695446Y5293004D01*
X3705860Y5302097D01*
X3715004Y5312511D01*
X3722674Y5324043D01*
X3728821Y5336489D01*
X3733292Y5349595D01*
X3735984Y5363159D01*
X3736898Y5376976D01*
X3735984Y5390794D01*
X3733292Y5404408D01*
X3728821Y5417515D01*
X3722674Y5429910D01*
X3715004Y5441442D01*
X3705860Y5451856D01*
X3695446Y5461000D01*
X3683914Y5468670D01*
X3671519Y5474817D01*
X3658412Y5479288D01*
X3644798Y5481980D01*
X3630980Y5482894D01*
X3617163Y5481980D01*
X3603599Y5479288D01*
X3590493Y5474817D01*
X3578047Y5468670D01*
X3566515Y5461000D01*
X3556101Y5451856D01*
X3547008Y5441442D01*
X3539286Y5429910D01*
X3533190Y5417515D01*
X3528720Y5404408D01*
X3526028Y5390794D01*
X3525113Y5376976D01*
X3526028Y5363159D01*
X3528720Y5349595D01*
X3533190Y5336489D01*
X3539286Y5324043D01*
X3547008Y5312511D01*
X3556101Y5302097D01*
X3566515Y5293004D01*
X3578047Y5285282D01*
X3590493Y5279186D01*
X3603599Y5274716D01*
X3617163Y5272024D01*
G37*
G36*
X4138980Y5271109D02*
G01*
X4152798Y5272024D01*
X4166412Y5274716D01*
X4179519Y5279186D01*
X4191914Y5285282D01*
X4203446Y5293004D01*
X4213860Y5302097D01*
X4223004Y5312511D01*
X4230674Y5324043D01*
X4236821Y5336489D01*
X4241292Y5349595D01*
X4243984Y5363159D01*
X4244898Y5376976D01*
X4243984Y5390794D01*
X4241292Y5404408D01*
X4236821Y5417515D01*
X4230674Y5429910D01*
X4223004Y5441442D01*
X4213860Y5451856D01*
X4203446Y5461000D01*
X4191914Y5468670D01*
X4179519Y5474817D01*
X4166412Y5479288D01*
X4152798Y5481980D01*
X4138980Y5482894D01*
X4125163Y5481980D01*
X4111599Y5479288D01*
X4098493Y5474817D01*
X4086047Y5468670D01*
X4074515Y5461000D01*
X4064101Y5451856D01*
X4055008Y5441442D01*
X4047286Y5429910D01*
X4041190Y5417515D01*
X4036720Y5404408D01*
X4034028Y5390794D01*
X4033113Y5376976D01*
X4034028Y5363159D01*
X4036720Y5349595D01*
X4041190Y5336489D01*
X4047286Y5324043D01*
X4055008Y5312511D01*
X4064101Y5302097D01*
X4074515Y5293004D01*
X4086047Y5285282D01*
X4098493Y5279186D01*
X4111599Y5274716D01*
X4125163Y5272024D01*
G37*
G36*
X2360980Y5271109D02*
G01*
X2374798Y5272024D01*
X2388412Y5274716D01*
X2401519Y5279186D01*
X2413914Y5285282D01*
X2425446Y5293004D01*
X2435860Y5302097D01*
X2445004Y5312511D01*
X2452674Y5324043D01*
X2458821Y5336489D01*
X2463292Y5349595D01*
X2465984Y5363159D01*
X2466898Y5376976D01*
X2465984Y5390794D01*
X2463292Y5404408D01*
X2458821Y5417515D01*
X2452674Y5429910D01*
X2445004Y5441442D01*
X2435860Y5451856D01*
X2425446Y5461000D01*
X2413914Y5468670D01*
X2401519Y5474817D01*
X2388412Y5479288D01*
X2374798Y5481980D01*
X2360980Y5482894D01*
X2347163Y5481980D01*
X2333599Y5479288D01*
X2320493Y5474817D01*
X2308047Y5468670D01*
X2296515Y5461000D01*
X2286101Y5451856D01*
X2277008Y5441442D01*
X2269286Y5429910D01*
X2263190Y5417515D01*
X2258720Y5404408D01*
X2256028Y5390794D01*
X2255113Y5376976D01*
X2256028Y5363159D01*
X2258720Y5349595D01*
X2263190Y5336489D01*
X2269286Y5324043D01*
X2277008Y5312511D01*
X2286101Y5302097D01*
X2296515Y5293004D01*
X2308047Y5285282D01*
X2320493Y5279186D01*
X2333599Y5274716D01*
X2347163Y5272024D01*
G37*
G36*
X4392980Y5271109D02*
G01*
X4406798Y5272024D01*
X4420412Y5274716D01*
X4433519Y5279186D01*
X4445914Y5285282D01*
X4457446Y5293004D01*
X4467860Y5302097D01*
X4477004Y5312511D01*
X4484674Y5324043D01*
X4490821Y5336489D01*
X4495292Y5349595D01*
X4497984Y5363159D01*
X4498898Y5376976D01*
X4497984Y5390794D01*
X4495292Y5404408D01*
X4490821Y5417515D01*
X4484674Y5429910D01*
X4477004Y5441442D01*
X4467860Y5451856D01*
X4457446Y5461000D01*
X4445914Y5468670D01*
X4433519Y5474817D01*
X4420412Y5479288D01*
X4406798Y5481980D01*
X4392980Y5482894D01*
X4379163Y5481980D01*
X4365599Y5479288D01*
X4352493Y5474817D01*
X4340047Y5468670D01*
X4328515Y5461000D01*
X4318101Y5451856D01*
X4309008Y5441442D01*
X4301286Y5429910D01*
X4295190Y5417515D01*
X4290720Y5404408D01*
X4288028Y5390794D01*
X4287113Y5376976D01*
X4288028Y5363159D01*
X4290720Y5349595D01*
X4295190Y5336489D01*
X4301286Y5324043D01*
X4309008Y5312511D01*
X4318101Y5302097D01*
X4328515Y5293004D01*
X4340047Y5285282D01*
X4352493Y5279186D01*
X4365599Y5274716D01*
X4379163Y5272024D01*
G37*
G36*
X2106980Y5271109D02*
G01*
X2120798Y5272024D01*
X2134412Y5274716D01*
X2147519Y5279186D01*
X2159914Y5285282D01*
X2171446Y5293004D01*
X2181860Y5302097D01*
X2191004Y5312511D01*
X2198674Y5324043D01*
X2204821Y5336489D01*
X2209292Y5349595D01*
X2211984Y5363159D01*
X2212898Y5376976D01*
X2211984Y5390794D01*
X2209292Y5404408D01*
X2204821Y5417515D01*
X2198674Y5429910D01*
X2191004Y5441442D01*
X2181860Y5451856D01*
X2171446Y5461000D01*
X2159914Y5468670D01*
X2147519Y5474817D01*
X2134412Y5479288D01*
X2120798Y5481980D01*
X2106980Y5482894D01*
X2093163Y5481980D01*
X2079599Y5479288D01*
X2066493Y5474817D01*
X2054047Y5468670D01*
X2042515Y5461000D01*
X2032101Y5451856D01*
X2023008Y5441442D01*
X2015286Y5429910D01*
X2009190Y5417515D01*
X2004720Y5404408D01*
X2002028Y5390794D01*
X2001113Y5376976D01*
X2002028Y5363159D01*
X2004720Y5349595D01*
X2009190Y5336489D01*
X2015286Y5324043D01*
X2023008Y5312511D01*
X2032101Y5302097D01*
X2042515Y5293004D01*
X2054047Y5285282D01*
X2066493Y5279186D01*
X2079599Y5274716D01*
X2093163Y5272024D01*
G37*
G36*
X4646980Y5271109D02*
G01*
X4660798Y5272024D01*
X4674412Y5274716D01*
X4687519Y5279186D01*
X4699914Y5285282D01*
X4711446Y5293004D01*
X4721860Y5302097D01*
X4731004Y5312511D01*
X4738674Y5324043D01*
X4744821Y5336489D01*
X4749292Y5349595D01*
X4751984Y5363159D01*
X4752898Y5376976D01*
X4751984Y5390794D01*
X4749292Y5404408D01*
X4744821Y5417515D01*
X4738674Y5429910D01*
X4731004Y5441442D01*
X4721860Y5451856D01*
X4711446Y5461000D01*
X4699914Y5468670D01*
X4687519Y5474817D01*
X4674412Y5479288D01*
X4660798Y5481980D01*
X4646980Y5482894D01*
X4633163Y5481980D01*
X4619599Y5479288D01*
X4606493Y5474817D01*
X4594047Y5468670D01*
X4582515Y5461000D01*
X4572101Y5451856D01*
X4563008Y5441442D01*
X4555286Y5429910D01*
X4549190Y5417515D01*
X4544720Y5404408D01*
X4542028Y5390794D01*
X4541113Y5376976D01*
X4542028Y5363159D01*
X4544720Y5349595D01*
X4549190Y5336489D01*
X4555286Y5324043D01*
X4563008Y5312511D01*
X4572101Y5302097D01*
X4582515Y5293004D01*
X4594047Y5285282D01*
X4606493Y5279186D01*
X4619599Y5274716D01*
X4633163Y5272024D01*
G37*
G36*
X5408980Y5271109D02*
G01*
X5422798Y5272024D01*
X5436412Y5274716D01*
X5449519Y5279186D01*
X5461914Y5285282D01*
X5473446Y5293004D01*
X5483860Y5302097D01*
X5493004Y5312511D01*
X5500674Y5324043D01*
X5506821Y5336489D01*
X5511292Y5349595D01*
X5513984Y5363159D01*
X5514898Y5376976D01*
X5513984Y5390794D01*
X5511292Y5404408D01*
X5506821Y5417515D01*
X5500674Y5429910D01*
X5493004Y5441442D01*
X5483860Y5451856D01*
X5473446Y5461000D01*
X5461914Y5468670D01*
X5449519Y5474817D01*
X5436412Y5479288D01*
X5422798Y5481980D01*
X5408980Y5482894D01*
X5395163Y5481980D01*
X5381599Y5479288D01*
X5368493Y5474817D01*
X5356047Y5468670D01*
X5344515Y5461000D01*
X5334101Y5451856D01*
X5325008Y5441442D01*
X5317286Y5429910D01*
X5311190Y5417515D01*
X5306720Y5404408D01*
X5304028Y5390794D01*
X5303113Y5376976D01*
X5304028Y5363159D01*
X5306720Y5349595D01*
X5311190Y5336489D01*
X5317286Y5324043D01*
X5325008Y5312511D01*
X5334101Y5302097D01*
X5344515Y5293004D01*
X5356047Y5285282D01*
X5368493Y5279186D01*
X5381599Y5274716D01*
X5395163Y5272024D01*
G37*
G36*
X4900980Y5271109D02*
G01*
X4914798Y5272024D01*
X4928412Y5274716D01*
X4941519Y5279186D01*
X4953914Y5285282D01*
X4965446Y5293004D01*
X4975860Y5302097D01*
X4985004Y5312511D01*
X4992674Y5324043D01*
X4998821Y5336489D01*
X5003292Y5349595D01*
X5005984Y5363159D01*
X5006898Y5376976D01*
X5005984Y5390794D01*
X5003292Y5404408D01*
X4998821Y5417515D01*
X4992674Y5429910D01*
X4985004Y5441442D01*
X4975860Y5451856D01*
X4965446Y5461000D01*
X4953914Y5468670D01*
X4941519Y5474817D01*
X4928412Y5479288D01*
X4914798Y5481980D01*
X4900980Y5482894D01*
X4887163Y5481980D01*
X4873599Y5479288D01*
X4860493Y5474817D01*
X4848047Y5468670D01*
X4836515Y5461000D01*
X4826101Y5451856D01*
X4817008Y5441442D01*
X4809286Y5429910D01*
X4803190Y5417515D01*
X4798720Y5404408D01*
X4796028Y5390794D01*
X4795113Y5376976D01*
X4796028Y5363159D01*
X4798720Y5349595D01*
X4803190Y5336489D01*
X4809286Y5324043D01*
X4817008Y5312511D01*
X4826101Y5302097D01*
X4836515Y5293004D01*
X4848047Y5285282D01*
X4860493Y5279186D01*
X4873599Y5274716D01*
X4887163Y5272024D01*
G37*
G36*
X3122980Y5271109D02*
G01*
X3136798Y5272024D01*
X3150412Y5274716D01*
X3163519Y5279186D01*
X3175914Y5285282D01*
X3187446Y5293004D01*
X3197860Y5302097D01*
X3207004Y5312511D01*
X3214674Y5324043D01*
X3220821Y5336489D01*
X3225292Y5349595D01*
X3227984Y5363159D01*
X3228898Y5376976D01*
X3227984Y5390794D01*
X3225292Y5404408D01*
X3220821Y5417515D01*
X3214674Y5429910D01*
X3207004Y5441442D01*
X3197860Y5451856D01*
X3187446Y5461000D01*
X3175914Y5468670D01*
X3163519Y5474817D01*
X3150412Y5479288D01*
X3136798Y5481980D01*
X3122980Y5482894D01*
X3109163Y5481980D01*
X3095599Y5479288D01*
X3082493Y5474817D01*
X3070047Y5468670D01*
X3058515Y5461000D01*
X3048101Y5451856D01*
X3039008Y5441442D01*
X3031286Y5429910D01*
X3025190Y5417515D01*
X3020720Y5404408D01*
X3018028Y5390794D01*
X3017113Y5376976D01*
X3018028Y5363159D01*
X3020720Y5349595D01*
X3025190Y5336489D01*
X3031286Y5324043D01*
X3039008Y5312511D01*
X3048101Y5302097D01*
X3058515Y5293004D01*
X3070047Y5285282D01*
X3082493Y5279186D01*
X3095599Y5274716D01*
X3109163Y5272024D01*
G37*
G36*
X5154980Y5271109D02*
G01*
X5168798Y5272024D01*
X5182412Y5274716D01*
X5195519Y5279186D01*
X5207914Y5285282D01*
X5219446Y5293004D01*
X5229860Y5302097D01*
X5239004Y5312511D01*
X5246674Y5324043D01*
X5252821Y5336489D01*
X5257292Y5349595D01*
X5259984Y5363159D01*
X5260898Y5376976D01*
X5259984Y5390794D01*
X5257292Y5404408D01*
X5252821Y5417515D01*
X5246674Y5429910D01*
X5239004Y5441442D01*
X5229860Y5451856D01*
X5219446Y5461000D01*
X5207914Y5468670D01*
X5195519Y5474817D01*
X5182412Y5479288D01*
X5168798Y5481980D01*
X5154980Y5482894D01*
X5141163Y5481980D01*
X5127599Y5479288D01*
X5114493Y5474817D01*
X5102047Y5468670D01*
X5090515Y5461000D01*
X5080101Y5451856D01*
X5071008Y5441442D01*
X5063286Y5429910D01*
X5057190Y5417515D01*
X5052720Y5404408D01*
X5050028Y5390794D01*
X5049113Y5376976D01*
X5050028Y5363159D01*
X5052720Y5349595D01*
X5057190Y5336489D01*
X5063286Y5324043D01*
X5071008Y5312511D01*
X5080101Y5302097D01*
X5090515Y5293004D01*
X5102047Y5285282D01*
X5114493Y5279186D01*
X5127599Y5274716D01*
X5141163Y5272024D01*
G37*
G36*
X3376980Y5271109D02*
G01*
X3390798Y5272024D01*
X3404412Y5274716D01*
X3417519Y5279186D01*
X3429914Y5285282D01*
X3441446Y5293004D01*
X3451860Y5302097D01*
X3461004Y5312511D01*
X3468674Y5324043D01*
X3474821Y5336489D01*
X3479292Y5349595D01*
X3481984Y5363159D01*
X3482898Y5376976D01*
X3481984Y5390794D01*
X3479292Y5404408D01*
X3474821Y5417515D01*
X3468674Y5429910D01*
X3461004Y5441442D01*
X3451860Y5451856D01*
X3441446Y5461000D01*
X3429914Y5468670D01*
X3417519Y5474817D01*
X3404412Y5479288D01*
X3390798Y5481980D01*
X3376980Y5482894D01*
X3363163Y5481980D01*
X3349599Y5479288D01*
X3336493Y5474817D01*
X3324047Y5468670D01*
X3312515Y5461000D01*
X3302101Y5451856D01*
X3293008Y5441442D01*
X3285286Y5429910D01*
X3279190Y5417515D01*
X3274720Y5404408D01*
X3272028Y5390794D01*
X3271113Y5376976D01*
X3272028Y5363159D01*
X3274720Y5349595D01*
X3279190Y5336489D01*
X3285286Y5324043D01*
X3293008Y5312511D01*
X3302101Y5302097D01*
X3312515Y5293004D01*
X3324047Y5285282D01*
X3336493Y5279186D01*
X3349599Y5274716D01*
X3363163Y5272024D01*
G37*
G36*
X5662980Y5271109D02*
G01*
X5676798Y5272024D01*
X5690412Y5274716D01*
X5703519Y5279186D01*
X5715914Y5285282D01*
X5727446Y5293004D01*
X5737860Y5302097D01*
X5747004Y5312511D01*
X5754674Y5324043D01*
X5760821Y5336489D01*
X5765292Y5349595D01*
X5767984Y5363159D01*
X5768898Y5376976D01*
X5767984Y5390794D01*
X5765292Y5404408D01*
X5760821Y5417515D01*
X5754674Y5429910D01*
X5747004Y5441442D01*
X5737860Y5451856D01*
X5727446Y5461000D01*
X5715914Y5468670D01*
X5703519Y5474817D01*
X5690412Y5479288D01*
X5676798Y5481980D01*
X5662980Y5482894D01*
X5649163Y5481980D01*
X5635599Y5479288D01*
X5622493Y5474817D01*
X5610047Y5468670D01*
X5598515Y5461000D01*
X5588101Y5451856D01*
X5579008Y5441442D01*
X5571286Y5429910D01*
X5565190Y5417515D01*
X5560720Y5404408D01*
X5558028Y5390794D01*
X5557113Y5376976D01*
X5558028Y5363159D01*
X5560720Y5349595D01*
X5565190Y5336489D01*
X5571286Y5324043D01*
X5579008Y5312511D01*
X5588101Y5302097D01*
X5598515Y5293004D01*
X5610047Y5285282D01*
X5622493Y5279186D01*
X5635599Y5274716D01*
X5649163Y5272024D01*
G37*

%LPD*%
D10*
X1039876Y4590034D02*
G01*
X1741170Y4590034D01*
X2039874Y4590034D01*
X2070100Y4620005D01*
D11*
X1059990Y3649979D02*
G01*
X1059992Y3649979D01*
X1359992Y3949979D01*
X3081020Y2800095D02*
G01*
X3081020Y2980944D01*
X3499865Y3400044D01*
X3629913Y3400044D01*
X2826994Y2799969D02*
G01*
X3517018Y3489993D01*
X3589992Y3489993D01*
D10*
X2069995Y4619990D02*
G01*
X2189995Y4619990D01*
D12*
G01*
X5663006Y5122976D03*
G01*
X5663006Y5376976D03*
G01*
X5409006Y5122976D03*
G01*
X5409006Y5376976D03*
G01*
X5155006Y5122976D03*
G01*
X5155006Y5376976D03*
G01*
X4901006Y5122976D03*
G01*
X4901006Y5376976D03*
G01*
X4647006Y5122976D03*
G01*
X4647006Y5376976D03*
G01*
X4393006Y5122976D03*
G01*
X4393006Y5376976D03*
G01*
X4139006Y5122976D03*
G01*
X4139006Y5376976D03*
G01*
X3885006Y5122976D03*
G01*
X3885006Y5376976D03*
G01*
X3631006Y5122976D03*
G01*
X3631006Y5376976D03*
G01*
X3377006Y5122976D03*
G01*
X3377006Y5376976D03*
G01*
X3123006Y5122976D03*
G01*
X3123006Y5376976D03*
G01*
X2869006Y5122976D03*
G01*
X2869006Y5376976D03*
G01*
X2615006Y5122976D03*
G01*
X2615006Y5376976D03*
G01*
X2361006Y5122976D03*
G01*
X2361006Y5376976D03*
G01*
X2107006Y5122976D03*
G01*
X2107006Y5376976D03*
G01*
X1853006Y5122976D03*
G01*
X1853006Y5376976D03*
G01*
X1599006Y5122976D03*
G01*
X1599006Y5376976D03*
G01*
X1345006Y5122976D03*
G01*
X1345006Y5376976D03*
G01*
X1091006Y5122976D03*
G01*
X1091006Y5376976D03*
G01*
X837006Y5122976D03*
D13*
G01*
X836993Y5376989D03*
D12*
G01*
X724992Y2999994D03*
G01*
X275005Y2999994D03*
G01*
X724992Y2599994D03*
G01*
X275005Y2599994D03*
D14*
G01*
X2250008Y4349978D03*
G01*
X2250008Y3949979D03*
G01*
X3250006Y4349978D03*
G01*
X3250006Y3949979D03*
G01*
X4250004Y4349978D03*
G01*
X4250004Y3949979D03*
G01*
X2318994Y2799969D03*
G01*
X2572994Y2799969D03*
G01*
X2826994Y2799969D03*
G01*
X3080994Y2799969D03*
D15*
G01*
X459994Y4829987D03*
G01*
X350012Y4829987D03*
G01*
X3239998Y4919979D03*
G01*
X3239998Y4789982D03*
G01*
X910005Y4009999D03*
G01*
X910005Y3899992D03*
G01*
X910005Y3789984D03*
G01*
X1640001Y3769995D03*
G01*
X1780006Y3769995D03*
G01*
X1919986Y3769995D03*
G01*
X389991Y4669993D03*
G01*
X1040003Y4589983D03*
G01*
X914400Y4590034D03*
G01*
X2069998Y4619980D03*
G01*
X2189988Y4619980D03*
G01*
X1219987Y3239998D03*
G01*
X6029985Y4819980D03*
G01*
X5289981Y4339996D03*
G01*
X1869998Y3629990D03*
G01*
X3059988Y3589985D03*
G01*
X3739997Y3829989D03*
D16*
G01*
X4999990Y4799990D03*
G01*
X5399989Y4799990D03*
G01*
X5629986Y4909997D03*
G01*
X5139994Y4480001D03*
G01*
X1180007Y2999994D03*
G01*
X870000Y2499995D03*
G01*
X329945Y1739900D03*
G01*
X329945Y1590039D03*
G01*
X889990Y1210005D03*
G01*
X999997Y989990D03*
G01*
X329996Y1129995D03*
G01*
X889990Y2089988D03*
G01*
X419988Y2149982D03*
G01*
X729995Y929995D03*
G01*
X1629994Y1999995D03*
G01*
X1650009Y2099995D03*
G01*
X1759991Y2099995D03*
G01*
X1620012Y1599945D03*
G01*
X1720087Y1599945D03*
G01*
X1819910Y1599945D03*
G01*
X1780006Y1449984D03*
G01*
X1459992Y1449984D03*
G01*
X1798929Y1109802D03*
G01*
X1799996Y770001D03*
G01*
X1959990Y770001D03*
G01*
X1889988Y1440002D03*
G01*
X1989988Y1710004D03*
G01*
X1669999Y999997D03*
G01*
X1599996Y1070000D03*
G01*
X3159988Y1959990D03*
G01*
X3039999Y2280005D03*
G01*
X2889986Y1050010D03*
G01*
X2759989Y1359992D03*
G01*
X3264509Y2169337D03*
G01*
X2994507Y1252448D03*
G01*
X2729991Y439928D03*
G01*
X2319985Y529996D03*
G01*
X2610002Y740003D03*
G01*
X2834513Y638759D03*
G01*
X2919984Y2099995D03*
G01*
X2650007Y1180007D03*
G01*
X2489987Y570001D03*
G01*
X2029993Y1429994D03*
G01*
X4729988Y3070097D03*
G01*
X4629911Y3070097D03*
G01*
X4529988Y3069996D03*
G01*
X4700015Y2929889D03*
G01*
X4599940Y2929889D03*
G01*
X4499990Y2929991D03*
G01*
X4400041Y2929889D03*
G01*
X4309999Y2929991D03*
G01*
X4539995Y3529990D03*
G01*
X4629988Y3510000D03*
G01*
X4699990Y3429990D03*
G01*
X4619980Y2549982D03*
G01*
X4539995Y2489987D03*
G01*
X4439996Y2510002D03*
G01*
X4329988Y2499995D03*
G01*
X4299991Y2589987D03*
G01*
X6289979Y2869996D03*
G01*
X6290056Y2759963D03*
G01*
X6289979Y929995D03*
G01*
X6290056Y1039876D03*
G01*
X6290056Y1160018D03*
G01*
X6289979Y1280007D03*
G01*
X6289979Y1729994D03*
G01*
X6290056Y1839976D03*
G01*
X6290056Y1960118D03*
G01*
X6289979Y2069998D03*
G01*
X6290056Y2640076D03*
G01*
X6289979Y2529992D03*
D15*
G01*
X5319979Y2759989D03*
G01*
X5319979Y2649981D03*
G01*
X4269993Y3289985D03*
G01*
X4269993Y3410000D03*
G01*
X3919981Y3410000D03*
G01*
X3919981Y3289985D03*
D16*
G01*
X3589985Y3489985D03*
G01*
X3629990Y3399993D03*
G01*
X1059992Y3649979D03*
G01*
X1359992Y3949979D03*
G01*
X4719980Y3849979D03*
G01*
X2480005Y1149985D03*
G01*
X2750007Y2059990D03*
M02*
