G04 Layer: TopSolderMaskLayer*
G04 EasyEDA v6.5.40, 2024-03-19 00:07:40*
G04 3cfb54e61b884618aacb5dd00d766781,92418ead495845dc98574c5a0a119f62,10*
G04 Gerber Generator version 0.2*
G04 Scale: 100 percent, Rotated: No, Reflected: No *
G04 Dimensions in millimeters *
G04 leading zeros omitted , absolute positions ,4 integer and 5 decimal *
%FSLAX45Y45*%
%MOMM*%

%AMMACRO1*1,1,$1,$2,$3*1,1,$1,$4,$5*1,1,$1,0-$2,0-$3*1,1,$1,0-$4,0-$5*20,1,$1,$2,$3,$4,$5,0*20,1,$1,$4,$5,0-$2,0-$3,0*20,1,$1,0-$2,0-$3,0-$4,0-$5,0*20,1,$1,0-$4,0-$5,$2,$3,0*4,1,4,$2,$3,$4,$5,0-$2,0-$3,0-$4,0-$5,$2,$3,0*%
%ADD10C,1.7016*%
%ADD11MACRO1,0.1016X-0.8X-0.8X0.8X-0.8*%
%ADD12MACRO1,0.1016X0.395X0.27X0.395X-0.27*%
%ADD13MACRO1,0.1016X-0.395X0.27X-0.395X-0.27*%
%ADD14R,0.6416X0.8917*%
%ADD15MACRO1,0.1016X-0.2828X-0.27X-0.2828X0.27*%
%ADD16MACRO1,0.1016X0.2828X-0.27X0.2828X0.27*%
%ADD17MACRO1,0.1016X-0.705X-0.675X-0.705X0.675*%
%ADD18MACRO1,0.1016X0.705X-0.675X0.705X0.675*%
%ADD19R,0.6416X0.6673*%
%ADD20MACRO1,0.1016X-0.8X0.3X0.8X0.3*%
%ADD21MACRO1,0.1016X-0.27X0.395X0.27X0.395*%
%ADD22MACRO1,0.1016X-0.27X-0.395X0.27X-0.395*%
%ADD23MACRO1,0.1016X-0.395X-0.27X-0.395X0.27*%
%ADD24MACRO1,0.1016X0.395X-0.27X0.395X0.27*%
%ADD25C,0.8382*%
%ADD26O,0.68961X2.1466048*%
%ADD27MACRO1,0.1016X-0.27X0.2828X0.27X0.2828*%
%ADD28MACRO1,0.1016X-0.27X-0.2828X0.27X-0.2828*%
%ADD29MACRO1,0.1016X0.2828X0.27X0.2828X-0.27*%
%ADD30MACRO1,0.1016X-0.2828X0.27X-0.2828X-0.27*%
%ADD31C,1.9016*%
%ADD32C,1.9000*%
%ADD33O,0.4446016X1.8330926000000003*%
%ADD34MACRO1,0.1016X0.45X0.2X0.45X-0.2*%
%ADD35C,0.0110*%

%LPD*%
G36*
X350012Y5560009D02*
G01*
X334060Y5559602D01*
X318109Y5558332D01*
X302310Y5556300D01*
X286613Y5553456D01*
X271068Y5549747D01*
X255727Y5545328D01*
X240639Y5540044D01*
X225856Y5534050D01*
X211378Y5527294D01*
X197307Y5519775D01*
X183642Y5511546D01*
X170383Y5502656D01*
X157632Y5493054D01*
X145338Y5482844D01*
X133654Y5471972D01*
X122478Y5460542D01*
X111963Y5448554D01*
X102057Y5436057D01*
X92811Y5423052D01*
X84226Y5409590D01*
X76352Y5395671D01*
X69240Y5381396D01*
X62839Y5366766D01*
X57200Y5351830D01*
X54660Y5344261D01*
X50241Y5328920D01*
X46532Y5313375D01*
X43688Y5297678D01*
X41656Y5281879D01*
X40386Y5265928D01*
X39979Y5249976D01*
X40386Y5234025D01*
X41656Y5218125D01*
X43688Y5202275D01*
X46532Y5186578D01*
X50241Y5171033D01*
X54660Y5155692D01*
X59943Y5140655D01*
X65938Y5125872D01*
X72694Y5111394D01*
X80213Y5097322D01*
X88442Y5083606D01*
X97332Y5070348D01*
X106933Y5057597D01*
X117144Y5045354D01*
X128016Y5033619D01*
X139446Y5022494D01*
X151434Y5011928D01*
X163931Y5002022D01*
X176936Y4992776D01*
X190398Y4984242D01*
X197307Y4980178D01*
X211378Y4972710D01*
X225856Y4965954D01*
X233222Y4962804D01*
X248158Y4957216D01*
X263347Y4952339D01*
X278790Y4948275D01*
X294436Y4945024D01*
X310184Y4942535D01*
X326085Y4940909D01*
X342036Y4940096D01*
X357987Y4940096D01*
X373938Y4940909D01*
X389788Y4942535D01*
X405587Y4945024D01*
X421182Y4948275D01*
X436626Y4952339D01*
X451866Y4957216D01*
X466801Y4962804D01*
X481431Y4969205D01*
X495706Y4976368D01*
X509574Y4984242D01*
X523036Y4992776D01*
X536041Y5002022D01*
X548589Y5011928D01*
X560578Y5022494D01*
X572008Y5033619D01*
X582828Y5045354D01*
X593090Y5057597D01*
X602640Y5070348D01*
X611581Y5083606D01*
X619810Y5097322D01*
X627278Y5111394D01*
X630783Y5118557D01*
X637184Y5133187D01*
X642772Y5148122D01*
X647649Y5163362D01*
X651713Y5178806D01*
X654964Y5194401D01*
X657453Y5210200D01*
X659079Y5226050D01*
X659892Y5242001D01*
X659892Y5257952D01*
X659079Y5273903D01*
X657453Y5289804D01*
X654964Y5305552D01*
X651713Y5321198D01*
X647649Y5336641D01*
X642772Y5351830D01*
X637184Y5366766D01*
X630783Y5381396D01*
X623620Y5395671D01*
X619810Y5402681D01*
X611581Y5416346D01*
X602640Y5429605D01*
X593090Y5442356D01*
X582828Y5454650D01*
X572008Y5466334D01*
X560578Y5477510D01*
X548589Y5488025D01*
X536041Y5497931D01*
X529640Y5502656D01*
X516382Y5511546D01*
X502666Y5519775D01*
X488594Y5527294D01*
X474116Y5534050D01*
X459333Y5540044D01*
X444296Y5545328D01*
X428955Y5549747D01*
X413410Y5553456D01*
X397713Y5556300D01*
X381863Y5558332D01*
X365963Y5559602D01*
G37*
G36*
X6150000Y5560009D02*
G01*
X6134049Y5559602D01*
X6118098Y5558332D01*
X6102299Y5556300D01*
X6086602Y5553456D01*
X6071057Y5549747D01*
X6055715Y5545328D01*
X6040628Y5540044D01*
X6025845Y5534050D01*
X6011367Y5527294D01*
X5997295Y5519775D01*
X5983630Y5511546D01*
X5970371Y5502656D01*
X5957620Y5493054D01*
X5945327Y5482844D01*
X5933643Y5471972D01*
X5922467Y5460542D01*
X5911951Y5448554D01*
X5902045Y5436057D01*
X5892800Y5423052D01*
X5884214Y5409590D01*
X5876340Y5395671D01*
X5869228Y5381396D01*
X5862828Y5366766D01*
X5857189Y5351830D01*
X5854649Y5344261D01*
X5850229Y5328920D01*
X5846521Y5313375D01*
X5843676Y5297678D01*
X5841644Y5281879D01*
X5840374Y5265928D01*
X5839968Y5249976D01*
X5840374Y5234025D01*
X5841644Y5218125D01*
X5843676Y5202275D01*
X5846521Y5186578D01*
X5850229Y5171033D01*
X5854649Y5155692D01*
X5859932Y5140655D01*
X5865926Y5125872D01*
X5872683Y5111394D01*
X5880201Y5097322D01*
X5888431Y5083606D01*
X5897321Y5070348D01*
X5906922Y5057597D01*
X5917133Y5045354D01*
X5928004Y5033619D01*
X5939434Y5022494D01*
X5951423Y5011928D01*
X5963920Y5002022D01*
X5976924Y4992776D01*
X5990386Y4984242D01*
X5997295Y4980178D01*
X6011367Y4972710D01*
X6025845Y4965954D01*
X6033211Y4962804D01*
X6048146Y4957216D01*
X6063335Y4952339D01*
X6078778Y4948275D01*
X6094425Y4945024D01*
X6110173Y4942535D01*
X6126073Y4940909D01*
X6142024Y4940096D01*
X6157976Y4940096D01*
X6173927Y4940909D01*
X6189776Y4942535D01*
X6205575Y4945024D01*
X6221171Y4948275D01*
X6236614Y4952339D01*
X6251854Y4957216D01*
X6266789Y4962804D01*
X6281420Y4969205D01*
X6295694Y4976368D01*
X6309563Y4984242D01*
X6323025Y4992776D01*
X6336030Y5002022D01*
X6348577Y5011928D01*
X6360566Y5022494D01*
X6371996Y5033619D01*
X6382816Y5045354D01*
X6393078Y5057597D01*
X6402628Y5070348D01*
X6411569Y5083606D01*
X6419799Y5097322D01*
X6427266Y5111394D01*
X6430772Y5118557D01*
X6437172Y5133187D01*
X6442760Y5148122D01*
X6447637Y5163362D01*
X6451701Y5178806D01*
X6454952Y5194401D01*
X6457442Y5210200D01*
X6459067Y5226050D01*
X6459880Y5242001D01*
X6459880Y5257952D01*
X6459067Y5273903D01*
X6457442Y5289804D01*
X6454952Y5305552D01*
X6451701Y5321198D01*
X6447637Y5336641D01*
X6442760Y5351830D01*
X6437172Y5366766D01*
X6430772Y5381396D01*
X6423609Y5395671D01*
X6419799Y5402681D01*
X6411569Y5416346D01*
X6402628Y5429605D01*
X6393078Y5442356D01*
X6382816Y5454650D01*
X6371996Y5466334D01*
X6360566Y5477510D01*
X6348577Y5488025D01*
X6336030Y5497931D01*
X6329629Y5502656D01*
X6316370Y5511546D01*
X6302654Y5519775D01*
X6288582Y5527294D01*
X6274104Y5534050D01*
X6259322Y5540044D01*
X6244285Y5545328D01*
X6228943Y5549747D01*
X6213398Y5553456D01*
X6197701Y5556300D01*
X6181852Y5558332D01*
X6165951Y5559602D01*
G37*
G36*
X350012Y659993D02*
G01*
X334060Y659587D01*
X318109Y658368D01*
X310184Y657453D01*
X294436Y654964D01*
X278790Y651713D01*
X263347Y647649D01*
X248158Y642772D01*
X233222Y637184D01*
X218592Y630783D01*
X204317Y623620D01*
X197307Y619810D01*
X183642Y611581D01*
X170383Y602640D01*
X157632Y593090D01*
X145338Y582828D01*
X133654Y572008D01*
X122478Y560578D01*
X111963Y548589D01*
X102057Y536041D01*
X97332Y529640D01*
X88442Y516382D01*
X80213Y502666D01*
X72694Y488594D01*
X65938Y474116D01*
X59943Y459333D01*
X54660Y444296D01*
X50241Y428955D01*
X46532Y413410D01*
X43688Y397713D01*
X41656Y381863D01*
X40386Y365963D01*
X39979Y350012D01*
X40386Y334060D01*
X41656Y318109D01*
X43688Y302310D01*
X46532Y286613D01*
X50241Y271068D01*
X54660Y255727D01*
X59943Y240639D01*
X65938Y225856D01*
X72694Y211378D01*
X80213Y197307D01*
X88442Y183642D01*
X97332Y170383D01*
X106933Y157632D01*
X117144Y145338D01*
X128016Y133654D01*
X139446Y122478D01*
X151434Y111963D01*
X163931Y102057D01*
X176936Y92811D01*
X190398Y84226D01*
X204317Y76352D01*
X218592Y69240D01*
X233222Y62839D01*
X248158Y57200D01*
X255727Y54660D01*
X271068Y50241D01*
X286613Y46532D01*
X302310Y43688D01*
X318109Y41656D01*
X334060Y40386D01*
X350012Y39979D01*
X365963Y40386D01*
X381863Y41656D01*
X397713Y43688D01*
X413410Y46532D01*
X428955Y50241D01*
X444296Y54660D01*
X459333Y59943D01*
X474116Y65938D01*
X488594Y72694D01*
X502666Y80213D01*
X516382Y88442D01*
X529640Y97332D01*
X542391Y106933D01*
X554634Y117144D01*
X566369Y128016D01*
X577494Y139446D01*
X588060Y151434D01*
X597966Y163931D01*
X607212Y176936D01*
X615746Y190398D01*
X619810Y197307D01*
X627278Y211378D01*
X634034Y225856D01*
X637184Y233222D01*
X642772Y248158D01*
X647649Y263347D01*
X651713Y278790D01*
X654964Y294436D01*
X657453Y310184D01*
X659079Y326085D01*
X659892Y342036D01*
X659892Y357987D01*
X659079Y373938D01*
X657453Y389788D01*
X654964Y405587D01*
X651713Y421182D01*
X647649Y436626D01*
X642772Y451866D01*
X637184Y466801D01*
X630783Y481431D01*
X623620Y495706D01*
X615746Y509574D01*
X607212Y523036D01*
X597966Y536041D01*
X588060Y548589D01*
X577494Y560578D01*
X566369Y572008D01*
X554634Y582828D01*
X542391Y593090D01*
X529640Y602640D01*
X516382Y611581D01*
X502666Y619810D01*
X488594Y627278D01*
X481431Y630783D01*
X466801Y637184D01*
X451866Y642772D01*
X436626Y647649D01*
X421182Y651713D01*
X405587Y654964D01*
X389788Y657453D01*
X373938Y659079D01*
X357987Y659892D01*
G37*
G36*
X6150000Y659993D02*
G01*
X6134049Y659587D01*
X6118098Y658368D01*
X6110173Y657453D01*
X6094425Y654964D01*
X6078778Y651713D01*
X6063335Y647649D01*
X6048146Y642772D01*
X6033211Y637184D01*
X6018580Y630783D01*
X6004306Y623620D01*
X5997295Y619810D01*
X5983630Y611581D01*
X5970371Y602640D01*
X5957620Y593090D01*
X5945327Y582828D01*
X5933643Y572008D01*
X5922467Y560578D01*
X5911951Y548589D01*
X5902045Y536041D01*
X5897321Y529640D01*
X5888431Y516382D01*
X5880201Y502666D01*
X5872683Y488594D01*
X5865926Y474116D01*
X5859932Y459333D01*
X5854649Y444296D01*
X5850229Y428955D01*
X5846521Y413410D01*
X5843676Y397713D01*
X5841644Y381863D01*
X5840374Y365963D01*
X5839968Y350012D01*
X5840374Y334060D01*
X5841644Y318109D01*
X5843676Y302310D01*
X5846521Y286613D01*
X5850229Y271068D01*
X5854649Y255727D01*
X5859932Y240639D01*
X5865926Y225856D01*
X5872683Y211378D01*
X5880201Y197307D01*
X5888431Y183642D01*
X5897321Y170383D01*
X5906922Y157632D01*
X5917133Y145338D01*
X5928004Y133654D01*
X5939434Y122478D01*
X5951423Y111963D01*
X5963920Y102057D01*
X5976924Y92811D01*
X5990386Y84226D01*
X6004306Y76352D01*
X6018580Y69240D01*
X6033211Y62839D01*
X6048146Y57200D01*
X6055715Y54660D01*
X6071057Y50241D01*
X6086602Y46532D01*
X6102299Y43688D01*
X6118098Y41656D01*
X6134049Y40386D01*
X6150000Y39979D01*
X6165951Y40386D01*
X6181852Y41656D01*
X6197701Y43688D01*
X6213398Y46532D01*
X6228943Y50241D01*
X6244285Y54660D01*
X6259322Y59943D01*
X6274104Y65938D01*
X6288582Y72694D01*
X6302654Y80213D01*
X6316370Y88442D01*
X6329629Y97332D01*
X6342380Y106933D01*
X6354622Y117144D01*
X6366357Y128016D01*
X6377482Y139446D01*
X6388049Y151434D01*
X6397955Y163931D01*
X6407200Y176936D01*
X6415735Y190398D01*
X6419799Y197307D01*
X6427266Y211378D01*
X6434023Y225856D01*
X6437172Y233222D01*
X6442760Y248158D01*
X6447637Y263347D01*
X6451701Y278790D01*
X6454952Y294436D01*
X6457442Y310184D01*
X6459067Y326085D01*
X6459880Y342036D01*
X6459880Y357987D01*
X6459067Y373938D01*
X6457442Y389788D01*
X6454952Y405587D01*
X6451701Y421182D01*
X6447637Y436626D01*
X6442760Y451866D01*
X6437172Y466801D01*
X6430772Y481431D01*
X6423609Y495706D01*
X6415735Y509574D01*
X6407200Y523036D01*
X6397955Y536041D01*
X6388049Y548589D01*
X6377482Y560578D01*
X6366357Y572008D01*
X6354622Y582828D01*
X6342380Y593090D01*
X6329629Y602640D01*
X6316370Y611581D01*
X6302654Y619810D01*
X6288582Y627278D01*
X6281420Y630783D01*
X6266789Y637184D01*
X6251854Y642772D01*
X6236614Y647649D01*
X6221171Y651713D01*
X6205575Y654964D01*
X6189776Y657453D01*
X6173927Y659079D01*
X6157976Y659892D01*
G37*
G36*
X1524000Y3129381D02*
G01*
X1508048Y3128975D01*
X1492148Y3127756D01*
X1476298Y3125724D01*
X1460601Y3122828D01*
X1445056Y3119170D01*
X1429715Y3114700D01*
X1422146Y3112211D01*
X1407210Y3106572D01*
X1392580Y3100171D01*
X1378305Y3093008D01*
X1364437Y3085185D01*
X1350924Y3076600D01*
X1337919Y3067354D01*
X1325422Y3057448D01*
X1319326Y3052267D01*
X1307642Y3041396D01*
X1296517Y3029966D01*
X1285951Y3017977D01*
X1276045Y3005480D01*
X1266799Y2992424D01*
X1258214Y2978962D01*
X1250391Y2965094D01*
X1243228Y2950819D01*
X1236827Y2936189D01*
X1231188Y2921254D01*
X1226362Y2906014D01*
X1222298Y2890621D01*
X1218996Y2874975D01*
X1216558Y2859176D01*
X1214932Y2843326D01*
X1214120Y2827375D01*
X1214120Y2811424D01*
X1214932Y2795473D01*
X1216558Y2779572D01*
X1218996Y2763824D01*
X1222298Y2748178D01*
X1226362Y2732735D01*
X1231188Y2717546D01*
X1236827Y2702610D01*
X1243228Y2687980D01*
X1250391Y2673705D01*
X1258214Y2659786D01*
X1266799Y2646324D01*
X1276045Y2633319D01*
X1285951Y2620822D01*
X1291132Y2614726D01*
X1302004Y2603042D01*
X1313434Y2591866D01*
X1325422Y2581351D01*
X1337919Y2571445D01*
X1350924Y2562199D01*
X1364437Y2553614D01*
X1378305Y2545740D01*
X1392580Y2538628D01*
X1407210Y2532227D01*
X1422146Y2526588D01*
X1437335Y2521762D01*
X1452778Y2517698D01*
X1468424Y2514396D01*
X1484172Y2511958D01*
X1500073Y2510332D01*
X1516024Y2509520D01*
X1531975Y2509520D01*
X1547926Y2510332D01*
X1563776Y2511958D01*
X1579575Y2514396D01*
X1595221Y2517698D01*
X1610614Y2521762D01*
X1625854Y2526588D01*
X1640789Y2532227D01*
X1655419Y2538628D01*
X1669694Y2545740D01*
X1683562Y2553614D01*
X1697075Y2562199D01*
X1710080Y2571445D01*
X1722577Y2581351D01*
X1734566Y2591866D01*
X1745996Y2603042D01*
X1756867Y2614726D01*
X1767078Y2627020D01*
X1776679Y2639771D01*
X1785569Y2653030D01*
X1793798Y2666695D01*
X1801266Y2680817D01*
X1808073Y2695244D01*
X1814068Y2710027D01*
X1816811Y2717546D01*
X1821637Y2732735D01*
X1825701Y2748178D01*
X1828952Y2763824D01*
X1831441Y2779572D01*
X1833067Y2795473D01*
X1833880Y2811424D01*
X1833880Y2827375D01*
X1833067Y2843326D01*
X1831441Y2859176D01*
X1830324Y2867101D01*
X1827428Y2882798D01*
X1823770Y2898343D01*
X1819300Y2913684D01*
X1816811Y2921254D01*
X1811172Y2936189D01*
X1804771Y2950819D01*
X1797608Y2965094D01*
X1789785Y2978962D01*
X1781200Y2992424D01*
X1771954Y3005480D01*
X1762048Y3017977D01*
X1751482Y3029966D01*
X1740357Y3041396D01*
X1728622Y3052267D01*
X1716379Y3062478D01*
X1703628Y3072028D01*
X1690370Y3080969D01*
X1676704Y3089198D01*
X1662582Y3096666D01*
X1648155Y3103473D01*
X1633372Y3109468D01*
X1625854Y3112211D01*
X1610614Y3117037D01*
X1595221Y3121101D01*
X1579575Y3124352D01*
X1571701Y3125724D01*
X1555851Y3127756D01*
X1539951Y3128975D01*
G37*
G36*
X3873500Y750976D02*
G01*
X3857548Y750570D01*
X3841597Y749350D01*
X3825798Y747318D01*
X3817924Y745998D01*
X3802278Y742696D01*
X3786835Y738632D01*
X3771646Y733806D01*
X3756710Y728167D01*
X3742080Y721766D01*
X3727805Y714654D01*
X3713886Y706780D01*
X3700424Y698195D01*
X3687419Y688949D01*
X3674922Y679043D01*
X3662934Y668528D01*
X3651504Y657352D01*
X3640632Y645668D01*
X3630422Y633374D01*
X3620820Y620623D01*
X3611930Y607364D01*
X3603701Y593699D01*
X3596182Y579577D01*
X3589426Y565150D01*
X3583432Y550367D01*
X3580688Y542848D01*
X3575862Y527659D01*
X3571798Y512216D01*
X3568496Y496570D01*
X3566058Y480822D01*
X3564432Y464921D01*
X3563620Y448970D01*
X3563620Y433019D01*
X3564432Y417068D01*
X3566058Y401218D01*
X3568496Y385419D01*
X3571798Y369773D01*
X3575862Y354380D01*
X3580688Y339140D01*
X3586327Y324205D01*
X3592728Y309575D01*
X3599840Y295300D01*
X3607714Y281432D01*
X3616299Y267970D01*
X3625545Y254914D01*
X3635451Y242417D01*
X3645966Y230428D01*
X3657142Y218998D01*
X3668826Y208127D01*
X3681120Y197916D01*
X3693871Y188366D01*
X3707129Y179425D01*
X3720795Y171196D01*
X3734917Y163728D01*
X3749344Y156921D01*
X3764127Y150926D01*
X3771646Y148183D01*
X3786835Y143357D01*
X3802278Y139293D01*
X3817924Y136042D01*
X3833672Y133553D01*
X3849573Y131927D01*
X3865524Y131114D01*
X3881475Y131114D01*
X3897426Y131927D01*
X3913276Y133553D01*
X3921201Y134670D01*
X3936898Y137566D01*
X3952443Y141224D01*
X3967784Y145694D01*
X3975354Y148183D01*
X3990289Y153822D01*
X4004919Y160223D01*
X4019194Y167386D01*
X4033062Y175209D01*
X4046524Y183794D01*
X4059580Y193040D01*
X4072077Y202946D01*
X4084065Y213512D01*
X4095496Y224637D01*
X4106367Y236372D01*
X4116578Y248615D01*
X4126128Y261366D01*
X4135069Y274624D01*
X4143298Y288290D01*
X4150766Y302412D01*
X4157573Y316839D01*
X4163568Y331622D01*
X4168800Y346710D01*
X4173270Y362051D01*
X4176928Y377596D01*
X4179824Y393293D01*
X4181856Y409143D01*
X4183075Y425043D01*
X4183481Y440994D01*
X4183075Y456946D01*
X4181856Y472897D01*
X4179824Y488696D01*
X4176928Y504393D01*
X4173270Y519938D01*
X4168800Y535279D01*
X4163568Y550367D01*
X4157573Y565150D01*
X4150766Y579577D01*
X4143298Y593699D01*
X4135069Y607364D01*
X4126128Y620623D01*
X4116578Y633374D01*
X4106367Y645668D01*
X4095496Y657352D01*
X4084065Y668528D01*
X4072077Y679043D01*
X4059580Y688949D01*
X4046524Y698195D01*
X4033062Y706780D01*
X4019194Y714654D01*
X4004919Y721766D01*
X3990289Y728167D01*
X3975354Y733806D01*
X3960114Y738632D01*
X3944670Y742696D01*
X3929075Y745998D01*
X3913276Y748436D01*
X3897426Y750062D01*
X3881475Y750874D01*
G37*
G36*
X1524000Y750976D02*
G01*
X1508048Y750570D01*
X1492148Y749350D01*
X1476298Y747318D01*
X1468424Y745998D01*
X1452778Y742696D01*
X1437335Y738632D01*
X1422146Y733806D01*
X1407210Y728167D01*
X1392580Y721766D01*
X1378305Y714654D01*
X1364437Y706780D01*
X1350924Y698195D01*
X1337919Y688949D01*
X1325422Y679043D01*
X1313434Y668528D01*
X1302004Y657352D01*
X1291132Y645668D01*
X1280922Y633374D01*
X1271320Y620623D01*
X1262430Y607364D01*
X1254201Y593699D01*
X1246682Y579577D01*
X1239926Y565150D01*
X1233932Y550367D01*
X1231188Y542848D01*
X1226362Y527659D01*
X1222298Y512216D01*
X1218996Y496570D01*
X1216558Y480822D01*
X1214932Y464921D01*
X1214120Y448970D01*
X1214120Y433019D01*
X1214932Y417068D01*
X1216558Y401218D01*
X1218996Y385419D01*
X1222298Y369773D01*
X1226362Y354380D01*
X1231188Y339140D01*
X1236827Y324205D01*
X1243228Y309575D01*
X1250391Y295300D01*
X1258214Y281432D01*
X1266799Y267970D01*
X1276045Y254914D01*
X1285951Y242417D01*
X1296517Y230428D01*
X1307642Y218998D01*
X1319326Y208127D01*
X1331620Y197916D01*
X1344371Y188366D01*
X1357630Y179425D01*
X1371295Y171196D01*
X1385417Y163728D01*
X1399844Y156921D01*
X1414627Y150926D01*
X1422146Y148183D01*
X1437335Y143357D01*
X1452778Y139293D01*
X1468424Y136042D01*
X1484172Y133553D01*
X1500073Y131927D01*
X1516024Y131114D01*
X1531975Y131114D01*
X1547926Y131927D01*
X1563776Y133553D01*
X1571701Y134670D01*
X1587398Y137566D01*
X1602943Y141224D01*
X1618284Y145694D01*
X1625854Y148183D01*
X1640789Y153822D01*
X1655419Y160223D01*
X1669694Y167386D01*
X1683562Y175209D01*
X1697075Y183794D01*
X1710080Y193040D01*
X1722577Y202946D01*
X1734566Y213512D01*
X1745996Y224637D01*
X1756867Y236372D01*
X1767078Y248615D01*
X1776679Y261366D01*
X1785569Y274624D01*
X1793798Y288290D01*
X1801266Y302412D01*
X1808073Y316839D01*
X1814068Y331622D01*
X1816811Y339140D01*
X1821637Y354380D01*
X1825701Y369773D01*
X1828952Y385419D01*
X1830324Y393293D01*
X1832356Y409143D01*
X1833575Y425043D01*
X1833981Y440994D01*
X1833575Y456946D01*
X1832356Y472897D01*
X1830324Y488696D01*
X1827428Y504393D01*
X1823770Y519938D01*
X1819300Y535279D01*
X1816811Y542848D01*
X1811172Y557784D01*
X1804771Y572414D01*
X1797608Y586689D01*
X1789785Y600608D01*
X1781200Y614070D01*
X1771954Y627075D01*
X1762048Y639572D01*
X1756867Y645668D01*
X1745996Y657352D01*
X1734566Y668528D01*
X1722577Y679043D01*
X1710080Y688949D01*
X1697075Y698195D01*
X1683562Y706780D01*
X1669694Y714654D01*
X1655419Y721766D01*
X1640789Y728167D01*
X1625854Y733806D01*
X1610614Y738632D01*
X1595221Y742696D01*
X1579575Y745998D01*
X1563776Y748436D01*
X1547926Y750062D01*
X1531975Y750874D01*
G37*
G36*
X3869486Y3132074D02*
G01*
X3853535Y3131464D01*
X3837635Y3130042D01*
X3821836Y3127806D01*
X3806139Y3124758D01*
X3790645Y3120898D01*
X3782974Y3118713D01*
X3767785Y3113684D01*
X3752900Y3107893D01*
X3738321Y3101390D01*
X3724097Y3094126D01*
X3710279Y3086100D01*
X3696868Y3077464D01*
X3683914Y3068066D01*
X3671468Y3058058D01*
X3659530Y3047441D01*
X3648201Y3036214D01*
X3637381Y3024428D01*
X3627272Y3012135D01*
X3617722Y2999282D01*
X3608882Y2986024D01*
X3600704Y2972257D01*
X3593236Y2958134D01*
X3586530Y2943656D01*
X3580587Y2928823D01*
X3575354Y2913735D01*
X3570935Y2898394D01*
X3567277Y2882849D01*
X3564432Y2867152D01*
X3562400Y2851302D01*
X3561181Y2835351D01*
X3560775Y2819400D01*
X3561181Y2803448D01*
X3562400Y2787497D01*
X3564432Y2771648D01*
X3567277Y2755950D01*
X3570935Y2740406D01*
X3575354Y2725064D01*
X3580587Y2709926D01*
X3586530Y2695143D01*
X3593236Y2680665D01*
X3600704Y2666542D01*
X3608882Y2652776D01*
X3617722Y2639517D01*
X3627272Y2626664D01*
X3637381Y2614371D01*
X3648201Y2602585D01*
X3659530Y2591358D01*
X3671468Y2580690D01*
X3683914Y2570683D01*
X3696868Y2561336D01*
X3710279Y2552649D01*
X3724097Y2544673D01*
X3738321Y2537409D01*
X3752900Y2530906D01*
X3767785Y2525115D01*
X3775354Y2522474D01*
X3790645Y2517851D01*
X3806139Y2514041D01*
X3821836Y2510993D01*
X3837635Y2508758D01*
X3853535Y2507335D01*
X3869486Y2506726D01*
X3885488Y2506929D01*
X3901389Y2507945D01*
X3917289Y2509774D01*
X3933037Y2512415D01*
X3948633Y2515870D01*
X3956354Y2517851D01*
X3971645Y2522474D01*
X3986682Y2527909D01*
X4001414Y2534056D01*
X4015790Y2540965D01*
X4029862Y2548585D01*
X4043476Y2556916D01*
X4056634Y2565958D01*
X4069334Y2575610D01*
X4075531Y2580690D01*
X4087418Y2591358D01*
X4098798Y2602585D01*
X4104284Y2608376D01*
X4114749Y2620416D01*
X4124604Y2633014D01*
X4133748Y2646070D01*
X4142282Y2659583D01*
X4150106Y2673553D01*
X4157167Y2687828D01*
X4163517Y2702509D01*
X4169105Y2717444D01*
X4173931Y2732684D01*
X4177944Y2748127D01*
X4181195Y2763774D01*
X4183634Y2779572D01*
X4185259Y2795473D01*
X4186072Y2811424D01*
X4186072Y2827375D01*
X4185259Y2843326D01*
X4183634Y2859227D01*
X4181195Y2875026D01*
X4177944Y2890621D01*
X4176064Y2898394D01*
X4171645Y2913735D01*
X4166412Y2928823D01*
X4160418Y2943656D01*
X4153712Y2958134D01*
X4146296Y2972257D01*
X4138117Y2986024D01*
X4129278Y2999282D01*
X4119727Y3012135D01*
X4109567Y3024428D01*
X4104284Y3030423D01*
X4093210Y3041904D01*
X4081526Y3052826D01*
X4069334Y3063138D01*
X4056634Y3072841D01*
X4043476Y3081883D01*
X4029862Y3090214D01*
X4015790Y3097834D01*
X4001414Y3104743D01*
X3986682Y3110890D01*
X3971645Y3116275D01*
X3964025Y3118713D01*
X3948633Y3122930D01*
X3933037Y3126384D01*
X3917289Y3129026D01*
X3901389Y3130854D01*
X3885488Y3131870D01*
G37*
D10*
G01*
X5663006Y5122976D03*
G01*
X5663006Y5376976D03*
G01*
X5409006Y5122976D03*
G01*
X5409006Y5376976D03*
G01*
X5155006Y5122976D03*
G01*
X5155006Y5376976D03*
G01*
X4901006Y5122976D03*
G01*
X4901006Y5376976D03*
G01*
X4647006Y5122976D03*
G01*
X4647006Y5376976D03*
G01*
X4393006Y5122976D03*
G01*
X4393006Y5376976D03*
G01*
X4139006Y5122976D03*
G01*
X4139006Y5376976D03*
G01*
X3885006Y5122976D03*
G01*
X3885006Y5376976D03*
G01*
X3631006Y5122976D03*
G01*
X3631006Y5376976D03*
G01*
X3377006Y5122976D03*
G01*
X3377006Y5376976D03*
G01*
X3123006Y5122976D03*
G01*
X3123006Y5376976D03*
G01*
X2869006Y5122976D03*
G01*
X2869006Y5376976D03*
G01*
X2615006Y5122976D03*
G01*
X2615006Y5376976D03*
G01*
X2361006Y5122976D03*
G01*
X2361006Y5376976D03*
G01*
X2107006Y5122976D03*
G01*
X2107006Y5376976D03*
G01*
X1853006Y5122976D03*
G01*
X1853006Y5376976D03*
G01*
X1599006Y5122976D03*
G01*
X1599006Y5376976D03*
G01*
X1345006Y5122976D03*
G01*
X1345006Y5376976D03*
G01*
X1091006Y5122976D03*
G01*
X1091006Y5376976D03*
G01*
X837006Y5122976D03*
D11*
G01*
X836993Y5376989D03*
D12*
G01*
X5520484Y4799990D03*
D13*
G01*
X5629495Y4799990D03*
D14*
G01*
X889990Y1094511D03*
G01*
X889990Y985494D03*
D15*
G01*
X1063280Y2599994D03*
D16*
G01*
X976715Y2599994D03*
D15*
G01*
X1068282Y2999993D03*
D16*
G01*
X981716Y2999993D03*
D17*
G01*
X825002Y4849990D03*
D18*
G01*
X624997Y4849990D03*
D19*
G01*
X2789986Y1143279D03*
G01*
X2789986Y1056716D03*
D20*
G01*
X5659986Y2873994D03*
G01*
X5659986Y2757995D03*
G01*
X5659986Y2641996D03*
G01*
X5659986Y2525994D03*
G01*
X6139987Y2525994D03*
G01*
X6139987Y2641996D03*
G01*
X6139987Y2757995D03*
G01*
X6139990Y2873994D03*
D21*
G01*
X329999Y1365491D03*
D22*
G01*
X329999Y1474503D03*
D23*
G01*
X554504Y1129997D03*
D24*
G01*
X445493Y1129997D03*
D10*
G01*
X724992Y2999994D03*
G01*
X275005Y2999994D03*
G01*
X724992Y2599994D03*
G01*
X275005Y2599994D03*
D25*
G01*
X270002Y2380005D03*
G01*
X429996Y2380005D03*
D26*
G01*
X890498Y1927225D03*
G01*
X763498Y1927225D03*
G01*
X636498Y1927225D03*
G01*
X509498Y1927225D03*
G01*
X890498Y1372743D03*
G01*
X763498Y1372743D03*
G01*
X636498Y1372743D03*
G01*
X509498Y1372743D03*
D19*
G01*
X2424988Y4893284D03*
G01*
X2424988Y4806695D03*
D27*
G01*
X4399991Y4806707D03*
D28*
G01*
X4399991Y4893273D03*
D29*
G01*
X4606707Y4899990D03*
D30*
G01*
X4693273Y4899990D03*
D19*
G01*
X3499993Y4893284D03*
G01*
X3499993Y4806695D03*
D27*
G01*
X1819996Y1706713D03*
D28*
G01*
X1819996Y1793279D03*
D29*
G01*
X1576713Y1449997D03*
D30*
G01*
X1663279Y1449997D03*
D19*
G01*
X1619986Y1793290D03*
G01*
X1619986Y1706702D03*
G01*
X1719986Y1793290D03*
G01*
X1719986Y1706702D03*
G01*
X3049981Y2053285D03*
G01*
X3049981Y1966721D03*
G01*
X2629992Y533272D03*
G01*
X2629992Y446709D03*
D29*
G01*
X4806707Y4699990D03*
D30*
G01*
X4893273Y4699990D03*
D15*
G01*
X4893273Y4899990D03*
D16*
G01*
X4806707Y4899990D03*
D29*
G01*
X4806707Y4799990D03*
D30*
G01*
X4893273Y4799990D03*
D29*
G01*
X976715Y2499994D03*
D30*
G01*
X1063280Y2499994D03*
D19*
G01*
X329996Y1933270D03*
G01*
X329996Y1846706D03*
D27*
G01*
X729998Y1036714D03*
D28*
G01*
X729998Y1123280D03*
D15*
G01*
X618280Y2149995D03*
D16*
G01*
X531714Y2149995D03*
D31*
G01*
X2250008Y4349978D03*
G01*
X2250008Y3949979D03*
G01*
X3250006Y4349978D03*
G01*
X3250006Y3949979D03*
G01*
X4250004Y4349978D03*
G01*
X4250004Y3949979D03*
D23*
G01*
X4154497Y3299993D03*
D24*
G01*
X4045485Y3299993D03*
D23*
G01*
X4154497Y3399993D03*
D24*
G01*
X4045485Y3399993D03*
D20*
G01*
X5659986Y1273997D03*
G01*
X5659986Y1157998D03*
G01*
X5659986Y1041999D03*
G01*
X5659986Y925997D03*
G01*
X6139987Y925997D03*
G01*
X6139987Y1041999D03*
G01*
X6139987Y1157998D03*
G01*
X6139990Y1273997D03*
G01*
X5659986Y2073996D03*
G01*
X5659986Y1957997D03*
G01*
X5659986Y1841997D03*
G01*
X5659986Y1725996D03*
G01*
X6139987Y1725996D03*
G01*
X6139987Y1841997D03*
G01*
X6139987Y1957997D03*
G01*
X6139990Y2073996D03*
D32*
G01*
X2318994Y2799969D03*
G01*
X2572994Y2799969D03*
G01*
X2826994Y2799969D03*
G01*
X3080994Y2799969D03*
D19*
G01*
X1170000Y4823282D03*
G01*
X1170000Y4736719D03*
G01*
X1270000Y4823282D03*
G01*
X1270000Y4736719D03*
D27*
G01*
X1909996Y4806707D03*
D28*
G01*
X1909996Y4893273D03*
D27*
G01*
X2624993Y4806707D03*
D28*
G01*
X2624993Y4893273D03*
D25*
G01*
X4769993Y3549954D03*
G01*
X4850002Y3629964D03*
G01*
X4929987Y3549954D03*
G01*
X5009997Y3629964D03*
D33*
G01*
X4367479Y2713405D03*
G01*
X4432477Y2713405D03*
G01*
X4497476Y2713405D03*
G01*
X4562475Y2713405D03*
G01*
X4627473Y2713405D03*
G01*
X4692472Y2713405D03*
G01*
X4757496Y2713405D03*
G01*
X4822494Y2713405D03*
G01*
X4887493Y2713405D03*
G01*
X4952491Y2713405D03*
G01*
X5017490Y2713405D03*
G01*
X5082489Y2713405D03*
G01*
X5147487Y2713405D03*
G01*
X5212486Y2713405D03*
G01*
X4367479Y3286556D03*
G01*
X4432477Y3286556D03*
G01*
X4497476Y3286556D03*
G01*
X4562475Y3286556D03*
G01*
X4627473Y3286556D03*
G01*
X4692472Y3286556D03*
G01*
X4757496Y3286556D03*
G01*
X4822494Y3286556D03*
G01*
X4887493Y3286556D03*
G01*
X4952491Y3286556D03*
G01*
X5017490Y3286556D03*
G01*
X5082489Y3286556D03*
G01*
X5147487Y3286556D03*
G01*
X5212486Y3286556D03*
D34*
G01*
X5109997Y4799990D03*
G01*
X5109997Y4734991D03*
G01*
X5289981Y4734991D03*
G01*
X5289981Y4799990D03*
G01*
X5289981Y4864989D03*
G01*
X5109997Y4864989D03*
M02*
