G04 Layer: TopLayer*
G04 EasyEDA v6.5.40, 2024-03-19 00:07:40*
G04 3cfb54e61b884618aacb5dd00d766781,92418ead495845dc98574c5a0a119f62,10*
G04 Gerber Generator version 0.2*
G04 Scale: 100 percent, Rotated: No, Reflected: No *
G04 Dimensions in millimeters *
G04 leading zeros omitted , absolute positions ,4 integer and 5 decimal *
%FSLAX45Y45*%
%MOMM*%

%AMMACRO1*21,1,$1,$2,0,0,$3*%
%ADD10C,0.2000*%
%ADD11C,0.4000*%
%ADD12C,0.3000*%
%ADD13C,0.5400*%
%ADD14C,1.1500*%
%ADD15C,0.3430*%
%ADD16MACRO1,0.54X0.7901X-90.0000*%
%ADD17MACRO1,0.54X0.7901X0.0000*%
%ADD18R,0.5400X0.7901*%
%ADD19MACRO1,0.54X0.5656X90.0000*%
%ADD20MACRO1,1.35X1.41X90.0000*%
%ADD21MACRO1,0.54X0.5656X0.0000*%
%ADD22R,0.5400X0.5657*%
%ADD23R,1.6000X0.6000*%
%ADD24MACRO1,0.54X0.7901X90.0000*%
%ADD25C,0.6350*%
%ADD26O,0.58801X2.0450048*%
%ADD27MACRO1,0.54X0.5656X-90.0000*%
%ADD28O,0.3430016X1.7314926000000002*%
%ADD29R,0.9000X0.4000*%
%ADD30C,1.6000*%
%ADD31MACRO1,1.6X1.6X0.0000*%
%ADD32C,1.8000*%
%ADD33C,0.9000*%
%ADD34C,0.7000*%
%ADD35C,0.0147*%

%LPD*%
G36*
X770178Y4729988D02*
G01*
X766267Y4730750D01*
X762965Y4732985D01*
X760780Y4736287D01*
X760018Y4740148D01*
X760018Y4751832D01*
X760780Y4755692D01*
X762965Y4758994D01*
X766267Y4761230D01*
X770178Y4761992D01*
X783386Y4761992D01*
X783386Y4809896D01*
X770178Y4809896D01*
X766267Y4810658D01*
X762965Y4812842D01*
X760780Y4816144D01*
X760018Y4820056D01*
X760018Y4879949D01*
X760780Y4883810D01*
X762965Y4887112D01*
X766267Y4889296D01*
X770178Y4890109D01*
X783386Y4890109D01*
X783386Y4938014D01*
X770178Y4938014D01*
X766267Y4938776D01*
X762965Y4940960D01*
X760780Y4944262D01*
X760018Y4948174D01*
X760018Y4958994D01*
X759307Y4960721D01*
X712978Y5007000D01*
X710793Y5010302D01*
X709980Y5014214D01*
X709980Y5239816D01*
X710793Y5243728D01*
X712978Y5247030D01*
X716280Y5249214D01*
X720140Y5249976D01*
X949858Y5249976D01*
X953719Y5249214D01*
X957021Y5247030D01*
X959205Y5243728D01*
X960018Y5239816D01*
X960018Y4740148D01*
X959205Y4736287D01*
X957021Y4732985D01*
X953719Y4730750D01*
X949858Y4729988D01*
G37*

%LPC*%
G36*
X866597Y4761992D02*
G01*
X894943Y4761992D01*
X900074Y4762550D01*
X904392Y4764074D01*
X908253Y4766513D01*
X911504Y4769764D01*
X913942Y4773625D01*
X915416Y4777943D01*
X916025Y4783074D01*
X916025Y4809896D01*
X866597Y4809896D01*
G37*
G36*
X866597Y4890109D02*
G01*
X916025Y4890109D01*
X916025Y4916932D01*
X915416Y4922062D01*
X913942Y4926380D01*
X911504Y4930241D01*
X908253Y4933492D01*
X904392Y4935931D01*
X900074Y4937404D01*
X894943Y4938014D01*
X866597Y4938014D01*
G37*
G36*
X790651Y5033975D02*
G01*
X790651Y5076647D01*
X748080Y5076647D01*
X750519Y5071770D01*
X758139Y5060696D01*
X767130Y5050739D01*
X777392Y5042103D01*
X788720Y5034889D01*
G37*
G36*
X883361Y5034076D02*
G01*
X891082Y5038293D01*
X901852Y5046268D01*
X911504Y5055565D01*
X919835Y5066131D01*
X926084Y5076647D01*
X883361Y5076647D01*
G37*
G36*
X748080Y5169357D02*
G01*
X790651Y5169357D01*
X790651Y5212029D01*
X788720Y5211114D01*
X777392Y5203901D01*
X767130Y5195214D01*
X758139Y5185257D01*
X750519Y5174183D01*
G37*
G36*
X883361Y5169357D02*
G01*
X926084Y5169357D01*
X919835Y5179872D01*
X911504Y5190388D01*
X901852Y5199735D01*
X891082Y5207711D01*
X883361Y5211927D01*
G37*

%LPD*%
G36*
X300177Y4729988D02*
G01*
X296265Y4730750D01*
X292963Y4732985D01*
X290779Y4736287D01*
X290017Y4740148D01*
X290017Y4909820D01*
X290779Y4913731D01*
X292963Y4917033D01*
X296265Y4919218D01*
X300177Y4919980D01*
X468985Y4919980D01*
X470712Y4920691D01*
X547014Y4996992D01*
X550316Y4999228D01*
X554228Y4999990D01*
X645769Y4999990D01*
X649681Y4999228D01*
X652983Y4996992D01*
X687019Y4962956D01*
X689203Y4959654D01*
X690016Y4955794D01*
X690016Y4948174D01*
X689203Y4944262D01*
X687019Y4940960D01*
X683717Y4938776D01*
X679856Y4938014D01*
X666597Y4938014D01*
X666597Y4890109D01*
X679856Y4890109D01*
X683717Y4889296D01*
X687019Y4887112D01*
X689203Y4883810D01*
X690016Y4879949D01*
X690016Y4820056D01*
X689203Y4816144D01*
X687019Y4812842D01*
X683717Y4810658D01*
X679856Y4809896D01*
X666597Y4809896D01*
X666597Y4761992D01*
X679856Y4761992D01*
X683717Y4761230D01*
X687019Y4758994D01*
X689203Y4755692D01*
X690016Y4751832D01*
X690016Y4740148D01*
X689203Y4736287D01*
X687019Y4732985D01*
X683717Y4730750D01*
X679856Y4729988D01*
G37*

%LPC*%
G36*
X555091Y4761992D02*
G01*
X583387Y4761992D01*
X583387Y4809896D01*
X534009Y4809896D01*
X534009Y4783074D01*
X534568Y4777943D01*
X536092Y4773625D01*
X538530Y4769764D01*
X541731Y4766513D01*
X545642Y4764074D01*
X549960Y4762550D01*
G37*
G36*
X534009Y4890109D02*
G01*
X583387Y4890109D01*
X583387Y4938014D01*
X555091Y4938014D01*
X549960Y4937404D01*
X545642Y4935931D01*
X541731Y4933492D01*
X538530Y4930241D01*
X536092Y4926380D01*
X534568Y4922062D01*
X534009Y4916932D01*
G37*

%LPD*%
G36*
X4140149Y3210001D02*
G01*
X4136288Y3210763D01*
X4132986Y3212947D01*
X4130751Y3216249D01*
X4129989Y3220161D01*
X4129989Y3469843D01*
X4130751Y3473704D01*
X4132986Y3477006D01*
X4136288Y3479241D01*
X4140149Y3480003D01*
X4316018Y3480003D01*
X4319727Y3479292D01*
X4322927Y3477310D01*
X4376674Y3428034D01*
X4379112Y3424631D01*
X4379976Y3420516D01*
X4379976Y3255111D01*
X4379417Y3251708D01*
X4377690Y3248660D01*
X4375048Y3246424D01*
X4371797Y3245154D01*
X4369562Y3244697D01*
X4361129Y3238804D01*
X4358335Y3237433D01*
X4355287Y3236925D01*
X4324451Y3236925D01*
X4324451Y3220161D01*
X4323638Y3216249D01*
X4321454Y3212947D01*
X4318152Y3210763D01*
X4314291Y3210001D01*
G37*

%LPC*%
G36*
X4180586Y3247085D02*
G01*
X4193438Y3247085D01*
X4199737Y3247796D01*
X4205224Y3249726D01*
X4210100Y3252774D01*
X4214215Y3256889D01*
X4217263Y3261766D01*
X4219194Y3267252D01*
X4219905Y3273552D01*
X4219905Y3280156D01*
X4180586Y3280156D01*
G37*
G36*
X4180586Y3319830D02*
G01*
X4219905Y3319830D01*
X4219905Y3326434D01*
X4219194Y3332734D01*
X4217263Y3338220D01*
X4213606Y3344062D01*
X4212437Y3346653D01*
X4212031Y3350514D01*
X4212437Y3353308D01*
X4213606Y3355898D01*
X4217263Y3361791D01*
X4219194Y3367227D01*
X4219905Y3373577D01*
X4219905Y3380130D01*
X4180586Y3380130D01*
G37*
G36*
X4324451Y3336239D02*
G01*
X4352544Y3336239D01*
X4352544Y3396132D01*
X4348327Y3394506D01*
X4341571Y3390341D01*
X4335678Y3385007D01*
X4330903Y3378657D01*
X4327398Y3371545D01*
X4325213Y3363925D01*
X4324451Y3355543D01*
G37*
G36*
X4180586Y3419856D02*
G01*
X4219905Y3419856D01*
X4219905Y3426409D01*
X4219194Y3432759D01*
X4217263Y3438194D01*
X4214215Y3443122D01*
X4210100Y3447186D01*
X4205224Y3450285D01*
X4199737Y3452164D01*
X4193438Y3452876D01*
X4180586Y3452876D01*
G37*

%LPD*%
G36*
X3860139Y3210001D02*
G01*
X3856278Y3210763D01*
X3852976Y3212947D01*
X3850741Y3216249D01*
X3849979Y3220161D01*
X3849979Y3469843D01*
X3850741Y3473704D01*
X3852976Y3477006D01*
X3856278Y3479241D01*
X3860139Y3480003D01*
X4059834Y3480003D01*
X4063695Y3479241D01*
X4066997Y3477006D01*
X4069232Y3473704D01*
X4069994Y3469843D01*
X4069994Y3220161D01*
X4069232Y3216249D01*
X4066997Y3212947D01*
X4063695Y3210763D01*
X4059834Y3210001D01*
G37*

%LPC*%
G36*
X4006545Y3247085D02*
G01*
X4019397Y3247085D01*
X4019397Y3280156D01*
X3980078Y3280156D01*
X3980078Y3273552D01*
X3980789Y3267252D01*
X3982720Y3261766D01*
X3985768Y3256889D01*
X3989882Y3252774D01*
X3994759Y3249726D01*
X4000246Y3247796D01*
G37*
G36*
X3980078Y3319830D02*
G01*
X4019397Y3319830D01*
X4019397Y3380130D01*
X3980078Y3380130D01*
X3980078Y3373577D01*
X3980789Y3367227D01*
X3982720Y3361791D01*
X3986377Y3355898D01*
X3987546Y3353308D01*
X3987952Y3349498D01*
X3987546Y3346653D01*
X3986377Y3344062D01*
X3982720Y3338220D01*
X3980789Y3332734D01*
X3980078Y3326434D01*
G37*
G36*
X3980078Y3419856D02*
G01*
X4019397Y3419856D01*
X4019397Y3452876D01*
X4006545Y3452876D01*
X4000246Y3452164D01*
X3994759Y3450285D01*
X3989882Y3447186D01*
X3985768Y3443122D01*
X3982720Y3438194D01*
X3980789Y3432759D01*
X3980078Y3426409D01*
G37*

%LPD*%
G36*
X5304180Y2579979D02*
G01*
X5300319Y2580792D01*
X5297017Y2582976D01*
X5256580Y2623413D01*
X5254548Y2626360D01*
X5253634Y2629814D01*
X5253990Y2633370D01*
X5254752Y2636113D01*
X5255564Y2644495D01*
X5255564Y2663799D01*
X5227421Y2663799D01*
X5227421Y2650134D01*
X5226659Y2646273D01*
X5224424Y2642971D01*
X5221122Y2640787D01*
X5217261Y2639974D01*
X5210149Y2639974D01*
X5206238Y2640787D01*
X5202986Y2642971D01*
X5200751Y2646273D01*
X5199989Y2650134D01*
X5199989Y2759811D01*
X5200751Y2763723D01*
X5202986Y2767025D01*
X5206238Y2769209D01*
X5210149Y2769971D01*
X5217261Y2769971D01*
X5221376Y2769108D01*
X5224780Y2766669D01*
X5226862Y2763062D01*
X5255564Y2763062D01*
X5255564Y2776423D01*
X5255920Y2779166D01*
X5256987Y2781655D01*
X5277053Y2815082D01*
X5279288Y2817672D01*
X5282336Y2819400D01*
X5285740Y2820009D01*
X5369814Y2820009D01*
X5373725Y2819196D01*
X5377027Y2817012D01*
X5379212Y2813710D01*
X5379974Y2809849D01*
X5379974Y2590139D01*
X5379212Y2586278D01*
X5377027Y2582976D01*
X5373725Y2580792D01*
X5369814Y2579979D01*
G37*

%LPD*%
D10*
X2625090Y4893310D02*
G01*
X2625090Y4985004D01*
X2614929Y4994910D01*
X2614929Y5122926D01*
X2614929Y5376926D02*
G01*
X2489961Y5251957D01*
X2489961Y5039868D01*
X2424938Y4975097D01*
X2424938Y4893310D01*
X3377006Y5376976D02*
G01*
X3499993Y5253989D01*
X3499993Y4893284D01*
X4399991Y4893284D02*
G01*
X4393006Y4900269D01*
X4393006Y5122976D01*
X4646929Y5376926D02*
G01*
X4519929Y5249926D01*
X4519929Y4929886D01*
X4549902Y4899913D01*
X4606797Y4899913D01*
X4693284Y4899990D02*
G01*
X4806695Y4899990D01*
X4806695Y4899990D02*
G01*
X4806695Y4799990D01*
X4806695Y4799990D02*
G01*
X4806695Y4699990D01*
X4893284Y4899990D02*
G01*
X4999990Y4899990D01*
X5034991Y4864988D01*
X5109997Y4864988D01*
X4893284Y4699990D02*
G01*
X4999990Y4699990D01*
X5034991Y4734991D01*
X5109997Y4734991D01*
D11*
X5109997Y4799990D02*
G01*
X4999990Y4799990D01*
X5289981Y4799990D02*
G01*
X5399989Y4799990D01*
X5399989Y4799990D02*
G01*
X5520486Y4799990D01*
X5629498Y4799992D02*
G01*
X5629986Y4800480D01*
X5629986Y4909997D01*
D10*
X4893284Y4799990D02*
G01*
X4999990Y4799990D01*
D12*
X869950Y2500121D02*
G01*
X976629Y2500121D01*
X1063271Y2500000D02*
G01*
X1063271Y2600002D01*
X976629Y2599944D02*
G01*
X724915Y2599944D01*
X981710Y2999994D02*
G01*
X724992Y2999994D01*
X1068273Y2999994D02*
G01*
X1179997Y2999994D01*
X275003Y2599997D02*
G01*
X270002Y2594996D01*
X270002Y2380005D01*
X329945Y1474470D02*
G01*
X329945Y1590039D01*
X1063244Y2500121D02*
G01*
X1063244Y2393187D01*
X763523Y2093468D01*
X763523Y1927097D01*
X329945Y1846834D02*
G01*
X329945Y1739900D01*
X509498Y1927225D02*
G01*
X503438Y1933285D01*
X329994Y1933285D01*
D13*
X890015Y1210055D02*
G01*
X890523Y1372615D01*
X889998Y1209997D02*
G01*
X889998Y1094511D01*
X889998Y985497D02*
G01*
X894491Y989990D01*
X999997Y989990D01*
X890015Y2089912D02*
G01*
X890523Y1927097D01*
X445515Y1130045D02*
G01*
X329945Y1130045D01*
X554481Y1130045D02*
G01*
X640079Y1130045D01*
X646684Y1123187D01*
X729995Y1123187D01*
X554481Y1130045D02*
G01*
X554481Y1194562D01*
X636523Y1276604D01*
X636523Y1372615D01*
D12*
X509498Y1372743D02*
G01*
X502239Y1365483D01*
X330006Y1365483D01*
D10*
X618236Y2150110D02*
G01*
X618236Y2071623D01*
X636523Y2053589D01*
X636523Y1927097D01*
X531621Y2150110D02*
G01*
X420115Y2150110D01*
D12*
X275084Y2999996D02*
G01*
X275084Y2815084D01*
X429996Y2660172D01*
X429996Y2380005D01*
D13*
X729995Y1123187D02*
G01*
X729995Y1210055D01*
X763523Y1243584D01*
X763523Y1372615D01*
X729995Y1036828D02*
G01*
X729995Y929894D01*
D10*
X1620012Y1706626D02*
G01*
X1620012Y1599945D01*
X1720087Y1706626D02*
G01*
X1720087Y1599945D01*
X1819910Y1706626D02*
G01*
X1819910Y1599945D01*
X1759991Y2099995D02*
G01*
X1819988Y2039998D01*
X1819988Y1793293D01*
X1629994Y1999995D02*
G01*
X1629994Y1890090D01*
X1620012Y1880107D01*
X1620012Y1793242D01*
X1650009Y2099995D02*
G01*
X1719988Y2030016D01*
X1719988Y1793293D01*
X1663265Y1450007D02*
G01*
X1779983Y1450007D01*
X1780006Y1449984D01*
X1576704Y1450007D02*
G01*
X1460014Y1450007D01*
X1459992Y1449984D01*
X1090929Y5122926D02*
G01*
X1090929Y4989068D01*
X1169923Y4910073D01*
X1169923Y4823205D01*
X1344929Y5122926D02*
G01*
X1344929Y4985004D01*
X1270000Y4910073D01*
X1270000Y4823205D01*
X1169923Y4736592D02*
G01*
X1169923Y4640071D01*
X1189989Y4620005D01*
X1189989Y3789934D01*
X1199895Y3780028D01*
X1269997Y3779992D02*
G01*
X1940049Y3110194D01*
X1270000Y3780028D02*
G01*
X1240028Y3810000D01*
X1240028Y4620005D01*
X1270000Y4649978D01*
X1270000Y4736592D01*
X1199895Y3780028D02*
G01*
X1899920Y3080004D01*
X1899920Y2629915D01*
X1320037Y2050034D01*
X1320037Y2050034D02*
G01*
X1319999Y1220000D01*
X1540002Y999997D01*
X1669999Y999997D01*
X1599996Y1070000D02*
G01*
X1539991Y1070000D01*
X1369999Y1239992D01*
X1369999Y2029995D01*
X1949996Y2609992D01*
X1949996Y3100245D01*
X1940049Y3110191D01*
X3049981Y1966721D02*
G01*
X3056707Y1959996D01*
X3159993Y1959996D01*
X3050031Y2053336D02*
G01*
X2966720Y2053336D01*
X2919984Y2100071D01*
X2789986Y1056716D02*
G01*
X2796700Y1050002D01*
X2889991Y1050002D01*
X2789936Y1143254D02*
G01*
X2686811Y1143254D01*
X2649981Y1180084D01*
X2629915Y533400D02*
G01*
X2526791Y533400D01*
X2489961Y569976D01*
X2629992Y446709D02*
G01*
X2636774Y439928D01*
X2729991Y439928D01*
X1670050Y999997D02*
G01*
X1670050Y1130045D01*
X1739900Y1199895D01*
X2080006Y1199895D01*
X2670047Y1789937D01*
X2670047Y2430018D01*
X2929890Y2690113D01*
X2971038Y2690113D01*
X3081020Y2800095D01*
X1599945Y1070102D02*
G01*
X1599945Y1130045D01*
X1720087Y1249934D01*
X2059940Y1249934D01*
X2620009Y1810004D01*
X2620009Y2446020D01*
X2827020Y2653029D01*
X2827020Y2800095D01*
D14*
X2573020Y2800095D02*
G01*
X2579877Y2792984D01*
X2579877Y2629915D01*
X2180081Y2230120D01*
X2180081Y1579879D01*
X2029968Y1430020D01*
D10*
X2489995Y569998D02*
G01*
X2559994Y639998D01*
X2659994Y639998D01*
X3499993Y1479997D01*
X3499993Y4806695D01*
X2919984Y2100071D02*
G01*
X2919984Y2269997D01*
X3370072Y2720086D01*
X3370072Y3599942D01*
X2625090Y4344923D01*
X2625090Y4806695D01*
X4952504Y3286559D02*
G01*
X4952504Y3402507D01*
X5009997Y3460003D01*
X5009997Y3629964D01*
X4822502Y3286559D02*
G01*
X4822502Y3462505D01*
X4850002Y3490005D01*
X4850002Y3629964D01*
X4887503Y3286559D02*
G01*
X4887503Y3417509D01*
X4929987Y3459993D01*
X4929987Y3549954D01*
X4432548Y2713484D02*
G01*
X4432548Y2602555D01*
X4329988Y2499995D01*
X4367535Y2713484D02*
G01*
X4367535Y2607561D01*
X4349960Y2589987D01*
X4299991Y2589987D01*
X4497577Y2713481D02*
G01*
X4497577Y2567431D01*
X4439920Y2510028D01*
X4562599Y2713484D02*
G01*
X4562599Y2592603D01*
X4539995Y2570002D01*
X4539995Y2489987D01*
X4627476Y2713403D02*
G01*
X4627476Y2557477D01*
X4619980Y2549982D01*
D15*
X5017515Y2713481D02*
G01*
X5017515Y2572512D01*
X5290058Y2299970D01*
X5290058Y2080005D01*
X5528056Y1842007D01*
X5659881Y1842007D01*
X5082540Y2713481D02*
G01*
X5082540Y2597404D01*
X5359908Y2320036D01*
X5359908Y2130044D01*
X5531865Y1958086D01*
X5659881Y1958086D01*
X5147563Y2713481D02*
G01*
X5147563Y2622550D01*
X5430011Y2340102D01*
X5430011Y2180081D01*
X5535929Y2073910D01*
X5659881Y2073910D01*
X4952491Y2713481D02*
G01*
X4952491Y2547365D01*
X5219954Y2279904D01*
X5219954Y2029968D01*
X5523991Y1725929D01*
X5659881Y1725929D01*
X4692395Y2713481D02*
G01*
X4692395Y2407412D01*
X4940045Y2160015D01*
X4940045Y1519936D01*
X5533897Y926084D01*
X5659881Y926084D01*
X4822443Y2713481D02*
G01*
X4822443Y2477515D01*
X5080000Y2219960D01*
X5080000Y1610105D01*
X5531865Y1157986D01*
X5659881Y1157986D01*
X4887468Y2713481D02*
G01*
X4887468Y2512568D01*
X5150104Y2249931D01*
X5150104Y1649984D01*
X5526024Y1274063D01*
X5659881Y1274063D01*
X4757420Y2713481D02*
G01*
X4757420Y2442463D01*
X5009895Y2189987D01*
X5009895Y1569973D01*
X5537961Y1041907D01*
X5659881Y1041907D01*
X5147563Y3286505D02*
G01*
X5147563Y3152394D01*
X5249925Y3050031D01*
X5800090Y3050031D01*
X5899911Y2949955D01*
X5899911Y2709926D01*
X5832093Y2642107D01*
X5659881Y2642107D01*
X5082540Y3286505D02*
G01*
X5082540Y3117342D01*
X5230113Y2970021D01*
X5759958Y2970021D01*
X5809995Y2919984D01*
X5809995Y2789936D01*
X5777991Y2757931D01*
X5659881Y2757931D01*
X5017515Y3286505D02*
G01*
X5017515Y3082544D01*
X5226050Y2874010D01*
X5659881Y2874010D01*
D10*
X4699990Y3429990D02*
G01*
X4699990Y3559987D01*
X4399991Y3859987D01*
X4399991Y4806695D01*
D15*
X5212588Y3286505D02*
G01*
X5212588Y3187445D01*
X5269991Y3130042D01*
X5849874Y3130042D01*
X5990081Y2990087D01*
X5990081Y2639821D01*
X5876036Y2526029D01*
X5659881Y2526029D01*
X6139992Y2873984D02*
G01*
X6143983Y2869994D01*
X6289987Y2869994D01*
X6139941Y2757931D02*
G01*
X6290056Y2759963D01*
X6139941Y2642107D02*
G01*
X6290056Y2640076D01*
X6139992Y2526004D02*
G01*
X6143983Y2529994D01*
X6289987Y2529994D01*
X6139992Y2073986D02*
G01*
X6143983Y2069995D01*
X6289987Y2069995D01*
X6139941Y1958086D02*
G01*
X6290056Y1960118D01*
X6139941Y1842007D02*
G01*
X6290056Y1839976D01*
X6139992Y1726006D02*
G01*
X6143983Y1729996D01*
X6289987Y1729996D01*
X6139992Y1273987D02*
G01*
X6146002Y1279997D01*
X6289987Y1279997D01*
X6139941Y1157986D02*
G01*
X6290056Y1160018D01*
X6139941Y1041907D02*
G01*
X6290056Y1039876D01*
X6139992Y926007D02*
G01*
X6143983Y929998D01*
X6289987Y929998D01*
D10*
X1359915Y3949954D02*
G01*
X1910079Y4499863D01*
X1910079Y4806695D01*
X2106929Y5122926D02*
G01*
X2106929Y4987036D01*
X2013204Y4893310D01*
X1910079Y4893310D01*
X618236Y2150110D02*
G01*
X618236Y2421636D01*
X549910Y2489962D01*
X549910Y3139947D01*
X1059942Y3649979D01*
X5139994Y4480001D02*
G01*
X5199992Y4539998D01*
X5199992Y4849992D01*
X5214988Y4864986D01*
X5289984Y4864986D01*
X4720081Y3849878D02*
G01*
X4720081Y3910076D01*
X5420106Y4610100D01*
X5420106Y4690110D01*
X5374893Y4735068D01*
X5290058Y4735068D01*
X4629988Y3510000D02*
G01*
X4627377Y3507389D01*
X4627377Y3286503D01*
X4757420Y3286505D02*
G01*
X4757420Y3377437D01*
X4769865Y3389884D01*
X4769865Y3549904D01*
X4699990Y3429990D02*
G01*
X4692477Y3422477D01*
X4692477Y3286559D01*
X4539995Y3530092D02*
G01*
X4562602Y3507486D01*
X4562602Y3286505D01*
X2649981Y1180084D02*
G01*
X2649981Y1480057D01*
X2819908Y1649984D01*
X2819908Y2329942D01*
X3249929Y2759963D01*
X3249929Y3549904D01*
X2424938Y4374895D01*
X2424938Y4806695D01*
X4507484Y3286505D02*
G01*
X4507484Y3452368D01*
X4369815Y3590036D01*
X3769868Y3610102D02*
G01*
X3649979Y3489960D01*
X3590036Y3489960D01*
X4432554Y3286505D02*
G01*
X4432554Y3437381D01*
X4340097Y3530092D01*
X3789934Y3560063D02*
G01*
X3629913Y3400044D01*
X4369815Y3590036D02*
G01*
X4349750Y3610102D01*
X3769868Y3610102D01*
X4340097Y3530092D02*
G01*
X4310125Y3560063D01*
X3789934Y3560063D01*
D16*
G01*
X5520484Y4799990D03*
G01*
X5629495Y4799990D03*
D17*
G01*
X889998Y1094503D03*
D18*
G01*
X889990Y985494D03*
D19*
G01*
X1063280Y2599994D03*
G01*
X976715Y2599994D03*
G01*
X1068282Y2999993D03*
G01*
X981716Y2999993D03*
D20*
G01*
X825002Y4849990D03*
G01*
X624997Y4849990D03*
D21*
G01*
X2789991Y1143285D03*
D22*
G01*
X2789986Y1056716D03*
D23*
G01*
X5659983Y2873984D03*
G01*
X5659983Y2758008D03*
G01*
X5659983Y2642006D03*
G01*
X5659983Y2526004D03*
G01*
X6139992Y2526004D03*
G01*
X6139992Y2642006D03*
G01*
X6139992Y2758008D03*
G01*
X6139992Y2873984D03*
D17*
G01*
X329999Y1365491D03*
D18*
G01*
X329996Y1474495D03*
D24*
G01*
X554504Y1129997D03*
G01*
X445493Y1129997D03*
D25*
G01*
X270002Y2380005D03*
G01*
X429996Y2380005D03*
D26*
G01*
X890498Y1927225D03*
G01*
X763498Y1927225D03*
G01*
X636498Y1927225D03*
G01*
X509498Y1927225D03*
G01*
X890498Y1372743D03*
G01*
X763498Y1372743D03*
G01*
X636498Y1372743D03*
G01*
X509498Y1372743D03*
D21*
G01*
X2424996Y4893273D03*
D22*
G01*
X2424988Y4806695D03*
D21*
G01*
X4399991Y4806707D03*
D22*
G01*
X4399991Y4893284D03*
D27*
G01*
X4606707Y4899990D03*
G01*
X4693273Y4899990D03*
D21*
G01*
X3499993Y4893273D03*
D22*
G01*
X3499993Y4806695D03*
D21*
G01*
X1819996Y1706713D03*
D22*
G01*
X1819986Y1793290D03*
D27*
G01*
X1576713Y1449997D03*
G01*
X1663279Y1449997D03*
D21*
G01*
X1619996Y1793279D03*
D22*
G01*
X1619986Y1706702D03*
D21*
G01*
X1719996Y1793279D03*
D22*
G01*
X1719986Y1706702D03*
D21*
G01*
X3049993Y2053278D03*
D22*
G01*
X3049981Y1966721D03*
D21*
G01*
X2629994Y533281D03*
D22*
G01*
X2629992Y446709D03*
D27*
G01*
X4806707Y4699990D03*
G01*
X4893273Y4699990D03*
D19*
G01*
X4893273Y4899990D03*
G01*
X4806707Y4899990D03*
D27*
G01*
X4806707Y4799990D03*
G01*
X4893273Y4799990D03*
G01*
X976715Y2499994D03*
G01*
X1063280Y2499994D03*
D21*
G01*
X329999Y1933279D03*
D22*
G01*
X329996Y1846706D03*
D21*
G01*
X729998Y1036714D03*
D22*
G01*
X729995Y1123289D03*
D19*
G01*
X618280Y2149995D03*
G01*
X531714Y2149995D03*
D24*
G01*
X4154497Y3299993D03*
G01*
X4045485Y3299993D03*
G01*
X4154497Y3399993D03*
G01*
X4045485Y3399993D03*
D23*
G01*
X5659983Y1273987D03*
G01*
X5659983Y1158011D03*
G01*
X5659983Y1042009D03*
G01*
X5659983Y926007D03*
G01*
X6139992Y926007D03*
G01*
X6139992Y1042009D03*
G01*
X6139992Y1158011D03*
G01*
X6139992Y1273987D03*
G01*
X5659983Y2073986D03*
G01*
X5659983Y1958009D03*
G01*
X5659983Y1842007D03*
G01*
X5659983Y1726006D03*
G01*
X6139992Y1726006D03*
G01*
X6139992Y1842007D03*
G01*
X6139992Y1958009D03*
G01*
X6139992Y2073986D03*
D21*
G01*
X1169997Y4823273D03*
D22*
G01*
X1170000Y4736719D03*
D21*
G01*
X1269997Y4823273D03*
D22*
G01*
X1270000Y4736719D03*
D21*
G01*
X1909996Y4806707D03*
D22*
G01*
X1910003Y4893284D03*
D21*
G01*
X2624993Y4806707D03*
D22*
G01*
X2624988Y4893284D03*
D25*
G01*
X4769993Y3549954D03*
G01*
X4850002Y3629964D03*
G01*
X4929987Y3549954D03*
G01*
X5009997Y3629964D03*
D28*
G01*
X4367479Y2713405D03*
G01*
X4432477Y2713405D03*
G01*
X4497476Y2713405D03*
G01*
X4562475Y2713405D03*
G01*
X4627473Y2713405D03*
G01*
X4692472Y2713405D03*
G01*
X4757496Y2713405D03*
G01*
X4822494Y2713405D03*
G01*
X4887493Y2713405D03*
G01*
X4952491Y2713405D03*
G01*
X5017490Y2713405D03*
G01*
X5082489Y2713405D03*
G01*
X5147487Y2713405D03*
G01*
X5212486Y2713405D03*
G01*
X4367479Y3286556D03*
G01*
X4432477Y3286556D03*
G01*
X4497476Y3286556D03*
G01*
X4562475Y3286556D03*
G01*
X4627473Y3286556D03*
G01*
X4692472Y3286556D03*
G01*
X4757496Y3286556D03*
G01*
X4822494Y3286556D03*
G01*
X4887493Y3286556D03*
G01*
X4952491Y3286556D03*
G01*
X5017490Y3286556D03*
G01*
X5082489Y3286556D03*
G01*
X5147487Y3286556D03*
G01*
X5212486Y3286556D03*
D29*
G01*
X5109997Y4799990D03*
G01*
X5109997Y4734991D03*
G01*
X5289981Y4734991D03*
G01*
X5289981Y4799990D03*
G01*
X5289981Y4864988D03*
G01*
X5109997Y4864988D03*
D30*
G01*
X5663006Y5122976D03*
G01*
X5663006Y5376976D03*
G01*
X5409006Y5122976D03*
G01*
X5409006Y5376976D03*
G01*
X5155006Y5122976D03*
G01*
X5155006Y5376976D03*
G01*
X4901006Y5122976D03*
G01*
X4901006Y5376976D03*
G01*
X4647006Y5122976D03*
G01*
X4647006Y5376976D03*
G01*
X4393006Y5122976D03*
G01*
X4393006Y5376976D03*
G01*
X4139006Y5122976D03*
G01*
X4139006Y5376976D03*
G01*
X3885006Y5122976D03*
G01*
X3885006Y5376976D03*
G01*
X3631006Y5122976D03*
G01*
X3631006Y5376976D03*
G01*
X3377006Y5122976D03*
G01*
X3377006Y5376976D03*
G01*
X3123006Y5122976D03*
G01*
X3123006Y5376976D03*
G01*
X2869006Y5122976D03*
G01*
X2869006Y5376976D03*
G01*
X2615006Y5122976D03*
G01*
X2615006Y5376976D03*
G01*
X2361006Y5122976D03*
G01*
X2361006Y5376976D03*
G01*
X2107006Y5122976D03*
G01*
X2107006Y5376976D03*
G01*
X1853006Y5122976D03*
G01*
X1853006Y5376976D03*
G01*
X1599006Y5122976D03*
G01*
X1599006Y5376976D03*
G01*
X1345006Y5122976D03*
G01*
X1345006Y5376976D03*
G01*
X1091006Y5122976D03*
G01*
X1091006Y5376976D03*
G01*
X837006Y5122976D03*
D31*
G01*
X836993Y5376989D03*
D30*
G01*
X724992Y2999994D03*
G01*
X275005Y2999994D03*
G01*
X724992Y2599994D03*
G01*
X275005Y2599994D03*
D32*
G01*
X2250008Y4349978D03*
G01*
X2250008Y3949979D03*
G01*
X3250006Y4349978D03*
G01*
X3250006Y3949979D03*
G01*
X4250004Y4349978D03*
G01*
X4250004Y3949979D03*
G01*
X2318994Y2799969D03*
G01*
X2572994Y2799969D03*
G01*
X2826994Y2799969D03*
G01*
X3080994Y2799969D03*
D33*
G01*
X459994Y4829987D03*
G01*
X350012Y4829987D03*
G01*
X3239998Y4919979D03*
G01*
X3239998Y4789982D03*
G01*
X910005Y4009999D03*
G01*
X910005Y3899992D03*
G01*
X910005Y3789984D03*
G01*
X1640001Y3769995D03*
G01*
X1780006Y3769995D03*
G01*
X1919986Y3769995D03*
G01*
X389991Y4669993D03*
G01*
X1040003Y4589983D03*
G01*
X914400Y4590034D03*
G01*
X2069998Y4619980D03*
G01*
X2189988Y4619980D03*
G01*
X1219987Y3239998D03*
G01*
X6029985Y4819980D03*
G01*
X5289981Y4339996D03*
G01*
X1869998Y3629990D03*
G01*
X3059988Y3589985D03*
G01*
X3739997Y3829989D03*
D34*
G01*
X4999990Y4799990D03*
G01*
X5399989Y4799990D03*
G01*
X5629986Y4909997D03*
G01*
X5139994Y4480001D03*
G01*
X1180007Y2999994D03*
G01*
X870000Y2499995D03*
G01*
X329945Y1739900D03*
G01*
X329945Y1590039D03*
G01*
X889990Y1210005D03*
G01*
X999997Y989990D03*
G01*
X329996Y1129995D03*
G01*
X889990Y2089988D03*
G01*
X419988Y2149982D03*
G01*
X729995Y929995D03*
G01*
X1629994Y1999995D03*
G01*
X1650009Y2099995D03*
G01*
X1759991Y2099995D03*
G01*
X1620012Y1599945D03*
G01*
X1720087Y1599945D03*
G01*
X1819910Y1599945D03*
G01*
X1780006Y1449984D03*
G01*
X1459992Y1449984D03*
G01*
X1798929Y1109802D03*
G01*
X1799996Y770001D03*
G01*
X1959990Y770001D03*
G01*
X1889988Y1440002D03*
G01*
X1989988Y1710004D03*
G01*
X1669999Y999997D03*
G01*
X1599996Y1070000D03*
G01*
X3159988Y1959990D03*
G01*
X3039999Y2280005D03*
G01*
X2889986Y1050010D03*
G01*
X2759989Y1359992D03*
G01*
X3264509Y2169337D03*
G01*
X2994507Y1252448D03*
G01*
X2729991Y439928D03*
G01*
X2319985Y529996D03*
G01*
X2610002Y740003D03*
G01*
X2834513Y638759D03*
G01*
X2919984Y2099995D03*
G01*
X2650007Y1180007D03*
G01*
X2489987Y570001D03*
G01*
X2029993Y1429994D03*
G01*
X4729988Y3070097D03*
G01*
X4629911Y3070097D03*
G01*
X4529988Y3069996D03*
G01*
X4700015Y2929889D03*
G01*
X4599940Y2929889D03*
G01*
X4499990Y2929991D03*
G01*
X4400041Y2929889D03*
G01*
X4309999Y2929991D03*
G01*
X4539995Y3529990D03*
G01*
X4629988Y3510000D03*
G01*
X4699990Y3429990D03*
G01*
X4619980Y2549982D03*
G01*
X4539995Y2489987D03*
G01*
X4439996Y2510002D03*
G01*
X4329988Y2499995D03*
G01*
X4299991Y2589987D03*
G01*
X6289979Y2869996D03*
G01*
X6290056Y2759963D03*
G01*
X6289979Y929995D03*
G01*
X6290056Y1039876D03*
G01*
X6290056Y1160018D03*
G01*
X6289979Y1280007D03*
G01*
X6289979Y1729994D03*
G01*
X6290056Y1839976D03*
G01*
X6290056Y1960118D03*
G01*
X6289979Y2069998D03*
G01*
X6290056Y2640076D03*
G01*
X6289979Y2529992D03*
D33*
G01*
X5319979Y2759989D03*
G01*
X5319979Y2649981D03*
G01*
X4269993Y3289985D03*
G01*
X4269993Y3410000D03*
G01*
X3919981Y3410000D03*
G01*
X3919981Y3289985D03*
D34*
G01*
X3589985Y3489985D03*
G01*
X3629990Y3399993D03*
G01*
X1059992Y3649979D03*
G01*
X1359992Y3949979D03*
G01*
X4719980Y3849979D03*
G01*
X2480005Y1149985D03*
G01*
X2750007Y2059990D03*
M02*
