G04 Layer: BottomSolderMaskLayer*
G04 EasyEDA v6.5.40, 2024-03-19 00:07:40*
G04 3cfb54e61b884618aacb5dd00d766781,92418ead495845dc98574c5a0a119f62,10*
G04 Gerber Generator version 0.2*
G04 Scale: 100 percent, Rotated: No, Reflected: No *
G04 Dimensions in millimeters *
G04 leading zeros omitted , absolute positions ,4 integer and 5 decimal *
%FSLAX45Y45*%
%MOMM*%

%AMMACRO1*1,1,$1,$2,$3*1,1,$1,$4,$5*1,1,$1,0-$2,0-$3*1,1,$1,0-$4,0-$5*20,1,$1,$2,$3,$4,$5,0*20,1,$1,$4,$5,0-$2,0-$3,0*20,1,$1,0-$2,0-$3,0-$4,0-$5,0*20,1,$1,0-$4,0-$5,$2,$3,0*4,1,4,$2,$3,$4,$5,0-$2,0-$3,0-$4,0-$5,$2,$3,0*%
%AMMACRO2*4,1,16,-1.35,-3.35,-1.35,-2.5502,-1.7501,-2.5499,-1.7501,1.8501,-0.5499,1.8501,-0.5499,3.35,0.5502,3.35,0.5502,1.8499,1.7501,1.8499,1.7501,-2.5499,1.35,-2.5502,1.35,-3.35,0.2499,-3.35,0.2499,-2.5502,-0.2499,-2.5502,-0.2499,-3.35,-1.35,-3.35,0*%
%AMMACRO3*4,1,16,-1.35,-3.3501,-1.35,-2.55,-1.7501,-2.55,-1.7501,1.85,-0.5499,1.85,-0.5499,3.3501,0.5502,3.3501,0.5502,1.85,1.7501,1.85,1.7501,-2.55,1.35,-2.55,1.35,-3.3501,0.2499,-3.3501,0.2499,-2.55,-0.2499,-2.55,-0.2499,-3.3501,-1.35,-3.3501,0*%
%ADD10R,0.6416X0.6673*%
%ADD11MACRO1,0.1016X0.2X0.825X-0.2X0.825*%
%ADD12MACRO1,0.1016X-0.5663X0.6885X-0.5663X-0.6885*%
%ADD13MACRO1,0.1016X0.5663X0.6885X0.5663X-0.6885*%
%ADD14MACRO2*%
%ADD15MACRO1,0.1X0.55X-0.65X0.55X0.65*%
%ADD16MACRO3*%
%ADD17C,1.7016*%
%ADD18MACRO1,0.1016X-0.8X-0.8X0.8X-0.8*%
%ADD19MACRO1,0.1016X-0.395X0.27X-0.395X-0.27*%
%ADD20MACRO1,0.1016X0.395X0.27X0.395X-0.27*%
%ADD21MACRO1,0.1016X-0.2828X0.27X-0.2828X-0.27*%
%ADD22MACRO1,0.1016X0.2828X0.27X0.2828X-0.27*%
%ADD23MACRO1,0.1016X0.2828X-0.27X0.2828X0.27*%
%ADD24MACRO1,0.1016X-0.2828X-0.27X-0.2828X0.27*%
%ADD25MACRO1,0.1016X0.5785X-0.245X0.5785X0.245*%
%ADD26MACRO1,0.1016X0.5875X-0.245X0.5875X0.245*%
%ADD27MACRO1,0.1016X-0.27X-0.395X0.27X-0.395*%
%ADD28MACRO1,0.1016X-0.27X0.395X0.27X0.395*%
%ADD29C,0.8382*%
%ADD30R,1.2516X1.3016*%
%ADD31MACRO1,0.1016X0.6X0.575X-0.6X0.575*%
%ADD32R,1.0016X0.9016*%
%ADD33MACRO1,0.1016X-0.4X-0.45X0.4X-0.45*%
%ADD34MACRO1,0.1016X-0.27X-0.2828X0.27X-0.2828*%
%ADD35MACRO1,0.1016X-0.27X0.2828X0.27X0.2828*%
%ADD36R,1.8296X1.5866*%
%ADD37MACRO1,0.1016X0.625X0.35X-0.625X0.35*%
%ADD38MACRO1,0.1016X-0.7875X-0.336X-0.7875X0.336*%
%ADD39MACRO1,0.1016X-0.625X-0.35X0.625X-0.35*%
%ADD40MACRO1,0.1016X0.705X-0.675X0.705X0.675*%
%ADD41MACRO1,0.1016X-0.705X-0.675X-0.705X0.675*%
%ADD42C,1.9016*%
%ADD43C,1.9000*%
%ADD44C,0.0159*%

%LPD*%
G36*
X350012Y5560009D02*
G01*
X334060Y5559602D01*
X318109Y5558332D01*
X302310Y5556300D01*
X286613Y5553456D01*
X271068Y5549747D01*
X255727Y5545328D01*
X240639Y5540044D01*
X225856Y5534050D01*
X211378Y5527294D01*
X197307Y5519775D01*
X183642Y5511546D01*
X170383Y5502656D01*
X157632Y5493054D01*
X145338Y5482844D01*
X133654Y5471972D01*
X122478Y5460542D01*
X111963Y5448554D01*
X102057Y5436057D01*
X92811Y5423052D01*
X84226Y5409590D01*
X76352Y5395671D01*
X69240Y5381396D01*
X62839Y5366766D01*
X57200Y5351830D01*
X54660Y5344261D01*
X50241Y5328920D01*
X46532Y5313375D01*
X43688Y5297678D01*
X41656Y5281879D01*
X40386Y5265928D01*
X39979Y5249976D01*
X40386Y5234025D01*
X41656Y5218125D01*
X43688Y5202275D01*
X46532Y5186578D01*
X50241Y5171033D01*
X54660Y5155692D01*
X59943Y5140655D01*
X65938Y5125872D01*
X72694Y5111394D01*
X80213Y5097322D01*
X88442Y5083606D01*
X97332Y5070348D01*
X106933Y5057597D01*
X117144Y5045354D01*
X128016Y5033619D01*
X139446Y5022494D01*
X151434Y5011928D01*
X163931Y5002022D01*
X176936Y4992776D01*
X190398Y4984242D01*
X197307Y4980178D01*
X211378Y4972710D01*
X225856Y4965954D01*
X233222Y4962804D01*
X248158Y4957216D01*
X263347Y4952339D01*
X278790Y4948275D01*
X294436Y4945024D01*
X310184Y4942535D01*
X326085Y4940909D01*
X342036Y4940096D01*
X357987Y4940096D01*
X373938Y4940909D01*
X389788Y4942535D01*
X405587Y4945024D01*
X421182Y4948275D01*
X436626Y4952339D01*
X451866Y4957216D01*
X466801Y4962804D01*
X481431Y4969205D01*
X495706Y4976368D01*
X509574Y4984242D01*
X523036Y4992776D01*
X536041Y5002022D01*
X548589Y5011928D01*
X560578Y5022494D01*
X572008Y5033619D01*
X582828Y5045354D01*
X593090Y5057597D01*
X602640Y5070348D01*
X611581Y5083606D01*
X619810Y5097322D01*
X627278Y5111394D01*
X630783Y5118557D01*
X637184Y5133187D01*
X642772Y5148122D01*
X647649Y5163362D01*
X651713Y5178806D01*
X654964Y5194401D01*
X657453Y5210200D01*
X659079Y5226050D01*
X659892Y5242001D01*
X659892Y5257952D01*
X659079Y5273903D01*
X657453Y5289804D01*
X654964Y5305552D01*
X651713Y5321198D01*
X647649Y5336641D01*
X642772Y5351830D01*
X637184Y5366766D01*
X630783Y5381396D01*
X623620Y5395671D01*
X619810Y5402681D01*
X611581Y5416346D01*
X602640Y5429605D01*
X593090Y5442356D01*
X582828Y5454650D01*
X572008Y5466334D01*
X560578Y5477510D01*
X548589Y5488025D01*
X536041Y5497931D01*
X529640Y5502656D01*
X516382Y5511546D01*
X502666Y5519775D01*
X488594Y5527294D01*
X474116Y5534050D01*
X459333Y5540044D01*
X444296Y5545328D01*
X428955Y5549747D01*
X413410Y5553456D01*
X397713Y5556300D01*
X381863Y5558332D01*
X365963Y5559602D01*
G37*
G36*
X6150000Y5560009D02*
G01*
X6134049Y5559602D01*
X6118098Y5558332D01*
X6102299Y5556300D01*
X6086602Y5553456D01*
X6071057Y5549747D01*
X6055715Y5545328D01*
X6040628Y5540044D01*
X6025845Y5534050D01*
X6011367Y5527294D01*
X5997295Y5519775D01*
X5983630Y5511546D01*
X5970371Y5502656D01*
X5957620Y5493054D01*
X5945327Y5482844D01*
X5933643Y5471972D01*
X5922467Y5460542D01*
X5911951Y5448554D01*
X5902045Y5436057D01*
X5892800Y5423052D01*
X5884214Y5409590D01*
X5876340Y5395671D01*
X5869228Y5381396D01*
X5862828Y5366766D01*
X5857189Y5351830D01*
X5854649Y5344261D01*
X5850229Y5328920D01*
X5846521Y5313375D01*
X5843676Y5297678D01*
X5841644Y5281879D01*
X5840374Y5265928D01*
X5839968Y5249976D01*
X5840374Y5234025D01*
X5841644Y5218125D01*
X5843676Y5202275D01*
X5846521Y5186578D01*
X5850229Y5171033D01*
X5854649Y5155692D01*
X5859932Y5140655D01*
X5865926Y5125872D01*
X5872683Y5111394D01*
X5880201Y5097322D01*
X5888431Y5083606D01*
X5897321Y5070348D01*
X5906922Y5057597D01*
X5917133Y5045354D01*
X5928004Y5033619D01*
X5939434Y5022494D01*
X5951423Y5011928D01*
X5963920Y5002022D01*
X5976924Y4992776D01*
X5990386Y4984242D01*
X5997295Y4980178D01*
X6011367Y4972710D01*
X6025845Y4965954D01*
X6033211Y4962804D01*
X6048146Y4957216D01*
X6063335Y4952339D01*
X6078778Y4948275D01*
X6094425Y4945024D01*
X6110173Y4942535D01*
X6126073Y4940909D01*
X6142024Y4940096D01*
X6157976Y4940096D01*
X6173927Y4940909D01*
X6189776Y4942535D01*
X6205575Y4945024D01*
X6221171Y4948275D01*
X6236614Y4952339D01*
X6251854Y4957216D01*
X6266789Y4962804D01*
X6281420Y4969205D01*
X6295694Y4976368D01*
X6309563Y4984242D01*
X6323025Y4992776D01*
X6336030Y5002022D01*
X6348577Y5011928D01*
X6360566Y5022494D01*
X6371996Y5033619D01*
X6382816Y5045354D01*
X6393078Y5057597D01*
X6402628Y5070348D01*
X6411569Y5083606D01*
X6419799Y5097322D01*
X6427266Y5111394D01*
X6430772Y5118557D01*
X6437172Y5133187D01*
X6442760Y5148122D01*
X6447637Y5163362D01*
X6451701Y5178806D01*
X6454952Y5194401D01*
X6457442Y5210200D01*
X6459067Y5226050D01*
X6459880Y5242001D01*
X6459880Y5257952D01*
X6459067Y5273903D01*
X6457442Y5289804D01*
X6454952Y5305552D01*
X6451701Y5321198D01*
X6447637Y5336641D01*
X6442760Y5351830D01*
X6437172Y5366766D01*
X6430772Y5381396D01*
X6423609Y5395671D01*
X6419799Y5402681D01*
X6411569Y5416346D01*
X6402628Y5429605D01*
X6393078Y5442356D01*
X6382816Y5454650D01*
X6371996Y5466334D01*
X6360566Y5477510D01*
X6348577Y5488025D01*
X6336030Y5497931D01*
X6329629Y5502656D01*
X6316370Y5511546D01*
X6302654Y5519775D01*
X6288582Y5527294D01*
X6274104Y5534050D01*
X6259322Y5540044D01*
X6244285Y5545328D01*
X6228943Y5549747D01*
X6213398Y5553456D01*
X6197701Y5556300D01*
X6181852Y5558332D01*
X6165951Y5559602D01*
G37*
G36*
X6150000Y659993D02*
G01*
X6134049Y659587D01*
X6118098Y658368D01*
X6110173Y657453D01*
X6094425Y654964D01*
X6078778Y651713D01*
X6063335Y647649D01*
X6048146Y642772D01*
X6033211Y637184D01*
X6018580Y630783D01*
X6004306Y623620D01*
X5997295Y619810D01*
X5983630Y611581D01*
X5970371Y602640D01*
X5957620Y593090D01*
X5945327Y582828D01*
X5933643Y572008D01*
X5922467Y560578D01*
X5911951Y548589D01*
X5902045Y536041D01*
X5897321Y529640D01*
X5888431Y516382D01*
X5880201Y502666D01*
X5872683Y488594D01*
X5865926Y474116D01*
X5859932Y459333D01*
X5854649Y444296D01*
X5850229Y428955D01*
X5846521Y413410D01*
X5843676Y397713D01*
X5841644Y381863D01*
X5840374Y365963D01*
X5839968Y350012D01*
X5840374Y334060D01*
X5841644Y318109D01*
X5843676Y302310D01*
X5846521Y286613D01*
X5850229Y271068D01*
X5854649Y255727D01*
X5859932Y240639D01*
X5865926Y225856D01*
X5872683Y211378D01*
X5880201Y197307D01*
X5888431Y183642D01*
X5897321Y170383D01*
X5906922Y157632D01*
X5917133Y145338D01*
X5928004Y133654D01*
X5939434Y122478D01*
X5951423Y111963D01*
X5963920Y102057D01*
X5976924Y92811D01*
X5990386Y84226D01*
X6004306Y76352D01*
X6018580Y69240D01*
X6033211Y62839D01*
X6048146Y57200D01*
X6055715Y54660D01*
X6071057Y50241D01*
X6086602Y46532D01*
X6102299Y43688D01*
X6118098Y41656D01*
X6134049Y40386D01*
X6150000Y39979D01*
X6165951Y40386D01*
X6181852Y41656D01*
X6197701Y43688D01*
X6213398Y46532D01*
X6228943Y50241D01*
X6244285Y54660D01*
X6259322Y59943D01*
X6274104Y65938D01*
X6288582Y72694D01*
X6302654Y80213D01*
X6316370Y88442D01*
X6329629Y97332D01*
X6342380Y106933D01*
X6354622Y117144D01*
X6366357Y128016D01*
X6377482Y139446D01*
X6388049Y151434D01*
X6397955Y163931D01*
X6407200Y176936D01*
X6415735Y190398D01*
X6419799Y197307D01*
X6427266Y211378D01*
X6434023Y225856D01*
X6437172Y233222D01*
X6442760Y248158D01*
X6447637Y263347D01*
X6451701Y278790D01*
X6454952Y294436D01*
X6457442Y310184D01*
X6459067Y326085D01*
X6459880Y342036D01*
X6459880Y357987D01*
X6459067Y373938D01*
X6457442Y389788D01*
X6454952Y405587D01*
X6451701Y421182D01*
X6447637Y436626D01*
X6442760Y451866D01*
X6437172Y466801D01*
X6430772Y481431D01*
X6423609Y495706D01*
X6415735Y509574D01*
X6407200Y523036D01*
X6397955Y536041D01*
X6388049Y548589D01*
X6377482Y560578D01*
X6366357Y572008D01*
X6354622Y582828D01*
X6342380Y593090D01*
X6329629Y602640D01*
X6316370Y611581D01*
X6302654Y619810D01*
X6288582Y627278D01*
X6281420Y630783D01*
X6266789Y637184D01*
X6251854Y642772D01*
X6236614Y647649D01*
X6221171Y651713D01*
X6205575Y654964D01*
X6189776Y657453D01*
X6173927Y659079D01*
X6157976Y659892D01*
G37*
G36*
X350012Y659993D02*
G01*
X334060Y659587D01*
X318109Y658368D01*
X310184Y657453D01*
X294436Y654964D01*
X278790Y651713D01*
X263347Y647649D01*
X248158Y642772D01*
X233222Y637184D01*
X218592Y630783D01*
X204317Y623620D01*
X197307Y619810D01*
X183642Y611581D01*
X170383Y602640D01*
X157632Y593090D01*
X145338Y582828D01*
X133654Y572008D01*
X122478Y560578D01*
X111963Y548589D01*
X102057Y536041D01*
X97332Y529640D01*
X88442Y516382D01*
X80213Y502666D01*
X72694Y488594D01*
X65938Y474116D01*
X59943Y459333D01*
X54660Y444296D01*
X50241Y428955D01*
X46532Y413410D01*
X43688Y397713D01*
X41656Y381863D01*
X40386Y365963D01*
X39979Y350012D01*
X40386Y334060D01*
X41656Y318109D01*
X43688Y302310D01*
X46532Y286613D01*
X50241Y271068D01*
X54660Y255727D01*
X59943Y240639D01*
X65938Y225856D01*
X72694Y211378D01*
X80213Y197307D01*
X88442Y183642D01*
X97332Y170383D01*
X106933Y157632D01*
X117144Y145338D01*
X128016Y133654D01*
X139446Y122478D01*
X151434Y111963D01*
X163931Y102057D01*
X176936Y92811D01*
X190398Y84226D01*
X204317Y76352D01*
X218592Y69240D01*
X233222Y62839D01*
X248158Y57200D01*
X255727Y54660D01*
X271068Y50241D01*
X286613Y46532D01*
X302310Y43688D01*
X318109Y41656D01*
X334060Y40386D01*
X350012Y39979D01*
X365963Y40386D01*
X381863Y41656D01*
X397713Y43688D01*
X413410Y46532D01*
X428955Y50241D01*
X444296Y54660D01*
X459333Y59943D01*
X474116Y65938D01*
X488594Y72694D01*
X502666Y80213D01*
X516382Y88442D01*
X529640Y97332D01*
X542391Y106933D01*
X554634Y117144D01*
X566369Y128016D01*
X577494Y139446D01*
X588060Y151434D01*
X597966Y163931D01*
X607212Y176936D01*
X615746Y190398D01*
X619810Y197307D01*
X627278Y211378D01*
X634034Y225856D01*
X637184Y233222D01*
X642772Y248158D01*
X647649Y263347D01*
X651713Y278790D01*
X654964Y294436D01*
X657453Y310184D01*
X659079Y326085D01*
X659892Y342036D01*
X659892Y357987D01*
X659079Y373938D01*
X657453Y389788D01*
X654964Y405587D01*
X651713Y421182D01*
X647649Y436626D01*
X642772Y451866D01*
X637184Y466801D01*
X630783Y481431D01*
X623620Y495706D01*
X615746Y509574D01*
X607212Y523036D01*
X597966Y536041D01*
X588060Y548589D01*
X577494Y560578D01*
X566369Y572008D01*
X554634Y582828D01*
X542391Y593090D01*
X529640Y602640D01*
X516382Y611581D01*
X502666Y619810D01*
X488594Y627278D01*
X481431Y630783D01*
X466801Y637184D01*
X451866Y642772D01*
X436626Y647649D01*
X421182Y651713D01*
X405587Y654964D01*
X389788Y657453D01*
X373938Y659079D01*
X357987Y659892D01*
G37*
G36*
X1519986Y3132074D02*
G01*
X1504035Y3131464D01*
X1488135Y3130042D01*
X1472336Y3127806D01*
X1456639Y3124758D01*
X1441145Y3120898D01*
X1433474Y3118713D01*
X1418285Y3113684D01*
X1403400Y3107893D01*
X1388821Y3101390D01*
X1374597Y3094126D01*
X1360779Y3086100D01*
X1354023Y3081883D01*
X1340866Y3072841D01*
X1328166Y3063138D01*
X1315974Y3052826D01*
X1304290Y3041904D01*
X1293215Y3030423D01*
X1282750Y3018332D01*
X1272895Y3005785D01*
X1263700Y2992729D01*
X1255217Y2979166D01*
X1247394Y2965246D01*
X1240332Y2950921D01*
X1237030Y2943656D01*
X1231087Y2928823D01*
X1225854Y2913735D01*
X1221435Y2898394D01*
X1217828Y2882849D01*
X1214983Y2867152D01*
X1212951Y2851302D01*
X1211681Y2835351D01*
X1211275Y2819400D01*
X1211681Y2803448D01*
X1212951Y2787497D01*
X1214983Y2771648D01*
X1217828Y2755950D01*
X1219504Y2748127D01*
X1223568Y2732684D01*
X1228394Y2717444D01*
X1233982Y2702509D01*
X1240332Y2687828D01*
X1247394Y2673553D01*
X1255217Y2659583D01*
X1263700Y2646070D01*
X1272895Y2633014D01*
X1282750Y2620467D01*
X1293215Y2608376D01*
X1304290Y2596896D01*
X1315974Y2585923D01*
X1328166Y2575610D01*
X1334414Y2570683D01*
X1347368Y2561336D01*
X1360779Y2552649D01*
X1374597Y2544673D01*
X1388821Y2537409D01*
X1403400Y2530906D01*
X1418285Y2525115D01*
X1425854Y2522474D01*
X1441145Y2517851D01*
X1456639Y2514041D01*
X1472336Y2510993D01*
X1488135Y2508758D01*
X1504035Y2507335D01*
X1519986Y2506726D01*
X1535988Y2506929D01*
X1551889Y2507945D01*
X1567789Y2509774D01*
X1583537Y2512415D01*
X1599133Y2515870D01*
X1606854Y2517851D01*
X1622145Y2522474D01*
X1637182Y2527909D01*
X1651914Y2534056D01*
X1666290Y2540965D01*
X1680362Y2548585D01*
X1693976Y2556916D01*
X1707134Y2565958D01*
X1713585Y2570683D01*
X1726031Y2580690D01*
X1737918Y2591358D01*
X1749298Y2602534D01*
X1760067Y2614371D01*
X1770227Y2626664D01*
X1779778Y2639517D01*
X1788617Y2652776D01*
X1796796Y2666492D01*
X1804212Y2680665D01*
X1810969Y2695143D01*
X1816912Y2709926D01*
X1822145Y2725064D01*
X1826564Y2740406D01*
X1828495Y2748127D01*
X1831695Y2763774D01*
X1834134Y2779572D01*
X1835759Y2795473D01*
X1836572Y2811424D01*
X1836572Y2827375D01*
X1835759Y2843326D01*
X1834134Y2859227D01*
X1831695Y2875026D01*
X1828495Y2890621D01*
X1824431Y2906115D01*
X1822145Y2913735D01*
X1816912Y2928823D01*
X1810969Y2943656D01*
X1804212Y2958134D01*
X1796796Y2972257D01*
X1788617Y2986024D01*
X1779778Y2999282D01*
X1770227Y3012135D01*
X1760067Y3024428D01*
X1754784Y3030423D01*
X1743710Y3041904D01*
X1732025Y3052826D01*
X1719834Y3063138D01*
X1707134Y3072841D01*
X1693976Y3081883D01*
X1680362Y3090214D01*
X1666290Y3097834D01*
X1651914Y3104743D01*
X1637182Y3110890D01*
X1622145Y3116275D01*
X1614525Y3118713D01*
X1599133Y3122930D01*
X1583537Y3126384D01*
X1567789Y3129026D01*
X1551889Y3130854D01*
X1535988Y3131870D01*
G37*
G36*
X3869486Y3132074D02*
G01*
X3853535Y3131464D01*
X3837635Y3130042D01*
X3821836Y3127806D01*
X3806139Y3124758D01*
X3790645Y3120898D01*
X3782974Y3118713D01*
X3767785Y3113684D01*
X3752900Y3107893D01*
X3738321Y3101390D01*
X3724097Y3094126D01*
X3710279Y3086100D01*
X3703523Y3081883D01*
X3690315Y3072841D01*
X3677615Y3063138D01*
X3665423Y3052826D01*
X3653790Y3041904D01*
X3642715Y3030423D01*
X3632250Y3018332D01*
X3622395Y3005785D01*
X3613200Y2992729D01*
X3604717Y2979166D01*
X3596894Y2965246D01*
X3589832Y2950921D01*
X3586530Y2943656D01*
X3580587Y2928823D01*
X3575354Y2913735D01*
X3570935Y2898394D01*
X3567277Y2882849D01*
X3564432Y2867152D01*
X3562400Y2851302D01*
X3561181Y2835351D01*
X3560775Y2819400D01*
X3561181Y2803448D01*
X3562400Y2787497D01*
X3564432Y2771648D01*
X3567277Y2755950D01*
X3570935Y2740406D01*
X3575354Y2725064D01*
X3580587Y2709926D01*
X3586530Y2695143D01*
X3593287Y2680665D01*
X3600704Y2666492D01*
X3608882Y2652776D01*
X3617722Y2639517D01*
X3627221Y2626664D01*
X3637432Y2614371D01*
X3648201Y2602534D01*
X3659530Y2591358D01*
X3671468Y2580690D01*
X3683914Y2570683D01*
X3696868Y2561336D01*
X3710279Y2552649D01*
X3724097Y2544673D01*
X3738321Y2537409D01*
X3752900Y2530906D01*
X3767785Y2525115D01*
X3775354Y2522474D01*
X3790645Y2517851D01*
X3806139Y2514041D01*
X3821836Y2510993D01*
X3837635Y2508758D01*
X3853535Y2507335D01*
X3869486Y2506726D01*
X3885488Y2506929D01*
X3901389Y2507945D01*
X3917289Y2509774D01*
X3933037Y2512415D01*
X3948633Y2515870D01*
X3956354Y2517851D01*
X3971645Y2522474D01*
X3986682Y2527909D01*
X4001414Y2534056D01*
X4015790Y2540965D01*
X4029862Y2548585D01*
X4043476Y2556916D01*
X4056634Y2565958D01*
X4069334Y2575610D01*
X4081526Y2585923D01*
X4093210Y2596896D01*
X4104284Y2608376D01*
X4114749Y2620467D01*
X4124604Y2633014D01*
X4133748Y2646070D01*
X4142282Y2659583D01*
X4150106Y2673553D01*
X4157167Y2687828D01*
X4163517Y2702509D01*
X4169105Y2717444D01*
X4173931Y2732684D01*
X4177944Y2748127D01*
X4181195Y2763774D01*
X4183634Y2779572D01*
X4185259Y2795473D01*
X4186072Y2811424D01*
X4186072Y2827375D01*
X4185259Y2843326D01*
X4183634Y2859227D01*
X4181195Y2875026D01*
X4177944Y2890621D01*
X4176064Y2898394D01*
X4171594Y2913735D01*
X4166412Y2928823D01*
X4160418Y2943656D01*
X4153712Y2958134D01*
X4146296Y2972257D01*
X4138117Y2986024D01*
X4129278Y2999282D01*
X4119727Y3012135D01*
X4109567Y3024428D01*
X4104284Y3030423D01*
X4093210Y3041904D01*
X4081526Y3052826D01*
X4069334Y3063138D01*
X4056634Y3072841D01*
X4043476Y3081883D01*
X4029862Y3090214D01*
X4015790Y3097834D01*
X4001414Y3104743D01*
X3986682Y3110890D01*
X3971645Y3116275D01*
X3964025Y3118713D01*
X3948633Y3122930D01*
X3933037Y3126384D01*
X3917289Y3129026D01*
X3901389Y3130854D01*
X3885488Y3131870D01*
G37*
G36*
X1519986Y753668D02*
G01*
X1504035Y753059D01*
X1488135Y751636D01*
X1472336Y749401D01*
X1456639Y746353D01*
X1441145Y742543D01*
X1425854Y737920D01*
X1410817Y732485D01*
X1396085Y726338D01*
X1381658Y719429D01*
X1367637Y711809D01*
X1354023Y703478D01*
X1340866Y694436D01*
X1334414Y689711D01*
X1321968Y679704D01*
X1310081Y669036D01*
X1298702Y657860D01*
X1287932Y646023D01*
X1277772Y633730D01*
X1268222Y620877D01*
X1259382Y607618D01*
X1251204Y593902D01*
X1243787Y579729D01*
X1237030Y565251D01*
X1231087Y550468D01*
X1225854Y535330D01*
X1221435Y519988D01*
X1219504Y512267D01*
X1216304Y496620D01*
X1213866Y480822D01*
X1212240Y464921D01*
X1211376Y448970D01*
X1211376Y433019D01*
X1212240Y417068D01*
X1213866Y401167D01*
X1216304Y385368D01*
X1219504Y369773D01*
X1223568Y354279D01*
X1225854Y346659D01*
X1231087Y331571D01*
X1237030Y316738D01*
X1243787Y302260D01*
X1251204Y288137D01*
X1259382Y274370D01*
X1268222Y261112D01*
X1277772Y248259D01*
X1287932Y235966D01*
X1293215Y229971D01*
X1304290Y218490D01*
X1315974Y207568D01*
X1328166Y197256D01*
X1340866Y187553D01*
X1354023Y178511D01*
X1367637Y170180D01*
X1381658Y162560D01*
X1396085Y155651D01*
X1410817Y149504D01*
X1425854Y144119D01*
X1433474Y141681D01*
X1448866Y137464D01*
X1464462Y134010D01*
X1480210Y131368D01*
X1496060Y129539D01*
X1512011Y128524D01*
X1528013Y128320D01*
X1543964Y128930D01*
X1559864Y130352D01*
X1575663Y132588D01*
X1591360Y135636D01*
X1606854Y139496D01*
X1614525Y141681D01*
X1629714Y146710D01*
X1644599Y152501D01*
X1659178Y159004D01*
X1673402Y166268D01*
X1687220Y174294D01*
X1693976Y178511D01*
X1707134Y187553D01*
X1719834Y197256D01*
X1732025Y207568D01*
X1743710Y218490D01*
X1754784Y229971D01*
X1765249Y242062D01*
X1775104Y254609D01*
X1784299Y267665D01*
X1792782Y281228D01*
X1800606Y295148D01*
X1807667Y309473D01*
X1810969Y316738D01*
X1816912Y331571D01*
X1822145Y346659D01*
X1826564Y362000D01*
X1830171Y377545D01*
X1833016Y393242D01*
X1835048Y409092D01*
X1836267Y425043D01*
X1836674Y440994D01*
X1836267Y456946D01*
X1835048Y472897D01*
X1833016Y488746D01*
X1830171Y504443D01*
X1828495Y512267D01*
X1824431Y527710D01*
X1819605Y542950D01*
X1814017Y557885D01*
X1807667Y572566D01*
X1800606Y586841D01*
X1792782Y600811D01*
X1784299Y614324D01*
X1775104Y627380D01*
X1765249Y639927D01*
X1754784Y652018D01*
X1743710Y663498D01*
X1732025Y674471D01*
X1719834Y684784D01*
X1713585Y689711D01*
X1700631Y699058D01*
X1687220Y707745D01*
X1673402Y715721D01*
X1659178Y722985D01*
X1644599Y729488D01*
X1629714Y735279D01*
X1622145Y737920D01*
X1606854Y742543D01*
X1591360Y746353D01*
X1575663Y749401D01*
X1559864Y751636D01*
X1543964Y753059D01*
X1528013Y753668D01*
G37*
G36*
X3869486Y753668D02*
G01*
X3853535Y753059D01*
X3837635Y751636D01*
X3821836Y749401D01*
X3806139Y746353D01*
X3790645Y742543D01*
X3775354Y737920D01*
X3760317Y732485D01*
X3745585Y726338D01*
X3731158Y719429D01*
X3717137Y711809D01*
X3703523Y703478D01*
X3690315Y694436D01*
X3677615Y684784D01*
X3665423Y674471D01*
X3653790Y663498D01*
X3642715Y652018D01*
X3632250Y639927D01*
X3622395Y627380D01*
X3613200Y614324D01*
X3604717Y600811D01*
X3596894Y586841D01*
X3589832Y572566D01*
X3583482Y557885D01*
X3577894Y542950D01*
X3573068Y527710D01*
X3569004Y512267D01*
X3565753Y496620D01*
X3563315Y480822D01*
X3561689Y464921D01*
X3560876Y448970D01*
X3560876Y433019D01*
X3561689Y417068D01*
X3563315Y401167D01*
X3565753Y385368D01*
X3569004Y369773D01*
X3573068Y354279D01*
X3575354Y346659D01*
X3580587Y331571D01*
X3586530Y316738D01*
X3593287Y302260D01*
X3600704Y288137D01*
X3608882Y274370D01*
X3617722Y261112D01*
X3627221Y248259D01*
X3637432Y235966D01*
X3642715Y229971D01*
X3653790Y218490D01*
X3665423Y207568D01*
X3677615Y197256D01*
X3690315Y187553D01*
X3703523Y178511D01*
X3717137Y170180D01*
X3731158Y162560D01*
X3745585Y155651D01*
X3760317Y149504D01*
X3775354Y144119D01*
X3782974Y141681D01*
X3798366Y137464D01*
X3813962Y134010D01*
X3829710Y131368D01*
X3845560Y129539D01*
X3861511Y128524D01*
X3877462Y128320D01*
X3893464Y128930D01*
X3909364Y130352D01*
X3925163Y132588D01*
X3940860Y135636D01*
X3956354Y139496D01*
X3964025Y141681D01*
X3979214Y146710D01*
X3994099Y152501D01*
X4008628Y159004D01*
X4022851Y166268D01*
X4036720Y174294D01*
X4043476Y178511D01*
X4056634Y187553D01*
X4069334Y197256D01*
X4081526Y207568D01*
X4093210Y218490D01*
X4104284Y229971D01*
X4114749Y242062D01*
X4124604Y254609D01*
X4133748Y267665D01*
X4142282Y281228D01*
X4150106Y295148D01*
X4157167Y309473D01*
X4163517Y324104D01*
X4169105Y339090D01*
X4173931Y354279D01*
X4176064Y362000D01*
X4179671Y377545D01*
X4182516Y393242D01*
X4184548Y409092D01*
X4185767Y425043D01*
X4186174Y440994D01*
X4185767Y456946D01*
X4184548Y472897D01*
X4182516Y488746D01*
X4179671Y504443D01*
X4176064Y519988D01*
X4171594Y535330D01*
X4166412Y550468D01*
X4160418Y565251D01*
X4153712Y579729D01*
X4146296Y593902D01*
X4138117Y607618D01*
X4129278Y620877D01*
X4119727Y633730D01*
X4109567Y646023D01*
X4098798Y657860D01*
X4087418Y669036D01*
X4075531Y679704D01*
X4063034Y689711D01*
X4050131Y699058D01*
X4036720Y707745D01*
X4022851Y715721D01*
X4008628Y722985D01*
X3994099Y729488D01*
X3979214Y735279D01*
X3971645Y737920D01*
X3956354Y742543D01*
X3940860Y746353D01*
X3925163Y749401D01*
X3909364Y751636D01*
X3893464Y753059D01*
X3877462Y753668D01*
G37*
D10*
G01*
X4299991Y2736722D03*
G01*
X4299991Y2823286D03*
G01*
X4399991Y2736722D03*
G01*
X4399991Y2823286D03*
G01*
X4499990Y2736722D03*
G01*
X4499990Y2823286D03*
G01*
X4599990Y2736722D03*
G01*
X4599990Y2823286D03*
G01*
X4529988Y3176701D03*
G01*
X4529988Y3263264D03*
G01*
X4629988Y3176701D03*
G01*
X4629988Y3263264D03*
G01*
X4729988Y3176701D03*
G01*
X4729988Y3263264D03*
D11*
G01*
X2057496Y1247739D03*
G01*
X2122495Y1247736D03*
G01*
X2187493Y1247736D03*
G01*
X2252492Y1247736D03*
G01*
X2317490Y1247736D03*
G01*
X2382489Y1247736D03*
G01*
X1992497Y1247736D03*
G01*
X1667504Y1247736D03*
G01*
X1732503Y1247736D03*
G01*
X1797502Y1247736D03*
G01*
X1862500Y1247736D03*
G01*
X1927499Y1247736D03*
G01*
X2122495Y1852256D03*
G01*
X2187493Y1852256D03*
G01*
X2252492Y1852256D03*
G01*
X2317490Y1852256D03*
G01*
X2382489Y1852256D03*
G01*
X2057496Y1852256D03*
G01*
X1667504Y1852256D03*
G01*
X1732503Y1852256D03*
G01*
X1797502Y1852256D03*
G01*
X1862500Y1852256D03*
G01*
X1927499Y1852256D03*
G01*
X1992497Y1852254D03*
D12*
G01*
X5999993Y2969994D03*
D13*
G01*
X5799983Y2969994D03*
D12*
G01*
X5999993Y829998D03*
D13*
G01*
X5799983Y829998D03*
D12*
G01*
X5999993Y1009997D03*
D13*
G01*
X5799983Y1009997D03*
D12*
G01*
X5999993Y1189997D03*
D13*
G01*
X5799983Y1189997D03*
D12*
G01*
X5999993Y1369997D03*
D13*
G01*
X5799983Y1369997D03*
D12*
G01*
X5999993Y1629996D03*
D13*
G01*
X5799983Y1629996D03*
D12*
G01*
X5999993Y1809996D03*
D13*
G01*
X5799983Y1809996D03*
D12*
G01*
X5999993Y1989996D03*
D13*
G01*
X5799983Y1989996D03*
D12*
G01*
X5999993Y2169995D03*
D13*
G01*
X5799983Y2169995D03*
D12*
G01*
X5999993Y2429995D03*
D13*
G01*
X5799983Y2429995D03*
D12*
G01*
X5999993Y2609994D03*
D13*
G01*
X5799983Y2609994D03*
D12*
G01*
X5999993Y2789994D03*
D13*
G01*
X5799983Y2789994D03*
D14*
G01*
X5999987Y3922496D03*
D15*
G01*
X6159987Y4227499D03*
G01*
X5839984Y4227499D03*
D16*
G01*
X499998Y3897490D03*
D15*
G01*
X659998Y4202498D03*
G01*
X339995Y4202498D03*
D17*
G01*
X5663006Y5122976D03*
G01*
X5663006Y5376976D03*
G01*
X5409006Y5122976D03*
G01*
X5409006Y5376976D03*
G01*
X5155006Y5122976D03*
G01*
X5155006Y5376976D03*
G01*
X4901006Y5122976D03*
G01*
X4901006Y5376976D03*
G01*
X4647006Y5122976D03*
G01*
X4647006Y5376976D03*
G01*
X4393006Y5122976D03*
G01*
X4393006Y5376976D03*
G01*
X4139006Y5122976D03*
G01*
X4139006Y5376976D03*
G01*
X3885006Y5122976D03*
G01*
X3885006Y5376976D03*
G01*
X3631006Y5122976D03*
G01*
X3631006Y5376976D03*
G01*
X3377006Y5122976D03*
G01*
X3377006Y5376976D03*
G01*
X3123006Y5122976D03*
G01*
X3123006Y5376976D03*
G01*
X2869006Y5122976D03*
G01*
X2869006Y5376976D03*
G01*
X2615006Y5122976D03*
G01*
X2615006Y5376976D03*
G01*
X2361006Y5122976D03*
G01*
X2361006Y5376976D03*
G01*
X2107006Y5122976D03*
G01*
X2107006Y5376976D03*
G01*
X1853006Y5122976D03*
G01*
X1853006Y5376976D03*
G01*
X1599006Y5122976D03*
G01*
X1599006Y5376976D03*
G01*
X1345006Y5122976D03*
G01*
X1345006Y5376976D03*
G01*
X1091006Y5122976D03*
G01*
X1091006Y5376976D03*
G01*
X837006Y5122976D03*
D18*
G01*
X836993Y5376989D03*
D10*
G01*
X4699990Y2736722D03*
G01*
X4699990Y2823286D03*
D19*
G01*
X2864500Y1959996D03*
D20*
G01*
X2755488Y1959996D03*
D21*
G01*
X2423278Y324998D03*
D22*
G01*
X2336712Y324998D03*
D23*
G01*
X2336712Y224998D03*
D24*
G01*
X2423278Y224998D03*
D25*
G01*
X2614627Y345003D03*
G01*
X2614627Y439999D03*
G01*
X2614627Y534995D03*
D26*
G01*
X2845361Y534995D03*
G01*
X2845361Y345003D03*
D19*
G01*
X2594500Y1049997D03*
D20*
G01*
X2485489Y1049997D03*
D21*
G01*
X2583277Y949998D03*
D22*
G01*
X2496712Y949998D03*
D23*
G01*
X2496709Y850000D03*
D24*
G01*
X2583275Y850000D03*
D25*
G01*
X2774624Y955006D03*
G01*
X2774624Y1050002D03*
G01*
X2774624Y1144998D03*
D26*
G01*
X3005358Y1144998D03*
G01*
X3005358Y955006D03*
D27*
G01*
X1959996Y994503D03*
D28*
G01*
X1959996Y885492D03*
D27*
G01*
X1799996Y994503D03*
D28*
G01*
X1799996Y885492D03*
D29*
G01*
X2550007Y1429994D03*
G01*
X2550007Y1549984D03*
G01*
X2550007Y1669973D03*
G01*
X2159990Y2169972D03*
G01*
X2079980Y2089962D03*
G01*
X1999995Y2169972D03*
G01*
X1919986Y2089988D03*
G01*
X1829993Y2169972D03*
D30*
G01*
X2550007Y4001490D03*
G01*
X2550007Y4348479D03*
G01*
X3550005Y4001490D03*
G01*
X3550005Y4348479D03*
G01*
X4550003Y4001490D03*
G01*
X4550003Y4348479D03*
D31*
G01*
X5826492Y4449991D03*
G01*
X6173483Y4449991D03*
G01*
X326503Y4424989D03*
G01*
X673494Y4424989D03*
D32*
G01*
X6169990Y4680000D03*
G01*
X6169990Y4819980D03*
D33*
G01*
X669998Y4669990D03*
G01*
X529998Y4669990D03*
D19*
G01*
X2434501Y424997D03*
D20*
G01*
X2325489Y424997D03*
D34*
G01*
X1869996Y3323276D03*
D35*
G01*
X1869996Y3236710D03*
D10*
G01*
X1869998Y3426713D03*
G01*
X1869998Y3513277D03*
D34*
G01*
X3059993Y3283276D03*
D35*
G01*
X3059993Y3196710D03*
D10*
G01*
X3059988Y3386709D03*
G01*
X3059988Y3473272D03*
D21*
G01*
X2853277Y1859996D03*
D22*
G01*
X2766711Y1859996D03*
D23*
G01*
X2766711Y1759996D03*
D24*
G01*
X2853277Y1759996D03*
D34*
G01*
X3739992Y3523275D03*
D35*
G01*
X3739992Y3436710D03*
D10*
G01*
X3739997Y3626713D03*
G01*
X3739997Y3713276D03*
D36*
G01*
X1669999Y3930751D03*
G01*
X1669999Y4249242D03*
G01*
X1889988Y3930751D03*
G01*
X1889988Y4249242D03*
D33*
G01*
X2519994Y3049993D03*
G01*
X2379995Y3049993D03*
G01*
X2519994Y3189993D03*
G01*
X2379995Y3189993D03*
D19*
G01*
X1179504Y3949992D03*
D20*
G01*
X1070493Y3949992D03*
D19*
G01*
X1179504Y3849992D03*
D20*
G01*
X1070493Y3849992D03*
D19*
G01*
X2994499Y1359997D03*
D20*
G01*
X2885488Y1359997D03*
D19*
G01*
X2834500Y739998D03*
D20*
G01*
X2725488Y739998D03*
D19*
G01*
X3264499Y2279995D03*
D20*
G01*
X3155487Y2279995D03*
D37*
G01*
X2049995Y3424996D03*
G01*
X2049995Y3614987D03*
G01*
X2249995Y3519991D03*
G01*
X3239993Y3384997D03*
G01*
X3239993Y3574987D03*
G01*
X3439993Y3479991D03*
G01*
X3924993Y3629995D03*
G01*
X3924993Y3819986D03*
G01*
X4124993Y3724990D03*
D25*
G01*
X3044626Y1865000D03*
G01*
X3044626Y1959996D03*
G01*
X3044626Y2054992D03*
D26*
G01*
X3275360Y2054992D03*
G01*
X3275360Y1865000D03*
D38*
G01*
X914366Y4120004D03*
G01*
X914366Y4420003D03*
G36*
X1092860Y4169968D02*
G01*
X1088212Y4170070D01*
X1083513Y4170400D01*
X1078864Y4170959D01*
X1074242Y4171721D01*
X1069670Y4172686D01*
X1065123Y4173905D01*
X1060678Y4175328D01*
X1056259Y4176928D01*
X1051940Y4178731D01*
X1047699Y4180763D01*
X1043584Y4182998D01*
X1039545Y4185386D01*
X1035634Y4187977D01*
X1031875Y4190745D01*
X1028242Y4193717D01*
X1024712Y4196816D01*
X1021359Y4200093D01*
X1018159Y4203522D01*
X1015136Y4207103D01*
X1012266Y4210812D01*
X1009599Y4214647D01*
X1007084Y4218635D01*
X1004798Y4222699D01*
X1002411Y4227321D01*
X1001369Y4231970D01*
X830605Y4231970D01*
X830605Y4307967D01*
X1001369Y4307967D01*
X1002411Y4312640D01*
X1004798Y4317237D01*
X1007084Y4321327D01*
X1009599Y4325289D01*
X1012266Y4329125D01*
X1015136Y4332859D01*
X1018159Y4336414D01*
X1021359Y4339869D01*
X1024712Y4343120D01*
X1028242Y4346244D01*
X1031875Y4349191D01*
X1035634Y4351959D01*
X1039545Y4354576D01*
X1043584Y4356963D01*
X1047699Y4359198D01*
X1051966Y4361205D01*
X1056259Y4363008D01*
X1060678Y4364634D01*
X1065148Y4366031D01*
X1069670Y4367225D01*
X1074242Y4368241D01*
X1078864Y4368977D01*
X1083513Y4369536D01*
X1088212Y4369866D01*
X1092860Y4369968D01*
X1278381Y4369968D01*
X1283004Y4369866D01*
X1287703Y4369536D01*
X1292352Y4368977D01*
X1296974Y4368241D01*
X1301546Y4367225D01*
X1306068Y4366031D01*
X1310538Y4364634D01*
X1314957Y4363008D01*
X1319250Y4361205D01*
X1323517Y4359198D01*
X1327632Y4356963D01*
X1331671Y4354576D01*
X1335582Y4351959D01*
X1339342Y4349191D01*
X1342999Y4346244D01*
X1346504Y4343120D01*
X1349857Y4339869D01*
X1353057Y4336414D01*
X1356080Y4332859D01*
X1358950Y4329125D01*
X1361617Y4325289D01*
X1364132Y4321327D01*
X1366418Y4317237D01*
X1368552Y4313072D01*
X1370507Y4308779D01*
X1372209Y4304411D01*
X1373708Y4299991D01*
X1375003Y4295470D01*
X1376121Y4290898D01*
X1376959Y4286300D01*
X1377645Y4281678D01*
X1378051Y4277004D01*
X1378305Y4272330D01*
X1378305Y4267606D01*
X1378051Y4262932D01*
X1377645Y4258284D01*
X1376959Y4253636D01*
X1376121Y4249038D01*
X1375003Y4244441D01*
X1373708Y4239971D01*
X1372209Y4235551D01*
X1370507Y4231182D01*
X1368577Y4226890D01*
X1366418Y4222699D01*
X1364132Y4218635D01*
X1361617Y4214647D01*
X1358950Y4210812D01*
X1356080Y4207103D01*
X1353057Y4203522D01*
X1349857Y4200093D01*
X1346504Y4196816D01*
X1342999Y4193717D01*
X1339342Y4190745D01*
X1335582Y4187977D01*
X1331671Y4185386D01*
X1327632Y4182998D01*
X1323517Y4180763D01*
X1319276Y4178731D01*
X1314957Y4176928D01*
X1310538Y4175328D01*
X1306093Y4173905D01*
X1301546Y4172686D01*
X1296974Y4171721D01*
X1292352Y4170959D01*
X1287703Y4170400D01*
X1283004Y4170070D01*
X1278381Y4169968D01*
G37*
D10*
G01*
X5189981Y4136720D03*
G01*
X5189981Y4223283D03*
G01*
X5289981Y4136720D03*
G01*
X5289981Y4223283D03*
D34*
G01*
X1319997Y3443276D03*
D35*
G01*
X1319997Y3356710D03*
D34*
G01*
X1219997Y3443276D03*
D35*
G01*
X1219997Y3356710D03*
D37*
G01*
X5469991Y4134998D03*
G01*
X5469991Y4324988D03*
G01*
X5669991Y4229992D03*
D39*
G01*
X1049997Y3444989D03*
G01*
X1049997Y3254998D03*
G01*
X849998Y3349994D03*
D40*
G01*
X2874992Y4849990D03*
D41*
G01*
X3074997Y4849990D03*
D17*
G01*
X724992Y2999994D03*
G01*
X275005Y2999994D03*
G01*
X724992Y2599994D03*
G01*
X275005Y2599994D03*
D42*
G01*
X2250008Y4349978D03*
G01*
X2250008Y3949979D03*
G01*
X3250006Y4349978D03*
G01*
X3250006Y3949979D03*
G01*
X4250004Y4349978D03*
G01*
X4250004Y3949979D03*
D43*
G01*
X2318994Y2799969D03*
G01*
X2572994Y2799969D03*
G01*
X2826994Y2799969D03*
G01*
X3080994Y2799969D03*
M02*
