G04 Layer: BottomPasteMaskLayer*
G04 EasyEDA v6.5.40, 2024-03-19 00:07:40*
G04 3cfb54e61b884618aacb5dd00d766781,92418ead495845dc98574c5a0a119f62,10*
G04 Gerber Generator version 0.2*
G04 Scale: 100 percent, Rotated: No, Reflected: No *
G04 Dimensions in millimeters *
G04 leading zeros omitted , absolute positions ,4 integer and 5 decimal *
%FSLAX45Y45*%
%MOMM*%

%AMMACRO1*21,1,$1,$2,0,0,$3*%
%AMMACRO2*4,1,16,1.7,-2.4999,1.7,1.7998,0.5001,1.7998,0.5001,3.3,-0.4999,3.3,-0.4999,1.8001,-1.7,1.8001,-1.7,-2.4999,-1.3,-2.5001,-1.3,-3.3,-0.3,-3.3,-0.3,-2.5001,0.3,-2.5001,0.3,-3.3,1.3,-3.3,1.3,-2.5001,1.7,-2.4999,0*%
%AMMACRO3*4,1,16,1.7,-2.5,1.7,1.8,0.5001,1.8,0.5001,3.3001,-0.4999,3.3001,-0.4999,1.8,-1.7,1.8,-1.7,-2.5,-1.3,-2.5,-1.3,-3.3001,-0.3,-3.3001,-0.3,-2.5,0.3,-2.5,0.3,-3.3001,1.3,-3.3001,1.3,-2.5,1.7,-2.5,0*%
%ADD10MACRO1,0.4X1.65X0.0000*%
%ADD11MACRO1,0.4001X1.65X0.0000*%
%ADD12MACRO2*%
%ADD13MACRO1,1.3X1.1001X90.0000*%
%ADD14MACRO3*%
%ADD15MACRO1,0.49X1.157X90.0000*%
%ADD16MACRO1,0.49X1.175X90.0000*%
%ADD17C,0.6350*%
%ADD18MACRO1,1.1999X1.1499X-90.0000*%
%ADD19MACRO1,1.2002X1.1499X0.0000*%
%ADD20MACRO1,1.2001X1.1499X0.0000*%
%ADD21MACRO1,1.2001X1.1501X0.0000*%
%ADD22MACRO1,1.2002X1.1501X0.0000*%
%ADD23MACRO1,0.7998X0.9002X-90.0000*%
%ADD24MACRO1,0.8001X0.9002X0.0000*%
%ADD25MACRO1,0.7998X0.8999X0.0000*%
%ADD26MACRO1,1.2499X0.7X0.0000*%
%ADD27MACRO1,1.2499X0.6998X0.0000*%
%ADD28MACRO1,0.6721X1.5751X90.0000*%
%ADD29MACRO1,1.2502X0.7X0.0000*%
%ADD30C,0.0167*%

%LPD*%
G36*
X4277004Y2766517D02*
G01*
X4272991Y2762504D01*
X4272991Y2712415D01*
X4277004Y2708452D01*
X4322978Y2708452D01*
X4326991Y2712415D01*
X4326991Y2762504D01*
X4322978Y2766517D01*
G37*
G36*
X4277004Y2851556D02*
G01*
X4272991Y2847543D01*
X4272991Y2797505D01*
X4277004Y2793492D01*
X4322978Y2793492D01*
X4326991Y2797505D01*
X4326991Y2847543D01*
X4322978Y2851556D01*
G37*
G36*
X4376978Y2766517D02*
G01*
X4372965Y2762504D01*
X4372965Y2712415D01*
X4376978Y2708452D01*
X4423003Y2708452D01*
X4426966Y2712415D01*
X4426966Y2762504D01*
X4423003Y2766517D01*
G37*
G36*
X4376978Y2851556D02*
G01*
X4372965Y2847543D01*
X4372965Y2797505D01*
X4376978Y2793492D01*
X4423003Y2793492D01*
X4426966Y2797505D01*
X4426966Y2847543D01*
X4423003Y2851556D01*
G37*
G36*
X4477004Y2766517D02*
G01*
X4472990Y2762504D01*
X4472990Y2712415D01*
X4477004Y2708452D01*
X4522978Y2708452D01*
X4526991Y2712415D01*
X4526991Y2762504D01*
X4522978Y2766517D01*
G37*
G36*
X4477004Y2851556D02*
G01*
X4472990Y2847543D01*
X4472990Y2797505D01*
X4477004Y2793492D01*
X4522978Y2793492D01*
X4526991Y2797505D01*
X4526991Y2847543D01*
X4522978Y2851556D01*
G37*
G36*
X4576978Y2766517D02*
G01*
X4572965Y2762504D01*
X4572965Y2712415D01*
X4576978Y2708452D01*
X4623003Y2708452D01*
X4626965Y2712415D01*
X4626965Y2762504D01*
X4623003Y2766517D01*
G37*
G36*
X4576978Y2851556D02*
G01*
X4572965Y2847543D01*
X4572965Y2797505D01*
X4576978Y2793492D01*
X4623003Y2793492D01*
X4626965Y2797505D01*
X4626965Y2847543D01*
X4623003Y2851556D01*
G37*
G36*
X4506976Y3206496D02*
G01*
X4503013Y3202482D01*
X4503013Y3152444D01*
X4506976Y3148431D01*
X4553000Y3148431D01*
X4557014Y3152444D01*
X4557014Y3202482D01*
X4553000Y3206496D01*
G37*
G36*
X4506976Y3291535D02*
G01*
X4503013Y3287572D01*
X4503013Y3237484D01*
X4506976Y3233470D01*
X4553000Y3233470D01*
X4557014Y3237484D01*
X4557014Y3287572D01*
X4553000Y3291535D01*
G37*
G36*
X4607001Y3206496D02*
G01*
X4602988Y3202482D01*
X4602988Y3152444D01*
X4607001Y3148431D01*
X4652975Y3148431D01*
X4656988Y3152444D01*
X4656988Y3202482D01*
X4652975Y3206496D01*
G37*
G36*
X4607001Y3291535D02*
G01*
X4602988Y3287572D01*
X4602988Y3237484D01*
X4607001Y3233470D01*
X4652975Y3233470D01*
X4656988Y3237484D01*
X4656988Y3287572D01*
X4652975Y3291535D01*
G37*
G36*
X4706975Y3206496D02*
G01*
X4703013Y3202482D01*
X4703013Y3152444D01*
X4706975Y3148431D01*
X4753000Y3148431D01*
X4757013Y3152444D01*
X4757013Y3202482D01*
X4753000Y3206496D01*
G37*
G36*
X4706975Y3291535D02*
G01*
X4703013Y3287572D01*
X4703013Y3237484D01*
X4706975Y3233470D01*
X4753000Y3233470D01*
X4757013Y3237484D01*
X4757013Y3287572D01*
X4753000Y3291535D01*
G37*
G36*
X5734964Y3039008D02*
G01*
X5729986Y3033979D01*
X5729986Y2906014D01*
X5734964Y2900984D01*
X5849975Y2900984D01*
X5855004Y2906014D01*
X5855512Y2947009D01*
X5810504Y2947009D01*
X5810504Y2992018D01*
X5854496Y2992018D01*
X5855004Y3033979D01*
X5849975Y3039008D01*
G37*
G36*
X5950000Y3039008D02*
G01*
X5944971Y3033979D01*
X5944971Y2992018D01*
X5989472Y2992018D01*
X5989472Y2947009D01*
X5945479Y2947009D01*
X5944971Y2906014D01*
X5950000Y2900984D01*
X6065012Y2900984D01*
X6069990Y2906014D01*
X6069990Y3033979D01*
X6065012Y3039008D01*
G37*
G36*
X5734964Y899007D02*
G01*
X5729986Y893978D01*
X5729986Y766013D01*
X5734964Y760984D01*
X5849975Y760984D01*
X5855004Y766013D01*
X5855512Y807008D01*
X5810504Y807008D01*
X5810504Y852017D01*
X5854496Y852017D01*
X5855004Y893978D01*
X5849975Y899007D01*
G37*
G36*
X5950000Y899007D02*
G01*
X5944971Y893978D01*
X5944971Y852017D01*
X5989472Y852017D01*
X5989472Y807008D01*
X5945479Y807008D01*
X5944971Y766013D01*
X5950000Y760984D01*
X6065012Y760984D01*
X6069990Y766013D01*
X6069990Y893978D01*
X6065012Y899007D01*
G37*
G36*
X5734964Y1078992D02*
G01*
X5729986Y1074013D01*
X5729986Y945997D01*
X5734964Y941019D01*
X5849975Y941019D01*
X5855004Y945997D01*
X5855512Y986993D01*
X5810504Y986993D01*
X5810504Y1032002D01*
X5854496Y1032002D01*
X5855004Y1074013D01*
X5849975Y1078992D01*
G37*
G36*
X5950000Y1078992D02*
G01*
X5944971Y1074013D01*
X5944971Y1032002D01*
X5989472Y1032002D01*
X5989472Y986993D01*
X5945479Y986993D01*
X5944971Y945997D01*
X5950000Y941019D01*
X6065012Y941019D01*
X6069990Y945997D01*
X6069990Y1074013D01*
X6065012Y1078992D01*
G37*
G36*
X5734964Y1258976D02*
G01*
X5729986Y1253998D01*
X5729986Y1125982D01*
X5734964Y1121003D01*
X5849975Y1121003D01*
X5855004Y1125982D01*
X5855512Y1167028D01*
X5810504Y1167028D01*
X5810504Y1211986D01*
X5854496Y1211986D01*
X5855004Y1253998D01*
X5849975Y1258976D01*
G37*
G36*
X5950000Y1258976D02*
G01*
X5944971Y1253998D01*
X5944971Y1211986D01*
X5989472Y1211986D01*
X5989472Y1167028D01*
X5945479Y1167028D01*
X5944971Y1125982D01*
X5950000Y1121003D01*
X6065012Y1121003D01*
X6069990Y1125982D01*
X6069990Y1253998D01*
X6065012Y1258976D01*
G37*
G36*
X5734964Y1439011D02*
G01*
X5729986Y1433982D01*
X5729986Y1306017D01*
X5734964Y1300988D01*
X5849975Y1300988D01*
X5855004Y1306017D01*
X5855512Y1347012D01*
X5810504Y1347012D01*
X5810504Y1392021D01*
X5854496Y1392021D01*
X5855004Y1433982D01*
X5849975Y1439011D01*
G37*
G36*
X5950000Y1439011D02*
G01*
X5944971Y1433982D01*
X5944971Y1392021D01*
X5989472Y1392021D01*
X5989472Y1347012D01*
X5945479Y1347012D01*
X5944971Y1306017D01*
X5950000Y1300988D01*
X6065012Y1300988D01*
X6069990Y1306017D01*
X6069990Y1433982D01*
X6065012Y1439011D01*
G37*
G36*
X5734964Y1699006D02*
G01*
X5729986Y1693976D01*
X5729986Y1566011D01*
X5734964Y1560982D01*
X5849975Y1560982D01*
X5855004Y1566011D01*
X5855512Y1607007D01*
X5810504Y1607007D01*
X5810504Y1652016D01*
X5854496Y1652016D01*
X5855004Y1693976D01*
X5849975Y1699006D01*
G37*
G36*
X5950000Y1699006D02*
G01*
X5944971Y1693976D01*
X5944971Y1652016D01*
X5989472Y1652016D01*
X5989472Y1607007D01*
X5945479Y1607007D01*
X5944971Y1566011D01*
X5950000Y1560982D01*
X6065012Y1560982D01*
X6069990Y1566011D01*
X6069990Y1693976D01*
X6065012Y1699006D01*
G37*
G36*
X5734964Y1878990D02*
G01*
X5729986Y1874012D01*
X5729986Y1745996D01*
X5734964Y1741017D01*
X5849975Y1741017D01*
X5855004Y1745996D01*
X5855512Y1786991D01*
X5810504Y1786991D01*
X5810504Y1832000D01*
X5854496Y1832000D01*
X5855004Y1874012D01*
X5849975Y1878990D01*
G37*
G36*
X5950000Y1878990D02*
G01*
X5944971Y1874012D01*
X5944971Y1832000D01*
X5989472Y1832000D01*
X5989472Y1786991D01*
X5945479Y1786991D01*
X5944971Y1745996D01*
X5950000Y1741017D01*
X6065012Y1741017D01*
X6069990Y1745996D01*
X6069990Y1874012D01*
X6065012Y1878990D01*
G37*
G36*
X5734964Y2058974D02*
G01*
X5729986Y2053996D01*
X5729986Y1925980D01*
X5734964Y1921002D01*
X5849975Y1921002D01*
X5855004Y1925980D01*
X5855512Y1966975D01*
X5810504Y1966975D01*
X5810504Y2011984D01*
X5854496Y2011984D01*
X5855004Y2053996D01*
X5849975Y2058974D01*
G37*
G36*
X5950000Y2058974D02*
G01*
X5944971Y2053996D01*
X5944971Y2011984D01*
X5989472Y2011984D01*
X5989472Y1966975D01*
X5945479Y1966975D01*
X5944971Y1925980D01*
X5950000Y1921002D01*
X6065012Y1921002D01*
X6069990Y1925980D01*
X6069990Y2053996D01*
X6065012Y2058974D01*
G37*
G36*
X5734964Y2239010D02*
G01*
X5729986Y2233980D01*
X5729986Y2106015D01*
X5734964Y2100986D01*
X5849975Y2100986D01*
X5855004Y2106015D01*
X5855512Y2147011D01*
X5810504Y2147011D01*
X5810504Y2192020D01*
X5854496Y2192020D01*
X5855004Y2233980D01*
X5849975Y2239010D01*
G37*
G36*
X5950000Y2239010D02*
G01*
X5944971Y2233980D01*
X5944971Y2192020D01*
X5989472Y2192020D01*
X5989472Y2147011D01*
X5945479Y2147011D01*
X5944971Y2106015D01*
X5950000Y2100986D01*
X6065012Y2100986D01*
X6069990Y2106015D01*
X6069990Y2233980D01*
X6065012Y2239010D01*
G37*
G36*
X5734964Y2499004D02*
G01*
X5729986Y2493975D01*
X5729986Y2366010D01*
X5734964Y2360980D01*
X5849975Y2360980D01*
X5855004Y2366010D01*
X5855512Y2407005D01*
X5810504Y2407005D01*
X5810504Y2452014D01*
X5854496Y2452014D01*
X5855004Y2493975D01*
X5849975Y2499004D01*
G37*
G36*
X5950000Y2499004D02*
G01*
X5944971Y2493975D01*
X5944971Y2452014D01*
X5989472Y2452014D01*
X5989472Y2407005D01*
X5945479Y2407005D01*
X5944971Y2366010D01*
X5950000Y2360980D01*
X6065012Y2360980D01*
X6069990Y2366010D01*
X6069990Y2493975D01*
X6065012Y2499004D01*
G37*
G36*
X5734964Y2678988D02*
G01*
X5729986Y2674010D01*
X5729986Y2545994D01*
X5734964Y2541016D01*
X5849975Y2541016D01*
X5855004Y2545994D01*
X5855512Y2586990D01*
X5810504Y2586990D01*
X5810504Y2631998D01*
X5854496Y2631998D01*
X5855004Y2674010D01*
X5849975Y2678988D01*
G37*
G36*
X5950000Y2678988D02*
G01*
X5944971Y2674010D01*
X5944971Y2631998D01*
X5989472Y2631998D01*
X5989472Y2586990D01*
X5945479Y2586990D01*
X5944971Y2545994D01*
X5950000Y2541016D01*
X6065012Y2541016D01*
X6069990Y2545994D01*
X6069990Y2674010D01*
X6065012Y2678988D01*
G37*
G36*
X5734964Y2858973D02*
G01*
X5729986Y2853994D01*
X5729986Y2725978D01*
X5734964Y2721000D01*
X5849975Y2721000D01*
X5855004Y2725978D01*
X5855512Y2766974D01*
X5810504Y2766974D01*
X5810504Y2811983D01*
X5854496Y2811983D01*
X5855004Y2853994D01*
X5849975Y2858973D01*
G37*
G36*
X5950000Y2858973D02*
G01*
X5944971Y2853994D01*
X5944971Y2811983D01*
X5989472Y2811983D01*
X5989472Y2766974D01*
X5945479Y2766974D01*
X5944971Y2725978D01*
X5950000Y2721000D01*
X6065012Y2721000D01*
X6069990Y2725978D01*
X6069990Y2853994D01*
X6065012Y2858973D01*
G37*
G36*
X4677003Y2766517D02*
G01*
X4672990Y2762504D01*
X4672990Y2712415D01*
X4677003Y2708452D01*
X4722977Y2708452D01*
X4726990Y2712415D01*
X4726990Y2762504D01*
X4722977Y2766517D01*
G37*
G36*
X4677003Y2851556D02*
G01*
X4672990Y2847543D01*
X4672990Y2797505D01*
X4677003Y2793492D01*
X4722977Y2793492D01*
X4726990Y2797505D01*
X4726990Y2847543D01*
X4722977Y2851556D01*
G37*
G36*
X2737002Y1987499D02*
G01*
X2731973Y1982470D01*
X2731973Y1937512D01*
X2737002Y1932482D01*
X2785008Y1932482D01*
X2791968Y1937512D01*
X2791968Y1982470D01*
X2785008Y1987499D01*
G37*
G36*
X2834995Y1987499D02*
G01*
X2827985Y1982470D01*
X2827985Y1937512D01*
X2834995Y1932482D01*
X2883001Y1932482D01*
X2887980Y1937512D01*
X2887980Y1982470D01*
X2883001Y1987499D01*
G37*
G36*
X2397506Y351993D02*
G01*
X2393492Y347980D01*
X2393492Y302006D01*
X2397506Y297992D01*
X2447544Y297992D01*
X2451557Y302006D01*
X2451557Y347980D01*
X2447544Y351993D01*
G37*
G36*
X2312416Y351993D02*
G01*
X2308453Y347980D01*
X2308453Y302006D01*
X2312416Y297992D01*
X2362504Y297992D01*
X2366518Y302006D01*
X2366518Y347980D01*
X2362504Y351993D01*
G37*
G36*
X2312416Y252018D02*
G01*
X2308453Y248005D01*
X2308453Y201980D01*
X2312416Y198018D01*
X2362504Y198018D01*
X2366518Y201980D01*
X2366518Y248005D01*
X2362504Y252018D01*
G37*
G36*
X2397506Y252018D02*
G01*
X2393492Y248005D01*
X2393492Y201980D01*
X2397506Y198018D01*
X2447544Y198018D01*
X2451557Y201980D01*
X2451557Y248005D01*
X2447544Y252018D01*
G37*
G36*
X2467000Y1077518D02*
G01*
X2461971Y1072489D01*
X2461971Y1027480D01*
X2467000Y1022502D01*
X2515006Y1022502D01*
X2522016Y1027480D01*
X2522016Y1072489D01*
X2515006Y1077518D01*
G37*
G36*
X2564993Y1077518D02*
G01*
X2557983Y1072489D01*
X2557983Y1027480D01*
X2564993Y1022502D01*
X2612999Y1022502D01*
X2617978Y1027480D01*
X2617978Y1072489D01*
X2612999Y1077518D01*
G37*
G36*
X2557475Y976985D02*
G01*
X2553512Y972972D01*
X2553512Y926998D01*
X2557475Y922985D01*
X2607564Y922985D01*
X2611577Y926998D01*
X2611577Y972972D01*
X2607564Y976985D01*
G37*
G36*
X2472436Y976985D02*
G01*
X2468422Y972972D01*
X2468422Y926998D01*
X2472436Y922985D01*
X2522474Y922985D01*
X2526487Y926998D01*
X2526487Y972972D01*
X2522474Y976985D01*
G37*
G36*
X2472436Y877011D02*
G01*
X2468422Y872998D01*
X2468422Y827024D01*
X2472436Y823010D01*
X2522474Y823010D01*
X2526487Y827024D01*
X2526487Y872998D01*
X2522474Y877011D01*
G37*
G36*
X2557475Y877011D02*
G01*
X2553512Y872998D01*
X2553512Y827024D01*
X2557475Y823010D01*
X2607564Y823010D01*
X2611577Y827024D01*
X2611577Y872998D01*
X2607564Y877011D01*
G37*
G36*
X1937512Y921969D02*
G01*
X1932482Y915009D01*
X1932482Y867003D01*
X1937512Y861974D01*
X1982520Y861974D01*
X1987499Y867003D01*
X1987499Y915009D01*
X1982520Y921969D01*
G37*
G36*
X1937512Y1017981D02*
G01*
X1932482Y1013002D01*
X1932482Y964996D01*
X1937512Y957986D01*
X1982520Y957986D01*
X1987499Y964996D01*
X1987499Y1013002D01*
X1982520Y1017981D01*
G37*
G36*
X1777492Y921969D02*
G01*
X1772513Y915009D01*
X1772513Y867003D01*
X1777492Y861974D01*
X1822500Y861974D01*
X1827479Y867003D01*
X1827479Y915009D01*
X1822500Y921969D01*
G37*
G36*
X1777492Y1017981D02*
G01*
X1772513Y1013002D01*
X1772513Y964996D01*
X1777492Y957986D01*
X1822500Y957986D01*
X1827479Y964996D01*
X1827479Y1013002D01*
X1822500Y1017981D01*
G37*
G36*
X2306980Y452475D02*
G01*
X2302002Y447497D01*
X2302002Y402488D01*
X2306980Y397510D01*
X2354986Y397510D01*
X2361996Y402488D01*
X2361996Y447497D01*
X2354986Y452475D01*
G37*
G36*
X2404973Y452475D02*
G01*
X2398014Y447497D01*
X2398014Y402488D01*
X2404973Y397510D01*
X2452979Y397510D01*
X2458008Y402488D01*
X2458008Y447497D01*
X2452979Y452475D01*
G37*
G36*
X1846986Y3351580D02*
G01*
X1842973Y3347567D01*
X1842973Y3297478D01*
X1846986Y3293516D01*
X1893011Y3293516D01*
X1896973Y3297478D01*
X1896973Y3347567D01*
X1893011Y3351580D01*
G37*
G36*
X1846986Y3266490D02*
G01*
X1842973Y3262477D01*
X1842973Y3212439D01*
X1846986Y3208426D01*
X1893011Y3208426D01*
X1896973Y3212439D01*
X1896973Y3262477D01*
X1893011Y3266490D01*
G37*
G36*
X1846986Y3456482D02*
G01*
X1842973Y3452469D01*
X1842973Y3402431D01*
X1846986Y3398418D01*
X1893011Y3398418D01*
X1896973Y3402431D01*
X1896973Y3452469D01*
X1893011Y3456482D01*
G37*
G36*
X1846986Y3541572D02*
G01*
X1842973Y3537559D01*
X1842973Y3487470D01*
X1846986Y3483508D01*
X1893011Y3483508D01*
X1896973Y3487470D01*
X1896973Y3537559D01*
X1893011Y3541572D01*
G37*
G36*
X3036976Y3311550D02*
G01*
X3033014Y3307537D01*
X3033014Y3257499D01*
X3036976Y3253486D01*
X3083001Y3253486D01*
X3087014Y3257499D01*
X3087014Y3307537D01*
X3083001Y3311550D01*
G37*
G36*
X3036976Y3226511D02*
G01*
X3033014Y3222498D01*
X3033014Y3172409D01*
X3036976Y3168446D01*
X3083001Y3168446D01*
X3087014Y3172409D01*
X3087014Y3222498D01*
X3083001Y3226511D01*
G37*
G36*
X3036976Y3416503D02*
G01*
X3033014Y3412490D01*
X3033014Y3362451D01*
X3036976Y3358438D01*
X3083001Y3358438D01*
X3087014Y3362451D01*
X3087014Y3412490D01*
X3083001Y3416503D01*
G37*
G36*
X3036976Y3501542D02*
G01*
X3033014Y3497579D01*
X3033014Y3447491D01*
X3036976Y3443478D01*
X3083001Y3443478D01*
X3087014Y3447491D01*
X3087014Y3497579D01*
X3083001Y3501542D01*
G37*
G36*
X2827477Y1887016D02*
G01*
X2823514Y1883003D01*
X2823514Y1836978D01*
X2827477Y1833016D01*
X2877566Y1833016D01*
X2881579Y1836978D01*
X2881579Y1883003D01*
X2877566Y1887016D01*
G37*
G36*
X2742438Y1887016D02*
G01*
X2738424Y1883003D01*
X2738424Y1836978D01*
X2742438Y1833016D01*
X2792476Y1833016D01*
X2796489Y1836978D01*
X2796489Y1883003D01*
X2792476Y1887016D01*
G37*
G36*
X2742438Y1786991D02*
G01*
X2738424Y1782978D01*
X2738424Y1737004D01*
X2742438Y1732991D01*
X2792476Y1732991D01*
X2796489Y1737004D01*
X2796489Y1782978D01*
X2792476Y1786991D01*
G37*
G36*
X2827477Y1786991D02*
G01*
X2823514Y1782978D01*
X2823514Y1737004D01*
X2827477Y1732991D01*
X2877566Y1732991D01*
X2881579Y1737004D01*
X2881579Y1782978D01*
X2877566Y1786991D01*
G37*
G36*
X3716985Y3551580D02*
G01*
X3712972Y3547567D01*
X3712972Y3497478D01*
X3716985Y3493515D01*
X3763010Y3493515D01*
X3766972Y3497478D01*
X3766972Y3547567D01*
X3763010Y3551580D01*
G37*
G36*
X3716985Y3466490D02*
G01*
X3712972Y3462477D01*
X3712972Y3412439D01*
X3716985Y3408426D01*
X3763010Y3408426D01*
X3766972Y3412439D01*
X3766972Y3462477D01*
X3763010Y3466490D01*
G37*
G36*
X3716985Y3656482D02*
G01*
X3712972Y3652469D01*
X3712972Y3602431D01*
X3716985Y3598418D01*
X3763010Y3598418D01*
X3766972Y3602431D01*
X3766972Y3652469D01*
X3763010Y3656482D01*
G37*
G36*
X3716985Y3741572D02*
G01*
X3712972Y3737559D01*
X3712972Y3687470D01*
X3716985Y3683508D01*
X3763010Y3683508D01*
X3766972Y3687470D01*
X3766972Y3737559D01*
X3763010Y3741572D01*
G37*
G36*
X1593596Y4004970D02*
G01*
X1583588Y3995013D01*
X1583588Y3866489D01*
X1593596Y3856482D01*
X1746402Y3856482D01*
X1756410Y3866489D01*
X1756410Y3995013D01*
X1746402Y4004970D01*
X1709369Y4004970D01*
X1699361Y3995013D01*
X1699361Y3964482D01*
X1689354Y3954475D01*
X1650644Y3954475D01*
X1640636Y3964482D01*
X1640636Y3995013D01*
X1630629Y4004970D01*
G37*
G36*
X1593596Y4323486D02*
G01*
X1583588Y4313478D01*
X1583588Y4185005D01*
X1593596Y4174998D01*
X1630629Y4174998D01*
X1640636Y4185005D01*
X1640636Y4215485D01*
X1650644Y4225493D01*
X1689354Y4225493D01*
X1699361Y4215485D01*
X1699361Y4185005D01*
X1709369Y4174998D01*
X1746402Y4174998D01*
X1756410Y4185005D01*
X1756410Y4313478D01*
X1746402Y4323486D01*
G37*
G36*
X1813610Y4004970D02*
G01*
X1803603Y3995013D01*
X1803603Y3866489D01*
X1813610Y3856482D01*
X1966417Y3856482D01*
X1976374Y3866489D01*
X1976374Y3995013D01*
X1966417Y4004970D01*
X1929384Y4004970D01*
X1919376Y3995013D01*
X1919376Y3964482D01*
X1909368Y3954475D01*
X1870608Y3954475D01*
X1860600Y3964482D01*
X1860600Y3995013D01*
X1850643Y4004970D01*
G37*
G36*
X1813610Y4323486D02*
G01*
X1803603Y4313478D01*
X1803603Y4185005D01*
X1813610Y4174998D01*
X1850643Y4174998D01*
X1860600Y4185005D01*
X1860600Y4215485D01*
X1870608Y4225493D01*
X1909368Y4225493D01*
X1919376Y4215485D01*
X1919376Y4185005D01*
X1929384Y4174998D01*
X1966417Y4174998D01*
X1976374Y4185005D01*
X1976374Y4313478D01*
X1966417Y4323486D01*
G37*
G36*
X1052017Y3977487D02*
G01*
X1046987Y3972509D01*
X1046987Y3927500D01*
X1052017Y3922471D01*
X1099972Y3922471D01*
X1106982Y3927500D01*
X1106982Y3972509D01*
X1099972Y3977487D01*
G37*
G36*
X1150010Y3977487D02*
G01*
X1143000Y3972509D01*
X1143000Y3927500D01*
X1150010Y3922471D01*
X1198016Y3922471D01*
X1202994Y3927500D01*
X1202994Y3972509D01*
X1198016Y3977487D01*
G37*
G36*
X1052017Y3877513D02*
G01*
X1046987Y3872484D01*
X1046987Y3827475D01*
X1052017Y3822496D01*
X1099972Y3822496D01*
X1106982Y3827475D01*
X1106982Y3872484D01*
X1099972Y3877513D01*
G37*
G36*
X1150010Y3877513D02*
G01*
X1143000Y3872484D01*
X1143000Y3827475D01*
X1150010Y3822496D01*
X1198016Y3822496D01*
X1202994Y3827475D01*
X1202994Y3872484D01*
X1198016Y3877513D01*
G37*
G36*
X2866999Y1387500D02*
G01*
X2861970Y1382522D01*
X2861970Y1337513D01*
X2866999Y1332484D01*
X2915005Y1332484D01*
X2921965Y1337513D01*
X2921965Y1382522D01*
X2915005Y1387500D01*
G37*
G36*
X2964992Y1387500D02*
G01*
X2957982Y1382522D01*
X2957982Y1337513D01*
X2964992Y1332484D01*
X3012998Y1332484D01*
X3017977Y1337513D01*
X3017977Y1382522D01*
X3012998Y1387500D01*
G37*
G36*
X2706979Y767486D02*
G01*
X2702001Y762508D01*
X2702001Y717499D01*
X2706979Y712520D01*
X2754985Y712520D01*
X2761996Y717499D01*
X2761996Y762508D01*
X2754985Y767486D01*
G37*
G36*
X2804972Y767486D02*
G01*
X2798013Y762508D01*
X2798013Y717499D01*
X2804972Y712520D01*
X2852978Y712520D01*
X2858008Y717499D01*
X2858008Y762508D01*
X2852978Y767486D01*
G37*
G36*
X3137001Y2307488D02*
G01*
X3131972Y2302510D01*
X3131972Y2257501D01*
X3137001Y2252472D01*
X3185007Y2252472D01*
X3191967Y2257501D01*
X3191967Y2302510D01*
X3185007Y2307488D01*
G37*
G36*
X3234994Y2307488D02*
G01*
X3227984Y2302510D01*
X3227984Y2257501D01*
X3234994Y2252472D01*
X3283000Y2252472D01*
X3287979Y2257501D01*
X3287979Y2302510D01*
X3283000Y2307488D01*
G37*
G36*
X5166969Y4166514D02*
G01*
X5163007Y4162501D01*
X5163007Y4112412D01*
X5166969Y4108450D01*
X5212994Y4108450D01*
X5217007Y4112412D01*
X5217007Y4162501D01*
X5212994Y4166514D01*
G37*
G36*
X5166969Y4251553D02*
G01*
X5163007Y4247540D01*
X5163007Y4197502D01*
X5166969Y4193489D01*
X5212994Y4193489D01*
X5217007Y4197502D01*
X5217007Y4247540D01*
X5212994Y4251553D01*
G37*
G36*
X5266994Y4166514D02*
G01*
X5262981Y4162501D01*
X5262981Y4112412D01*
X5266994Y4108450D01*
X5312968Y4108450D01*
X5316982Y4112412D01*
X5316982Y4162501D01*
X5312968Y4166514D01*
G37*
G36*
X5266994Y4251553D02*
G01*
X5262981Y4247540D01*
X5262981Y4197502D01*
X5266994Y4193489D01*
X5312968Y4193489D01*
X5316982Y4197502D01*
X5316982Y4247540D01*
X5312968Y4251553D01*
G37*
G36*
X1296974Y3471570D02*
G01*
X1293012Y3467557D01*
X1293012Y3417519D01*
X1296974Y3413506D01*
X1342999Y3413506D01*
X1347012Y3417519D01*
X1347012Y3467557D01*
X1342999Y3471570D01*
G37*
G36*
X1296974Y3386480D02*
G01*
X1293012Y3382467D01*
X1293012Y3332429D01*
X1296974Y3328415D01*
X1342999Y3328415D01*
X1347012Y3332429D01*
X1347012Y3382467D01*
X1342999Y3386480D01*
G37*
G36*
X1197000Y3471570D02*
G01*
X1192987Y3467557D01*
X1192987Y3417519D01*
X1197000Y3413506D01*
X1242974Y3413506D01*
X1246987Y3417519D01*
X1246987Y3467557D01*
X1242974Y3471570D01*
G37*
G36*
X1197000Y3386480D02*
G01*
X1192987Y3382467D01*
X1192987Y3332429D01*
X1197000Y3328415D01*
X1242974Y3328415D01*
X1246987Y3332429D01*
X1246987Y3382467D01*
X1242974Y3386480D01*
G37*
G36*
X3022498Y4920996D02*
G01*
X3017520Y4916017D01*
X3017012Y4874971D01*
X3062020Y4874971D01*
X3062020Y4830013D01*
X3017977Y4830013D01*
X3017520Y4788001D01*
X3022498Y4782972D01*
X3137509Y4782972D01*
X3142488Y4788001D01*
X3142488Y4916017D01*
X3137509Y4920996D01*
G37*
G36*
X2807512Y4920996D02*
G01*
X2802483Y4916017D01*
X2802483Y4788001D01*
X2807512Y4782972D01*
X2922473Y4782972D01*
X2927502Y4788001D01*
X2927502Y4830013D01*
X2883001Y4830013D01*
X2883001Y4874971D01*
X2926994Y4874971D01*
X2927502Y4916017D01*
X2922473Y4920996D01*
G37*
D10*
G01*
X2057488Y1247749D03*
D11*
G01*
X2122487Y1247724D03*
D10*
G01*
X2187486Y1247724D03*
G01*
X2252484Y1247724D03*
G01*
X2317483Y1247724D03*
G01*
X2382481Y1247724D03*
G01*
X1992490Y1247724D03*
G01*
X1667497Y1247724D03*
D11*
G01*
X1732495Y1247724D03*
D10*
G01*
X1797494Y1247724D03*
G01*
X1862493Y1247724D03*
G01*
X1927491Y1247724D03*
D11*
G01*
X2122487Y1852244D03*
D10*
G01*
X2187486Y1852244D03*
G01*
X2252484Y1852244D03*
G01*
X2317483Y1852244D03*
G01*
X2382481Y1852244D03*
G01*
X2057488Y1852244D03*
G01*
X1667497Y1852244D03*
D11*
G01*
X1732495Y1852244D03*
D10*
G01*
X1797494Y1852244D03*
G01*
X1862493Y1852244D03*
G01*
X1927491Y1852244D03*
G01*
X1992490Y1852244D03*
D12*
G01*
X5999987Y3922496D03*
D13*
G01*
X6159995Y4227499D03*
G01*
X5839980Y4227499D03*
D14*
G01*
X499999Y3897490D03*
D13*
G01*
X660006Y4202506D03*
G01*
X339991Y4202506D03*
D15*
G01*
X2614637Y344995D03*
G01*
X2614637Y439991D03*
G01*
X2614637Y534987D03*
D16*
G01*
X2845358Y534987D03*
G01*
X2845358Y344995D03*
D15*
G01*
X2774632Y955001D03*
G01*
X2774632Y1049997D03*
G01*
X2774632Y1144993D03*
D16*
G01*
X3005353Y1144993D03*
G01*
X3005353Y955001D03*
D17*
G01*
X2550007Y1429994D03*
G01*
X2550007Y1549984D03*
G01*
X2550007Y1669973D03*
G01*
X2159990Y2169972D03*
G01*
X2079980Y2089962D03*
G01*
X1999995Y2169972D03*
G01*
X1919986Y2089988D03*
G01*
X1829993Y2169972D03*
D18*
G01*
X2549994Y4001490D03*
G01*
X2549994Y4348480D03*
G01*
X3549992Y4001490D03*
G01*
X3549992Y4348480D03*
G01*
X4549990Y4001490D03*
G01*
X4549990Y4348480D03*
D19*
G01*
X5826493Y4449991D03*
D20*
G01*
X6173482Y4449991D03*
D21*
G01*
X326504Y4424984D03*
D22*
G01*
X673493Y4424984D03*
D23*
G01*
X6169990Y4679988D03*
G01*
X6169990Y4819992D03*
D24*
G01*
X670001Y4669993D03*
G01*
X529996Y4669993D03*
D25*
G01*
X2519997Y3049993D03*
G01*
X2379992Y3049993D03*
G01*
X2519997Y3189998D03*
G01*
X2379992Y3189998D03*
D26*
G01*
X2049995Y3424986D03*
G01*
X2049995Y3614978D03*
G01*
X2249995Y3519982D03*
G01*
X3239985Y3385007D03*
D27*
G01*
X3239985Y3574986D03*
G01*
X3439985Y3479990D03*
D26*
G01*
X3924998Y3629990D03*
G01*
X3924998Y3819982D03*
G01*
X4124998Y3724986D03*
D15*
G01*
X3044634Y1865007D03*
G01*
X3044634Y1960003D03*
G01*
X3044634Y2054999D03*
D16*
G01*
X3275355Y2054999D03*
G01*
X3275355Y1865007D03*
D28*
G01*
X914361Y4120006D03*
G01*
X914361Y4420006D03*
G36*
X1278331Y4364964D02*
G01*
X1092911Y4364964D01*
X1088440Y4364862D01*
X1083995Y4364558D01*
X1079576Y4364024D01*
X1075181Y4363313D01*
X1070838Y4362373D01*
X1066520Y4361230D01*
X1062278Y4359910D01*
X1058087Y4358360D01*
X1053998Y4356633D01*
X1049959Y4354728D01*
X1046048Y4352620D01*
X1042212Y4350334D01*
X1038504Y4347870D01*
X1034922Y4345228D01*
X1031468Y4342434D01*
X1028115Y4339462D01*
X1024940Y4336364D01*
X1021892Y4333087D01*
X1019022Y4329709D01*
X1016304Y4326178D01*
X1013764Y4322521D01*
X1011377Y4318762D01*
X1009192Y4314875D01*
X1007160Y4310913D01*
X1005357Y4302963D01*
X835609Y4302963D01*
X835609Y4236973D01*
X1005357Y4236973D01*
X1007160Y4229049D01*
X1009192Y4225061D01*
X1011377Y4221200D01*
X1013764Y4217415D01*
X1016304Y4213783D01*
X1019022Y4210253D01*
X1021892Y4206849D01*
X1024940Y4203598D01*
X1028115Y4200474D01*
X1031468Y4197527D01*
X1034922Y4194708D01*
X1038504Y4192092D01*
X1042212Y4189628D01*
X1046048Y4187342D01*
X1049959Y4185234D01*
X1053998Y4183303D01*
X1058087Y4181576D01*
X1062278Y4180052D01*
X1066520Y4178706D01*
X1070838Y4177563D01*
X1075181Y4176648D01*
X1079576Y4175912D01*
X1083995Y4175379D01*
X1088440Y4175074D01*
X1092911Y4174972D01*
X1278331Y4174972D01*
X1282776Y4175074D01*
X1287221Y4175379D01*
X1291640Y4175912D01*
X1296035Y4176648D01*
X1300378Y4177563D01*
X1304696Y4178706D01*
X1308938Y4180052D01*
X1313129Y4181576D01*
X1317218Y4183303D01*
X1321257Y4185234D01*
X1325168Y4187342D01*
X1329004Y4189628D01*
X1332712Y4192092D01*
X1336294Y4194708D01*
X1339773Y4197527D01*
X1343101Y4200474D01*
X1346276Y4203598D01*
X1349324Y4206849D01*
X1352194Y4210253D01*
X1354912Y4213783D01*
X1357452Y4217415D01*
X1359839Y4221200D01*
X1362024Y4225061D01*
X1364056Y4229049D01*
X1365885Y4233113D01*
X1367510Y4237253D01*
X1368932Y4241469D01*
X1370177Y4245737D01*
X1371219Y4250080D01*
X1372031Y4254449D01*
X1372666Y4258868D01*
X1373073Y4263288D01*
X1373301Y4267733D01*
X1373301Y4272203D01*
X1373073Y4276648D01*
X1372666Y4281093D01*
X1372031Y4285487D01*
X1371219Y4289856D01*
X1370177Y4294200D01*
X1368932Y4298492D01*
X1367510Y4302709D01*
X1365885Y4306849D01*
X1364056Y4310913D01*
X1362024Y4314875D01*
X1359839Y4318762D01*
X1357452Y4322521D01*
X1354912Y4326178D01*
X1352194Y4329709D01*
X1349324Y4333087D01*
X1346276Y4336364D01*
X1343101Y4339462D01*
X1339773Y4342434D01*
X1336294Y4345228D01*
X1332712Y4347870D01*
X1329004Y4350334D01*
X1325168Y4352620D01*
X1321257Y4354728D01*
X1317218Y4356633D01*
X1313129Y4358360D01*
X1308938Y4359910D01*
X1304696Y4361230D01*
X1300378Y4362373D01*
X1296035Y4363313D01*
X1291640Y4364024D01*
X1287221Y4364558D01*
X1282776Y4364862D01*
X1278331Y4364964D01*
G37*
D29*
G01*
X5469991Y4134992D03*
G01*
X5469991Y4324984D03*
G01*
X5669991Y4229989D03*
D26*
G01*
X1049997Y3444976D03*
D27*
G01*
X1049997Y3254997D03*
G01*
X849998Y3349993D03*
M02*
