G04 Layer: BottomLayer*
G04 EasyEDA v6.5.40, 2024-03-19 00:07:40*
G04 3cfb54e61b884618aacb5dd00d766781,92418ead495845dc98574c5a0a119f62,10*
G04 Gerber Generator version 0.2*
G04 Scale: 100 percent, Rotated: No, Reflected: No *
G04 Dimensions in millimeters *
G04 leading zeros omitted , absolute positions ,4 integer and 5 decimal *
%FSLAX45Y45*%
%MOMM*%

%AMMACRO1*21,1,$1,$2,0,0,$3*%
%AMMACRO2*4,1,16,1.7,-2.4999,1.7,1.7999,0.5,1.7999,0.5,3.3001,-0.5,3.3001,-0.5,1.8001,-1.7,1.8001,-1.7,-2.5,-1.3,-2.5001,-1.3,-3.3001,-0.3,-3.3001,-0.3,-2.5001,0.3,-2.5001,0.3,-3.3001,1.3,-3.3001,1.3,-2.5001,1.7,-2.4999,0*%
%ADD10C,1.1500*%
%ADD11C,1.1000*%
%ADD12C,0.2000*%
%ADD13C,0.8000*%
%ADD14C,0.7000*%
%ADD15C,0.6000*%
%ADD16C,0.4000*%
%ADD17R,0.5400X0.5657*%
%ADD18MACRO1,0.54X0.5656X0.0000*%
%ADD19MACRO1,0.4X1.65X0.0000*%
%ADD20MACRO1,1.377X1.1325X-90.0000*%
%ADD21MACRO2*%
%ADD22MACRO1,1.3X1.1X90.0000*%
%ADD23MACRO1,0.54X0.7901X-90.0000*%
%ADD24MACRO1,0.54X0.5656X-90.0000*%
%ADD25MACRO1,0.54X0.5656X90.0000*%
%ADD26MACRO1,0.49X1.157X90.0000*%
%ADD27MACRO1,0.49X1.175X90.0000*%
%ADD28R,0.5400X0.7901*%
%ADD29MACRO1,0.54X0.7901X0.0000*%
%ADD30C,0.6350*%
%ADD31MACRO1,1.2X1.15X-90.0000*%
%ADD32MACRO1,1.2X1.15X0.0000*%
%ADD33MACRO1,0.8X0.9X-90.0000*%
%ADD34MACRO1,0.8X0.9X0.0000*%
%ADD35R,1.7280X1.4850*%
%ADD36MACRO1,1.728X1.485X0.0000*%
%ADD37MACRO1,1.25X0.7X0.0000*%
%ADD38MACRO1,0.672X1.575X90.0000*%
%ADD39MACRO1,1.35X1.41X90.0000*%
%ADD40C,1.6000*%
%ADD41MACRO1,1.6X1.6X0.0000*%
%ADD42C,1.8000*%
%ADD43C,0.9000*%
%ADD44C,0.7000*%
%ADD45C,0.0164*%

%LPD*%
G36*
X2750159Y4709972D02*
G01*
X2746248Y4710785D01*
X2742946Y4712970D01*
X2740761Y4716272D01*
X2739999Y4720132D01*
X2739999Y5239816D01*
X2740761Y5243728D01*
X2742946Y5247030D01*
X2746248Y5249214D01*
X2750159Y5249976D01*
X2989834Y5249976D01*
X2993745Y5249214D01*
X2996996Y5247030D01*
X2999232Y5243728D01*
X2999994Y5239816D01*
X2999994Y5024221D01*
X2999232Y5020310D01*
X2996996Y5017008D01*
X2940710Y4960721D01*
X2939999Y4958994D01*
X2939999Y4953558D01*
X2939237Y4949647D01*
X2937002Y4946396D01*
X2933700Y4944160D01*
X2929839Y4943398D01*
X2916580Y4943398D01*
X2916580Y4890109D01*
X2929839Y4890109D01*
X2933700Y4889296D01*
X2937002Y4887112D01*
X2939237Y4883810D01*
X2939999Y4879949D01*
X2939999Y4820056D01*
X2939237Y4816144D01*
X2937002Y4812842D01*
X2933700Y4810658D01*
X2929839Y4809896D01*
X2916580Y4809896D01*
X2916580Y4756556D01*
X2929839Y4756556D01*
X2933700Y4755794D01*
X2937002Y4753610D01*
X2939237Y4750308D01*
X2939999Y4746396D01*
X2939999Y4720132D01*
X2939237Y4716272D01*
X2937002Y4712970D01*
X2933700Y4710785D01*
X2929839Y4709972D01*
G37*

%LPC*%
G36*
X2805074Y4756556D02*
G01*
X2833370Y4756556D01*
X2833370Y4809896D01*
X2778607Y4809896D01*
X2778607Y4783074D01*
X2779318Y4776724D01*
X2781198Y4771288D01*
X2784297Y4766360D01*
X2788361Y4762296D01*
X2793288Y4759198D01*
X2798724Y4757318D01*
G37*
G36*
X2778607Y4890109D02*
G01*
X2833370Y4890109D01*
X2833370Y4943398D01*
X2805074Y4943398D01*
X2798724Y4942687D01*
X2793288Y4940757D01*
X2788361Y4937709D01*
X2784297Y4933594D01*
X2781198Y4928717D01*
X2779318Y4923231D01*
X2778607Y4916932D01*
G37*
G36*
X2822651Y5028031D02*
G01*
X2822651Y5076647D01*
X2774035Y5076647D01*
X2777286Y5070043D01*
X2785008Y5058511D01*
X2794101Y5048097D01*
X2804515Y5039004D01*
X2816047Y5031282D01*
G37*
G36*
X2915361Y5028031D02*
G01*
X2921914Y5031282D01*
X2933446Y5039004D01*
X2943860Y5048097D01*
X2953004Y5058511D01*
X2960674Y5070043D01*
X2963926Y5076647D01*
X2915361Y5076647D01*
G37*
G36*
X2915361Y5169357D02*
G01*
X2963926Y5169357D01*
X2960674Y5175910D01*
X2953004Y5187442D01*
X2943860Y5197856D01*
X2933446Y5207000D01*
X2921914Y5214670D01*
X2915361Y5217922D01*
G37*
G36*
X2774035Y5169357D02*
G01*
X2822651Y5169357D01*
X2822651Y5217922D01*
X2816047Y5214670D01*
X2804515Y5207000D01*
X2794101Y5197856D01*
X2785008Y5187442D01*
X2777286Y5175910D01*
G37*

%LPD*%
G36*
X3020161Y4709972D02*
G01*
X3016250Y4710785D01*
X3012948Y4712970D01*
X3010763Y4716272D01*
X3010001Y4720132D01*
X3010001Y4746396D01*
X3010763Y4750308D01*
X3012948Y4753610D01*
X3016250Y4755794D01*
X3020161Y4756556D01*
X3033420Y4756556D01*
X3033420Y4809896D01*
X3020161Y4809896D01*
X3016250Y4810658D01*
X3012948Y4812842D01*
X3010763Y4816144D01*
X3010001Y4820056D01*
X3010001Y4879949D01*
X3010763Y4883810D01*
X3012948Y4887112D01*
X3016250Y4889296D01*
X3020161Y4890109D01*
X3033420Y4890109D01*
X3033420Y4943398D01*
X3020161Y4943398D01*
X3016250Y4944160D01*
X3012948Y4946396D01*
X3010763Y4949647D01*
X3010001Y4953558D01*
X3010001Y4955794D01*
X3010763Y4959654D01*
X3012948Y4962956D01*
X3057042Y5007000D01*
X3060293Y5009235D01*
X3064205Y5009997D01*
X3289808Y5009997D01*
X3293719Y5009235D01*
X3297021Y5007000D01*
X3299206Y5003698D01*
X3300018Y4999837D01*
X3300018Y4720132D01*
X3299206Y4716272D01*
X3297021Y4712970D01*
X3293719Y4710785D01*
X3289808Y4709972D01*
G37*

%LPC*%
G36*
X3116580Y4756556D02*
G01*
X3144926Y4756556D01*
X3151225Y4757318D01*
X3156712Y4759198D01*
X3161588Y4762296D01*
X3165703Y4766360D01*
X3168802Y4771288D01*
X3170682Y4776724D01*
X3171393Y4783074D01*
X3171393Y4809896D01*
X3116580Y4809896D01*
G37*
G36*
X3116580Y4890109D02*
G01*
X3171393Y4890109D01*
X3171393Y4916932D01*
X3170682Y4923231D01*
X3168802Y4928717D01*
X3165703Y4933594D01*
X3161588Y4937709D01*
X3156712Y4940757D01*
X3151225Y4942687D01*
X3144926Y4943398D01*
X3116580Y4943398D01*
G37*

%LPD*%
G36*
X780135Y3719982D02*
G01*
X776274Y3720744D01*
X772972Y3722979D01*
X770788Y3726281D01*
X769975Y3730142D01*
X769975Y4139844D01*
X770788Y4143705D01*
X772972Y4147007D01*
X776274Y4149242D01*
X780135Y4150004D01*
X799541Y4150004D01*
X803605Y4149140D01*
X807008Y4146702D01*
X809142Y4143146D01*
X869187Y4143146D01*
X871321Y4146702D01*
X874725Y4149140D01*
X878789Y4150004D01*
X949909Y4150004D01*
X954024Y4149140D01*
X957376Y4146702D01*
X959510Y4143146D01*
X1022603Y4143146D01*
X1026515Y4142384D01*
X1029817Y4140200D01*
X1097026Y4072991D01*
X1099210Y4069689D01*
X1100023Y4065778D01*
X1100023Y4013047D01*
X1099108Y4008882D01*
X1096619Y4005478D01*
X1096619Y3967276D01*
X1099108Y3963822D01*
X1100023Y3959656D01*
X1100023Y3940301D01*
X1099108Y3936136D01*
X1096619Y3932732D01*
X1096619Y3867251D01*
X1099108Y3863848D01*
X1100023Y3859682D01*
X1100023Y3840276D01*
X1099108Y3836162D01*
X1096619Y3832707D01*
X1096619Y3794506D01*
X1099108Y3791102D01*
X1100023Y3786936D01*
X1100023Y3774186D01*
X1099210Y3770325D01*
X1097026Y3767023D01*
X1052982Y3722979D01*
X1049680Y3720744D01*
X1045768Y3719982D01*
G37*

%LPC*%
G36*
X1031544Y3797096D02*
G01*
X1044397Y3797096D01*
X1044397Y3830116D01*
X1005078Y3830116D01*
X1005078Y3823563D01*
X1005789Y3817264D01*
X1007719Y3811778D01*
X1010767Y3806901D01*
X1014882Y3802786D01*
X1019759Y3799687D01*
X1025245Y3797808D01*
G37*
G36*
X1005078Y3869842D02*
G01*
X1044397Y3869842D01*
X1044397Y3930142D01*
X1005078Y3930142D01*
X1005078Y3923537D01*
X1005789Y3917238D01*
X1007719Y3911803D01*
X1011377Y3905910D01*
X1012545Y3903319D01*
X1012952Y3899458D01*
X1012545Y3896664D01*
X1011377Y3894074D01*
X1007719Y3888181D01*
X1005789Y3882745D01*
X1005078Y3876446D01*
G37*
G36*
X1005078Y3969816D02*
G01*
X1044397Y3969816D01*
X1044397Y4002887D01*
X1031544Y4002887D01*
X1025245Y4002176D01*
X1019759Y4000296D01*
X1014882Y3997198D01*
X1010767Y3993083D01*
X1007719Y3988206D01*
X1005789Y3982720D01*
X1005078Y3976420D01*
G37*
G36*
X836168Y4060494D02*
G01*
X868629Y4060494D01*
X868629Y4096867D01*
X809701Y4096867D01*
X809701Y4086961D01*
X810412Y4080662D01*
X812342Y4075176D01*
X815390Y4070299D01*
X819505Y4066184D01*
X824382Y4063136D01*
X829868Y4061206D01*
G37*
G36*
X960069Y4060494D02*
G01*
X992530Y4060494D01*
X998880Y4061206D01*
X1004316Y4063136D01*
X1009243Y4066184D01*
X1013307Y4070299D01*
X1016406Y4075176D01*
X1018336Y4080662D01*
X1019048Y4086961D01*
X1019048Y4096867D01*
X960069Y4096867D01*
G37*

%LPD*%
G36*
X1520139Y3709974D02*
G01*
X1516278Y3710787D01*
X1512976Y3712972D01*
X1510792Y3716274D01*
X1509979Y3720134D01*
X1509979Y3979824D01*
X1510792Y3983736D01*
X1512976Y3987037D01*
X1516278Y3989222D01*
X1520139Y3989984D01*
X1547520Y3989984D01*
X1551432Y3989222D01*
X1554734Y3987037D01*
X1556918Y3983736D01*
X1557680Y3979824D01*
X1557680Y3974236D01*
X1620469Y3974236D01*
X1620469Y3979824D01*
X1621231Y3983736D01*
X1623415Y3987037D01*
X1626717Y3989222D01*
X1630629Y3989984D01*
X1709369Y3989984D01*
X1713280Y3989222D01*
X1716582Y3987037D01*
X1718767Y3983736D01*
X1719529Y3979824D01*
X1719529Y3974236D01*
X1840433Y3974236D01*
X1840433Y3979824D01*
X1841195Y3983736D01*
X1843430Y3987037D01*
X1846732Y3989222D01*
X1850593Y3989984D01*
X1929384Y3989984D01*
X1933295Y3989222D01*
X1936546Y3987037D01*
X1938782Y3983736D01*
X1939543Y3979824D01*
X1939543Y3974236D01*
X2002282Y3974236D01*
X2002282Y3979824D01*
X2003094Y3983736D01*
X2005279Y3987037D01*
X2008581Y3989222D01*
X2012442Y3989984D01*
X2069846Y3989984D01*
X2073706Y3989222D01*
X2077008Y3987037D01*
X2079243Y3983736D01*
X2080006Y3979824D01*
X2080006Y3720134D01*
X2079243Y3716274D01*
X2077008Y3712972D01*
X2073706Y3710787D01*
X2069846Y3709974D01*
G37*

%LPC*%
G36*
X1584147Y3830574D02*
G01*
X1620469Y3830574D01*
X1620469Y3887266D01*
X1557680Y3887266D01*
X1557680Y3857040D01*
X1558391Y3850741D01*
X1560322Y3845255D01*
X1563370Y3840378D01*
X1567484Y3836263D01*
X1572361Y3833215D01*
X1577848Y3831285D01*
G37*
G36*
X1939543Y3830574D02*
G01*
X1975815Y3830574D01*
X1982165Y3831285D01*
X1987600Y3833215D01*
X1992528Y3836263D01*
X1996592Y3840378D01*
X1999691Y3845255D01*
X2001570Y3850741D01*
X2002282Y3857040D01*
X2002282Y3887266D01*
X1939543Y3887266D01*
G37*
G36*
X1719529Y3830574D02*
G01*
X1755800Y3830574D01*
X1762150Y3831285D01*
X1767586Y3833215D01*
X1776120Y3838803D01*
X1779981Y3839565D01*
X1783892Y3838803D01*
X1792376Y3833215D01*
X1797862Y3831285D01*
X1804162Y3830574D01*
X1840433Y3830574D01*
X1840433Y3887266D01*
X1719529Y3887266D01*
G37*

%LPD*%
G36*
X2170176Y2649982D02*
G01*
X2166264Y2650744D01*
X2162962Y2652979D01*
X2160778Y2656281D01*
X2160016Y2660142D01*
X2160016Y3299815D01*
X2160778Y3303727D01*
X2162962Y3307029D01*
X2166264Y3309213D01*
X2170176Y3309975D01*
X2399842Y3309975D01*
X2403703Y3309213D01*
X2407005Y3307029D01*
X2409240Y3303727D01*
X2410002Y3299815D01*
X2410002Y3271062D01*
X2409037Y3266744D01*
X2406345Y3263290D01*
X2406345Y3216452D01*
X2409037Y3212998D01*
X2410002Y3208680D01*
X2410002Y3171291D01*
X2409037Y3167024D01*
X2406345Y3163519D01*
X2406345Y3076498D01*
X2409037Y3072993D01*
X2410002Y3068675D01*
X2410002Y3031286D01*
X2409037Y3027019D01*
X2406345Y3023514D01*
X2406345Y2970580D01*
X2405583Y2966669D01*
X2403398Y2963367D01*
X2370683Y2930702D01*
X2369972Y2928975D01*
X2369972Y2660142D01*
X2369210Y2656281D01*
X2367026Y2652979D01*
X2363724Y2650744D01*
X2359812Y2649982D01*
G37*

%LPC*%
G36*
X2267661Y2696260D02*
G01*
X2267661Y2748635D01*
X2215337Y2748635D01*
X2217420Y2744165D01*
X2225243Y2731871D01*
X2234539Y2720644D01*
X2245106Y2710688D01*
X2256891Y2702153D01*
G37*
G36*
X2215337Y2851353D02*
G01*
X2267661Y2851353D01*
X2267661Y2903728D01*
X2256891Y2897835D01*
X2245106Y2889300D01*
X2234539Y2879344D01*
X2225243Y2868117D01*
X2217420Y2855823D01*
G37*
G36*
X2340559Y2979064D02*
G01*
X2353665Y2979064D01*
X2353665Y3021126D01*
X2314092Y3021126D01*
X2314092Y3005582D01*
X2314803Y2999232D01*
X2316734Y2993796D01*
X2319782Y2988868D01*
X2323896Y2984804D01*
X2328773Y2981706D01*
X2334260Y2979775D01*
G37*
G36*
X2314092Y3078835D02*
G01*
X2353665Y3078835D01*
X2353665Y3161131D01*
X2314092Y3161131D01*
X2314092Y3145586D01*
X2314803Y3139236D01*
X2316734Y3133801D01*
X2319782Y3128873D01*
X2321509Y3127197D01*
X2323693Y3123895D01*
X2324455Y3119983D01*
X2323693Y3116122D01*
X2321509Y3112820D01*
X2319782Y3111093D01*
X2316734Y3106216D01*
X2314803Y3100730D01*
X2314092Y3094431D01*
G37*
G36*
X2314092Y3218840D02*
G01*
X2353665Y3218840D01*
X2353665Y3260902D01*
X2340559Y3260902D01*
X2334260Y3260191D01*
X2328773Y3258261D01*
X2323896Y3255213D01*
X2319782Y3251098D01*
X2316734Y3246221D01*
X2314803Y3240735D01*
X2314092Y3234436D01*
G37*

%LPD*%
G36*
X5570169Y659993D02*
G01*
X5566257Y660755D01*
X5562955Y662990D01*
X5560771Y666292D01*
X5560009Y670153D01*
X5560009Y3158998D01*
X5559298Y3160674D01*
X4560722Y4179265D01*
X4558995Y4179976D01*
X2950006Y4179976D01*
X2950006Y3884218D01*
X2949244Y3880307D01*
X2947009Y3877005D01*
X2710688Y3640683D01*
X2709976Y3639007D01*
X2709976Y2660142D01*
X2709214Y2656281D01*
X2707030Y2652979D01*
X2703728Y2650744D01*
X2699816Y2649982D01*
X2530144Y2649982D01*
X2526284Y2650744D01*
X2522982Y2652979D01*
X2520746Y2656281D01*
X2519984Y2660142D01*
X2519984Y2681630D01*
X2520391Y2684526D01*
X2521661Y2687167D01*
X2521661Y2753258D01*
X2520391Y2755900D01*
X2519984Y2758795D01*
X2519984Y2841193D01*
X2520391Y2844088D01*
X2521661Y2846730D01*
X2521661Y2912821D01*
X2520391Y2915462D01*
X2519984Y2918358D01*
X2519984Y2928975D01*
X2519273Y2930702D01*
X2492959Y2957017D01*
X2490774Y2960319D01*
X2490012Y2964180D01*
X2490012Y2968904D01*
X2490927Y2973222D01*
X2493619Y2976727D01*
X2493619Y3023514D01*
X2490927Y3027019D01*
X2490012Y3031286D01*
X2490012Y3068675D01*
X2490927Y3072993D01*
X2493619Y3076498D01*
X2493619Y3163519D01*
X2490927Y3167024D01*
X2490012Y3171291D01*
X2490012Y3208680D01*
X2490927Y3212998D01*
X2493619Y3216452D01*
X2493619Y3263290D01*
X2490927Y3266744D01*
X2490012Y3271062D01*
X2490012Y3715765D01*
X2490774Y3719677D01*
X2492959Y3722979D01*
X2729280Y3959301D01*
X2729992Y3960977D01*
X2729992Y4179976D01*
X2007057Y4179976D01*
X2003196Y4180789D01*
X1999894Y4182973D01*
X1997659Y4186275D01*
X1996897Y4190136D01*
X1996897Y4205782D01*
X1939543Y4205782D01*
X1939543Y4190136D01*
X1938782Y4186275D01*
X1936546Y4182973D01*
X1933295Y4180789D01*
X1929384Y4179976D01*
X1850593Y4179976D01*
X1846732Y4180789D01*
X1843430Y4182973D01*
X1841195Y4186275D01*
X1840433Y4190136D01*
X1840433Y4205782D01*
X1719529Y4205782D01*
X1719529Y4190136D01*
X1718767Y4186275D01*
X1716582Y4182973D01*
X1713280Y4180789D01*
X1709369Y4179976D01*
X1630629Y4179976D01*
X1626717Y4180789D01*
X1623415Y4182973D01*
X1621231Y4186275D01*
X1620469Y4190136D01*
X1620469Y4205782D01*
X1563065Y4205782D01*
X1563065Y4190136D01*
X1562303Y4186275D01*
X1560118Y4182973D01*
X1556816Y4180789D01*
X1552905Y4179976D01*
X1290015Y4179976D01*
X1290015Y3780129D01*
X1289202Y3776268D01*
X1287018Y3772966D01*
X1283716Y3770782D01*
X1279855Y3769969D01*
X1160170Y3769969D01*
X1156258Y3770782D01*
X1152956Y3772966D01*
X1150772Y3776268D01*
X1150010Y3780129D01*
X1150010Y3786936D01*
X1150874Y3791102D01*
X1153414Y3794506D01*
X1153414Y3832707D01*
X1150874Y3836162D01*
X1150010Y3840276D01*
X1150010Y3859682D01*
X1150874Y3863848D01*
X1153414Y3867251D01*
X1153414Y3932732D01*
X1150874Y3936136D01*
X1150010Y3940301D01*
X1150010Y3959656D01*
X1150874Y3963822D01*
X1153414Y3967276D01*
X1153414Y4005478D01*
X1150874Y4008882D01*
X1150010Y4013047D01*
X1150010Y4229811D01*
X1150772Y4233722D01*
X1152956Y4237024D01*
X1156258Y4239209D01*
X1160018Y4239920D01*
X1160018Y4608880D01*
X1159256Y4610658D01*
X693216Y5046980D01*
X690829Y5050332D01*
X690016Y5054396D01*
X690016Y5529834D01*
X690778Y5533694D01*
X692962Y5536996D01*
X696264Y5539232D01*
X700176Y5539994D01*
X1969820Y5539994D01*
X1973732Y5539232D01*
X1977034Y5536996D01*
X1979218Y5533694D01*
X1979980Y5529834D01*
X1979980Y4531004D01*
X1980996Y4529988D01*
X4615789Y4529988D01*
X4619650Y4529226D01*
X4622952Y4527042D01*
X5846978Y3312972D01*
X5849213Y3309670D01*
X5849975Y3305759D01*
X5849975Y3069488D01*
X5849213Y3065627D01*
X5847029Y3062325D01*
X5843727Y3060141D01*
X5839815Y3059328D01*
X5834634Y3059328D01*
X5834634Y3010763D01*
X5839815Y3010763D01*
X5843727Y3010001D01*
X5847029Y3007817D01*
X5849213Y3004515D01*
X5849975Y3000603D01*
X5849975Y2939389D01*
X5849213Y2935478D01*
X5847029Y2932176D01*
X5843727Y2929991D01*
X5839815Y2929229D01*
X5834634Y2929229D01*
X5834634Y2830779D01*
X5839815Y2830779D01*
X5843727Y2830017D01*
X5847029Y2827782D01*
X5849213Y2824480D01*
X5849975Y2820619D01*
X5849975Y2759354D01*
X5849213Y2755493D01*
X5847029Y2752191D01*
X5843727Y2750007D01*
X5839815Y2749194D01*
X5834634Y2749194D01*
X5834634Y2650794D01*
X5839815Y2650794D01*
X5843727Y2649982D01*
X5847029Y2647797D01*
X5849213Y2644495D01*
X5849975Y2640634D01*
X5849975Y2579370D01*
X5849213Y2575509D01*
X5847029Y2572207D01*
X5843727Y2569972D01*
X5839815Y2569210D01*
X5834634Y2569210D01*
X5834634Y2470759D01*
X5839815Y2470759D01*
X5843727Y2469997D01*
X5847029Y2467813D01*
X5849213Y2464511D01*
X5849975Y2460599D01*
X5849975Y2399385D01*
X5849213Y2395474D01*
X5847029Y2392172D01*
X5843727Y2389987D01*
X5839815Y2389225D01*
X5834634Y2389225D01*
X5834634Y2340660D01*
X5839815Y2340660D01*
X5843727Y2339848D01*
X5847029Y2337663D01*
X5849213Y2334361D01*
X5849975Y2330500D01*
X5849975Y2269490D01*
X5849213Y2265629D01*
X5847029Y2262327D01*
X5843727Y2260142D01*
X5839815Y2259330D01*
X5834634Y2259330D01*
X5834634Y2210765D01*
X5839815Y2210765D01*
X5843727Y2210003D01*
X5847029Y2207818D01*
X5849213Y2204516D01*
X5849975Y2200605D01*
X5849975Y2139391D01*
X5849213Y2135479D01*
X5847029Y2132177D01*
X5843727Y2129993D01*
X5839815Y2129231D01*
X5834634Y2129231D01*
X5834634Y2030780D01*
X5839815Y2030780D01*
X5843727Y2030018D01*
X5847029Y2027783D01*
X5849213Y2024481D01*
X5849975Y2020620D01*
X5849975Y1959356D01*
X5849213Y1955495D01*
X5847029Y1952193D01*
X5843727Y1950008D01*
X5839815Y1949196D01*
X5834634Y1949196D01*
X5834634Y1850796D01*
X5839815Y1850796D01*
X5843727Y1849983D01*
X5847029Y1847799D01*
X5849213Y1844497D01*
X5849975Y1840636D01*
X5849975Y1779371D01*
X5849213Y1775510D01*
X5847029Y1772208D01*
X5843727Y1769973D01*
X5839815Y1769211D01*
X5834634Y1769211D01*
X5834634Y1670761D01*
X5839815Y1670761D01*
X5843727Y1669999D01*
X5847029Y1667814D01*
X5849213Y1664512D01*
X5849975Y1660601D01*
X5849975Y1599387D01*
X5849213Y1595475D01*
X5847029Y1592173D01*
X5843727Y1589989D01*
X5839815Y1589227D01*
X5834634Y1589227D01*
X5834634Y1540662D01*
X5839815Y1540662D01*
X5843727Y1539849D01*
X5847029Y1537665D01*
X5849213Y1534363D01*
X5849975Y1530502D01*
X5849975Y1469491D01*
X5849213Y1465630D01*
X5847029Y1462328D01*
X5843727Y1460144D01*
X5839815Y1459331D01*
X5834634Y1459331D01*
X5834634Y1410766D01*
X5839815Y1410766D01*
X5843727Y1410004D01*
X5847029Y1407820D01*
X5849213Y1404518D01*
X5849975Y1400606D01*
X5849975Y1339392D01*
X5849213Y1335481D01*
X5847029Y1332179D01*
X5843727Y1329994D01*
X5839815Y1329232D01*
X5834634Y1329232D01*
X5834634Y1230782D01*
X5839815Y1230782D01*
X5843727Y1230020D01*
X5847029Y1227785D01*
X5849213Y1224483D01*
X5849975Y1220622D01*
X5849975Y1159357D01*
X5849213Y1155496D01*
X5847029Y1152194D01*
X5843727Y1150010D01*
X5839815Y1149197D01*
X5834634Y1149197D01*
X5834634Y1050798D01*
X5839815Y1050798D01*
X5843727Y1049985D01*
X5847029Y1047800D01*
X5849213Y1044498D01*
X5849975Y1040637D01*
X5849975Y979373D01*
X5849213Y975512D01*
X5847029Y972210D01*
X5843727Y969975D01*
X5839815Y969213D01*
X5834634Y969213D01*
X5834634Y870762D01*
X5839815Y870762D01*
X5843727Y870000D01*
X5847029Y867816D01*
X5849213Y864514D01*
X5849975Y860602D01*
X5849975Y799388D01*
X5849213Y795477D01*
X5847029Y792175D01*
X5843727Y789990D01*
X5839815Y789228D01*
X5834634Y789228D01*
X5834634Y740664D01*
X5839815Y740664D01*
X5843727Y739851D01*
X5847029Y737666D01*
X5849213Y734364D01*
X5849975Y730504D01*
X5849975Y670153D01*
X5849213Y666292D01*
X5847029Y662990D01*
X5843727Y660755D01*
X5839815Y659993D01*
G37*

%LPC*%
G36*
X5743905Y740664D02*
G01*
X5765342Y740664D01*
X5765342Y789228D01*
X5722874Y789228D01*
X5722874Y761695D01*
X5723432Y756615D01*
X5724956Y752297D01*
X5727395Y748385D01*
X5730595Y745185D01*
X5734507Y742746D01*
X5738825Y741222D01*
G37*
G36*
X5722874Y870762D02*
G01*
X5765342Y870762D01*
X5765342Y969213D01*
X5722874Y969213D01*
X5722874Y941730D01*
X5723432Y936599D01*
X5724956Y932281D01*
X5727395Y928420D01*
X5728614Y927201D01*
X5730798Y923899D01*
X5731560Y919987D01*
X5730798Y916127D01*
X5728614Y912825D01*
X5727395Y911606D01*
X5724956Y907694D01*
X5723432Y903376D01*
X5722874Y898296D01*
G37*
G36*
X5722874Y1050798D02*
G01*
X5765342Y1050798D01*
X5765342Y1149197D01*
X5722874Y1149197D01*
X5722874Y1121714D01*
X5723432Y1116584D01*
X5724956Y1112266D01*
X5727395Y1108405D01*
X5728614Y1107186D01*
X5730798Y1103884D01*
X5731560Y1099972D01*
X5730798Y1096111D01*
X5728614Y1092809D01*
X5727395Y1091590D01*
X5724956Y1087729D01*
X5723432Y1083411D01*
X5722874Y1078280D01*
G37*
G36*
X5722874Y1230782D02*
G01*
X5765342Y1230782D01*
X5765342Y1329232D01*
X5722874Y1329232D01*
X5722874Y1301699D01*
X5723432Y1296619D01*
X5724956Y1292301D01*
X5727395Y1288389D01*
X5728614Y1287170D01*
X5730798Y1283868D01*
X5731560Y1280007D01*
X5730798Y1276096D01*
X5728614Y1272794D01*
X5727395Y1271574D01*
X5724956Y1267714D01*
X5723432Y1263396D01*
X5722874Y1258265D01*
G37*
G36*
X5722874Y1410766D02*
G01*
X5765342Y1410766D01*
X5765342Y1459331D01*
X5743905Y1459331D01*
X5738825Y1458772D01*
X5734507Y1457248D01*
X5730595Y1454810D01*
X5727395Y1451610D01*
X5724956Y1447698D01*
X5723432Y1443380D01*
X5722874Y1438300D01*
G37*
G36*
X5743905Y1540662D02*
G01*
X5765342Y1540662D01*
X5765342Y1589227D01*
X5722874Y1589227D01*
X5722874Y1561693D01*
X5723432Y1556613D01*
X5724956Y1552295D01*
X5727395Y1548384D01*
X5730595Y1545183D01*
X5734507Y1542745D01*
X5738825Y1541221D01*
G37*
G36*
X5722874Y1670761D02*
G01*
X5765342Y1670761D01*
X5765342Y1769211D01*
X5722874Y1769211D01*
X5722874Y1741728D01*
X5723432Y1736598D01*
X5724956Y1732280D01*
X5727395Y1728419D01*
X5728614Y1727200D01*
X5730798Y1723898D01*
X5731560Y1719986D01*
X5730798Y1716125D01*
X5728614Y1712823D01*
X5727395Y1711604D01*
X5724956Y1707692D01*
X5723432Y1703374D01*
X5722874Y1698294D01*
G37*
G36*
X5722874Y1850796D02*
G01*
X5765342Y1850796D01*
X5765342Y1949196D01*
X5722874Y1949196D01*
X5722874Y1921713D01*
X5723432Y1916582D01*
X5724956Y1912264D01*
X5727395Y1908403D01*
X5728614Y1907184D01*
X5730798Y1903882D01*
X5731560Y1899970D01*
X5730798Y1896110D01*
X5728614Y1892807D01*
X5727395Y1891588D01*
X5724956Y1887728D01*
X5723432Y1883410D01*
X5722874Y1878279D01*
G37*
G36*
X5722874Y2030780D02*
G01*
X5765342Y2030780D01*
X5765342Y2129231D01*
X5722874Y2129231D01*
X5722874Y2101697D01*
X5723432Y2096617D01*
X5724956Y2092299D01*
X5727395Y2088388D01*
X5728614Y2087168D01*
X5730798Y2083866D01*
X5731560Y2080006D01*
X5730798Y2076094D01*
X5728614Y2072792D01*
X5727395Y2071573D01*
X5724956Y2067712D01*
X5723432Y2063394D01*
X5722874Y2058263D01*
G37*
G36*
X5722874Y2210765D02*
G01*
X5765342Y2210765D01*
X5765342Y2259330D01*
X5743905Y2259330D01*
X5738825Y2258771D01*
X5734507Y2257247D01*
X5730595Y2254808D01*
X5727395Y2251608D01*
X5724956Y2247696D01*
X5723432Y2243378D01*
X5722874Y2238298D01*
G37*
G36*
X5743905Y2340660D02*
G01*
X5765342Y2340660D01*
X5765342Y2389225D01*
X5722874Y2389225D01*
X5722874Y2361692D01*
X5723432Y2356612D01*
X5724956Y2352294D01*
X5727395Y2348382D01*
X5730595Y2345182D01*
X5734507Y2342743D01*
X5738825Y2341219D01*
G37*
G36*
X5722874Y2470759D02*
G01*
X5765342Y2470759D01*
X5765342Y2569210D01*
X5722874Y2569210D01*
X5722874Y2541727D01*
X5723432Y2536596D01*
X5724956Y2532278D01*
X5727395Y2528417D01*
X5728614Y2527198D01*
X5730798Y2523896D01*
X5731560Y2519984D01*
X5730798Y2516124D01*
X5728614Y2512822D01*
X5727395Y2511602D01*
X5724956Y2507691D01*
X5723432Y2503373D01*
X5722874Y2498293D01*
G37*
G36*
X5722874Y2650794D02*
G01*
X5765342Y2650794D01*
X5765342Y2749194D01*
X5722874Y2749194D01*
X5722874Y2721711D01*
X5723432Y2716580D01*
X5724956Y2712262D01*
X5727395Y2708402D01*
X5728614Y2707182D01*
X5730798Y2703880D01*
X5731560Y2699969D01*
X5730798Y2696108D01*
X5728614Y2692806D01*
X5727395Y2691587D01*
X5724956Y2687726D01*
X5723432Y2683408D01*
X5722874Y2678277D01*
G37*
G36*
X2624328Y2696260D02*
G01*
X2635097Y2702153D01*
X2646883Y2710688D01*
X2657449Y2720644D01*
X2666746Y2731871D01*
X2674569Y2744165D01*
X2676652Y2748635D01*
X2624328Y2748635D01*
G37*
G36*
X5722874Y2830779D02*
G01*
X5765342Y2830779D01*
X5765342Y2929229D01*
X5722874Y2929229D01*
X5722874Y2901696D01*
X5723432Y2896616D01*
X5724956Y2892298D01*
X5727395Y2888386D01*
X5728614Y2887167D01*
X5730798Y2883865D01*
X5731560Y2880004D01*
X5730798Y2876092D01*
X5728614Y2872790D01*
X5727395Y2871571D01*
X5724956Y2867710D01*
X5723432Y2863392D01*
X5722874Y2858262D01*
G37*
G36*
X2624328Y2851353D02*
G01*
X2676652Y2851353D01*
X2674569Y2855823D01*
X2666746Y2868117D01*
X2657449Y2879344D01*
X2646883Y2889300D01*
X2635097Y2897835D01*
X2624328Y2903728D01*
G37*
G36*
X2546350Y2979064D02*
G01*
X2559405Y2979064D01*
X2565755Y2979775D01*
X2571191Y2981706D01*
X2576118Y2984804D01*
X2580182Y2988868D01*
X2583281Y2993796D01*
X2585161Y2999232D01*
X2585872Y3005582D01*
X2585872Y3021126D01*
X2546350Y3021126D01*
G37*
G36*
X5722874Y3010763D02*
G01*
X5765342Y3010763D01*
X5765342Y3059328D01*
X5743905Y3059328D01*
X5738825Y3058769D01*
X5734507Y3057245D01*
X5730595Y3054807D01*
X5727395Y3051606D01*
X5724956Y3047695D01*
X5723432Y3043377D01*
X5722874Y3038297D01*
G37*
G36*
X2546350Y3078835D02*
G01*
X2585872Y3078835D01*
X2585872Y3094431D01*
X2585161Y3100730D01*
X2583281Y3106216D01*
X2580182Y3111093D01*
X2578506Y3112820D01*
X2576271Y3116122D01*
X2575509Y3119983D01*
X2576271Y3123895D01*
X2578506Y3127197D01*
X2580182Y3128873D01*
X2583281Y3133801D01*
X2585161Y3139236D01*
X2585872Y3145586D01*
X2585872Y3161131D01*
X2546350Y3161131D01*
G37*
G36*
X2546350Y3218840D02*
G01*
X2585872Y3218840D01*
X2585872Y3234436D01*
X2585161Y3240735D01*
X2583281Y3246221D01*
X2580182Y3251098D01*
X2576118Y3255213D01*
X2571191Y3258261D01*
X2565755Y3260191D01*
X2559405Y3260902D01*
X2546350Y3260902D01*
G37*
G36*
X1205585Y3797096D02*
G01*
X1218438Y3797096D01*
X1224737Y3797808D01*
X1230223Y3799687D01*
X1235100Y3802786D01*
X1239215Y3806901D01*
X1242314Y3811778D01*
X1244193Y3817264D01*
X1244904Y3823563D01*
X1244904Y3830116D01*
X1205585Y3830116D01*
G37*
G36*
X1205585Y3869842D02*
G01*
X1244904Y3869842D01*
X1244904Y3876446D01*
X1244193Y3882745D01*
X1242314Y3888181D01*
X1238605Y3894074D01*
X1237437Y3896664D01*
X1237030Y3900525D01*
X1237437Y3903319D01*
X1238605Y3905910D01*
X1242314Y3911803D01*
X1244193Y3917238D01*
X1244904Y3923537D01*
X1244904Y3930142D01*
X1205585Y3930142D01*
G37*
G36*
X1205585Y3969816D02*
G01*
X1244904Y3969816D01*
X1244904Y3976420D01*
X1244193Y3982720D01*
X1242314Y3988206D01*
X1239215Y3993083D01*
X1235100Y3997198D01*
X1230223Y4000296D01*
X1224737Y4002176D01*
X1218438Y4002887D01*
X1205585Y4002887D01*
G37*
G36*
X3198622Y4252315D02*
G01*
X3198622Y4298645D01*
X3152444Y4298645D01*
X3155492Y4292701D01*
X3163620Y4281119D01*
X3173120Y4270603D01*
X3183890Y4261459D01*
X3195777Y4253738D01*
G37*
G36*
X3301339Y4252315D02*
G01*
X3304235Y4253738D01*
X3316071Y4261459D01*
X3326841Y4270603D01*
X3336391Y4281119D01*
X3344468Y4292701D01*
X3347567Y4298645D01*
X3301339Y4298645D01*
G37*
G36*
X4198620Y4252315D02*
G01*
X4198620Y4298645D01*
X4152442Y4298645D01*
X4155490Y4292701D01*
X4163618Y4281119D01*
X4173118Y4270603D01*
X4183887Y4261459D01*
X4195775Y4253738D01*
G37*
G36*
X2198624Y4252315D02*
G01*
X2198624Y4298645D01*
X2152446Y4298645D01*
X2155494Y4292701D01*
X2163622Y4281119D01*
X2173122Y4270603D01*
X2183892Y4261459D01*
X2195779Y4253738D01*
G37*
G36*
X2301341Y4252315D02*
G01*
X2304237Y4253738D01*
X2316073Y4261459D01*
X2326843Y4270603D01*
X2336393Y4281119D01*
X2344470Y4292701D01*
X2347569Y4298645D01*
X2301341Y4298645D01*
G37*
G36*
X4301337Y4252315D02*
G01*
X4304233Y4253738D01*
X4316069Y4261459D01*
X4326839Y4270603D01*
X4336389Y4281119D01*
X4344466Y4292701D01*
X4347565Y4298645D01*
X4301337Y4298645D01*
G37*
G36*
X4493056Y4267962D02*
G01*
X4514900Y4267962D01*
X4514900Y4312107D01*
X4471974Y4312107D01*
X4471974Y4289044D01*
X4472584Y4283913D01*
X4474057Y4279595D01*
X4476496Y4275734D01*
X4479747Y4272483D01*
X4483608Y4270044D01*
X4487926Y4268571D01*
G37*
G36*
X2585110Y4267962D02*
G01*
X2606903Y4267962D01*
X2612034Y4268571D01*
X2616352Y4270044D01*
X2620264Y4272483D01*
X2623464Y4275734D01*
X2625902Y4279595D01*
X2627426Y4283913D01*
X2627985Y4289044D01*
X2627985Y4312107D01*
X2585110Y4312107D01*
G37*
G36*
X4585106Y4267962D02*
G01*
X4606899Y4267962D01*
X4612030Y4268571D01*
X4616348Y4270044D01*
X4620260Y4272483D01*
X4623460Y4275734D01*
X4625898Y4279595D01*
X4627422Y4283913D01*
X4627981Y4289044D01*
X4627981Y4312107D01*
X4585106Y4312107D01*
G37*
G36*
X2493060Y4267962D02*
G01*
X2514904Y4267962D01*
X2514904Y4312107D01*
X2471978Y4312107D01*
X2471978Y4289044D01*
X2472588Y4283913D01*
X2474061Y4279595D01*
X2476500Y4275734D01*
X2479751Y4272483D01*
X2483612Y4270044D01*
X2487930Y4268571D01*
G37*
G36*
X3585108Y4267962D02*
G01*
X3606901Y4267962D01*
X3612032Y4268571D01*
X3616350Y4270044D01*
X3620262Y4272483D01*
X3623462Y4275734D01*
X3625900Y4279595D01*
X3627424Y4283913D01*
X3627983Y4289044D01*
X3627983Y4312107D01*
X3585108Y4312107D01*
G37*
G36*
X3493058Y4267962D02*
G01*
X3514902Y4267962D01*
X3514902Y4312107D01*
X3471976Y4312107D01*
X3471976Y4289044D01*
X3472586Y4283913D01*
X3474059Y4279595D01*
X3476498Y4275734D01*
X3479749Y4272483D01*
X3483610Y4270044D01*
X3487928Y4268571D01*
G37*
G36*
X1563065Y4292701D02*
G01*
X1620469Y4292701D01*
X1620469Y4344009D01*
X1584147Y4344009D01*
X1579067Y4343400D01*
X1574749Y4341926D01*
X1570837Y4339488D01*
X1567637Y4336237D01*
X1565198Y4332376D01*
X1563674Y4328058D01*
X1563065Y4322927D01*
G37*
G36*
X1939543Y4292701D02*
G01*
X1996897Y4292701D01*
X1996897Y4322927D01*
X1996338Y4328058D01*
X1994814Y4332376D01*
X1992375Y4336237D01*
X1989124Y4339488D01*
X1985264Y4341926D01*
X1980946Y4343400D01*
X1975815Y4344009D01*
X1939543Y4344009D01*
G37*
G36*
X1719529Y4292701D02*
G01*
X1840433Y4292701D01*
X1840433Y4344009D01*
X1804162Y4344009D01*
X1799031Y4343400D01*
X1794713Y4341926D01*
X1790852Y4339488D01*
X1787194Y4335830D01*
X1783892Y4333595D01*
X1779981Y4332833D01*
X1776120Y4333595D01*
X1772818Y4335830D01*
X1769160Y4339488D01*
X1765249Y4341926D01*
X1760931Y4343400D01*
X1755800Y4344009D01*
X1719529Y4344009D01*
G37*
G36*
X4471974Y4384852D02*
G01*
X4514900Y4384852D01*
X4514900Y4428998D01*
X4493056Y4428998D01*
X4487926Y4428388D01*
X4483608Y4426915D01*
X4479747Y4424476D01*
X4476496Y4421225D01*
X4474057Y4417364D01*
X4472584Y4413046D01*
X4471974Y4407916D01*
G37*
G36*
X3585108Y4384852D02*
G01*
X3627983Y4384852D01*
X3627983Y4407916D01*
X3627424Y4413046D01*
X3625900Y4417364D01*
X3623462Y4421225D01*
X3620262Y4424476D01*
X3616350Y4426915D01*
X3612032Y4428388D01*
X3606901Y4428998D01*
X3585108Y4428998D01*
G37*
G36*
X3471976Y4384852D02*
G01*
X3514902Y4384852D01*
X3514902Y4428998D01*
X3493058Y4428998D01*
X3487928Y4428388D01*
X3483610Y4426915D01*
X3479749Y4424476D01*
X3476498Y4421225D01*
X3474059Y4417364D01*
X3472586Y4413046D01*
X3471976Y4407916D01*
G37*
G36*
X2585110Y4384852D02*
G01*
X2627985Y4384852D01*
X2627985Y4407916D01*
X2627426Y4413046D01*
X2625902Y4417364D01*
X2623464Y4421225D01*
X2620264Y4424476D01*
X2616352Y4426915D01*
X2612034Y4428388D01*
X2606903Y4428998D01*
X2585110Y4428998D01*
G37*
G36*
X4585106Y4384852D02*
G01*
X4627981Y4384852D01*
X4627981Y4407916D01*
X4627422Y4413046D01*
X4625898Y4417364D01*
X4623460Y4421225D01*
X4620260Y4424476D01*
X4616348Y4426915D01*
X4612030Y4428388D01*
X4606899Y4428998D01*
X4585106Y4428998D01*
G37*
G36*
X2471978Y4384852D02*
G01*
X2514904Y4384852D01*
X2514904Y4428998D01*
X2493060Y4428998D01*
X2487930Y4428388D01*
X2483612Y4426915D01*
X2479751Y4424476D01*
X2476500Y4421225D01*
X2474061Y4417364D01*
X2472588Y4413046D01*
X2471978Y4407916D01*
G37*
G36*
X3152190Y4401362D02*
G01*
X3198622Y4401362D01*
X3198622Y4447590D01*
X3189732Y4442612D01*
X3178352Y4434128D01*
X3168192Y4424273D01*
X3159353Y4413199D01*
G37*
G36*
X4152188Y4401362D02*
G01*
X4198620Y4401362D01*
X4198620Y4447590D01*
X4189729Y4442612D01*
X4178350Y4434128D01*
X4168190Y4424273D01*
X4159351Y4413199D01*
G37*
G36*
X2301341Y4401362D02*
G01*
X2347823Y4401362D01*
X2340610Y4413199D01*
X2331770Y4424273D01*
X2321610Y4434128D01*
X2310282Y4442612D01*
X2301341Y4447590D01*
G37*
G36*
X4301337Y4401362D02*
G01*
X4347819Y4401362D01*
X4340606Y4413199D01*
X4331766Y4424273D01*
X4321606Y4434128D01*
X4310278Y4442612D01*
X4301337Y4447590D01*
G37*
G36*
X3301339Y4401362D02*
G01*
X3347821Y4401362D01*
X3340608Y4413199D01*
X3331768Y4424273D01*
X3321608Y4434128D01*
X3310280Y4442612D01*
X3301339Y4447590D01*
G37*
G36*
X2152192Y4401362D02*
G01*
X2198624Y4401362D01*
X2198624Y4447590D01*
X2189734Y4442612D01*
X2178354Y4434128D01*
X2168194Y4424273D01*
X2159355Y4413199D01*
G37*
G36*
X1094333Y5022545D02*
G01*
X1107694Y5023916D01*
X1120749Y5027015D01*
X1133297Y5031841D01*
X1145082Y5038293D01*
X1155852Y5046268D01*
X1165504Y5055565D01*
X1173835Y5066131D01*
X1180693Y5077663D01*
X1185926Y5090007D01*
X1189482Y5102961D01*
X1191260Y5116271D01*
X1191260Y5129682D01*
X1189482Y5142992D01*
X1185926Y5155946D01*
X1180693Y5168290D01*
X1173835Y5179872D01*
X1165504Y5190388D01*
X1155852Y5199735D01*
X1145082Y5207711D01*
X1133297Y5214162D01*
X1120749Y5218938D01*
X1107694Y5222087D01*
X1094333Y5223408D01*
X1080922Y5222951D01*
X1067714Y5220716D01*
X1054862Y5216753D01*
X1042720Y5211114D01*
X1031392Y5203901D01*
X1021130Y5195214D01*
X1012139Y5185257D01*
X1004519Y5174183D01*
X998474Y5162194D01*
X994054Y5149545D01*
X991412Y5136388D01*
X990498Y5122976D01*
X991412Y5109616D01*
X994054Y5096459D01*
X998474Y5083759D01*
X1004519Y5071770D01*
X1012139Y5060696D01*
X1021130Y5050739D01*
X1031392Y5042103D01*
X1042720Y5034889D01*
X1054862Y5029200D01*
X1067714Y5025237D01*
X1080922Y5023002D01*
G37*
G36*
X1602333Y5022545D02*
G01*
X1615694Y5023916D01*
X1628749Y5027015D01*
X1641297Y5031841D01*
X1653082Y5038293D01*
X1663852Y5046268D01*
X1673504Y5055565D01*
X1681835Y5066131D01*
X1688693Y5077663D01*
X1693925Y5090007D01*
X1697482Y5102961D01*
X1699260Y5116271D01*
X1699260Y5129682D01*
X1697482Y5142992D01*
X1693925Y5155946D01*
X1688693Y5168290D01*
X1681835Y5179872D01*
X1673504Y5190388D01*
X1663852Y5199735D01*
X1653082Y5207711D01*
X1641297Y5214162D01*
X1628749Y5218938D01*
X1615694Y5222087D01*
X1602333Y5223408D01*
X1588922Y5222951D01*
X1575714Y5220716D01*
X1562862Y5216753D01*
X1550720Y5211114D01*
X1539392Y5203901D01*
X1529130Y5195214D01*
X1520139Y5185257D01*
X1512519Y5174183D01*
X1506474Y5162194D01*
X1502054Y5149545D01*
X1499412Y5136388D01*
X1498498Y5122976D01*
X1499412Y5109616D01*
X1502054Y5096459D01*
X1506474Y5083759D01*
X1512519Y5071770D01*
X1520139Y5060696D01*
X1529130Y5050739D01*
X1539392Y5042103D01*
X1550720Y5034889D01*
X1562862Y5029200D01*
X1575714Y5025237D01*
X1588922Y5023002D01*
G37*
G36*
X1348333Y5022545D02*
G01*
X1361694Y5023916D01*
X1374749Y5027015D01*
X1387297Y5031841D01*
X1399082Y5038293D01*
X1409852Y5046268D01*
X1419504Y5055565D01*
X1427835Y5066131D01*
X1434693Y5077663D01*
X1439926Y5090007D01*
X1443482Y5102961D01*
X1445260Y5116271D01*
X1445260Y5129682D01*
X1443482Y5142992D01*
X1439926Y5155946D01*
X1434693Y5168290D01*
X1427835Y5179872D01*
X1419504Y5190388D01*
X1409852Y5199735D01*
X1399082Y5207711D01*
X1387297Y5214162D01*
X1374749Y5218938D01*
X1361694Y5222087D01*
X1348333Y5223408D01*
X1334922Y5222951D01*
X1321714Y5220716D01*
X1308862Y5216753D01*
X1296720Y5211114D01*
X1285392Y5203901D01*
X1275130Y5195214D01*
X1266139Y5185257D01*
X1258519Y5174183D01*
X1252474Y5162194D01*
X1248054Y5149545D01*
X1245412Y5136388D01*
X1244498Y5122976D01*
X1245412Y5109616D01*
X1248054Y5096459D01*
X1252474Y5083759D01*
X1258519Y5071770D01*
X1266139Y5060696D01*
X1275130Y5050739D01*
X1285392Y5042103D01*
X1296720Y5034889D01*
X1308862Y5029200D01*
X1321714Y5025237D01*
X1334922Y5023002D01*
G37*
G36*
X1856333Y5022545D02*
G01*
X1869693Y5023916D01*
X1882749Y5027015D01*
X1895297Y5031841D01*
X1907082Y5038293D01*
X1917852Y5046268D01*
X1927504Y5055565D01*
X1935835Y5066131D01*
X1942693Y5077663D01*
X1947925Y5090007D01*
X1951482Y5102961D01*
X1953260Y5116271D01*
X1953260Y5129682D01*
X1951482Y5142992D01*
X1947925Y5155946D01*
X1942693Y5168290D01*
X1935835Y5179872D01*
X1927504Y5190388D01*
X1917852Y5199735D01*
X1907082Y5207711D01*
X1895297Y5214162D01*
X1882749Y5218938D01*
X1869693Y5222087D01*
X1856333Y5223408D01*
X1842922Y5222951D01*
X1829714Y5220716D01*
X1816862Y5216753D01*
X1804720Y5211114D01*
X1793392Y5203901D01*
X1783130Y5195214D01*
X1774139Y5185257D01*
X1766519Y5174183D01*
X1760474Y5162194D01*
X1756054Y5149545D01*
X1753412Y5136388D01*
X1752498Y5122976D01*
X1753412Y5109616D01*
X1756054Y5096459D01*
X1760474Y5083759D01*
X1766519Y5071770D01*
X1774139Y5060696D01*
X1783130Y5050739D01*
X1793392Y5042103D01*
X1804720Y5034889D01*
X1816862Y5029200D01*
X1829714Y5025237D01*
X1842922Y5023002D01*
G37*
G36*
X840333Y5022545D02*
G01*
X853694Y5023916D01*
X866749Y5027015D01*
X879297Y5031841D01*
X891082Y5038293D01*
X901852Y5046268D01*
X911504Y5055565D01*
X919835Y5066131D01*
X926693Y5077663D01*
X931926Y5090007D01*
X935482Y5102961D01*
X937260Y5116271D01*
X937260Y5129682D01*
X935482Y5142992D01*
X931926Y5155946D01*
X926693Y5168290D01*
X919835Y5179872D01*
X911504Y5190388D01*
X901852Y5199735D01*
X891082Y5207711D01*
X879297Y5214162D01*
X866749Y5218938D01*
X853694Y5222087D01*
X840333Y5223408D01*
X826922Y5222951D01*
X813714Y5220716D01*
X800862Y5216753D01*
X788720Y5211114D01*
X777392Y5203901D01*
X767130Y5195214D01*
X758139Y5185257D01*
X750519Y5174183D01*
X744474Y5162194D01*
X740054Y5149545D01*
X737412Y5136388D01*
X736498Y5122976D01*
X737412Y5109616D01*
X740054Y5096459D01*
X744474Y5083759D01*
X750519Y5071770D01*
X758139Y5060696D01*
X767130Y5050739D01*
X777392Y5042103D01*
X788720Y5034889D01*
X800862Y5029200D01*
X813714Y5025237D01*
X826922Y5023002D01*
G37*
G36*
X757580Y5276494D02*
G01*
X790651Y5276494D01*
X790651Y5330647D01*
X736498Y5330647D01*
X736498Y5297576D01*
X737057Y5292445D01*
X738581Y5288127D01*
X741019Y5284266D01*
X744270Y5281015D01*
X748131Y5278577D01*
X752449Y5277053D01*
G37*
G36*
X883361Y5276494D02*
G01*
X916432Y5276494D01*
X921562Y5277053D01*
X925880Y5278577D01*
X929741Y5281015D01*
X932992Y5284266D01*
X935431Y5288127D01*
X936904Y5292445D01*
X937514Y5297576D01*
X937514Y5330647D01*
X883361Y5330647D01*
G37*
G36*
X1602333Y5276545D02*
G01*
X1615694Y5277916D01*
X1628749Y5281015D01*
X1641297Y5285841D01*
X1653082Y5292293D01*
X1663852Y5300268D01*
X1673504Y5309565D01*
X1681835Y5320131D01*
X1688693Y5331663D01*
X1693925Y5344007D01*
X1697482Y5356961D01*
X1699260Y5370271D01*
X1699260Y5383682D01*
X1697482Y5396992D01*
X1693925Y5409946D01*
X1688693Y5422290D01*
X1681835Y5433872D01*
X1673504Y5444388D01*
X1663852Y5453735D01*
X1653082Y5461711D01*
X1641297Y5468162D01*
X1628749Y5472938D01*
X1615694Y5476087D01*
X1602333Y5477408D01*
X1588922Y5476951D01*
X1575714Y5474716D01*
X1562862Y5470753D01*
X1550720Y5465114D01*
X1539392Y5457901D01*
X1529130Y5449214D01*
X1520139Y5439257D01*
X1512519Y5428183D01*
X1506474Y5416194D01*
X1502054Y5403545D01*
X1499412Y5390388D01*
X1498498Y5376976D01*
X1499412Y5363616D01*
X1502054Y5350459D01*
X1506474Y5337759D01*
X1512519Y5325770D01*
X1520139Y5314696D01*
X1529130Y5304739D01*
X1539392Y5296103D01*
X1550720Y5288889D01*
X1562862Y5283200D01*
X1575714Y5279237D01*
X1588922Y5277002D01*
G37*
G36*
X1856333Y5276545D02*
G01*
X1869693Y5277916D01*
X1882749Y5281015D01*
X1895297Y5285841D01*
X1907082Y5292293D01*
X1917852Y5300268D01*
X1927504Y5309565D01*
X1935835Y5320131D01*
X1942693Y5331663D01*
X1947925Y5344007D01*
X1951482Y5356961D01*
X1953260Y5370271D01*
X1953260Y5383682D01*
X1951482Y5396992D01*
X1947925Y5409946D01*
X1942693Y5422290D01*
X1935835Y5433872D01*
X1927504Y5444388D01*
X1917852Y5453735D01*
X1907082Y5461711D01*
X1895297Y5468162D01*
X1882749Y5472938D01*
X1869693Y5476087D01*
X1856333Y5477408D01*
X1842922Y5476951D01*
X1829714Y5474716D01*
X1816862Y5470753D01*
X1804720Y5465114D01*
X1793392Y5457901D01*
X1783130Y5449214D01*
X1774139Y5439257D01*
X1766519Y5428183D01*
X1760474Y5416194D01*
X1756054Y5403545D01*
X1753412Y5390388D01*
X1752498Y5376976D01*
X1753412Y5363616D01*
X1756054Y5350459D01*
X1760474Y5337759D01*
X1766519Y5325770D01*
X1774139Y5314696D01*
X1783130Y5304739D01*
X1793392Y5296103D01*
X1804720Y5288889D01*
X1816862Y5283200D01*
X1829714Y5279237D01*
X1842922Y5277002D01*
G37*
G36*
X1348333Y5276545D02*
G01*
X1361694Y5277916D01*
X1374749Y5281015D01*
X1387297Y5285841D01*
X1399082Y5292293D01*
X1409852Y5300268D01*
X1419504Y5309565D01*
X1427835Y5320131D01*
X1434693Y5331663D01*
X1439926Y5344007D01*
X1443482Y5356961D01*
X1445260Y5370271D01*
X1445260Y5383682D01*
X1443482Y5396992D01*
X1439926Y5409946D01*
X1434693Y5422290D01*
X1427835Y5433872D01*
X1419504Y5444388D01*
X1409852Y5453735D01*
X1399082Y5461711D01*
X1387297Y5468162D01*
X1374749Y5472938D01*
X1361694Y5476087D01*
X1348333Y5477408D01*
X1334922Y5476951D01*
X1321714Y5474716D01*
X1308862Y5470753D01*
X1296720Y5465114D01*
X1285392Y5457901D01*
X1275130Y5449214D01*
X1266139Y5439257D01*
X1258519Y5428183D01*
X1252474Y5416194D01*
X1248054Y5403545D01*
X1245412Y5390388D01*
X1244498Y5376976D01*
X1245412Y5363616D01*
X1248054Y5350459D01*
X1252474Y5337759D01*
X1258519Y5325770D01*
X1266139Y5314696D01*
X1275130Y5304739D01*
X1285392Y5296103D01*
X1296720Y5288889D01*
X1308862Y5283200D01*
X1321714Y5279237D01*
X1334922Y5277002D01*
G37*
G36*
X1044651Y5287975D02*
G01*
X1044651Y5330647D01*
X1002080Y5330647D01*
X1004519Y5325770D01*
X1012139Y5314696D01*
X1021130Y5304739D01*
X1031392Y5296103D01*
X1042720Y5288889D01*
G37*
G36*
X1137361Y5288076D02*
G01*
X1145082Y5292293D01*
X1155852Y5300268D01*
X1165504Y5309565D01*
X1173835Y5320131D01*
X1180084Y5330647D01*
X1137361Y5330647D01*
G37*
G36*
X1002080Y5423357D02*
G01*
X1044651Y5423357D01*
X1044651Y5466029D01*
X1042720Y5465114D01*
X1031392Y5457901D01*
X1021130Y5449214D01*
X1012139Y5439257D01*
X1004519Y5428183D01*
G37*
G36*
X1137361Y5423357D02*
G01*
X1180084Y5423357D01*
X1173835Y5433872D01*
X1165504Y5444388D01*
X1155852Y5453735D01*
X1145082Y5461711D01*
X1137361Y5465927D01*
G37*
G36*
X883361Y5423357D02*
G01*
X937514Y5423357D01*
X937514Y5456428D01*
X936904Y5461558D01*
X935431Y5465876D01*
X932992Y5469737D01*
X929741Y5472988D01*
X925880Y5475427D01*
X921562Y5476900D01*
X916432Y5477510D01*
X883361Y5477510D01*
G37*
G36*
X736498Y5423357D02*
G01*
X790651Y5423357D01*
X790651Y5477510D01*
X757580Y5477510D01*
X752449Y5476900D01*
X748131Y5475427D01*
X744270Y5472988D01*
X741019Y5469737D01*
X738581Y5465876D01*
X737057Y5461558D01*
X736498Y5456428D01*
G37*

%LPD*%
D10*
X914400Y4590034D02*
G01*
X1039876Y4590034D01*
D11*
X340004Y4202506D02*
G01*
X340004Y4299986D01*
X339999Y4299991D01*
X326491Y4326483D01*
X326491Y4424984D01*
X659892Y4202429D02*
G01*
X659892Y4309871D01*
X673607Y4323587D01*
X673607Y4424934D01*
D12*
X1050013Y3444974D02*
G01*
X1051712Y3443274D01*
X1219987Y3443274D01*
X1319987Y3443274D02*
G01*
X1219987Y3443274D01*
X1219987Y3443274D01*
D13*
X529996Y4669990D02*
G01*
X389994Y4669990D01*
X389991Y4669993D01*
D10*
X2069995Y4619990D02*
G01*
X2189995Y4619990D01*
D12*
X1219989Y3356711D02*
G01*
X1219997Y3356703D01*
X1219997Y3239993D01*
D11*
X5839968Y4227576D02*
G01*
X5839968Y4329937D01*
X5826506Y4343400D01*
X5826506Y4450079D01*
X5839968Y4227576D02*
G01*
X5670041Y4229862D01*
D13*
X6173495Y4449978D02*
G01*
X6169995Y4453478D01*
X6169995Y4680000D01*
X6169992Y4819977D02*
G01*
X6029987Y4819977D01*
X6029985Y4819980D01*
D14*
X1219997Y3239993D02*
G01*
X1149997Y3239993D01*
X1134981Y3255010D01*
X1050010Y3255010D01*
D11*
X340105Y4202429D02*
G01*
X232410Y4202429D01*
X160020Y4130039D01*
X160020Y3579876D01*
X389889Y3350005D01*
X850137Y3350005D01*
X6160008Y4227576D02*
G01*
X6160008Y4329937D01*
X6173470Y4343400D01*
X6173470Y4450079D01*
D13*
X673506Y4424984D02*
G01*
X670001Y4428489D01*
X670001Y4669993D01*
D10*
X914400Y4420107D02*
G01*
X800100Y4420107D01*
X795020Y4424934D01*
X673607Y4424934D01*
X914400Y4420107D02*
G01*
X914400Y4590034D01*
D12*
X5289997Y4223278D02*
G01*
X5289981Y4223291D01*
X5289981Y4339996D01*
D15*
X5289989Y4339991D02*
G01*
X5359989Y4339991D01*
X5374995Y4324985D01*
X5470004Y4324985D01*
D12*
X5189994Y4136715D02*
G01*
X5289994Y4136715D01*
X5469890Y4134865D02*
G01*
X5290058Y4136644D01*
D13*
X2549906Y4001515D02*
G01*
X2431541Y4001515D01*
X2379979Y3949954D01*
X2249931Y3949954D01*
X3249929Y3949954D02*
G01*
X3389884Y3949954D01*
X3441445Y4001515D01*
X3549904Y4001515D01*
X4250004Y3949979D02*
G01*
X4260016Y3959992D01*
X4399991Y3959992D01*
X4441489Y4001490D01*
X4550003Y4001490D01*
D15*
X1869996Y3629992D02*
G01*
X1939996Y3629992D01*
X1954999Y3614988D01*
X2050008Y3614988D01*
X3739992Y3829992D02*
G01*
X3819992Y3829992D01*
X3830002Y3819982D01*
X3924985Y3819982D01*
D12*
X1869947Y3513328D02*
G01*
X1869947Y3629913D01*
X1870001Y3323287D02*
G01*
X1870001Y3426698D01*
X2050034Y3424936D02*
G01*
X1869947Y3426713D01*
X3059998Y3283287D02*
G01*
X3059998Y3386698D01*
X3059938Y3473195D02*
G01*
X3059938Y3590036D01*
X3240024Y3385057D02*
G01*
X3059938Y3386581D01*
D15*
X3059993Y3589992D02*
G01*
X3129993Y3589992D01*
X3144997Y3574989D01*
X3239980Y3574989D01*
D14*
X4250004Y3949979D02*
G01*
X4124985Y3824960D01*
X4124985Y3724986D01*
X3249929Y3949954D02*
G01*
X3249929Y3789934D01*
X3439922Y3599942D01*
X3439922Y3480054D01*
X2250008Y3949979D02*
G01*
X2250008Y3519992D01*
D12*
X3739895Y3713226D02*
G01*
X3739895Y3830065D01*
X3740005Y3626718D02*
G01*
X3740005Y3523282D01*
X3924985Y3629990D02*
G01*
X3921714Y3626718D01*
X3740005Y3626718D01*
X5189981Y4223257D02*
G01*
X5199888Y4223257D01*
X2079980Y2089962D02*
G01*
X2079980Y2015020D01*
X2122500Y1972500D01*
X2122500Y1852246D01*
X1732508Y1852246D02*
G01*
X1732508Y2017496D01*
X1650009Y2099995D01*
X1797509Y1852246D02*
G01*
X1797509Y2062477D01*
X1759991Y2099995D01*
X1667507Y1852246D02*
G01*
X1667507Y1962482D01*
X1629994Y1999995D01*
X2159990Y2169972D02*
G01*
X2159990Y2035009D01*
X2187501Y2007499D01*
X2187501Y1852246D01*
X2549906Y1670050D02*
G01*
X2439924Y1670050D01*
X2382520Y1727454D01*
X2382520Y1852168D01*
X2382520Y1247647D02*
G01*
X2382520Y1372615D01*
X2439924Y1430020D01*
X2549906Y1430020D01*
X2187447Y1247647D02*
G01*
X2187447Y1467612D01*
X2269997Y1549907D01*
X2549906Y1549907D01*
X1862503Y1247724D02*
G01*
X1862503Y1367487D01*
X1780006Y1449984D01*
D16*
X1959990Y994514D02*
G01*
X1959990Y1110005D01*
X1959990Y1110005D01*
X1798939Y1109812D02*
G01*
X1797557Y1247647D01*
X1800097Y994410D02*
G01*
X1798939Y1109812D01*
X1959990Y885497D02*
G01*
X1959990Y885494D01*
X1959990Y770001D01*
X1799988Y885484D02*
G01*
X1799996Y885477D01*
X1799996Y770001D01*
X1990090Y1709928D02*
G01*
X1992375Y1852168D01*
D12*
X1669999Y999997D02*
G01*
X1732508Y1062507D01*
X1732508Y1247724D01*
X1599996Y1070000D02*
G01*
X1667507Y1137511D01*
X1667507Y1247724D01*
D16*
X2496820Y850137D02*
G01*
X2370074Y850137D01*
X2252472Y967486D01*
X2252472Y1247647D01*
X1960118Y1109979D02*
G01*
X1992375Y1142492D01*
X1992375Y1247647D01*
X2336800Y225044D02*
G01*
X2225040Y225044D01*
X2057400Y392429D01*
X2057400Y1247647D01*
X2496820Y949960D02*
G01*
X2409952Y949960D01*
X2317495Y1042415D01*
X2317495Y1247647D01*
X2336800Y324865D02*
G01*
X2264918Y324865D01*
X2122424Y467613D01*
X2122424Y1247647D01*
D12*
X1919986Y2089988D02*
G01*
X1927504Y2089988D01*
X1927504Y1852246D01*
X1999995Y2169972D02*
G01*
X1999995Y2019993D01*
X2057499Y1962490D01*
X2057499Y1852246D01*
D16*
X2252472Y1852168D02*
G01*
X2252472Y2032507D01*
X2299970Y2080005D01*
X2469895Y2080005D01*
X2579877Y1970023D01*
X2766822Y1860042D02*
G01*
X2689859Y1860042D01*
X2579877Y1970023D01*
X2317495Y1852168D02*
G01*
X2317495Y1987550D01*
X2340102Y2009902D01*
X2430018Y2009902D01*
X2679954Y1759965D01*
X2766822Y1759965D01*
X2853181Y1860042D02*
G01*
X2940050Y1860042D01*
X2944875Y1865121D01*
X3044697Y1865121D01*
X2864510Y1959990D02*
G01*
X2853283Y1948764D01*
X2853283Y1859991D01*
X3264509Y2169335D02*
G01*
X3264509Y2279980D01*
X3275360Y2054987D02*
G01*
X3264509Y2065837D01*
X3264509Y2169335D01*
X3155490Y2279977D02*
G01*
X3040026Y2279977D01*
X3039999Y2280005D01*
X3044626Y1959990D02*
G01*
X3159988Y1959990D01*
X3159988Y1959990D01*
X2994507Y1252456D02*
G01*
X2994507Y1359992D01*
X3005348Y1145009D02*
G01*
X2994507Y1155849D01*
X2994507Y1252456D01*
X2853181Y1759965D02*
G01*
X3089909Y1759965D01*
X3195065Y1865121D01*
X3275329Y1865121D01*
X2583179Y850137D02*
G01*
X2810002Y850137D01*
X2914904Y955039D01*
X3005327Y955039D01*
X2594508Y1049985D02*
G01*
X2583281Y1038758D01*
X2583281Y949985D01*
X2774695Y1050036D02*
G01*
X2890011Y1050036D01*
X2583179Y949960D02*
G01*
X2659888Y949960D01*
X2664968Y955039D01*
X2774695Y955039D01*
X2423286Y324993D02*
G01*
X2428280Y319999D01*
X2489995Y319999D01*
X2515003Y345008D01*
X2614625Y345008D01*
X2423159Y225044D02*
G01*
X2634995Y225044D01*
X2754884Y344931D01*
X2845308Y344931D01*
X2434488Y424992D02*
G01*
X2423286Y413791D01*
X2423286Y324993D01*
X2614675Y439928D02*
G01*
X2729991Y439928D01*
X2725501Y740003D02*
G01*
X2610002Y740003D01*
X2610002Y740003D01*
X2845358Y535000D02*
G01*
X2834513Y545845D01*
X2834513Y638769D01*
X2834513Y638769D02*
G01*
X2834513Y740003D01*
D12*
X3044626Y2054987D02*
G01*
X2964992Y2054987D01*
X2919984Y2099995D01*
X2774614Y1145009D02*
G01*
X2685006Y1145009D01*
X2650007Y1180007D01*
X2614625Y535000D02*
G01*
X2524988Y535000D01*
X2489987Y570001D01*
X3260090Y2839720D02*
G01*
X3260090Y2879852D01*
X3059938Y3080004D01*
X3059938Y3196589D01*
X3005327Y955039D02*
G01*
X3010408Y960120D01*
X3110229Y960120D01*
X3519931Y1370076D01*
X3519931Y2400045D01*
X3519931Y2400045D02*
G01*
X3260090Y2659887D01*
X3260090Y2839720D01*
X3275329Y1865121D02*
G01*
X3280409Y1869947D01*
X3370072Y1869947D01*
X3400043Y1899920D01*
X3400043Y2320036D01*
X3130041Y2590037D01*
X2109977Y2590037D01*
X1869947Y2830068D01*
X1869947Y3236721D01*
D16*
X1992497Y1247724D02*
G01*
X1992497Y1392499D01*
X2029993Y1429994D01*
X1927504Y1247724D02*
G01*
X1927504Y1402486D01*
X1889988Y1440002D01*
D12*
X2845308Y344931D02*
G01*
X2850388Y340105D01*
X2940050Y340105D01*
X3649979Y1050036D01*
X3649979Y2459989D01*
X3409950Y2700020D01*
X3409950Y2910078D01*
X3739895Y3240023D01*
X3739895Y3436620D01*
X4729988Y3176778D02*
G01*
X4729988Y3070097D01*
X4629911Y3176778D02*
G01*
X4629911Y3070097D01*
X4700015Y2823210D02*
G01*
X4700015Y2929889D01*
X4599940Y2823210D02*
G01*
X4599940Y2929889D01*
X4400041Y2823210D02*
G01*
X4400041Y2929889D01*
X4299996Y2823283D02*
G01*
X4309991Y2833278D01*
X4309991Y2929994D01*
X4499990Y2823281D02*
G01*
X4499990Y2823283D01*
X4499990Y2929991D01*
X4529980Y3176704D02*
G01*
X4529980Y3069996D01*
X4529988Y3069996D01*
X4539995Y3529990D02*
G01*
X4529980Y3519975D01*
X4529980Y3263267D01*
X4299965Y2590037D02*
G01*
X4299965Y2736595D01*
X4329988Y2499995D02*
G01*
X4399991Y2569997D01*
X4399991Y2736720D01*
X4439991Y2509994D02*
G01*
X4499996Y2569999D01*
X4499996Y2736720D01*
X4619990Y2549994D02*
G01*
X4699995Y2629999D01*
X4699995Y2736720D01*
X4629988Y3510000D02*
G01*
X4629980Y3509992D01*
X4629980Y3263267D01*
X4699990Y3429990D02*
G01*
X4729980Y3400000D01*
X4729980Y3263267D01*
D15*
X5999988Y2969994D02*
G01*
X6189987Y2969994D01*
X6289987Y2869994D01*
X6290056Y2759963D02*
G01*
X6260025Y2789994D01*
X5999988Y2789994D01*
X6290056Y2640076D02*
G01*
X6259974Y2609994D01*
X5999988Y2609994D01*
X6289987Y2529994D02*
G01*
X6189987Y2429995D01*
X5999988Y2429995D01*
X6289987Y2069995D02*
G01*
X6189987Y2169995D01*
X5999988Y2169995D01*
X6290056Y1960118D02*
G01*
X6260177Y1989996D01*
X5999988Y1989996D01*
X6290056Y1839976D02*
G01*
X6260076Y1809996D01*
X5999988Y1809996D01*
X6289987Y1729996D02*
G01*
X6189987Y1629996D01*
X5999988Y1629996D01*
X6289987Y1279997D02*
G01*
X6199987Y1369997D01*
X5999988Y1369997D01*
X6290056Y1160018D02*
G01*
X6260076Y1189997D01*
X5999988Y1189997D01*
X6290056Y1039876D02*
G01*
X6260177Y1009997D01*
X5999988Y1009997D01*
X6289987Y929998D02*
G01*
X6189987Y829998D01*
X5999988Y829998D01*
D10*
X2189995Y4619990D02*
G01*
X5949988Y4619990D01*
X5999988Y4569990D01*
X5999988Y4489991D01*
X6040000Y4449978D01*
X6173495Y4449978D01*
D12*
X5139994Y4480001D02*
G01*
X5189997Y4429998D01*
X5189997Y4223278D01*
X1320037Y3356610D02*
G01*
X1320037Y3180079D01*
X1249934Y3109976D01*
X1160018Y3109976D01*
X1089913Y3039871D01*
X1089913Y1379981D01*
X1940052Y529844D01*
X1940052Y329945D01*
X2150109Y119887D01*
X2919729Y119887D01*
X3789934Y990092D01*
X3789934Y2240026D01*
X3970020Y2420112D01*
X4739893Y2420112D01*
X4860036Y2540000D01*
X4860036Y3709923D01*
X4720081Y3849878D01*
X4539995Y2489987D02*
G01*
X4539995Y2570002D01*
X4599993Y2629997D01*
X4599993Y2736720D01*
D16*
X2885493Y1359992D02*
G01*
X2759989Y1359992D01*
X2759989Y1359992D01*
X2325502Y424990D02*
G01*
X2319985Y430507D01*
X2319985Y529996D01*
X2485491Y1049982D02*
G01*
X2480005Y1055469D01*
X2480005Y1149985D01*
X2755491Y1959990D02*
G01*
X2750007Y1965474D01*
X2750007Y2059990D01*
D12*
X1830070Y2169921D02*
G01*
X1830070Y2089912D01*
X1862581Y2057400D01*
X1862581Y1852168D01*
D17*
G01*
X4299991Y2736722D03*
D18*
G01*
X4299991Y2823277D03*
D17*
G01*
X4399991Y2736722D03*
D18*
G01*
X4399988Y2823277D03*
D17*
G01*
X4499990Y2736722D03*
D18*
G01*
X4499990Y2823277D03*
D17*
G01*
X4599990Y2736722D03*
D18*
G01*
X4599990Y2823277D03*
D17*
G01*
X4529988Y3176701D03*
D18*
G01*
X4529990Y3263276D03*
D17*
G01*
X4629988Y3176701D03*
D18*
G01*
X4629990Y3263276D03*
D17*
G01*
X4729988Y3176701D03*
D18*
G01*
X4729990Y3263276D03*
D19*
G01*
X2057496Y1247739D03*
G01*
X2122495Y1247736D03*
G01*
X2187493Y1247736D03*
G01*
X2252492Y1247736D03*
G01*
X2317490Y1247736D03*
G01*
X2382489Y1247736D03*
G01*
X1992497Y1247736D03*
G01*
X1667504Y1247736D03*
G01*
X1732503Y1247736D03*
G01*
X1797502Y1247736D03*
G01*
X1862500Y1247736D03*
G01*
X1927499Y1247736D03*
G01*
X2122495Y1852256D03*
G01*
X2187493Y1852256D03*
G01*
X2252492Y1852256D03*
G01*
X2317490Y1852256D03*
G01*
X2382489Y1852256D03*
G01*
X2057496Y1852256D03*
G01*
X1667504Y1852256D03*
G01*
X1732503Y1852256D03*
G01*
X1797502Y1852256D03*
G01*
X1862500Y1852256D03*
G01*
X1927499Y1852256D03*
G01*
X1992497Y1852254D03*
D20*
G01*
X5999993Y2969994D03*
G01*
X5799983Y2969994D03*
G01*
X5999993Y829998D03*
G01*
X5799983Y829998D03*
G01*
X5999993Y1009997D03*
G01*
X5799983Y1009997D03*
G01*
X5999993Y1189997D03*
G01*
X5799983Y1189997D03*
G01*
X5999993Y1369997D03*
G01*
X5799983Y1369997D03*
G01*
X5999993Y1629996D03*
G01*
X5799983Y1629996D03*
G01*
X5999993Y1809996D03*
G01*
X5799983Y1809996D03*
G01*
X5999993Y1989996D03*
G01*
X5799983Y1989996D03*
G01*
X5999993Y2169995D03*
G01*
X5799983Y2169995D03*
G01*
X5999993Y2429995D03*
G01*
X5799983Y2429995D03*
G01*
X5999993Y2609994D03*
G01*
X5799983Y2609994D03*
G01*
X5999993Y2789994D03*
G01*
X5799983Y2789994D03*
D21*
G01*
X5999988Y3922497D03*
D22*
G01*
X6159987Y4227499D03*
G01*
X5839984Y4227499D03*
D21*
G01*
X499998Y3897494D03*
D22*
G01*
X659998Y4202498D03*
G01*
X339995Y4202498D03*
D17*
G01*
X4699990Y2736722D03*
D18*
G01*
X4699990Y2823277D03*
D23*
G01*
X2864500Y1959996D03*
G01*
X2755488Y1959996D03*
D24*
G01*
X2423278Y324998D03*
G01*
X2336712Y324998D03*
D25*
G01*
X2336712Y224998D03*
G01*
X2423278Y224998D03*
D26*
G01*
X2614627Y345003D03*
G01*
X2614627Y439999D03*
G01*
X2614627Y534995D03*
D27*
G01*
X2845361Y534995D03*
G01*
X2845361Y345003D03*
D23*
G01*
X2594500Y1049997D03*
G01*
X2485489Y1049997D03*
D24*
G01*
X2583277Y949998D03*
G01*
X2496712Y949998D03*
D25*
G01*
X2496709Y850000D03*
G01*
X2583275Y850000D03*
D26*
G01*
X2774624Y955006D03*
G01*
X2774624Y1050002D03*
G01*
X2774624Y1144998D03*
D27*
G01*
X3005358Y1144998D03*
G01*
X3005358Y955006D03*
D28*
G01*
X1959990Y994511D03*
D29*
G01*
X1959996Y885492D03*
D28*
G01*
X1799996Y994511D03*
D29*
G01*
X1799996Y885492D03*
D30*
G01*
X2550007Y1429994D03*
G01*
X2550007Y1549984D03*
G01*
X2550007Y1669973D03*
G01*
X2159990Y2169972D03*
G01*
X2079980Y2089962D03*
G01*
X1999995Y2169972D03*
G01*
X1919986Y2089988D03*
G01*
X1829993Y2169972D03*
D31*
G01*
X2549994Y4001494D03*
G01*
X2549994Y4348486D03*
G01*
X3549992Y4001494D03*
G01*
X3549992Y4348486D03*
G01*
X4549990Y4001494D03*
G01*
X4549990Y4348486D03*
D32*
G01*
X5826492Y4449991D03*
G01*
X6173483Y4449991D03*
G01*
X326503Y4424989D03*
G01*
X673494Y4424989D03*
D33*
G01*
X6169987Y4679990D03*
G01*
X6169987Y4819990D03*
D34*
G01*
X669998Y4669990D03*
G01*
X529998Y4669990D03*
D23*
G01*
X2434501Y424997D03*
G01*
X2325489Y424997D03*
D17*
G01*
X1869998Y3323285D03*
D18*
G01*
X1869996Y3236710D03*
D17*
G01*
X1869998Y3426713D03*
D18*
G01*
X1869996Y3513275D03*
D17*
G01*
X3059988Y3283280D03*
D18*
G01*
X3059993Y3196710D03*
D17*
G01*
X3059988Y3386709D03*
D18*
G01*
X3059993Y3473276D03*
D24*
G01*
X2853277Y1859996D03*
G01*
X2766711Y1859996D03*
D25*
G01*
X2766711Y1759996D03*
G01*
X2853277Y1759996D03*
D17*
G01*
X3739997Y3523284D03*
D18*
G01*
X3739992Y3436710D03*
D17*
G01*
X3739997Y3626713D03*
D18*
G01*
X3739992Y3713275D03*
D35*
G01*
X1669999Y3930751D03*
D36*
G01*
X1669996Y4249242D03*
D35*
G01*
X1889988Y3930751D03*
D36*
G01*
X1889996Y4249242D03*
D34*
G01*
X2519994Y3049993D03*
G01*
X2379995Y3049993D03*
G01*
X2519994Y3189993D03*
G01*
X2379995Y3189993D03*
D23*
G01*
X1179504Y3949992D03*
G01*
X1070493Y3949992D03*
G01*
X1179504Y3849992D03*
G01*
X1070493Y3849992D03*
G01*
X2994499Y1359997D03*
G01*
X2885488Y1359997D03*
G01*
X2834500Y739998D03*
G01*
X2725488Y739998D03*
G01*
X3264499Y2279995D03*
G01*
X3155487Y2279995D03*
D37*
G01*
X2049995Y3424996D03*
G01*
X2049995Y3614987D03*
G01*
X2249995Y3519991D03*
G01*
X3239993Y3384997D03*
G01*
X3239993Y3574987D03*
G01*
X3439993Y3479991D03*
G01*
X3924993Y3629995D03*
G01*
X3924993Y3819986D03*
G01*
X4124993Y3724990D03*
D26*
G01*
X3044626Y1865000D03*
G01*
X3044626Y1959996D03*
G01*
X3044626Y2054992D03*
D27*
G01*
X3275360Y2054992D03*
G01*
X3275360Y1865000D03*
D38*
G01*
X914366Y4120004D03*
G01*
X914366Y4420003D03*
G36*
X1278318Y4364974D02*
G01*
X1092898Y4364974D01*
X1088445Y4364868D01*
X1084003Y4364555D01*
X1079578Y4364034D01*
X1075184Y4363308D01*
X1070828Y4362373D01*
X1066523Y4361238D01*
X1062273Y4359902D01*
X1058092Y4358368D01*
X1053988Y4356638D01*
X1049967Y4354720D01*
X1046043Y4352615D01*
X1042220Y4350326D01*
X1038509Y4347862D01*
X1034917Y4345228D01*
X1031455Y4342429D01*
X1028125Y4339468D01*
X1024940Y4336356D01*
X1021902Y4333097D01*
X1019022Y4329701D01*
X1016304Y4326173D01*
X1013754Y4322521D01*
X1011379Y4318754D01*
X1009182Y4314878D01*
X1007168Y4310905D01*
X1005344Y4302975D01*
X835611Y4302975D01*
X835611Y4236976D01*
X1005344Y4236976D01*
X1007168Y4229041D01*
X1009182Y4225069D01*
X1011379Y4221192D01*
X1013754Y4217426D01*
X1016304Y4213773D01*
X1019022Y4210245D01*
X1021902Y4206849D01*
X1024940Y4203590D01*
X1028125Y4200479D01*
X1031455Y4197517D01*
X1034917Y4194718D01*
X1038509Y4192084D01*
X1042220Y4189620D01*
X1046043Y4187332D01*
X1049967Y4185226D01*
X1053988Y4183308D01*
X1058092Y4181579D01*
X1062273Y4180044D01*
X1066523Y4178708D01*
X1070828Y4177573D01*
X1075184Y4176638D01*
X1079578Y4175912D01*
X1084003Y4175391D01*
X1088445Y4175079D01*
X1092898Y4174972D01*
X1278318Y4174972D01*
X1282771Y4175079D01*
X1287213Y4175391D01*
X1291638Y4175912D01*
X1296032Y4176638D01*
X1300388Y4177573D01*
X1304693Y4178708D01*
X1308943Y4180044D01*
X1313124Y4181579D01*
X1317228Y4183308D01*
X1321249Y4185226D01*
X1325173Y4187332D01*
X1328996Y4189620D01*
X1332707Y4192084D01*
X1336299Y4194718D01*
X1339761Y4197517D01*
X1343091Y4200479D01*
X1346276Y4203590D01*
X1349314Y4206849D01*
X1352194Y4210245D01*
X1354912Y4213773D01*
X1357462Y4217426D01*
X1359837Y4221192D01*
X1362034Y4225069D01*
X1364048Y4229041D01*
X1365872Y4233105D01*
X1367505Y4237248D01*
X1368940Y4241464D01*
X1370177Y4245744D01*
X1371211Y4250077D01*
X1372041Y4254451D01*
X1372666Y4258863D01*
X1373083Y4263298D01*
X1373291Y4267746D01*
X1373291Y4272201D01*
X1373083Y4276648D01*
X1372666Y4281083D01*
X1372041Y4285495D01*
X1371211Y4289869D01*
X1370177Y4294202D01*
X1368940Y4298482D01*
X1367505Y4302699D01*
X1365872Y4306841D01*
X1364048Y4310905D01*
X1362034Y4314878D01*
X1359837Y4318754D01*
X1357462Y4322521D01*
X1354912Y4326173D01*
X1352194Y4329701D01*
X1349314Y4333097D01*
X1346276Y4336356D01*
X1343091Y4339468D01*
X1339761Y4342429D01*
X1336299Y4345228D01*
X1332707Y4347862D01*
X1328996Y4350326D01*
X1325173Y4352615D01*
X1321249Y4354720D01*
X1317228Y4356638D01*
X1313124Y4358368D01*
X1308943Y4359902D01*
X1304693Y4361238D01*
X1300388Y4362373D01*
X1296032Y4363308D01*
X1291638Y4364034D01*
X1287213Y4364555D01*
X1282771Y4364868D01*
X1278318Y4364974D01*
G37*
D17*
G01*
X5189981Y4136720D03*
D18*
G01*
X5189989Y4223274D03*
D17*
G01*
X5289981Y4136720D03*
D18*
G01*
X5289989Y4223274D03*
D17*
G01*
X1319987Y3443274D03*
D18*
G01*
X1319997Y3356710D03*
D17*
G01*
X1219987Y3443274D03*
D18*
G01*
X1219997Y3356710D03*
D37*
G01*
X5469991Y4134998D03*
G01*
X5469991Y4324988D03*
G01*
X5669991Y4229992D03*
G01*
X1049997Y3444989D03*
G01*
X1049997Y3254998D03*
G01*
X849998Y3349994D03*
D39*
G01*
X2874992Y4849990D03*
G01*
X3074997Y4849990D03*
D40*
G01*
X5663006Y5122976D03*
G01*
X5663006Y5376976D03*
G01*
X5409006Y5122976D03*
G01*
X5409006Y5376976D03*
G01*
X5155006Y5122976D03*
G01*
X5155006Y5376976D03*
G01*
X4901006Y5122976D03*
G01*
X4901006Y5376976D03*
G01*
X4647006Y5122976D03*
G01*
X4647006Y5376976D03*
G01*
X4393006Y5122976D03*
G01*
X4393006Y5376976D03*
G01*
X4139006Y5122976D03*
G01*
X4139006Y5376976D03*
G01*
X3885006Y5122976D03*
G01*
X3885006Y5376976D03*
G01*
X3631006Y5122976D03*
G01*
X3631006Y5376976D03*
G01*
X3377006Y5122976D03*
G01*
X3377006Y5376976D03*
G01*
X3123006Y5122976D03*
G01*
X3123006Y5376976D03*
G01*
X2869006Y5122976D03*
G01*
X2869006Y5376976D03*
G01*
X2615006Y5122976D03*
G01*
X2615006Y5376976D03*
G01*
X2361006Y5122976D03*
G01*
X2361006Y5376976D03*
G01*
X2107006Y5122976D03*
G01*
X2107006Y5376976D03*
G01*
X1853006Y5122976D03*
G01*
X1853006Y5376976D03*
G01*
X1599006Y5122976D03*
G01*
X1599006Y5376976D03*
G01*
X1345006Y5122976D03*
G01*
X1345006Y5376976D03*
G01*
X1091006Y5122976D03*
G01*
X1091006Y5376976D03*
G01*
X837006Y5122976D03*
D41*
G01*
X836993Y5376989D03*
D40*
G01*
X724992Y2999994D03*
G01*
X275005Y2999994D03*
G01*
X724992Y2599994D03*
G01*
X275005Y2599994D03*
D42*
G01*
X2250008Y4349978D03*
G01*
X2250008Y3949979D03*
G01*
X3250006Y4349978D03*
G01*
X3250006Y3949979D03*
G01*
X4250004Y4349978D03*
G01*
X4250004Y3949979D03*
G01*
X2318994Y2799969D03*
G01*
X2572994Y2799969D03*
G01*
X2826994Y2799969D03*
G01*
X3080994Y2799969D03*
D43*
G01*
X459994Y4829987D03*
G01*
X350012Y4829987D03*
G01*
X3239998Y4919979D03*
G01*
X3239998Y4789982D03*
G01*
X910005Y4009999D03*
G01*
X910005Y3899992D03*
G01*
X910005Y3789984D03*
G01*
X1640001Y3769995D03*
G01*
X1780006Y3769995D03*
G01*
X1919986Y3769995D03*
G01*
X389991Y4669993D03*
G01*
X1040003Y4589983D03*
G01*
X914400Y4590034D03*
G01*
X2069998Y4619980D03*
G01*
X2189988Y4619980D03*
G01*
X1219987Y3239998D03*
G01*
X6029985Y4819980D03*
G01*
X5289981Y4339996D03*
G01*
X1869998Y3629990D03*
G01*
X3059988Y3589985D03*
G01*
X3739997Y3829989D03*
D44*
G01*
X4999990Y4799990D03*
G01*
X5399989Y4799990D03*
G01*
X5629986Y4909997D03*
G01*
X5139994Y4480001D03*
G01*
X1180007Y2999994D03*
G01*
X870000Y2499995D03*
G01*
X329945Y1739900D03*
G01*
X329945Y1590039D03*
G01*
X889990Y1210005D03*
G01*
X999997Y989990D03*
G01*
X329996Y1129995D03*
G01*
X889990Y2089988D03*
G01*
X419988Y2149982D03*
G01*
X729995Y929995D03*
G01*
X1629994Y1999995D03*
G01*
X1650009Y2099995D03*
G01*
X1759991Y2099995D03*
G01*
X1620012Y1599945D03*
G01*
X1720087Y1599945D03*
G01*
X1819910Y1599945D03*
G01*
X1780006Y1449984D03*
G01*
X1459992Y1449984D03*
G01*
X1798929Y1109802D03*
G01*
X1799996Y770001D03*
G01*
X1959990Y770001D03*
G01*
X1889988Y1440002D03*
G01*
X1989988Y1710004D03*
G01*
X1669999Y999997D03*
G01*
X1599996Y1070000D03*
G01*
X3159988Y1959990D03*
G01*
X3039999Y2280005D03*
G01*
X2889986Y1050010D03*
G01*
X2759989Y1359992D03*
G01*
X3264509Y2169337D03*
G01*
X2994507Y1252448D03*
G01*
X2729991Y439928D03*
G01*
X2319985Y529996D03*
G01*
X2610002Y740003D03*
G01*
X2834513Y638759D03*
G01*
X2919984Y2099995D03*
G01*
X2650007Y1180007D03*
G01*
X2489987Y570001D03*
G01*
X2029993Y1429994D03*
G01*
X4729988Y3070097D03*
G01*
X4629911Y3070097D03*
G01*
X4529988Y3069996D03*
G01*
X4700015Y2929889D03*
G01*
X4599940Y2929889D03*
G01*
X4499990Y2929991D03*
G01*
X4400041Y2929889D03*
G01*
X4309999Y2929991D03*
G01*
X4539995Y3529990D03*
G01*
X4629988Y3510000D03*
G01*
X4699990Y3429990D03*
G01*
X4619980Y2549982D03*
G01*
X4539995Y2489987D03*
G01*
X4439996Y2510002D03*
G01*
X4329988Y2499995D03*
G01*
X4299991Y2589987D03*
G01*
X6289979Y2869996D03*
G01*
X6290056Y2759963D03*
G01*
X6289979Y929995D03*
G01*
X6290056Y1039876D03*
G01*
X6290056Y1160018D03*
G01*
X6289979Y1280007D03*
G01*
X6289979Y1729994D03*
G01*
X6290056Y1839976D03*
G01*
X6290056Y1960118D03*
G01*
X6289979Y2069998D03*
G01*
X6290056Y2640076D03*
G01*
X6289979Y2529992D03*
D43*
G01*
X5319979Y2759989D03*
G01*
X5319979Y2649981D03*
G01*
X4269993Y3289985D03*
G01*
X4269993Y3410000D03*
G01*
X3919981Y3410000D03*
G01*
X3919981Y3289985D03*
D44*
G01*
X3589985Y3489985D03*
G01*
X3629990Y3399993D03*
G01*
X1059992Y3649979D03*
G01*
X1359992Y3949979D03*
G01*
X4719980Y3849979D03*
G01*
X2480005Y1149985D03*
G01*
X2750007Y2059990D03*
M02*
